<svg width="238" height="238" viewBox="0 0 238 238" fill="none" xmlns="http://www.w3.org/2000/svg">
<path opacity="0.1" d="M118.999 205.606C166.831 205.606 205.606 166.831 205.606 118.999C205.606 71.1677 166.831 32.3926 118.999 32.3926C71.1677 32.3926 32.3926 71.1677 32.3926 118.999C32.3926 166.831 71.1677 205.606 118.999 205.606Z" fill="#13B5EA"/>
<path d="M112.663 186.016L107.613 185.459C107.075 185.397 106.647 184.964 106.599 184.426L106.018 177.981C106.009 177.862 105.909 177.771 105.79 177.771C105.666 177.771 105.566 177.862 105.557 177.981L104.976 184.426C104.928 184.964 104.5 185.397 103.962 185.459L98.9165 186.016C98.7975 186.03 98.707 186.13 98.707 186.244C98.707 186.363 98.7975 186.463 98.9165 186.478L103.962 187.034C104.5 187.096 104.928 187.529 104.976 188.067L105.557 194.512C105.566 194.631 105.666 194.722 105.79 194.722C105.909 194.722 106.009 194.631 106.018 194.512L106.599 188.067C106.647 187.529 107.075 187.096 107.613 187.034L112.663 186.478C112.778 186.463 112.868 186.363 112.868 186.244C112.868 186.13 112.778 186.03 112.663 186.016ZM107.561 186.573C106.804 186.658 106.204 187.268 106.137 188.025L105.79 191.899L105.438 188.025C105.371 187.268 104.771 186.658 104.014 186.573L101.058 186.244L104.014 185.921C104.771 185.835 105.371 185.226 105.438 184.464L105.79 180.594L106.137 184.464C106.204 185.226 106.804 185.835 107.561 185.921L110.517 186.244L107.561 186.573Z" fill="#13B5EA"/>
<path d="M130.18 59.3765L125.276 58.8357C124.754 58.7758 124.338 58.355 124.291 57.8328L123.727 51.5743C123.718 51.4587 123.621 51.3711 123.505 51.3711C123.385 51.3711 123.288 51.4587 123.279 51.5743L122.715 57.8328C122.668 58.355 122.252 58.7758 121.73 58.8357L116.83 59.3765C116.715 59.3903 116.627 59.4874 116.627 59.5983C116.627 59.7139 116.715 59.8111 116.83 59.8249L121.73 60.3656C122.252 60.4256 122.668 60.8463 122.715 61.3685L123.279 67.627C123.288 67.7426 123.385 67.8302 123.505 67.8302C123.621 67.8302 123.718 67.7426 123.727 67.627L124.291 61.3685C124.337 60.8463 124.753 60.4256 125.276 60.3656L130.18 59.8249C130.291 59.8111 130.379 59.7139 130.379 59.5983C130.379 59.4874 130.291 59.3903 130.18 59.3765ZM125.225 59.9172C124.49 60.0005 123.907 60.5922 123.843 61.3271L123.505 65.0899L123.163 61.3271C123.098 60.5922 122.516 60.0005 121.781 59.9172L118.91 59.5983L121.781 59.2841C122.516 59.2008 123.098 58.6091 123.163 57.8694L123.505 54.1114L123.843 57.8694C123.907 58.6091 124.49 59.2008 125.225 59.2841L128.095 59.5983L125.225 59.9172Z" fill="#13B5EA"/>
<path d="M190.98 144.138L185.48 143.532C184.894 143.464 184.427 142.992 184.375 142.406L183.743 135.386C183.732 135.257 183.623 135.158 183.494 135.158C183.359 135.158 183.25 135.257 183.24 135.386L182.607 142.406C182.555 142.992 182.089 143.464 181.503 143.532L176.007 144.138C175.878 144.154 175.779 144.262 175.779 144.387C175.779 144.516 175.878 144.625 176.007 144.641L181.503 145.248C182.089 145.315 182.555 145.787 182.607 146.372L183.24 153.392C183.25 153.522 183.359 153.62 183.494 153.62C183.623 153.62 183.732 153.522 183.743 153.392L184.375 146.372C184.427 145.786 184.894 145.315 185.48 145.248L190.98 144.641C191.105 144.625 191.203 144.517 191.203 144.387C191.204 144.263 191.105 144.154 190.98 144.138ZM185.423 144.744C184.599 144.838 183.946 145.501 183.873 146.326L183.494 150.546L183.111 146.326C183.038 145.501 182.385 144.838 181.56 144.744L178.341 144.387L181.56 144.034C182.385 143.941 183.038 143.277 183.111 142.448L183.494 138.233L183.873 142.448C183.946 143.277 184.599 143.941 185.423 144.034L188.643 144.387L185.423 144.744Z" fill="#13B5EA"/>
<path d="M67.7415 97.342L62.6911 96.7851C62.1532 96.7232 61.7248 96.29 61.6772 95.7521L61.0965 89.3071C61.087 89.1881 60.987 89.0977 60.868 89.0977C60.7443 89.0977 60.6443 89.1881 60.6348 89.3071L60.0541 95.7521C60.0065 96.29 59.5781 96.7232 59.0402 96.7851L53.9946 97.342C53.8756 97.3563 53.7852 97.4562 53.7852 97.5705C53.7852 97.6895 53.8756 97.7894 53.9946 97.8037L59.0402 98.3606C59.5781 98.4225 60.0065 98.8557 60.0541 99.3935L60.6348 105.839C60.6443 105.958 60.7443 106.048 60.868 106.048C60.987 106.048 61.087 105.958 61.0965 105.839L61.6772 99.3935C61.7248 98.8557 62.1532 98.4225 62.6911 98.3606L67.7415 97.8037C67.8557 97.7894 67.9462 97.6895 67.9462 97.5705C67.9462 97.4562 67.8557 97.3563 67.7415 97.342ZM62.6388 97.8989C61.8819 97.9846 61.2822 98.5939 61.2155 99.3507L60.868 103.225L60.5158 99.3507C60.4492 98.5939 59.8494 97.9846 59.0926 97.8989L56.1366 97.5705L59.0926 97.2468C59.8494 97.1611 60.4492 96.5518 60.5158 95.7902L60.868 91.9203L61.2155 95.7902C61.2822 96.5518 61.8819 97.1611 62.6388 97.2468L65.5947 97.5705L62.6388 97.8989Z" fill="#13B5EA"/>
<path d="M174.673 165.428L171.584 165.086C171.289 165.052 171.051 164.814 171.022 164.514L170.67 160.573C170.661 160.464 170.57 160.383 170.461 160.383C170.351 160.383 170.261 160.464 170.251 160.573L169.899 164.514C169.87 164.814 169.633 165.052 169.337 165.086L166.248 165.428C166.143 165.443 166.062 165.528 166.062 165.638C166.062 165.743 166.143 165.833 166.248 165.843L169.337 166.185C169.633 166.219 169.87 166.461 169.899 166.756L170.251 170.698C170.261 170.807 170.351 170.888 170.461 170.888C170.57 170.888 170.661 170.807 170.67 170.698L171.022 166.756C171.051 166.461 171.289 166.219 171.584 166.185L174.673 165.843C174.783 165.833 174.859 165.743 174.859 165.638C174.859 165.529 174.783 165.443 174.673 165.428ZM171.537 165.771C171.047 165.823 170.652 166.223 170.609 166.718L170.461 168.351L170.314 166.718C170.271 166.223 169.876 165.823 169.385 165.771L168.172 165.638L169.385 165.505C169.876 165.447 170.271 165.048 170.314 164.553L170.461 162.92L170.609 164.553C170.652 165.048 171.047 165.447 171.537 165.505L172.751 165.638L171.537 165.771Z" fill="#13B5EA"/>
<path d="M79.7788 73.2292L76.6896 72.8865C76.3944 72.8532 76.1564 72.6152 76.1279 72.3153L75.7756 68.374C75.7661 68.2645 75.6757 68.1836 75.5662 68.1836C75.4567 68.1836 75.3663 68.2645 75.3568 68.374L75.0045 72.3153C74.976 72.6152 74.738 72.8532 74.4428 72.8865L71.3536 73.2292C71.2489 73.2435 71.168 73.3292 71.168 73.4386C71.168 73.5434 71.2489 73.6338 71.3536 73.6433L74.4428 73.986C74.738 74.0194 74.976 74.2621 75.0045 74.5572L75.3568 78.4985C75.3663 78.608 75.4567 78.6889 75.5662 78.6889C75.6757 78.6889 75.7661 78.608 75.7756 78.4985L76.1279 74.5572C76.1564 74.2621 76.3944 74.0194 76.6896 73.986L79.7788 73.6433C79.8883 73.6338 79.9644 73.5434 79.9644 73.4386C79.9644 73.3292 79.8883 73.2435 79.7788 73.2292ZM76.642 73.5719C76.1517 73.6243 75.7566 74.0241 75.7138 74.5192L75.5662 76.1518L75.4186 74.5192C75.3758 74.0241 74.9807 73.6243 74.4904 73.5719L73.2766 73.4386L74.4904 73.3054C74.9807 73.2482 75.3758 72.8484 75.4186 72.3534L75.5662 70.7207L75.7138 72.3534C75.7566 72.8484 76.1517 73.2482 76.642 73.3054L77.8558 73.4386L76.642 73.5719Z" fill="#13B5EA"/>
<g opacity="0.7">
<path d="M112.663 186.016L107.613 185.459C107.075 185.397 106.647 184.964 106.599 184.426L106.018 177.981C106.009 177.862 105.909 177.771 105.79 177.771C105.666 177.771 105.566 177.862 105.557 177.981L104.976 184.426C104.928 184.964 104.5 185.397 103.962 185.459L98.9165 186.016C98.7975 186.03 98.707 186.13 98.707 186.244C98.707 186.363 98.7975 186.463 98.9165 186.478L103.962 187.034C104.5 187.096 104.928 187.529 104.976 188.067L105.557 194.512C105.566 194.631 105.666 194.722 105.79 194.722C105.909 194.722 106.009 194.631 106.018 194.512L106.599 188.067C106.647 187.529 107.075 187.096 107.613 187.034L112.663 186.478C112.778 186.463 112.868 186.363 112.868 186.244C112.868 186.13 112.778 186.03 112.663 186.016ZM107.561 186.573C106.804 186.658 106.204 187.268 106.137 188.025L105.79 191.899L105.438 188.025C105.371 187.268 104.771 186.658 104.014 186.573L101.058 186.244L104.014 185.921C104.771 185.835 105.371 185.226 105.438 184.464L105.79 180.594L106.137 184.464C106.204 185.226 106.804 185.835 107.561 185.921L110.517 186.244L107.561 186.573Z" fill="white"/>
<path d="M130.18 59.3765L125.276 58.8357C124.754 58.7758 124.338 58.355 124.291 57.8328L123.727 51.5743C123.718 51.4587 123.621 51.3711 123.505 51.3711C123.385 51.3711 123.288 51.4587 123.279 51.5743L122.715 57.8328C122.668 58.355 122.252 58.7758 121.73 58.8357L116.83 59.3765C116.715 59.3903 116.627 59.4874 116.627 59.5983C116.627 59.7139 116.715 59.8111 116.83 59.8249L121.73 60.3656C122.252 60.4256 122.668 60.8463 122.715 61.3685L123.279 67.627C123.288 67.7426 123.385 67.8302 123.505 67.8302C123.621 67.8302 123.718 67.7426 123.727 67.627L124.291 61.3685C124.337 60.8463 124.753 60.4256 125.276 60.3656L130.18 59.8249C130.291 59.8111 130.379 59.7139 130.379 59.5983C130.379 59.4874 130.291 59.3903 130.18 59.3765ZM125.225 59.9172C124.49 60.0005 123.907 60.5922 123.843 61.3271L123.505 65.0899L123.163 61.3271C123.098 60.5922 122.516 60.0005 121.781 59.9172L118.91 59.5983L121.781 59.2841C122.516 59.2008 123.098 58.6091 123.163 57.8694L123.505 54.1114L123.843 57.8694C123.907 58.6091 124.49 59.2008 125.225 59.2841L128.095 59.5983L125.225 59.9172Z" fill="white"/>
<path d="M190.98 144.138L185.48 143.532C184.894 143.464 184.427 142.992 184.375 142.406L183.743 135.386C183.732 135.257 183.623 135.158 183.494 135.158C183.359 135.158 183.25 135.257 183.24 135.386L182.607 142.406C182.555 142.992 182.089 143.464 181.503 143.532L176.007 144.138C175.878 144.154 175.779 144.262 175.779 144.387C175.779 144.516 175.878 144.625 176.007 144.641L181.503 145.248C182.089 145.315 182.555 145.787 182.607 146.372L183.24 153.392C183.25 153.522 183.359 153.62 183.494 153.62C183.623 153.62 183.732 153.522 183.743 153.392L184.375 146.372C184.427 145.786 184.894 145.315 185.48 145.248L190.98 144.641C191.105 144.625 191.203 144.517 191.203 144.387C191.204 144.263 191.105 144.154 190.98 144.138ZM185.423 144.744C184.599 144.838 183.946 145.501 183.873 146.326L183.494 150.546L183.111 146.326C183.038 145.501 182.385 144.838 181.56 144.744L178.341 144.387L181.56 144.034C182.385 143.941 183.038 143.277 183.111 142.448L183.494 138.233L183.873 142.448C183.946 143.277 184.599 143.941 185.423 144.034L188.643 144.387L185.423 144.744Z" fill="white"/>
<path d="M67.7415 97.342L62.6911 96.7851C62.1532 96.7232 61.7248 96.29 61.6772 95.7521L61.0965 89.3071C61.087 89.1881 60.987 89.0977 60.868 89.0977C60.7443 89.0977 60.6443 89.1881 60.6348 89.3071L60.0541 95.7521C60.0065 96.29 59.5781 96.7232 59.0402 96.7851L53.9946 97.342C53.8756 97.3563 53.7852 97.4562 53.7852 97.5705C53.7852 97.6895 53.8756 97.7894 53.9946 97.8037L59.0402 98.3606C59.5781 98.4225 60.0065 98.8557 60.0541 99.3935L60.6348 105.839C60.6443 105.958 60.7443 106.048 60.868 106.048C60.987 106.048 61.087 105.958 61.0965 105.839L61.6772 99.3935C61.7248 98.8557 62.1532 98.4225 62.6911 98.3606L67.7415 97.8037C67.8557 97.7894 67.9462 97.6895 67.9462 97.5705C67.9462 97.4562 67.8557 97.3563 67.7415 97.342ZM62.6388 97.8989C61.8819 97.9846 61.2822 98.5939 61.2155 99.3507L60.868 103.225L60.5158 99.3507C60.4492 98.5939 59.8494 97.9846 59.0926 97.8989L56.1366 97.5705L59.0926 97.2468C59.8494 97.1611 60.4492 96.5518 60.5158 95.7902L60.868 91.9203L61.2155 95.7902C61.2822 96.5518 61.8819 97.1611 62.6388 97.2468L65.5947 97.5705L62.6388 97.8989Z" fill="white"/>
<path d="M174.673 165.428L171.584 165.086C171.289 165.052 171.051 164.814 171.022 164.514L170.67 160.573C170.661 160.464 170.57 160.383 170.461 160.383C170.351 160.383 170.261 160.464 170.251 160.573L169.899 164.514C169.87 164.814 169.633 165.052 169.337 165.086L166.248 165.428C166.143 165.443 166.062 165.528 166.062 165.638C166.062 165.743 166.143 165.833 166.248 165.843L169.337 166.185C169.633 166.219 169.87 166.461 169.899 166.756L170.251 170.698C170.261 170.807 170.351 170.888 170.461 170.888C170.57 170.888 170.661 170.807 170.67 170.698L171.022 166.756C171.051 166.461 171.289 166.219 171.584 166.185L174.673 165.843C174.783 165.833 174.859 165.743 174.859 165.638C174.859 165.529 174.783 165.443 174.673 165.428ZM171.537 165.771C171.047 165.823 170.652 166.223 170.609 166.718L170.461 168.351L170.314 166.718C170.271 166.223 169.876 165.823 169.385 165.771L168.172 165.638L169.385 165.505C169.876 165.447 170.271 165.048 170.314 164.553L170.461 162.92L170.609 164.553C170.652 165.048 171.047 165.447 171.537 165.505L172.751 165.638L171.537 165.771Z" fill="white"/>
<path d="M79.7788 73.2292L76.6896 72.8865C76.3944 72.8532 76.1564 72.6152 76.1279 72.3153L75.7756 68.374C75.7661 68.2645 75.6757 68.1836 75.5662 68.1836C75.4567 68.1836 75.3663 68.2645 75.3568 68.374L75.0045 72.3153C74.976 72.6152 74.738 72.8532 74.4428 72.8865L71.3536 73.2292C71.2489 73.2435 71.168 73.3292 71.168 73.4386C71.168 73.5434 71.2489 73.6338 71.3536 73.6433L74.4428 73.986C74.738 74.0194 74.976 74.2621 75.0045 74.5572L75.3568 78.4985C75.3663 78.608 75.4567 78.6889 75.5662 78.6889C75.6757 78.6889 75.7661 78.608 75.7756 78.4985L76.1279 74.5572C76.1564 74.2621 76.3944 74.0194 76.6896 73.986L79.7788 73.6433C79.8883 73.6338 79.9644 73.5434 79.9644 73.4386C79.9644 73.3292 79.8883 73.2435 79.7788 73.2292ZM76.642 73.5719C76.1517 73.6243 75.7566 74.0241 75.7138 74.5192L75.5662 76.1518L75.4186 74.5192C75.3758 74.0241 74.9807 73.6243 74.4904 73.5719L73.2766 73.4386L74.4904 73.3054C74.9807 73.2482 75.3758 72.8484 75.4186 72.3534L75.5662 70.7207L75.7138 72.3534C75.7566 72.8484 76.1517 73.2482 76.642 73.3054L77.8558 73.4386L76.642 73.5719Z" fill="white"/>
</g>
<path d="M118.999 24.365C118.605 24.365 118.285 24.0456 118.285 23.651V11.9367C118.285 11.5421 118.605 11.2227 118.999 11.2227C119.394 11.2227 119.713 11.5421 119.713 11.9367V23.651C119.713 24.0451 119.394 24.365 118.999 24.365Z" fill="#13B5EA"/>
<path d="M166.675 37.1401C166.553 37.1401 166.43 37.1092 166.318 37.0439C165.976 36.8469 165.86 36.4099 166.057 36.0686L171.914 25.9236C172.111 25.5814 172.549 25.4652 172.89 25.6623C173.231 25.8594 173.348 26.2963 173.151 26.6376L167.293 36.7826C167.162 37.012 166.921 37.1401 166.675 37.1401Z" fill="#13B5EA"/>
<path d="M201.576 72.0393C201.329 72.0393 201.089 71.9113 200.957 71.6823C200.76 71.341 200.877 70.904 201.218 70.707L211.363 64.8498C211.705 64.6527 212.142 64.7689 212.339 65.1111C212.536 65.4524 212.419 65.8894 212.077 66.0864L201.932 71.9436C201.82 72.0084 201.697 72.0393 201.576 72.0393Z" fill="#13B5EA"/>
<path d="M226.063 119.713H214.349C213.955 119.713 213.635 119.394 213.635 118.999C213.635 118.605 213.955 118.285 214.349 118.285H226.063C226.457 118.285 226.777 118.605 226.777 118.999C226.777 119.394 226.457 119.713 226.063 119.713Z" fill="#13B5EA"/>
<path d="M211.72 173.247C211.599 173.247 211.476 173.216 211.363 173.151L201.218 167.293C200.877 167.096 200.76 166.659 200.957 166.318C201.154 165.976 201.592 165.86 201.932 166.057L212.077 171.914C212.419 172.111 212.536 172.548 212.339 172.889C212.206 173.118 211.967 173.247 211.72 173.247Z" fill="#13B5EA"/>
<path d="M172.533 212.433C172.287 212.433 172.047 212.305 171.914 212.076L166.057 201.931C165.86 201.589 165.976 201.152 166.318 200.955C166.659 200.758 167.096 200.874 167.293 201.217L173.151 211.362C173.348 211.703 173.231 212.14 172.89 212.337C172.777 212.402 172.655 212.433 172.533 212.433Z" fill="#13B5EA"/>
<path d="M118.999 226.777C118.605 226.777 118.285 226.458 118.285 226.063V214.349C118.285 213.954 118.605 213.635 118.999 213.635C119.394 213.635 119.713 213.954 119.713 214.349V226.063C119.713 226.458 119.394 226.777 118.999 226.777Z" fill="#13B5EA"/>
<path d="M65.467 212.433C65.3461 212.433 65.2233 212.402 65.1109 212.337C64.7696 212.14 64.6525 211.703 64.8496 211.362L70.7068 201.217C70.9043 200.875 71.3408 200.758 71.6821 200.955C72.0234 201.152 72.1405 201.589 71.9434 201.931L66.0862 212.076C65.9539 212.305 65.714 212.433 65.467 212.433Z" fill="#13B5EA"/>
<path d="M26.2811 173.247C26.0341 173.247 25.7946 173.119 25.6623 172.889C25.4648 172.548 25.5823 172.111 25.9236 171.914L36.0686 166.057C36.4109 165.86 36.8469 165.977 37.0439 166.318C37.241 166.659 37.1239 167.096 36.7826 167.293L26.6376 173.15C26.5253 173.216 26.4025 173.247 26.2811 173.247Z" fill="#13B5EA"/>
<path d="M23.651 119.713H11.9367C11.5421 119.713 11.2227 119.394 11.2227 118.999C11.2227 118.605 11.5421 118.285 11.9367 118.285H23.651C24.0456 118.285 24.365 118.605 24.365 118.999C24.365 119.394 24.0451 119.713 23.651 119.713Z" fill="#13B5EA"/>
<path d="M36.4249 72.0398C36.304 72.0398 36.1812 72.0088 36.0684 71.9436L25.9234 66.0865C25.5821 65.8894 25.465 65.4529 25.6621 65.1111C25.8596 64.7698 26.2961 64.6523 26.6374 64.8498L36.7824 70.707C37.1237 70.9041 37.2408 71.341 37.0437 71.6823C36.9114 71.9113 36.6715 72.0398 36.4249 72.0398Z" fill="#13B5EA"/>
<path d="M71.3258 37.1397C71.0792 37.1397 70.8393 37.0117 70.707 36.7823L64.8498 26.6377C64.6523 26.2964 64.7698 25.8595 65.1111 25.6624C65.4534 25.4649 65.8894 25.582 66.0865 25.9237L71.9436 36.0687C72.1407 36.41 72.0236 36.847 71.6823 37.044C71.5695 37.1088 71.4467 37.1397 71.3258 37.1397Z" fill="#13B5EA"/>
<path d="M170.106 66.7253L164.168 56.3495L186.444 43.4147C186.451 43.4109 186.458 43.4066 186.465 43.4028L186.49 43.3885L186.49 43.3894C190.224 41.2541 195.372 41.5725 201.056 44.8546C212.461 51.4396 221.707 67.4536 221.707 80.6231C221.707 87.2214 219.385 91.8529 215.635 94.0049L215.635 94.0059L193.178 107.044L187.077 96.384C178.336 89.6443 171.455 77.6433 170.106 66.7253Z" fill="#455A64"/>
<path d="M178.633 57.873C190.038 64.458 199.284 80.4716 199.284 93.6416C199.284 106.811 190.038 112.149 178.633 105.564C167.228 98.9794 157.982 82.9654 157.982 69.7959C157.982 56.6264 167.228 51.2885 178.633 57.873Z" fill="#263238"/>
<path d="M202.66 91.7575C202.66 93.8043 203.738 94.8415 205.067 94.0737C206.397 93.3059 207.474 91.0244 207.474 88.9776C207.474 86.9308 206.397 85.8936 205.067 86.6614C203.738 87.4292 202.66 89.7107 202.66 91.7575Z" fill="#263238"/>
<path d="M212.336 86.8532C212.336 88.9 213.414 89.9372 214.743 89.1694C216.073 88.4016 217.15 86.1201 217.15 84.0733C217.15 82.0265 216.073 80.9893 214.743 81.7571C213.414 82.5249 212.336 84.8064 212.336 86.8532Z" fill="#263238"/>
<path d="M203.443 91.9723C203.443 94.0191 204.521 95.0563 205.85 94.2885C207.18 93.5212 208.258 91.2393 208.258 89.1925C208.258 87.1457 207.18 86.1085 205.85 86.8762C204.521 87.644 203.443 89.9255 203.443 91.9723Z" fill="#13B5EA"/>
<path d="M213.119 87.068C213.119 89.1148 214.197 90.152 215.526 89.3842C216.856 88.6164 217.933 86.335 217.933 84.2882C217.933 82.2414 216.856 81.2042 215.526 81.9719C214.197 82.7393 213.119 85.0207 213.119 87.068Z" fill="#13B5EA"/>
<path d="M165.735 66.3444C176.542 72.5843 185.304 87.7596 185.304 100.239C185.304 112.719 176.542 117.777 165.735 111.537C154.927 105.297 146.166 90.122 146.166 77.6422C146.166 65.1629 154.927 60.105 165.735 66.3444Z" fill="#E0E0E0"/>
<path d="M51.377 128.32C64.4427 121.898 79.4543 112.939 85.3891 109.646C92.6114 105.639 100.932 98.6156 105.325 97.6836L115.631 116.158L154.108 126.627L95.7416 156.538L92.352 158.911C85.0544 164.036 79.3786 168.563 71.8145 174.629L51.377 128.32Z" fill="#FFBDA7"/>
<path d="M98.4453 135.746C104.973 138.489 109.323 135.622 109.323 135.622C109.323 135.622 106.994 145.147 100.034 152.383C98.1245 154.368 98.9289 154.559 101.098 153.794L122.132 143.015L126.523 123.065L115.632 116.158C115.492 117.079 114.054 118.682 114.054 118.682C113.117 124.889 110.811 130.984 110.811 130.984C110.811 130.984 105.761 136.809 98.4453 135.746Z" fill="#F0997A"/>
<path d="M185.119 106.425C185.119 106.425 168.278 115.179 165.132 120.148C161.985 125.118 154.336 142.906 150.523 146.718C146.715 150.526 138.033 158.371 133.544 161.241C128.841 164.245 126.994 164.844 122.901 163.869C120.583 165.035 114.785 166.52 112.962 163.459C110.144 165.535 103.927 165.34 102.438 162.522C100.115 163.845 93.1461 162.732 92.3511 158.914L95.7403 156.538C99.772 152.692 104.87 147.823 106.783 144.443C111.191 137.184 114.785 124.123 115.628 116.159L105.322 97.6856C105.06 97.7428 104.784 97.8189 104.494 97.9189C104.361 97.9665 104.223 98.0141 104.085 98.0664C100.467 99.4468 95.0453 103.564 89.6855 107.034C91.7514 104.207 94.4646 100.461 97.3539 96.7384C104.38 87.6896 106.26 87.2089 118.174 83.8007C132.892 79.5929 138.276 76.6845 141.584 75.2994C147.301 72.9051 162.552 61.4668 162.552 61.4668L185.119 106.425Z" fill="#B16668"/>
<path d="M184.81 106.569C192.099 103.467 193.563 90.5072 188.08 77.6222C182.596 64.7371 172.242 56.8065 164.953 59.9086C157.663 63.0106 156.199 75.9708 161.682 88.8558C167.166 101.741 177.52 109.672 184.81 106.569Z" fill="#B16668"/>
<path d="M119.22 141.719C112.964 152.88 103.811 160.489 98.393 161.087C94.3479 161.533 92.3516 158.912 92.3516 158.912C93.1503 162.728 100.119 163.847 102.437 162.522C105.453 161.864 114.655 153.006 119.22 141.719Z" fill="#9A4A4D"/>
<path d="M128.796 143.938C125.181 150.405 116.23 159.521 111.13 162.103C108.155 163.61 104.215 163.764 102.438 162.521C103.928 165.337 110.149 165.534 112.965 163.46C120.208 158.017 125.245 151.42 128.796 143.938Z" fill="#9A4A4D"/>
<path d="M138.561 146.426C134.059 152.626 127.143 159.335 122.043 162.138C116.942 164.94 113.963 164.028 112.965 163.461C114.786 166.522 120.583 165.031 122.902 163.872C124.687 163.02 135.01 154.148 138.561 146.426Z" fill="#9A4A4D"/>
<path d="M70.8037 175.157C78.0932 172.055 79.5573 159.095 74.074 146.21C68.5906 133.325 58.2362 125.394 50.9468 128.496C43.6573 131.599 42.1932 144.559 47.6765 157.444C53.1599 170.329 63.5143 178.259 70.8037 175.157Z" fill="#F0997A"/>
<path d="M138.108 159.439C135.208 157.918 133.996 154.946 135.994 151.878C137.992 148.81 141.631 149.024 144.056 150.379C142.272 147.383 142.486 144.601 144.484 142.318C146.481 140.035 150.69 139.909 153.187 141.72C150.405 138.323 149.692 135.826 151.261 132.687C152.83 129.548 157.135 128.86 160.107 130.832C163.854 133.317 164.46 135.755 163.032 138.822C161.605 141.89 158.538 144.244 155.113 142.888C156.611 145.742 156.04 148.168 154.4 150.094C152.759 152.021 149.381 154.472 146.313 152.538C146.884 154.742 146.217 156.575 144.791 158.216C143.364 159.856 140.979 160.946 138.108 159.439Z" fill="#FFBDA7"/>
<path d="M170.382 133.11C168.078 133.185 163.249 131.754 159.926 130.155C159.926 130.155 163.556 122.882 164.177 121.79C164.798 120.699 165.633 119.139 167.335 117.732L173.249 121.151L170.382 133.11Z" fill="#F0997A"/>
<path d="M175.541 127.222C174.945 132.175 172.647 133.54 168.88 133.002C167.181 132.759 163.687 130.328 163.743 126.006C163.784 122.813 167.146 119.729 170.507 120.191C173.745 120.636 176.108 122.512 175.541 127.222Z" fill="#FFBDA7"/>
<path opacity="0.2" d="M155.605 140.407C156.23 137.696 158.602 134.622 160.879 133.752C164.216 136.66 160.339 142.975 155.605 140.407Z" fill="white"/>
<path opacity="0.3" d="M161.27 134.153C161.151 134.014 161.024 133.879 160.879 133.752C158.602 134.622 156.23 137.696 155.605 140.407C155.752 140.486 155.896 140.556 156.041 140.619C156.861 138.105 159.454 134.961 161.27 134.153Z" fill="white"/>
<path opacity="0.2" d="M168.271 130.103C167.882 127.349 168.994 123.628 170.807 122C174.965 123.518 173.61 130.803 168.271 130.103Z" fill="white"/>
<path opacity="0.3" d="M171.315 122.234C171.155 122.147 170.988 122.066 170.807 122C168.994 123.628 167.882 127.349 168.271 130.103C168.436 130.125 168.596 130.139 168.753 130.146C168.616 127.504 169.91 123.639 171.315 122.234Z" fill="white"/>
<path opacity="0.2" d="M146.693 149.761C147.593 147.313 150.203 144.846 152.477 144.445C155.345 147.814 150.935 153.067 146.693 149.761Z" fill="white"/>
<path opacity="0.3" d="M152.807 144.897C152.709 144.743 152.602 144.592 152.477 144.445C150.203 144.846 147.593 147.313 146.693 149.761C146.824 149.863 146.955 149.956 147.086 150.042C148.15 147.816 150.98 145.324 152.807 144.897Z" fill="white"/>
<path opacity="0.2" d="M139.018 157.92C139.612 155.785 141.655 153.518 143.554 153.023C146.212 155.681 142.835 160.43 139.018 157.92Z" fill="white"/>
<path opacity="0.3" d="M143.864 153.383C143.77 153.26 143.67 153.139 143.554 153.023C141.655 153.518 139.612 155.785 139.018 157.92C139.135 157.997 139.253 158.067 139.369 158.131C140.119 156.174 142.346 153.87 143.864 153.383Z" fill="white"/>
<path d="M159.696 130.587C156.75 128.933 152.76 129.689 151.262 132.686C149.692 135.826 150.406 138.322 153.188 141.719C150.691 139.909 146.482 140.034 144.484 142.317C142.486 144.6 142.273 147.382 144.056 150.379C141.631 149.023 137.992 148.809 135.995 151.877C134.473 154.214 134.817 156.495 136.349 158.122C135.646 156.871 135.172 153.715 137.793 151.649C140.419 149.579 143.758 151.992 144.737 150.812C145.715 149.633 143.661 145.732 146.057 143.141C148.453 140.549 152.316 143.092 153.636 142.212C154.957 141.332 151.974 137.86 152.61 134.975C153.243 132.094 156.219 129.848 159.696 130.587Z" fill="#F0997A"/>
<path d="M153.73 110.794C153.191 109.249 151.135 108.49 146.459 104.477C141.931 100.591 138.342 96.741 133.636 96.0451C131.412 95.7162 125.433 96.1117 119.22 96.5715C113.897 96.9652 107.352 97.2541 105.324 97.6839C107.746 104.021 111.773 110.262 115.63 116.158C120.156 116.158 128.392 114.228 132.703 111.118C138.028 113.969 139.247 115.53 144.604 116.16C151.394 116.959 154.35 112.572 153.73 110.794Z" fill="#FFBDA7"/>
<path d="M143.559 107.151C143.559 107.151 148.571 110.292 150.297 110.794C152.806 111.522 153.73 110.794 153.73 110.794C153.73 110.794 153.906 109.647 150.358 107.212C146.81 104.776 146.175 104.23 146.175 104.23C146.175 104.23 144.833 104.48 143.559 107.151Z" fill="#FFBDA7"/>
<path opacity="0.2" d="M143.559 107.151C143.559 107.151 148.571 110.292 150.297 110.794C152.806 111.522 153.73 110.794 153.73 110.794C153.73 110.794 153.906 109.647 150.358 107.212C146.81 104.776 146.175 104.23 146.175 104.23C146.175 104.23 144.833 104.48 143.559 107.151Z" fill="white"/>
<path opacity="0.2" d="M144.463 107.708C146.41 106.54 147.315 105.782 147.717 105.372C146.465 104.48 146.175 104.232 146.175 104.232C146.175 104.232 144.833 104.482 143.559 107.153C143.559 107.153 143.915 107.375 144.463 107.708Z" fill="white"/>
<path d="M144.962 116.188C144.848 116.188 144.726 116.174 144.605 116.16C139.25 115.531 138.028 113.965 132.702 111.12C128.39 114.23 120.155 116.16 115.629 116.16C115.45 117.876 115.136 119.827 114.721 121.901L112.707 124.958C113.844 120.712 114.476 116.449 113.932 115.734C113.389 115.019 111.496 114.008 110.195 111.47C111.568 112.457 112.805 113.515 114.356 114.158C114.456 114.201 114.556 114.237 114.664 114.273C115.922 114.737 118.157 114.901 120.076 114.641C126.521 113.768 130.482 111.124 131.641 110.309C130.907 109.296 130.602 108.101 130.438 106.82C131.955 109.471 133.526 110.413 134.924 111.427C138.489 114.012 143.129 115.876 144.962 116.188Z" fill="#F0997A"/>
<path d="M196.565 93.7377C196.565 99.9876 194.363 104.376 190.808 106.419L179.518 112.94V112.935C183.092 110.906 185.303 106.508 185.303 100.239C185.303 87.7573 176.544 72.5809 165.738 66.3449C160.4 63.2642 155.559 62.9381 152.032 64.9021L152.027 64.8974L163.15 58.4794C163.155 58.4747 163.16 58.4704 163.169 58.4656L163.192 58.4518C164.667 57.6093 166.375 57.1719 168.255 57.1719C170.885 57.1719 173.854 58.0282 176.995 59.8432C187.802 66.0845 196.565 81.256 196.565 93.7377Z" fill="#F5F5F5"/>
<path d="M196.565 93.7371C196.565 99.987 194.363 104.376 190.808 106.419L179.518 112.939V112.934C183.092 110.905 185.302 106.507 185.302 100.238C185.302 98.2743 185.083 96.2451 184.679 94.1931L195.936 87.6914C196.346 89.7444 196.565 91.7736 196.565 93.7371Z" fill="#EBEBEB"/>
<path d="M55.9966 130.36C66.8042 136.6 75.5654 151.775 75.5654 164.255C75.5654 176.734 66.8042 181.793 55.9966 175.553C45.189 169.313 36.4277 154.138 36.4277 141.659C36.4277 129.179 45.189 124.12 55.9966 130.36Z" fill="#E0E0E0"/>
<path d="M86.8265 157.753C86.8265 164.004 84.625 168.392 81.0697 170.435L69.7795 176.955V176.95C73.3538 174.921 75.5643 170.523 75.5643 164.255C75.5643 151.773 66.8059 136.597 55.9993 130.36C50.6614 127.28 45.8215 126.954 42.2938 128.918L42.2891 128.913L53.4118 122.495C53.4165 122.49 53.4213 122.486 53.4303 122.481L53.4536 122.467C54.9288 121.625 56.6367 121.188 58.5169 121.188C61.1463 121.188 64.1156 122.044 67.2567 123.859C78.0628 130.1 86.8265 145.272 86.8265 157.753Z" fill="#F5F5F5"/>
<path d="M86.8263 157.754C86.8263 164.005 84.6248 168.393 81.0695 170.436L69.7793 176.956V176.951C73.3536 174.922 75.5641 170.524 75.5641 164.255C75.5641 162.291 75.3452 160.262 74.9406 158.21L86.1984 151.709C86.6073 153.761 86.8263 155.791 86.8263 157.754Z" fill="#EBEBEB"/>
<path d="M26.6661 150.044L20.7285 139.668L43.0048 126.733C43.0115 126.729 43.0186 126.725 43.0253 126.721L43.0501 126.707L43.0505 126.708C46.7848 124.572 51.9322 124.891 57.6166 128.173C69.0216 134.758 78.2674 150.772 78.2674 163.942C78.2674 170.54 75.9459 175.171 72.1955 177.323L72.196 177.324L49.7383 190.362L43.6379 179.702C34.8967 172.963 28.0156 160.962 26.6661 150.044Z" fill="#455A64"/>
<path d="M35.1933 141.191C46.5982 147.776 55.8441 163.79 55.8441 176.96C55.8441 190.129 46.5987 195.468 35.1938 188.883C23.7888 182.298 14.543 166.284 14.543 153.114C14.5425 139.945 23.7883 134.607 35.1933 141.191Z" fill="#263238"/>
<path d="M59.2207 175.076C59.2207 177.123 60.2984 178.16 61.6278 177.392C62.9573 176.625 64.035 174.343 64.035 172.296C64.035 170.249 62.9573 169.212 61.6278 169.98C60.2984 170.748 59.2207 173.029 59.2207 175.076Z" fill="#263238"/>
<path d="M68.8965 170.172C68.8965 172.218 69.9741 173.256 71.3036 172.488C72.6331 171.72 73.7107 169.438 73.7107 167.392C73.7107 165.345 72.6331 164.308 71.3036 165.075C69.9746 165.843 68.8965 168.125 68.8965 170.172Z" fill="#263238"/>
<path d="M60.0059 175.291C60.0059 177.337 61.0835 178.375 62.413 177.607C63.7425 176.84 64.8201 174.558 64.8201 172.511C64.8201 170.464 63.7425 169.427 62.413 170.195C61.0835 170.962 60.0059 173.244 60.0059 175.291Z" fill="#13B5EA"/>
<path d="M69.6797 170.386C69.6797 172.433 70.7574 173.47 72.0868 172.703C73.4163 171.935 74.494 169.653 74.494 167.607C74.494 165.56 73.4163 164.523 72.0868 165.29C70.7578 166.058 69.6797 168.339 69.6797 170.386Z" fill="#13B5EA"/>
</svg>
