<svg width="99" height="20" viewBox="0 0 99 20" fill="none" xmlns="http://www.w3.org/2000/svg">
<path d="M69.4078 0.404531C68.4524 0.515512 67.7431 0.920834 67.4439 1.52881C67.1689 2.08854 67.1785 1.71217 67.1785 10.9622V19.4739L67.7238 19.4449C68.9349 19.3774 69.6249 19.0396 69.9434 18.3592C70.0447 18.1421 70.0495 18.0504 70.0737 16.3664L70.0978 14.5956L70.8939 13.8863C71.333 13.4954 71.7577 13.1094 71.8445 13.0322L71.9989 12.8826L73.9821 15.8694C75.3332 17.9057 76.0425 18.9286 76.2065 19.083C76.5298 19.3918 76.8338 19.4787 77.4273 19.4498C77.7844 19.4304 77.9195 19.4015 78.1463 19.2857C78.4358 19.1458 78.8797 18.7211 78.8411 18.6198C78.8266 18.5909 77.6782 16.9455 76.2789 14.9623C74.8844 12.9791 73.736 11.3385 73.7312 11.3144C73.7215 11.2903 74.4212 10.6292 75.2849 9.83787C77.3308 7.97051 77.4563 7.82092 77.4563 7.29015C77.4563 6.92826 77.3067 6.66769 76.829 6.17069C76.4381 5.7702 76.4044 5.74607 76.3127 5.8088C76.2596 5.8474 74.8651 7.11161 73.2149 8.62674C71.5647 10.1419 70.1895 11.382 70.1653 11.3916C70.1412 11.4013 70.1219 9.22024 70.1219 5.88118V0.351454L69.9434 0.356279C69.842 0.361105 69.6008 0.380405 69.4078 0.404531Z" fill="#236F8E"/>
<path d="M8.23833 0.616737C6.21173 0.944853 4.35884 1.93403 2.92092 3.45398C1.1018 5.38407 0.199483 7.92697 0.35389 10.7111C0.590327 15.0153 3.71226 18.6776 7.85714 19.5124C8.59057 19.6571 10.1636 19.6957 11.008 19.5848C12.4845 19.3917 13.5847 19.0009 14.6125 18.3109C15.5244 17.6933 15.7657 17.3844 15.7319 16.8923C15.7078 16.5786 15.6113 16.4146 15.3556 16.2409C14.9888 15.9899 14.6945 16.0334 14.1492 16.4242C12.6872 17.4761 11.3217 17.9297 9.63765 17.9297C8.45064 17.9297 7.57727 17.7415 6.57362 17.259C5.70991 16.844 5.14053 16.4387 4.44569 15.7487C2.55902 13.862 1.78216 11.3674 2.23573 8.67006C2.52042 6.9571 3.54337 5.17176 4.87996 4.05231C6.65565 2.56131 8.57127 2.01606 10.9163 2.33452C12.0165 2.48893 13.0008 2.89908 13.8983 3.57943C14.0913 3.72902 14.3326 3.8979 14.4291 3.9558C14.7428 4.14881 15.2253 4.07161 15.3604 3.81105C15.3942 3.75314 15.4569 3.67594 15.51 3.64216C15.6451 3.54566 15.7416 3.31887 15.7416 3.09208C15.7416 2.9039 15.7175 2.8653 15.4617 2.61921C14.5304 1.73619 12.8657 0.935204 11.3989 0.664989C10.7668 0.549185 8.85114 0.520233 8.23833 0.616737Z" fill="#236F8E"/>
<path d="M33.8842 0.645796C33.3245 0.727825 32.7599 1.01734 32.4849 1.36476C32.1857 1.74113 31.9879 2.33945 31.9397 3.03911L31.9155 3.3431H35.1436H38.3717V11.4109V19.4739L38.8687 19.4449C40.2053 19.3629 41.0738 18.8225 41.4261 17.8526C41.4695 17.7368 41.4888 15.8212 41.5081 10.5327L41.5322 3.36723L43.8483 3.3431C46.3237 3.31415 46.2996 3.31415 46.8207 3.05359C47.5252 2.69652 47.9739 1.86658 47.9739 0.911184V0.592718L41.0642 0.597544C37.2619 0.602369 34.029 0.62167 33.8842 0.645796Z" fill="#236F8E"/>
<path d="M18.0285 1.31668C17.295 1.54346 16.9283 2.37823 17.2564 3.07789C17.6569 3.93678 18.8005 4.08636 19.4085 3.35775C19.7077 2.99103 19.7752 2.37823 19.5581 1.95843C19.4519 1.74612 19.2058 1.50969 18.9597 1.38423C18.7812 1.28773 18.2456 1.24912 18.0285 1.31668Z" fill="#236F8E"/>
<path d="M29.8265 1.34502C29.5225 1.4367 29.1847 1.74552 29.0738 2.03021C28.7408 2.90357 29.3633 3.8252 30.2849 3.8252C30.7433 3.8252 31.2692 3.46813 31.4478 3.03386C31.5684 2.74917 31.5539 2.23769 31.4236 1.96748C31.1534 1.40775 30.4779 1.14236 29.8265 1.34502Z" fill="#236F8E"/>
<path d="M23.0035 2.2572C22.7622 2.34406 22.5209 2.5998 22.4534 2.84588C22.4196 2.96169 22.4003 3.73855 22.4003 4.94486V6.86531H21.5028C20.504 6.86531 20.364 6.89909 20.1662 7.17412C20.0842 7.29475 20.0601 7.39126 20.0601 7.647C20.0601 7.93651 20.0745 7.98476 20.2048 8.1247C20.4509 8.38526 20.5715 8.40938 21.5269 8.40938H22.3955L22.4148 11.9897C22.4341 15.9271 22.4293 15.8451 22.7429 16.6605C23.2592 18.0116 24.4703 19.0587 25.8262 19.3289C26.3618 19.4399 27.1532 19.4785 27.4909 19.4158C27.9831 19.3241 28.2871 18.9863 28.2871 18.5327C28.2871 18.2432 28.2195 18.0743 28.0314 17.8765C27.8335 17.669 27.6502 17.6256 26.9988 17.6256C26.6996 17.6256 26.3425 17.6015 26.2026 17.5725C25.3678 17.3988 24.6682 16.7329 24.3449 15.8065C24.2725 15.599 24.258 15.1937 24.2484 11.9945L24.2291 8.41421L25.749 8.39973C27.2014 8.38526 27.2738 8.38043 27.4041 8.28393C27.8818 7.93169 27.8769 7.2658 27.3944 6.98594L27.1918 6.86531H25.7152H24.2339V4.94486C24.2339 3.69513 24.2146 2.96169 24.1808 2.83623C24.0843 2.48882 23.6597 2.18 23.293 2.18483C23.2399 2.18965 23.1096 2.2186 23.0035 2.2572Z" fill="#236F8E"/>
<path d="M48.5869 5.75579C47.974 5.8137 47.4577 5.9295 46.7967 6.15146C45.7593 6.49888 45.1706 6.8656 44.7411 7.43498C44.1862 8.17806 44.1573 8.8536 44.6688 9.41333C44.9486 9.72697 45.5614 10.0696 45.5614 9.91515C45.5614 9.8862 45.6869 9.70284 45.8461 9.50983C46.6857 8.44828 48.1864 7.8982 49.798 8.06226C50.71 8.15394 51.3035 8.40968 51.757 8.8922C52.1913 9.35542 52.365 9.91515 52.365 10.8464V11.3289L52.7559 11.6619L53.1467 11.9948L53.0502 12.0913L52.9489 12.1878L52.6159 11.879C51.6026 10.9478 50.1165 10.4652 48.5048 10.5521C46.512 10.6631 45.0741 11.4013 44.1718 12.7765C43.6989 13.5003 43.5011 14.3061 43.5493 15.3049C43.6555 17.4618 45.1561 18.9962 47.535 19.3919C48.1285 19.4884 49.4795 19.4643 50.0006 19.3437C50.9898 19.1217 51.7956 18.6681 52.5822 17.9106C52.9247 17.5776 52.9778 17.5439 53.055 17.6018C53.1322 17.6597 53.1274 17.679 52.9489 17.9009C52.8475 18.036 52.7028 18.1856 52.6352 18.2435C52.5146 18.3352 52.5098 18.3545 52.5098 18.8997V19.4595H52.8186C53.248 19.4595 53.9332 19.3292 54.2324 19.1941C54.7535 18.9576 55.0961 18.4993 55.2071 17.8961C55.2795 17.5149 55.2795 10.3784 55.2119 9.80899C54.9465 7.64246 53.5327 6.25279 51.1828 5.8523C50.5218 5.74132 49.2431 5.69307 48.5869 5.75579ZM49.9283 12.7572C51.1056 12.902 51.9693 13.4521 52.2733 14.2434C52.5629 15.0106 52.3554 15.9515 51.786 16.4871C50.985 17.2399 49.19 17.5149 47.892 17.0903C46.9849 16.7959 46.4975 16.1494 46.4444 15.1891C46.3914 14.2579 46.6809 13.674 47.4481 13.1722C48.0416 12.7813 48.9246 12.6366 49.9283 12.7572Z" fill="#236F8E"/>
<path d="M59.8586 5.75575C57.5811 5.99701 55.9502 7.12129 55.6221 8.67984C55.4677 9.41811 55.5642 10.3494 55.8682 10.9622C56.0901 11.4109 56.6354 11.9755 57.1179 12.2602C57.8272 12.68 59.0384 13.0901 60.761 13.5003C62.112 13.8235 63.1736 14.2337 63.5837 14.5908C63.9553 14.9189 64.1145 15.469 63.9746 15.9467C63.8732 16.2989 63.6079 16.5739 63.1591 16.7862C62.5897 17.0516 62.1796 17.1192 61.0746 17.1192C60.2157 17.1192 60.0661 17.1095 59.7332 17.0082C58.6137 16.6849 57.8706 15.9515 57.5522 14.8562L57.4702 14.5763L57.2241 14.6101C56.0564 14.75 55.5642 15.1505 55.5111 15.9853C55.4387 17.1964 56.2397 18.2483 57.7259 18.8901C58.6958 19.305 59.4775 19.4353 61.0505 19.4353C62.6669 19.4353 63.5548 19.2809 64.5054 18.837C65.6731 18.2869 66.4065 17.51 66.6767 16.516C66.7925 16.0866 66.7973 15.0829 66.6815 14.6101C66.2521 12.8826 64.7177 11.8935 61.2917 11.1359C60.3846 10.9332 59.5161 10.6823 59.1107 10.499C58.6089 10.277 58.3483 9.88615 58.3483 9.37468C58.3532 8.39998 59.7573 7.77752 61.5234 7.97536C62.749 8.11047 63.492 8.55439 63.8974 9.39398C63.9987 9.61112 64.1 9.86685 64.1193 9.96818C64.1338 10.0695 64.1821 10.166 64.2207 10.1805C64.3365 10.2239 65.0892 10.1033 65.3787 9.99231C66.0543 9.7414 66.3631 9.15272 66.2135 8.39998C66.1315 7.96088 65.9529 7.62312 65.6248 7.27087C64.9444 6.54226 63.8298 6.04044 62.4257 5.82813C61.837 5.74127 60.3991 5.69785 59.8586 5.75575Z" fill="#236F8E"/>
<path d="M82.9956 5.75552C81.4756 5.92922 79.9123 6.73986 79.0389 7.81107C78.5419 8.42387 78.2138 9.05598 78.0256 9.78459C77.9339 10.1417 77.9243 10.3395 77.905 12.3613C77.8905 13.7799 77.9001 14.716 77.9339 15.0055C78.1317 16.6702 79.1209 18.0068 80.7615 18.8223C81.5866 19.2324 82.349 19.4061 83.4636 19.4447C84.8726 19.493 85.9341 19.3 86.9426 18.8126C87.6664 18.4652 88.1007 18.1709 88.4867 17.7559C88.9258 17.2975 89.1043 16.9115 89.1236 16.3903C89.1381 16.0719 89.1236 15.9561 89.0368 15.7534C88.9113 15.4639 88.5494 15.102 88.2454 14.9669C87.9945 14.8559 87.4975 14.7787 87.0247 14.7787H86.6724V14.9572C86.6676 15.3674 86.4794 15.8596 86.1802 16.2408C85.9679 16.5061 85.524 16.7812 85.0608 16.9356C84.7037 17.0514 84.6024 17.0659 83.8738 17.0659C83.2513 17.0707 83.0101 17.0514 82.7688 16.9838C82.2718 16.8487 81.852 16.6171 81.5287 16.2987C81.0269 15.8017 80.8483 15.2854 80.8001 14.2142L80.7711 13.5242H84.5783C87.1646 13.5242 88.4481 13.5048 88.5736 13.4711C88.8003 13.4083 89.2636 12.9934 89.3552 12.7666C89.4083 12.646 89.4228 12.3082 89.4228 11.3673C89.4228 9.9776 89.3697 9.58675 89.0899 8.86779C88.6266 7.66148 87.4396 6.59028 86.0065 6.07398C85.2104 5.78929 83.9075 5.64936 82.9956 5.75552ZM84.7278 8.14883C85.4613 8.33702 86.132 8.81954 86.4215 9.36479C86.6338 9.76529 86.7207 10.1754 86.7207 10.8075V11.3528H83.7435H80.7711L80.8001 10.7593C80.8194 10.436 80.8532 10.0741 80.8821 9.9583C81.0703 9.17179 81.7603 8.4866 82.653 8.19709C83.2031 8.01855 84.1343 7.99443 84.7278 8.14883Z" fill="#236F8E"/>
<path d="M92.0815 5.76055C91.6038 5.82328 91.1551 5.97768 90.8318 6.18999C90.523 6.39748 90.3686 6.57119 90.1997 6.90895C89.9536 7.38665 89.9536 7.33358 89.9536 13.616V19.4739L90.4747 19.4449C91.4012 19.4015 92.1491 19.1554 92.4627 18.7983C92.5496 18.7018 92.6799 18.4992 92.7474 18.3496L92.8729 18.0842L92.897 14.3929L92.9211 10.7016L93.0514 10.3397C93.5918 8.868 95.1311 8.05254 96.9888 8.26002C97.4279 8.30827 97.9973 8.46268 98.3592 8.62191C98.4219 8.65087 98.4605 8.60261 98.5474 8.37583C98.639 8.14904 98.6583 8.00428 98.6632 7.58931C98.6632 7.14057 98.6487 7.05371 98.5329 6.80762C98.3544 6.42643 98.1903 6.21895 97.9249 6.05006C97.148 5.56271 95.6763 5.61579 94.5617 6.18034C93.8283 6.54706 93.1479 7.13574 92.5834 7.8933C92.318 8.25037 92.2987 8.26485 92.2167 8.18764C92.1153 8.09596 92.1057 8.11526 92.5303 7.57001L92.7523 7.28532V6.49398V5.70747L92.5737 5.7123C92.4724 5.71712 92.2504 5.73642 92.0815 5.76055Z" fill="#236F8E"/>
<path d="M17.937 6.49384C17.8308 6.55656 17.7006 6.68685 17.6378 6.793L17.5269 6.98601V12.8825C17.5269 16.9308 17.5413 18.8223 17.5799 18.914C17.7006 19.2373 18.0142 19.4207 18.4437 19.4207C18.7476 19.4207 19.0034 19.2904 19.1578 19.0588L19.2881 18.8609L19.3025 13.0706C19.3122 9.88116 19.3025 7.18385 19.2881 7.06804C19.2543 6.84125 19.0516 6.57104 18.8248 6.45041C18.6125 6.34425 18.1638 6.36355 17.937 6.49384Z" fill="#236F8E"/>
<path d="M29.8553 6.45041C29.6574 6.53727 29.4596 6.77853 29.3969 7.00049C29.3293 7.24658 29.3293 18.5473 29.3969 18.7934C29.5078 19.189 29.8311 19.4207 30.2654 19.4207C30.5597 19.4207 30.7576 19.3435 30.9216 19.1601C31.1677 18.8899 31.1581 19.2083 31.1725 13.1141C31.1822 9.98249 31.1725 7.3093 31.1581 7.16937C31.1243 6.89916 30.994 6.66755 30.7817 6.50831C30.6128 6.38286 30.0724 6.34908 29.8553 6.45041Z" fill="#236F8E"/>
</svg>
