<svg width="201" height="105" viewBox="0 0 201 105" fill="none" xmlns="http://www.w3.org/2000/svg">
<path d="M4 34.5845C4 23.3461 10.6664 14.3042 20.4464 9.08186C35.4072 1.09309 49.4227 3.0173 62.1819 14.4216C75.5224 26.3454 87.8168 51.0636 78.3721 68.6308C76.3116 72.4632 72.5763 78.653 67.5644 79.054C63.4293 79.3848 63.1987 67.4297 63.2499 65.2988C63.4949 55.0911 67.5466 44.376 76.0226 38.2583C87.8289 29.7368 104.432 23.7955 118.997 23.4778C128.548 23.2695 135.273 27.4496 139.245 36.0796C145.314 49.263 148.164 65.3327 148.344 79.7802C148.398 84.069 149.604 97.2641 144.628 100.029C139.058 103.123 134.114 99.0148 134.461 93.2791C135.439 77.1003 153.415 66.4171 165.474 58.7629C175.516 52.3888 186.275 47.354 197 42.2738" stroke="#FB9596" stroke-width="6.55849" stroke-linecap="round"/>
</svg>
