<svg width="256" height="184" viewBox="0 0 256 184" fill="none" xmlns="http://www.w3.org/2000/svg">
<rect y="184" width="4" height="4" transform="rotate(-90 0 184)" fill="#FDF0F0"/>
<rect y="172" width="4" height="4" transform="rotate(-90 0 172)" fill="#FDF0F0"/>
<rect y="160" width="4" height="4" transform="rotate(-90 0 160)" fill="#FDF0F0"/>
<rect y="148" width="4" height="4" transform="rotate(-90 0 148)" fill="#FDF0F0"/>
<rect y="136" width="4" height="4" transform="rotate(-90 0 136)" fill="#FDF0F0"/>
<rect y="124" width="4" height="4" transform="rotate(-90 0 124)" fill="#FDF0F0"/>
<rect y="112" width="4" height="4" transform="rotate(-90 0 112)" fill="#FDF0F0"/>
<rect y="100" width="4" height="4" transform="rotate(-90 0 100)" fill="#FDF0F0"/>
<rect y="88" width="4" height="4" transform="rotate(-90 0 88)" fill="#FDF0F0"/>
<rect y="76" width="4" height="4" transform="rotate(-90 0 76)" fill="#FDF0F0"/>
<rect y="64" width="4" height="4" transform="rotate(-90 0 64)" fill="#FDF0F0"/>
<rect y="52" width="4" height="4" transform="rotate(-90 0 52)" fill="#FDF0F0"/>
<rect y="40" width="4" height="4" transform="rotate(-90 0 40)" fill="#FDF0F0"/>
<rect y="28" width="4" height="4" transform="rotate(-90 0 28)" fill="#FDF0F0"/>
<rect y="16" width="4" height="4" transform="rotate(-90 0 16)" fill="#FDF0F0"/>
<rect y="4" width="4" height="4" transform="rotate(-90 0 4)" fill="#FDF0F0"/>
<rect x="12" y="184" width="4" height="4" transform="rotate(-90 12 184)" fill="#FDF0F0"/>
<rect x="12" y="172" width="4" height="4" transform="rotate(-90 12 172)" fill="#FDF0F0"/>
<rect x="12" y="160" width="4" height="4" transform="rotate(-90 12 160)" fill="#FDF0F0"/>
<rect x="12" y="148" width="4" height="4" transform="rotate(-90 12 148)" fill="#FDF0F0"/>
<rect x="12" y="136" width="4" height="4" transform="rotate(-90 12 136)" fill="#FDF0F0"/>
<rect x="12" y="124" width="4" height="4" transform="rotate(-90 12 124)" fill="#FDF0F0"/>
<rect x="12" y="112" width="4" height="4" transform="rotate(-90 12 112)" fill="#FDF0F0"/>
<rect x="12" y="100" width="4" height="4" transform="rotate(-90 12 100)" fill="#FDF0F0"/>
<rect x="12" y="88" width="4" height="4" transform="rotate(-90 12 88)" fill="#FDF0F0"/>
<rect x="12" y="76" width="4" height="4" transform="rotate(-90 12 76)" fill="#FDF0F0"/>
<rect x="12" y="64" width="4" height="4" transform="rotate(-90 12 64)" fill="#FDF0F0"/>
<rect x="12" y="52" width="4" height="4" transform="rotate(-90 12 52)" fill="#FDF0F0"/>
<rect x="12" y="40" width="4" height="4" transform="rotate(-90 12 40)" fill="#FDF0F0"/>
<rect x="12" y="28" width="4" height="4" transform="rotate(-90 12 28)" fill="#FDF0F0"/>
<rect x="12" y="16" width="4" height="4" transform="rotate(-90 12 16)" fill="#FDF0F0"/>
<rect x="12" y="4" width="4" height="4" transform="rotate(-90 12 4)" fill="#FDF0F0"/>
<rect x="24" y="184" width="4" height="4" transform="rotate(-90 24 184)" fill="#FDF0F0"/>
<rect x="24" y="172" width="4" height="4" transform="rotate(-90 24 172)" fill="#FDF0F0"/>
<rect x="24" y="160" width="4" height="4" transform="rotate(-90 24 160)" fill="#FDF0F0"/>
<rect x="24" y="148" width="4" height="4" transform="rotate(-90 24 148)" fill="#FDF0F0"/>
<rect x="24" y="136" width="4" height="4" transform="rotate(-90 24 136)" fill="#FDF0F0"/>
<rect x="24" y="124" width="4" height="4" transform="rotate(-90 24 124)" fill="#FDF0F0"/>
<rect x="24" y="112" width="4" height="4" transform="rotate(-90 24 112)" fill="#FDF0F0"/>
<rect x="24" y="100" width="4" height="4" transform="rotate(-90 24 100)" fill="#FDF0F0"/>
<rect x="24" y="88" width="4" height="4" transform="rotate(-90 24 88)" fill="#FDF0F0"/>
<rect x="24" y="76" width="4" height="4" transform="rotate(-90 24 76)" fill="#FDF0F0"/>
<rect x="24" y="64" width="4" height="4" transform="rotate(-90 24 64)" fill="#FDF0F0"/>
<rect x="24" y="52" width="4" height="4" transform="rotate(-90 24 52)" fill="#FDF0F0"/>
<rect x="24" y="40" width="4" height="4" transform="rotate(-90 24 40)" fill="#FDF0F0"/>
<rect x="24" y="28" width="4" height="4" transform="rotate(-90 24 28)" fill="#FDF0F0"/>
<rect x="24" y="16" width="4" height="4" transform="rotate(-90 24 16)" fill="#FDF0F0"/>
<rect x="24" y="4" width="4" height="4" transform="rotate(-90 24 4)" fill="#FDF0F0"/>
<rect x="36" y="184" width="4" height="4" transform="rotate(-90 36 184)" fill="#FDF0F0"/>
<rect x="36" y="172" width="4" height="4" transform="rotate(-90 36 172)" fill="#FDF0F0"/>
<rect x="36" y="160" width="4" height="4" transform="rotate(-90 36 160)" fill="#FDF0F0"/>
<rect x="36" y="148" width="4" height="4" transform="rotate(-90 36 148)" fill="#FDF0F0"/>
<rect x="36" y="136" width="4" height="4" transform="rotate(-90 36 136)" fill="#FDF0F0"/>
<rect x="36" y="124" width="4" height="4" transform="rotate(-90 36 124)" fill="#FDF0F0"/>
<rect x="36" y="112" width="4" height="4" transform="rotate(-90 36 112)" fill="#FDF0F0"/>
<rect x="36" y="100" width="4" height="4" transform="rotate(-90 36 100)" fill="#FDF0F0"/>
<rect x="36" y="88" width="4" height="4" transform="rotate(-90 36 88)" fill="#FDF0F0"/>
<rect x="36" y="76" width="4" height="4" transform="rotate(-90 36 76)" fill="#FDF0F0"/>
<rect x="36" y="64" width="4" height="4" transform="rotate(-90 36 64)" fill="#FDF0F0"/>
<rect x="36" y="52" width="4" height="4" transform="rotate(-90 36 52)" fill="#FDF0F0"/>
<rect x="36" y="40" width="4" height="4" transform="rotate(-90 36 40)" fill="#FDF0F0"/>
<rect x="36" y="28" width="4" height="4" transform="rotate(-90 36 28)" fill="#FDF0F0"/>
<rect x="36" y="16" width="4" height="4" transform="rotate(-90 36 16)" fill="#FDF0F0"/>
<rect x="36" y="4" width="4" height="4" transform="rotate(-90 36 4)" fill="#FDF0F0"/>
<rect x="48" y="184" width="4" height="4" transform="rotate(-90 48 184)" fill="#FDF0F0"/>
<rect x="48" y="172" width="4" height="4" transform="rotate(-90 48 172)" fill="#FDF0F0"/>
<rect x="48" y="160" width="4" height="4" transform="rotate(-90 48 160)" fill="#FDF0F0"/>
<rect x="48" y="148" width="4" height="4" transform="rotate(-90 48 148)" fill="#FDF0F0"/>
<rect x="48" y="136" width="4" height="4" transform="rotate(-90 48 136)" fill="#FDF0F0"/>
<rect x="48" y="124" width="4" height="4" transform="rotate(-90 48 124)" fill="#FDF0F0"/>
<rect x="48" y="112" width="4" height="4" transform="rotate(-90 48 112)" fill="#FDF0F0"/>
<rect x="48" y="100" width="4" height="4" transform="rotate(-90 48 100)" fill="#FDF0F0"/>
<rect x="48" y="88" width="4" height="4" transform="rotate(-90 48 88)" fill="#FDF0F0"/>
<rect x="48" y="76" width="4" height="4" transform="rotate(-90 48 76)" fill="#FDF0F0"/>
<rect x="48" y="64" width="4" height="4" transform="rotate(-90 48 64)" fill="#FDF0F0"/>
<rect x="48" y="52" width="4" height="4" transform="rotate(-90 48 52)" fill="#FDF0F0"/>
<rect x="48" y="40" width="4" height="4" transform="rotate(-90 48 40)" fill="#FDF0F0"/>
<rect x="48" y="28" width="4" height="4" transform="rotate(-90 48 28)" fill="#FDF0F0"/>
<rect x="48" y="16" width="4" height="4" transform="rotate(-90 48 16)" fill="#FDF0F0"/>
<rect x="48" y="4" width="4" height="4" transform="rotate(-90 48 4)" fill="#FDF0F0"/>
<rect x="60" y="184" width="4" height="4" transform="rotate(-90 60 184)" fill="#FDF0F0"/>
<rect x="60" y="172" width="4" height="4" transform="rotate(-90 60 172)" fill="#FDF0F0"/>
<rect x="60" y="160" width="4" height="4" transform="rotate(-90 60 160)" fill="#FDF0F0"/>
<rect x="60" y="148" width="4" height="4" transform="rotate(-90 60 148)" fill="#FDF0F0"/>
<rect x="60" y="136" width="4" height="4" transform="rotate(-90 60 136)" fill="#FDF0F0"/>
<rect x="60" y="124" width="4" height="4" transform="rotate(-90 60 124)" fill="#FDF0F0"/>
<rect x="60" y="112" width="4" height="4" transform="rotate(-90 60 112)" fill="#FDF0F0"/>
<rect x="60" y="100" width="4" height="4" transform="rotate(-90 60 100)" fill="#FDF0F0"/>
<rect x="60" y="88" width="4" height="4" transform="rotate(-90 60 88)" fill="#FDF0F0"/>
<rect x="60" y="76" width="4" height="4" transform="rotate(-90 60 76)" fill="#FDF0F0"/>
<rect x="60" y="64" width="4" height="4" transform="rotate(-90 60 64)" fill="#FDF0F0"/>
<rect x="60" y="52" width="4" height="4" transform="rotate(-90 60 52)" fill="#FDF0F0"/>
<rect x="60" y="40" width="4" height="4" transform="rotate(-90 60 40)" fill="#FDF0F0"/>
<rect x="60" y="28" width="4" height="4" transform="rotate(-90 60 28)" fill="#FDF0F0"/>
<rect x="60" y="16" width="4" height="4" transform="rotate(-90 60 16)" fill="#FDF0F0"/>
<rect x="60" y="4" width="4" height="4" transform="rotate(-90 60 4)" fill="#FDF0F0"/>
<rect x="72" y="184" width="4" height="4" transform="rotate(-90 72 184)" fill="#FDF0F0"/>
<rect x="72" y="172" width="4" height="4" transform="rotate(-90 72 172)" fill="#FDF0F0"/>
<rect x="72" y="160" width="4" height="4" transform="rotate(-90 72 160)" fill="#FDF0F0"/>
<rect x="72" y="148" width="4" height="4" transform="rotate(-90 72 148)" fill="#FDF0F0"/>
<rect x="72" y="136" width="4" height="4" transform="rotate(-90 72 136)" fill="#FDF0F0"/>
<rect x="72" y="124" width="4" height="4" transform="rotate(-90 72 124)" fill="#FDF0F0"/>
<rect x="72" y="112" width="4" height="4" transform="rotate(-90 72 112)" fill="#FDF0F0"/>
<rect x="72" y="100" width="4" height="4" transform="rotate(-90 72 100)" fill="#FDF0F0"/>
<rect x="72" y="88" width="4" height="4" transform="rotate(-90 72 88)" fill="#FDF0F0"/>
<rect x="72" y="76" width="4" height="4" transform="rotate(-90 72 76)" fill="#FDF0F0"/>
<rect x="72" y="64" width="4" height="4" transform="rotate(-90 72 64)" fill="#FDF0F0"/>
<rect x="72" y="52" width="4" height="4" transform="rotate(-90 72 52)" fill="#FDF0F0"/>
<rect x="72" y="40" width="4" height="4" transform="rotate(-90 72 40)" fill="#FDF0F0"/>
<rect x="72" y="28" width="4" height="4" transform="rotate(-90 72 28)" fill="#FDF0F0"/>
<rect x="72" y="16" width="4" height="4" transform="rotate(-90 72 16)" fill="#FDF0F0"/>
<rect x="72" y="4" width="4" height="4" transform="rotate(-90 72 4)" fill="#FDF0F0"/>
<rect x="84" y="184" width="4" height="4" transform="rotate(-90 84 184)" fill="#FDF0F0"/>
<rect x="84" y="172" width="4" height="4" transform="rotate(-90 84 172)" fill="#FDF0F0"/>
<rect x="84" y="160" width="4" height="4" transform="rotate(-90 84 160)" fill="#FDF0F0"/>
<rect x="84" y="148" width="4" height="4" transform="rotate(-90 84 148)" fill="#FDF0F0"/>
<rect x="84" y="136" width="4" height="4" transform="rotate(-90 84 136)" fill="#FDF0F0"/>
<rect x="84" y="124" width="4" height="4" transform="rotate(-90 84 124)" fill="#FDF0F0"/>
<rect x="84" y="112" width="4" height="4" transform="rotate(-90 84 112)" fill="#FDF0F0"/>
<rect x="84" y="100" width="4" height="4" transform="rotate(-90 84 100)" fill="#FDF0F0"/>
<rect x="84" y="88" width="4" height="4" transform="rotate(-90 84 88)" fill="#FDF0F0"/>
<rect x="84" y="76" width="4" height="4" transform="rotate(-90 84 76)" fill="#FDF0F0"/>
<rect x="84" y="64" width="4" height="4" transform="rotate(-90 84 64)" fill="#FDF0F0"/>
<rect x="84" y="52" width="4" height="4" transform="rotate(-90 84 52)" fill="#FDF0F0"/>
<rect x="84" y="40" width="4" height="4" transform="rotate(-90 84 40)" fill="#FDF0F0"/>
<rect x="84" y="28" width="4" height="4" transform="rotate(-90 84 28)" fill="#FDF0F0"/>
<rect x="84" y="16" width="4" height="4" transform="rotate(-90 84 16)" fill="#FDF0F0"/>
<rect x="84" y="4" width="4" height="4" transform="rotate(-90 84 4)" fill="#FDF0F0"/>
<rect x="96" y="184" width="4" height="4" transform="rotate(-90 96 184)" fill="#FDF0F0"/>
<rect x="96" y="172" width="4" height="4" transform="rotate(-90 96 172)" fill="#FDF0F0"/>
<rect x="96" y="160" width="4" height="4" transform="rotate(-90 96 160)" fill="#FDF0F0"/>
<rect x="96" y="148" width="4" height="4" transform="rotate(-90 96 148)" fill="#FDF0F0"/>
<rect x="96" y="136" width="4" height="4" transform="rotate(-90 96 136)" fill="#FDF0F0"/>
<rect x="96" y="124" width="4" height="4" transform="rotate(-90 96 124)" fill="#FDF0F0"/>
<rect x="96" y="112" width="4" height="4" transform="rotate(-90 96 112)" fill="#FDF0F0"/>
<rect x="96" y="100" width="4" height="4" transform="rotate(-90 96 100)" fill="#FDF0F0"/>
<rect x="96" y="88" width="4" height="4" transform="rotate(-90 96 88)" fill="#FDF0F0"/>
<rect x="96" y="76" width="4" height="4" transform="rotate(-90 96 76)" fill="#FDF0F0"/>
<rect x="96" y="64" width="4" height="4" transform="rotate(-90 96 64)" fill="#FDF0F0"/>
<rect x="96" y="52" width="4" height="4" transform="rotate(-90 96 52)" fill="#FDF0F0"/>
<rect x="96" y="40" width="4" height="4" transform="rotate(-90 96 40)" fill="#FDF0F0"/>
<rect x="96" y="28" width="4" height="4" transform="rotate(-90 96 28)" fill="#FDF0F0"/>
<rect x="96" y="16" width="4" height="4" transform="rotate(-90 96 16)" fill="#FDF0F0"/>
<rect x="96" y="4" width="4" height="4" transform="rotate(-90 96 4)" fill="#FDF0F0"/>
<rect x="108" y="184" width="4" height="4" transform="rotate(-90 108 184)" fill="#FDF0F0"/>
<rect x="108" y="172" width="4" height="4" transform="rotate(-90 108 172)" fill="#FDF0F0"/>
<rect x="108" y="160" width="4" height="4" transform="rotate(-90 108 160)" fill="#FDF0F0"/>
<rect x="108" y="148" width="4" height="4" transform="rotate(-90 108 148)" fill="#FDF0F0"/>
<rect x="108" y="136" width="4" height="4" transform="rotate(-90 108 136)" fill="#FDF0F0"/>
<rect x="108" y="124" width="4" height="4" transform="rotate(-90 108 124)" fill="#FDF0F0"/>
<rect x="108" y="112" width="4" height="4" transform="rotate(-90 108 112)" fill="#FDF0F0"/>
<rect x="108" y="100" width="4" height="4" transform="rotate(-90 108 100)" fill="#FDF0F0"/>
<rect x="108" y="88" width="4" height="4" transform="rotate(-90 108 88)" fill="#FDF0F0"/>
<rect x="108" y="76" width="4" height="4" transform="rotate(-90 108 76)" fill="#FDF0F0"/>
<rect x="108" y="64" width="4" height="4" transform="rotate(-90 108 64)" fill="#FDF0F0"/>
<rect x="108" y="52" width="4" height="4" transform="rotate(-90 108 52)" fill="#FDF0F0"/>
<rect x="108" y="40" width="4" height="4" transform="rotate(-90 108 40)" fill="#FDF0F0"/>
<rect x="108" y="28" width="4" height="4" transform="rotate(-90 108 28)" fill="#FDF0F0"/>
<rect x="108" y="16" width="4" height="4" transform="rotate(-90 108 16)" fill="#FDF0F0"/>
<rect x="108" y="4" width="4" height="4" transform="rotate(-90 108 4)" fill="#FDF0F0"/>
<rect x="120" y="184" width="4" height="4" transform="rotate(-90 120 184)" fill="#FDF0F0"/>
<rect x="120" y="172" width="4" height="4" transform="rotate(-90 120 172)" fill="#FDF0F0"/>
<rect x="120" y="160" width="4" height="4" transform="rotate(-90 120 160)" fill="#FDF0F0"/>
<rect x="120" y="148" width="4" height="4" transform="rotate(-90 120 148)" fill="#FDF0F0"/>
<rect x="120" y="136" width="4" height="4" transform="rotate(-90 120 136)" fill="#FDF0F0"/>
<rect x="120" y="124" width="4" height="4" transform="rotate(-90 120 124)" fill="#FDF0F0"/>
<rect x="120" y="112" width="4" height="4" transform="rotate(-90 120 112)" fill="#FDF0F0"/>
<rect x="120" y="100" width="4" height="4" transform="rotate(-90 120 100)" fill="#FDF0F0"/>
<rect x="120" y="88" width="4" height="4" transform="rotate(-90 120 88)" fill="#FDF0F0"/>
<rect x="120" y="76" width="4" height="4" transform="rotate(-90 120 76)" fill="#FDF0F0"/>
<rect x="120" y="64" width="4" height="4" transform="rotate(-90 120 64)" fill="#FDF0F0"/>
<rect x="120" y="52" width="4" height="4" transform="rotate(-90 120 52)" fill="#FDF0F0"/>
<rect x="120" y="40" width="4" height="4" transform="rotate(-90 120 40)" fill="#FDF0F0"/>
<rect x="120" y="28" width="4" height="4" transform="rotate(-90 120 28)" fill="#FDF0F0"/>
<rect x="120" y="16" width="4" height="4" transform="rotate(-90 120 16)" fill="#FDF0F0"/>
<rect x="120" y="4" width="4" height="4" transform="rotate(-90 120 4)" fill="#FDF0F0"/>
<rect x="132" y="184" width="4" height="4" transform="rotate(-90 132 184)" fill="#FDF0F0"/>
<rect x="132" y="172" width="4" height="4" transform="rotate(-90 132 172)" fill="#FDF0F0"/>
<rect x="132" y="160" width="4" height="4" transform="rotate(-90 132 160)" fill="#FDF0F0"/>
<rect x="132" y="148" width="4" height="4" transform="rotate(-90 132 148)" fill="#FDF0F0"/>
<rect x="132" y="136" width="4" height="4" transform="rotate(-90 132 136)" fill="#FDF0F0"/>
<rect x="132" y="124" width="4" height="4" transform="rotate(-90 132 124)" fill="#FDF0F0"/>
<rect x="132" y="112" width="4" height="4" transform="rotate(-90 132 112)" fill="#FDF0F0"/>
<rect x="132" y="100" width="4" height="4" transform="rotate(-90 132 100)" fill="#FDF0F0"/>
<rect x="132" y="88" width="4" height="4" transform="rotate(-90 132 88)" fill="#FDF0F0"/>
<rect x="132" y="76" width="4" height="4" transform="rotate(-90 132 76)" fill="#FDF0F0"/>
<rect x="132" y="64" width="4" height="4" transform="rotate(-90 132 64)" fill="#FDF0F0"/>
<rect x="132" y="52" width="4" height="4" transform="rotate(-90 132 52)" fill="#FDF0F0"/>
<rect x="132" y="40" width="4" height="4" transform="rotate(-90 132 40)" fill="#FDF0F0"/>
<rect x="132" y="28" width="4" height="4" transform="rotate(-90 132 28)" fill="#FDF0F0"/>
<rect x="132" y="16" width="4" height="4" transform="rotate(-90 132 16)" fill="#FDF0F0"/>
<rect x="132" y="4" width="4" height="4" transform="rotate(-90 132 4)" fill="#FDF0F0"/>
<rect x="144" y="184" width="4" height="4" transform="rotate(-90 144 184)" fill="#FDF0F0"/>
<rect x="144" y="172" width="4" height="4" transform="rotate(-90 144 172)" fill="#FDF0F0"/>
<rect x="144" y="160" width="4" height="4" transform="rotate(-90 144 160)" fill="#FDF0F0"/>
<rect x="144" y="148" width="4" height="4" transform="rotate(-90 144 148)" fill="#FDF0F0"/>
<rect x="144" y="136" width="4" height="4" transform="rotate(-90 144 136)" fill="#FDF0F0"/>
<rect x="144" y="124" width="4" height="4" transform="rotate(-90 144 124)" fill="#FDF0F0"/>
<rect x="144" y="112" width="4" height="4" transform="rotate(-90 144 112)" fill="#FDF0F0"/>
<rect x="144" y="100" width="4" height="4" transform="rotate(-90 144 100)" fill="#FDF0F0"/>
<rect x="144" y="88" width="4" height="4" transform="rotate(-90 144 88)" fill="#FDF0F0"/>
<rect x="144" y="76" width="4" height="4" transform="rotate(-90 144 76)" fill="#FDF0F0"/>
<rect x="144" y="64" width="4" height="4" transform="rotate(-90 144 64)" fill="#FDF0F0"/>
<rect x="144" y="52" width="4" height="4" transform="rotate(-90 144 52)" fill="#FDF0F0"/>
<rect x="144" y="40" width="4" height="4" transform="rotate(-90 144 40)" fill="#FDF0F0"/>
<rect x="144" y="28" width="4" height="4" transform="rotate(-90 144 28)" fill="#FDF0F0"/>
<rect x="144" y="16" width="4" height="4" transform="rotate(-90 144 16)" fill="#FDF0F0"/>
<rect x="144" y="4" width="4" height="4" transform="rotate(-90 144 4)" fill="#FDF0F0"/>
<rect x="156" y="184" width="4" height="4" transform="rotate(-90 156 184)" fill="#FDF0F0"/>
<rect x="156" y="172" width="4" height="4" transform="rotate(-90 156 172)" fill="#FDF0F0"/>
<rect x="156" y="160" width="4" height="4" transform="rotate(-90 156 160)" fill="#FDF0F0"/>
<rect x="156" y="148" width="4" height="4" transform="rotate(-90 156 148)" fill="#FDF0F0"/>
<rect x="156" y="136" width="4" height="4" transform="rotate(-90 156 136)" fill="#FDF0F0"/>
<rect x="156" y="124" width="4" height="4" transform="rotate(-90 156 124)" fill="#FDF0F0"/>
<rect x="156" y="112" width="4" height="4" transform="rotate(-90 156 112)" fill="#FDF0F0"/>
<rect x="156" y="100" width="4" height="4" transform="rotate(-90 156 100)" fill="#FDF0F0"/>
<rect x="156" y="88" width="4" height="4" transform="rotate(-90 156 88)" fill="#FDF0F0"/>
<rect x="156" y="76" width="4" height="4" transform="rotate(-90 156 76)" fill="#FDF0F0"/>
<rect x="156" y="64" width="4" height="4" transform="rotate(-90 156 64)" fill="#FDF0F0"/>
<rect x="156" y="52" width="4" height="4" transform="rotate(-90 156 52)" fill="#FDF0F0"/>
<rect x="156" y="40" width="4" height="4" transform="rotate(-90 156 40)" fill="#FDF0F0"/>
<rect x="156" y="28" width="4" height="4" transform="rotate(-90 156 28)" fill="#FDF0F0"/>
<rect x="156" y="16" width="4" height="4" transform="rotate(-90 156 16)" fill="#FDF0F0"/>
<rect x="156" y="4" width="4" height="4" transform="rotate(-90 156 4)" fill="#FDF0F0"/>
<rect x="168" y="184" width="4" height="4" transform="rotate(-90 168 184)" fill="#FDF0F0"/>
<rect x="168" y="172" width="4" height="4" transform="rotate(-90 168 172)" fill="#FDF0F0"/>
<rect x="168" y="160" width="4" height="4" transform="rotate(-90 168 160)" fill="#FDF0F0"/>
<rect x="168" y="148" width="4" height="4" transform="rotate(-90 168 148)" fill="#FDF0F0"/>
<rect x="168" y="136" width="4" height="4" transform="rotate(-90 168 136)" fill="#FDF0F0"/>
<rect x="168" y="124" width="4" height="4" transform="rotate(-90 168 124)" fill="#FDF0F0"/>
<rect x="168" y="112" width="4" height="4" transform="rotate(-90 168 112)" fill="#FDF0F0"/>
<rect x="168" y="100" width="4" height="4" transform="rotate(-90 168 100)" fill="#FDF0F0"/>
<rect x="168" y="88" width="4" height="4" transform="rotate(-90 168 88)" fill="#FDF0F0"/>
<rect x="168" y="76" width="4" height="4" transform="rotate(-90 168 76)" fill="#FDF0F0"/>
<rect x="168" y="64" width="4" height="4" transform="rotate(-90 168 64)" fill="#FDF0F0"/>
<rect x="168" y="52" width="4" height="4" transform="rotate(-90 168 52)" fill="#FDF0F0"/>
<rect x="168" y="40" width="4" height="4" transform="rotate(-90 168 40)" fill="#FDF0F0"/>
<rect x="168" y="28" width="4" height="4" transform="rotate(-90 168 28)" fill="#FDF0F0"/>
<rect x="168" y="16" width="4" height="4" transform="rotate(-90 168 16)" fill="#FDF0F0"/>
<rect x="168" y="4" width="4" height="4" transform="rotate(-90 168 4)" fill="#FDF0F0"/>
<rect x="180" y="184" width="4" height="4" transform="rotate(-90 180 184)" fill="#FDF0F0"/>
<rect x="180" y="172" width="4" height="4" transform="rotate(-90 180 172)" fill="#FDF0F0"/>
<rect x="180" y="160" width="4" height="4" transform="rotate(-90 180 160)" fill="#FDF0F0"/>
<rect x="180" y="148" width="4" height="4" transform="rotate(-90 180 148)" fill="#FDF0F0"/>
<rect x="180" y="136" width="4" height="4" transform="rotate(-90 180 136)" fill="#FDF0F0"/>
<rect x="180" y="124" width="4" height="4" transform="rotate(-90 180 124)" fill="#FDF0F0"/>
<rect x="180" y="112" width="4" height="4" transform="rotate(-90 180 112)" fill="#FDF0F0"/>
<rect x="180" y="100" width="4" height="4" transform="rotate(-90 180 100)" fill="#FDF0F0"/>
<rect x="180" y="88" width="4" height="4" transform="rotate(-90 180 88)" fill="#FDF0F0"/>
<rect x="180" y="76" width="4" height="4" transform="rotate(-90 180 76)" fill="#FDF0F0"/>
<rect x="180" y="64" width="4" height="4" transform="rotate(-90 180 64)" fill="#FDF0F0"/>
<rect x="180" y="52" width="4" height="4" transform="rotate(-90 180 52)" fill="#FDF0F0"/>
<rect x="180" y="40" width="4" height="4" transform="rotate(-90 180 40)" fill="#FDF0F0"/>
<rect x="180" y="28" width="4" height="4" transform="rotate(-90 180 28)" fill="#FDF0F0"/>
<rect x="180" y="16" width="4" height="4" transform="rotate(-90 180 16)" fill="#FDF0F0"/>
<rect x="180" y="4" width="4" height="4" transform="rotate(-90 180 4)" fill="#FDF0F0"/>
<rect x="192" y="184" width="4" height="4" transform="rotate(-90 192 184)" fill="#FDF0F0"/>
<rect x="192" y="172" width="4" height="4" transform="rotate(-90 192 172)" fill="#FDF0F0"/>
<rect x="192" y="160" width="4" height="4" transform="rotate(-90 192 160)" fill="#FDF0F0"/>
<rect x="192" y="148" width="4" height="4" transform="rotate(-90 192 148)" fill="#FDF0F0"/>
<rect x="192" y="136" width="4" height="4" transform="rotate(-90 192 136)" fill="#FDF0F0"/>
<rect x="192" y="124" width="4" height="4" transform="rotate(-90 192 124)" fill="#FDF0F0"/>
<rect x="192" y="112" width="4" height="4" transform="rotate(-90 192 112)" fill="#FDF0F0"/>
<rect x="192" y="100" width="4" height="4" transform="rotate(-90 192 100)" fill="#FDF0F0"/>
<rect x="192" y="88" width="4" height="4" transform="rotate(-90 192 88)" fill="#FDF0F0"/>
<rect x="192" y="76" width="4" height="4" transform="rotate(-90 192 76)" fill="#FDF0F0"/>
<rect x="192" y="64" width="4" height="4" transform="rotate(-90 192 64)" fill="#FDF0F0"/>
<rect x="192" y="52" width="4" height="4" transform="rotate(-90 192 52)" fill="#FDF0F0"/>
<rect x="192" y="40" width="4" height="4" transform="rotate(-90 192 40)" fill="#FDF0F0"/>
<rect x="192" y="28" width="4" height="4" transform="rotate(-90 192 28)" fill="#FDF0F0"/>
<rect x="192" y="16" width="4" height="4" transform="rotate(-90 192 16)" fill="#FDF0F0"/>
<rect x="192" y="4" width="4" height="4" transform="rotate(-90 192 4)" fill="#FDF0F0"/>
<rect x="204" y="184" width="4" height="4" transform="rotate(-90 204 184)" fill="#FDF0F0"/>
<rect x="204" y="172" width="4" height="4" transform="rotate(-90 204 172)" fill="#FDF0F0"/>
<rect x="204" y="160" width="4" height="4" transform="rotate(-90 204 160)" fill="#FDF0F0"/>
<rect x="204" y="148" width="4" height="4" transform="rotate(-90 204 148)" fill="#FDF0F0"/>
<rect x="204" y="136" width="4" height="4" transform="rotate(-90 204 136)" fill="#FDF0F0"/>
<rect x="204" y="124" width="4" height="4" transform="rotate(-90 204 124)" fill="#FDF0F0"/>
<rect x="204" y="112" width="4" height="4" transform="rotate(-90 204 112)" fill="#FDF0F0"/>
<rect x="204" y="100" width="4" height="4" transform="rotate(-90 204 100)" fill="#FDF0F0"/>
<rect x="204" y="88" width="4" height="4" transform="rotate(-90 204 88)" fill="#FDF0F0"/>
<rect x="204" y="76" width="4" height="4" transform="rotate(-90 204 76)" fill="#FDF0F0"/>
<rect x="204" y="64" width="4" height="4" transform="rotate(-90 204 64)" fill="#FDF0F0"/>
<rect x="204" y="52" width="4" height="4" transform="rotate(-90 204 52)" fill="#FDF0F0"/>
<rect x="204" y="40" width="4" height="4" transform="rotate(-90 204 40)" fill="#FDF0F0"/>
<rect x="204" y="28" width="4" height="4" transform="rotate(-90 204 28)" fill="#FDF0F0"/>
<rect x="204" y="16" width="4" height="4" transform="rotate(-90 204 16)" fill="#FDF0F0"/>
<rect x="204" y="4" width="4" height="4" transform="rotate(-90 204 4)" fill="#FDF0F0"/>
<rect x="216" y="184" width="4" height="4" transform="rotate(-90 216 184)" fill="#FDF0F0"/>
<rect x="216" y="172" width="4" height="4" transform="rotate(-90 216 172)" fill="#FDF0F0"/>
<rect x="216" y="160" width="4" height="4" transform="rotate(-90 216 160)" fill="#FDF0F0"/>
<rect x="216" y="148" width="4" height="4" transform="rotate(-90 216 148)" fill="#FDF0F0"/>
<rect x="216" y="136" width="4" height="4" transform="rotate(-90 216 136)" fill="#FDF0F0"/>
<rect x="216" y="124" width="4" height="4" transform="rotate(-90 216 124)" fill="#FDF0F0"/>
<rect x="216" y="112" width="4" height="4" transform="rotate(-90 216 112)" fill="#FDF0F0"/>
<rect x="216" y="100" width="4" height="4" transform="rotate(-90 216 100)" fill="#FDF0F0"/>
<rect x="216" y="88" width="4" height="4" transform="rotate(-90 216 88)" fill="#FDF0F0"/>
<rect x="216" y="76" width="4" height="4" transform="rotate(-90 216 76)" fill="#FDF0F0"/>
<rect x="216" y="64" width="4" height="4" transform="rotate(-90 216 64)" fill="#FDF0F0"/>
<rect x="216" y="52" width="4" height="4" transform="rotate(-90 216 52)" fill="#FDF0F0"/>
<rect x="216" y="40" width="4" height="4" transform="rotate(-90 216 40)" fill="#FDF0F0"/>
<rect x="216" y="28" width="4" height="4" transform="rotate(-90 216 28)" fill="#FDF0F0"/>
<rect x="216" y="16" width="4" height="4" transform="rotate(-90 216 16)" fill="#FDF0F0"/>
<rect x="216" y="4" width="4" height="4" transform="rotate(-90 216 4)" fill="#FDF0F0"/>
<rect x="228" y="184" width="4" height="4" transform="rotate(-90 228 184)" fill="#FDF0F0"/>
<rect x="228" y="172" width="4" height="4" transform="rotate(-90 228 172)" fill="#FDF0F0"/>
<rect x="228" y="160" width="4" height="4" transform="rotate(-90 228 160)" fill="#FDF0F0"/>
<rect x="228" y="148" width="4" height="4" transform="rotate(-90 228 148)" fill="#FDF0F0"/>
<rect x="228" y="136" width="4" height="4" transform="rotate(-90 228 136)" fill="#FDF0F0"/>
<rect x="228" y="124" width="4" height="4" transform="rotate(-90 228 124)" fill="#FDF0F0"/>
<rect x="228" y="112" width="4" height="4" transform="rotate(-90 228 112)" fill="#FDF0F0"/>
<rect x="228" y="100" width="4" height="4" transform="rotate(-90 228 100)" fill="#FDF0F0"/>
<rect x="228" y="88" width="4" height="4" transform="rotate(-90 228 88)" fill="#FDF0F0"/>
<rect x="228" y="76" width="4" height="4" transform="rotate(-90 228 76)" fill="#FDF0F0"/>
<rect x="228" y="64" width="4" height="4" transform="rotate(-90 228 64)" fill="#FDF0F0"/>
<rect x="228" y="52" width="4" height="4" transform="rotate(-90 228 52)" fill="#FDF0F0"/>
<rect x="228" y="40" width="4" height="4" transform="rotate(-90 228 40)" fill="#FDF0F0"/>
<rect x="228" y="28" width="4" height="4" transform="rotate(-90 228 28)" fill="#FDF0F0"/>
<rect x="228" y="16" width="4" height="4" transform="rotate(-90 228 16)" fill="#FDF0F0"/>
<rect x="228" y="4" width="4" height="4" transform="rotate(-90 228 4)" fill="#FDF0F0"/>
<rect x="240" y="184" width="4" height="4" transform="rotate(-90 240 184)" fill="#FDF0F0"/>
<rect x="240" y="172" width="4" height="4" transform="rotate(-90 240 172)" fill="#FDF0F0"/>
<rect x="240" y="160" width="4" height="4" transform="rotate(-90 240 160)" fill="#FDF0F0"/>
<rect x="240" y="148" width="4" height="4" transform="rotate(-90 240 148)" fill="#FDF0F0"/>
<rect x="240" y="136" width="4" height="4" transform="rotate(-90 240 136)" fill="#FDF0F0"/>
<rect x="240" y="124" width="4" height="4" transform="rotate(-90 240 124)" fill="#FDF0F0"/>
<rect x="240" y="112" width="4" height="4" transform="rotate(-90 240 112)" fill="#FDF0F0"/>
<rect x="240" y="100" width="4" height="4" transform="rotate(-90 240 100)" fill="#FDF0F0"/>
<rect x="240" y="88" width="4" height="4" transform="rotate(-90 240 88)" fill="#FDF0F0"/>
<rect x="240" y="76" width="4" height="4" transform="rotate(-90 240 76)" fill="#FDF0F0"/>
<rect x="240" y="64" width="4" height="4" transform="rotate(-90 240 64)" fill="#FDF0F0"/>
<rect x="240" y="52" width="4" height="4" transform="rotate(-90 240 52)" fill="#FDF0F0"/>
<rect x="240" y="40" width="4" height="4" transform="rotate(-90 240 40)" fill="#FDF0F0"/>
<rect x="240" y="28" width="4" height="4" transform="rotate(-90 240 28)" fill="#FDF0F0"/>
<rect x="240" y="16" width="4" height="4" transform="rotate(-90 240 16)" fill="#FDF0F0"/>
<rect x="240" y="4" width="4" height="4" transform="rotate(-90 240 4)" fill="#FDF0F0"/>
<rect x="252" y="184" width="4" height="4" transform="rotate(-90 252 184)" fill="#FDF0F0"/>
<rect x="252" y="172" width="4" height="4" transform="rotate(-90 252 172)" fill="#FDF0F0"/>
<rect x="252" y="160" width="4" height="4" transform="rotate(-90 252 160)" fill="#FDF0F0"/>
<rect x="252" y="148" width="4" height="4" transform="rotate(-90 252 148)" fill="#FDF0F0"/>
<rect x="252" y="136" width="4" height="4" transform="rotate(-90 252 136)" fill="#FDF0F0"/>
<rect x="252" y="124" width="4" height="4" transform="rotate(-90 252 124)" fill="#FDF0F0"/>
<rect x="252" y="112" width="4" height="4" transform="rotate(-90 252 112)" fill="#FDF0F0"/>
<rect x="252" y="100" width="4" height="4" transform="rotate(-90 252 100)" fill="#FDF0F0"/>
<rect x="252" y="88" width="4" height="4" transform="rotate(-90 252 88)" fill="#FDF0F0"/>
<rect x="252" y="76" width="4" height="4" transform="rotate(-90 252 76)" fill="#FDF0F0"/>
<rect x="252" y="64" width="4" height="4" transform="rotate(-90 252 64)" fill="#FDF0F0"/>
<rect x="252" y="52" width="4" height="4" transform="rotate(-90 252 52)" fill="#FDF0F0"/>
<rect x="252" y="40" width="4" height="4" transform="rotate(-90 252 40)" fill="#FDF0F0"/>
<rect x="252" y="28" width="4" height="4" transform="rotate(-90 252 28)" fill="#FDF0F0"/>
<rect x="252" y="16" width="4" height="4" transform="rotate(-90 252 16)" fill="#FDF0F0"/>
<rect x="252" y="4" width="4" height="4" transform="rotate(-90 252 4)" fill="#FDF0F0"/>
</svg>
