<svg width="174" height="234" viewBox="0 0 174 234" fill="none" xmlns="http://www.w3.org/2000/svg">
<g opacity="0.26" clip-path="url(#clip0_5456_11582)">
<path fill-rule="evenodd" clip-rule="evenodd" d="M5.28276 8.35617C2.73712 7.09426 -0.656485 8.5578 0.759175 11.8938C2.27559 15.4661 7.88222 15.5102 11.0486 15.4394C10.7317 15.4228 9.71115 12.1469 9.36177 11.6519C8.33141 10.1917 6.84776 9.13336 5.28276 8.35617ZM34.6131 72.4042C35.2554 72.9532 34.6654 72.4557 34.6131 72.4042V72.4042ZM2.83048 24.5139C1.34078 25.6523 1.26973 27.6622 2.48661 29.0227C3.93565 30.6424 6.58154 30.5834 8.5566 30.4256C9.45002 30.3541 14.2205 29.9722 13.0897 29.1918C13.1767 29.2247 13.3583 29.3044 13.5527 29.4127C13.6574 29.7949 13.7672 30.1757 13.8817 30.5548C13.8536 30.5712 13.8297 30.5888 13.7998 30.6051C13.8322 30.5908 13.855 30.5755 13.8836 30.561C15.0308 34.3501 16.6638 37.958 18.802 41.3333C18.002 41.0184 17.1734 40.78 16.333 40.6739C13.8443 40.3592 8.60885 42.2927 11.3927 45.6053C14.0619 48.7809 18.2175 45.374 21.2469 44.9041C24.1853 49.0039 27.425 52.9328 30.8202 56.7305C30.6122 56.7957 30.4296 56.9314 30.325 57.1427C28.9629 56.4519 27.5436 55.4636 26.283 55.1961C24.464 54.8105 20.734 54.5768 19.3591 56.2045C17.6682 58.2059 19.4808 59.8316 21.4786 60.2155C24.3755 60.7722 28.1676 59.3573 30.9551 58.4012C31.2739 58.4576 31.622 58.3644 31.8299 58.1094C31.8915 58.0892 31.9531 58.0694 32.013 58.0501C35.4513 61.8292 39.0211 65.4837 42.5692 69.058C42.5314 69.056 42.4936 69.0537 42.4542 69.0516C41.5287 68.4448 40.5359 67.9469 39.4599 67.6861C36.9706 67.0795 34.0418 67.0766 32.0217 68.8772C30.0095 70.67 29.2967 73.8056 31.3784 75.8189C35.5453 79.8487 41.6845 70.6603 43.7863 70.2768C47.392 73.871 51.2046 77.2291 55.077 80.5194C54.6373 80.3856 54.1862 80.2872 53.7201 80.2429C49.9228 79.8795 41.0097 84.5335 45.6699 89.1125C49.731 93.1027 54.4315 85.4226 57.7042 82.7367C61.3534 85.8035 65.0224 88.8492 68.5884 92.0136C66.6435 91.4973 64.7639 91.4213 62.6789 92.0511C60.5215 92.7038 57.0404 94.3323 58.4042 97.2442C59.7913 100.205 63.9716 98.858 66.1489 97.9177C67.3365 97.405 69.7174 95.6744 71.8079 94.9454C77.4983 100.316 82.4271 106.232 86.1585 113.2C88.4881 117.551 90.2559 122.199 91.5002 126.977C92.2944 130.026 93.8593 135.148 93.546 139.117C95.0393 131.172 92.3392 121.631 89.4306 114.53C86.7562 108 82.7537 102.267 78.0657 97.1075C79.2421 93.5702 89.1444 88.4681 83.2247 85.1817C80.0812 83.444 76.8615 86.3274 76.1743 89.3811C75.7024 91.4796 76.4214 94.1163 77.1846 96.153C75.7098 94.5801 74.1767 93.0578 72.5969 91.586C70.4136 89.5518 68.178 87.5767 65.9211 85.6265C69.6402 82.1336 73.16 72.1482 68.1734 70.5151C60.8098 68.1104 64.3554 81.7309 64.869 84.2837C65.0149 84.2923 65.1286 84.2482 65.2122 84.1538C65.1708 84.3876 65.1228 84.6376 65.0645 84.8897C60.7448 81.1765 56.361 77.5363 52.1217 73.7343C52.5036 73.4521 53.1109 72.3737 53.588 71.7997C54.665 70.5058 55.6955 69.1542 56.4486 67.6405C57.6381 65.2484 58.7855 61.433 55.6321 60.0259C52.2026 58.493 50.5729 62.8084 50.549 65.3827C50.5327 67.1632 51.0178 68.8545 51.2704 70.5997C51.3494 71.1439 51.0453 73.5973 51.787 72.5419C51.752 72.9311 51.7469 73.2129 51.7643 73.4127C51.0032 72.7267 50.248 72.0333 49.4975 71.3349C49.5323 71.2467 49.558 71.1505 49.5639 71.039C49.6041 70.2715 48.8316 69.9759 48.2898 70.2007C47.2996 69.26 46.319 68.3074 45.356 67.3359C43.3148 65.2777 41.244 63.1607 39.1876 60.9987C39.6337 60.6155 39.4563 60.0849 39.8735 59.6781C40.2901 59.2722 41.1106 59.0477 41.6005 58.6707C42.8325 57.7219 43.8542 56.3396 44.5931 54.9792C45.813 52.7314 47.3896 48.0161 43.8258 46.9447C40.1526 45.8387 38.2881 50.3778 38.0519 53.2156C38.006 53.7654 38.4177 58.7191 38.733 60.5179C34.9278 56.4998 31.1852 52.331 27.7945 48.0896C28.8226 48.0801 31.7373 45.9744 32.3266 45.3998C33.7643 43.9983 36.0498 40.9016 33.5292 39.2628C31.288 37.8093 28.5254 39.9146 27.567 41.9606C27.4095 42.2975 26.854 45.4332 26.8107 46.8401C25.4073 45.0415 24.0686 43.2323 22.8231 41.4173C21.9925 40.2106 21.2163 38.972 20.4901 37.7071C20.6649 37.608 20.8294 37.4353 20.9847 37.2205C24.7227 36.5863 29.4883 30.7559 25.0977 28.7273C23.0073 27.7627 20.7403 29.7539 19.7163 31.384C19.5065 31.7175 19.1667 33.3942 18.8902 34.7168C16.8008 30.5263 15.2042 26.09 13.989 21.5414C14.3144 21.4606 14.59 21.2121 14.6263 20.7847C16.4411 19.7504 17.8742 18.8892 19.1411 16.9003C19.9281 15.6649 21.3455 12.8425 19.0329 12.1568C16.0235 11.2647 14.1331 15.8599 13.8869 18.1233C13.8582 18.386 13.8593 19.1501 13.8692 19.8503C13.7647 19.8361 13.6591 19.8377 13.5555 19.856C12.8643 17.0394 12.3126 14.1866 11.8738 11.329C13.5164 10.8005 13.8005 2.17666 12.7068 0.948722C10.2622 -1.80078 8.53756 2.171 8.66806 4.27017C8.82223 6.74529 9.94416 8.99683 11.2801 10.995C11.4234 11.2066 11.3825 11.1964 11.4197 10.9016C11.4402 11.0473 11.489 11.1548 11.5613 11.2327C11.4923 12.5356 11.358 13.8695 11.4225 15.0224C11.6075 18.324 11.9922 21.6448 12.5508 24.9039C12.6866 25.6965 12.8422 26.4827 13.0167 27.2621C11.6964 26.1376 9.91638 25.1386 9.21985 24.8262C7.41208 24.0162 4.62607 23.1416 2.83048 24.5139ZM93.758 139.128C93.6742 140.28 93.4664 141.334 93.0783 142.203C93.3693 141.213 93.5926 140.185 93.758 139.128Z" fill="#F2F2F2"/>
<g opacity="0.7">
<path fill-rule="evenodd" clip-rule="evenodd" d="M54.7988 86.3366C61.8688 85.9699 70.6124 90.0955 71.3667 97.7782C71.9146 103.36 71.7449 108.926 72.5929 114.5C73.271 118.955 74.705 123.231 76.6608 127.289C78.5414 131.191 82.4426 134.512 83.4573 138.681C84.104 141.337 83.742 145.073 82.8501 147.671C81.7656 150.83 82.342 150.58 84.5031 153.231C88.7378 158.425 92.551 163.752 95.2475 169.955C99.1317 178.891 101.678 189.335 100.237 199.116C100.053 200.359 99.8357 204.816 98.1249 205.127C96.2141 205.476 97.1075 202.926 97.2096 202.103C97.8597 196.849 98.4374 192.256 97.6531 186.92C94.627 166.331 79.8521 152.765 70.2316 135.291C69.7028 134.39 68.5863 132.244 67.81 130.828C66.5844 128.593 65.3523 124.34 63.6932 122.683C60.5685 119.561 63.4412 125.837 64.05 127.036C64.8199 128.551 65.6668 130.162 66.4556 131.49C70.0651 137.647 74.094 144.367 77.8218 150.713C61.6992 154.385 50.3447 135.008 46.0181 122.269C42.4533 111.774 38.1882 87.2347 54.7988 86.3366Z" fill="#69A1AC"/>
<path fill-rule="evenodd" clip-rule="evenodd" d="M149.56 66.8459C137.742 67.7834 130.154 75.5798 126.622 86.4845C124.718 92.3611 124.5 98.3981 123.442 104.437C121.851 113.523 118.427 120.409 111.735 126.882C109.663 128.887 108.135 130.945 107.05 133.148C104.894 135.346 103.018 137.834 101.64 140.876C99.8791 144.761 99.3808 149.422 101.414 153.296C101.96 154.337 103.324 156.427 104.737 157.377C99.4461 168.642 96.5369 180.979 96.8649 193.301C97.063 200.74 97.4262 208.181 97.85 215.61C97.9641 217.605 98.6139 220.899 99.5899 217.553C100.483 214.493 99.363 209.69 99.2593 206.493C98.755 190.92 98.3238 176.761 104.736 162.211C105.409 160.686 106.122 159.174 106.864 157.673C106.908 157.648 106.948 157.617 106.989 157.588C107.018 157.609 107.043 157.633 107.072 157.654C107.119 157.57 107.184 157.469 107.26 157.357C107.473 157.137 107.659 156.859 107.835 156.549C108.404 155.761 109.048 154.836 109.051 154.329C109.051 154.325 109.049 154.319 109.049 154.315C113.019 147.837 117.566 141.716 122.21 135.715C122.175 135.758 127.247 128.854 126.463 132.672C126.085 134.512 122.354 138.016 120.847 139.965C117.514 144.301 113.599 149.795 110.347 155.108C109.909 155.359 109.29 156.594 108.843 157.513C108.596 157.979 108.366 158.449 108.139 158.858C119.665 162.665 128.631 154.997 134.745 146.078C134.752 146.067 134.759 146.057 134.766 146.046C136.626 143.582 138.532 141.134 140.913 139.186C144.885 135.935 149.139 135.362 153.823 133.762C166.595 129.399 172.025 112.852 173.75 100.573C175.696 86.7212 166.178 65.4801 149.56 66.8459Z" fill="#89C5CC"/>
<path fill-rule="evenodd" clip-rule="evenodd" d="M126.215 28.0558C114.085 40.6767 108.225 58.1821 103.584 74.639C98.4017 93.0196 94.9784 111.684 94.847 130.794C94.7609 143.35 94.4192 155.983 95.1523 168.524C95.4123 172.978 95.8565 177.44 96.5626 181.846C96.6208 182.208 98.2007 192.046 99.7124 189.754C100.572 188.45 98.0929 179.548 97.9056 178.066C96.8518 169.715 96.6069 161.302 96.6583 152.891C96.7428 139.043 96.3343 125.265 97.7384 111.467C97.9477 109.407 98.1134 107.243 98.6028 105.228C99.1225 103.085 98.4606 104.021 100.153 103.172C101.798 102.348 103.831 102.465 105.538 101.431C112.307 97.3272 115.77 86.7861 118.466 79.8697C121.549 71.9604 123.422 63.5263 124.919 55.2029C126.017 49.0874 126.803 43.0092 127.248 36.8151C127.388 34.8629 127.396 32.8214 127.78 30.9019C127.883 30.3841 128.402 29.4681 128.383 29.0096C128.343 28.0391 127.757 27.4684 127.709 26.6529C127.202 27.1098 126.703 27.5777 126.215 28.0558Z" fill="#89C5CC"/>
<path fill-rule="evenodd" clip-rule="evenodd" d="M60.0703 196.209C60.0703 217.081 76.9955 234.001 97.8739 234.001C118.752 234.001 135.677 217.081 135.677 196.209" fill="#89C5CC"/>
<path fill-rule="evenodd" clip-rule="evenodd" d="M100.908 196.329H98.9102C99.0488 193.824 99.2318 191.323 99.6508 188.845C101.253 179.37 106.264 165.453 117.253 163.915C117.658 163.858 119.149 163.848 120.956 163.954C121.812 163.476 122.771 163.187 123.782 163.12C133.138 162.431 143.586 169.976 148.099 177.829C151.738 184.16 151.125 192.474 148.877 199.2C147.373 203.703 144.088 210.124 138.612 210.186C131.759 210.265 131.429 201.798 131.296 196.849C131.12 190.269 130.289 184.536 125.102 180.051C123.893 179.006 122.572 178.087 121.351 177.057C119.439 175.444 117.326 173.793 117.08 171.124C116.74 167.443 118.818 166.781 121.992 167.465C122.533 167.581 127.982 170.026 127.175 168.094C126.929 167.503 126.029 167.036 124.894 166.685C121.955 166.366 118.451 165.995 117.443 166.217C106.57 168.601 102.337 183.657 101.213 193.223C101.091 194.256 100.993 195.292 100.908 196.329Z" fill="#69A1AC"/>
</g>
</g>
<defs>
<clipPath id="clip0_5456_11582">
<rect width="174" height="234" fill="white"/>
</clipPath>
</defs>
</svg>
