<svg width="142" height="24" viewBox="0 0 142 24" fill="none" xmlns="http://www.w3.org/2000/svg">
<g clip-path="url(#clip0_2489_7834)">
<path d="M8.94309 0.122129C5.51811 0.471024 2.65717 2.44809 1.12785 5.51836C-0.19213 8.17577 -0.25028 11.2286 0.970851 13.8395C1.42441 14.8106 1.98264 15.5781 3.15726 16.8109C6.54735 20.3871 9.78043 23.7539 9.82695 23.7539C9.8851 23.7539 16.4676 16.8691 17.1363 16.1073C17.6654 15.5084 18.2295 14.671 18.5319 14.043C18.7296 13.6302 18.7528 13.5255 18.7528 13.1417C18.7528 12.7986 18.7238 12.6474 18.6191 12.4439C18.3516 11.9322 17.8864 11.5775 17.27 11.4205C16.2931 11.1705 15.4034 11.6356 14.758 12.7288C14.38 13.3685 14.1765 13.6243 13.7346 14.0314C13.0193 14.6885 12.1587 15.1478 11.2109 15.3863C10.6294 15.5258 9.32106 15.5607 8.70468 15.4444C7.57658 15.2293 6.62875 14.7582 5.86119 14.0256C5.07617 13.2754 4.57028 12.3974 4.25627 11.2286C4.12834 10.7343 4.10508 10.5599 4.10508 9.71091C4.10508 8.82704 4.12253 8.71074 4.2679 8.22811C4.58191 7.18724 5.0878 6.36734 5.84956 5.64047C6.60549 4.91943 7.44866 4.4426 8.43137 4.18093C8.84423 4.06464 9.07101 4.04719 9.82695 4.04719C10.7573 4.04719 11.0539 4.09371 11.7924 4.36701C13.0368 4.82057 14.3509 5.90796 14.8976 6.9372C15.1185 7.34424 15.4325 7.6408 15.8686 7.84432C16.1419 7.97225 16.2757 7.99551 16.6885 7.99551C17.334 7.99551 17.7817 7.80362 18.2004 7.34424C18.7819 6.71042 18.8168 5.86726 18.2993 4.94269C17.2003 2.97143 15.5081 1.49445 13.4903 0.73851C12.182 0.250057 10.2398 -0.0116138 8.94309 0.122129Z" fill="white"/>
<path d="M106.482 0.644491C105.331 0.778233 104.476 1.26669 104.116 1.99936C103.784 2.67389 103.796 2.22033 103.796 13.3675V23.625L104.453 23.5901C105.913 23.5087 106.744 23.1017 107.128 22.2818C107.25 22.0201 107.256 21.9096 107.285 19.8802L107.314 17.7461L108.273 16.8913C108.803 16.4203 109.314 15.9551 109.419 15.8621L109.605 15.6818L111.995 19.2813C113.623 21.7352 114.478 22.9679 114.676 23.154C115.065 23.5261 115.432 23.6308 116.147 23.5959C116.577 23.5727 116.74 23.5378 117.013 23.3982C117.362 23.2296 117.897 22.7179 117.851 22.5958C117.833 22.5609 116.449 20.578 114.763 18.1881C113.082 15.7981 111.698 13.8211 111.693 13.792C111.681 13.7629 112.524 12.9663 113.565 12.0126C116.031 9.76226 116.182 9.582 116.182 8.94236C116.182 8.50624 116.001 8.19224 115.426 7.5933C114.955 7.11067 114.914 7.08159 114.804 7.15719C114.74 7.2037 113.059 8.72721 111.07 10.5531C109.082 12.379 107.424 13.8734 107.395 13.885C107.366 13.8967 107.343 11.2683 107.343 7.24441V0.580526L107.128 0.586342C107.006 0.592157 106.715 0.615416 106.482 0.644491Z" fill="white"/>
<path d="M32.7671 0.900206C30.3249 1.29562 28.0919 2.48767 26.3591 4.31937C24.1669 6.64533 23.0795 9.70979 23.2656 13.065C23.5505 18.2519 27.3127 22.6654 32.3078 23.6714C33.1916 23.8458 35.0873 23.8923 36.1049 23.7586C37.8842 23.526 39.21 23.055 40.4486 22.2235C41.5476 21.4792 41.8384 21.107 41.7977 20.5139C41.7686 20.1359 41.6523 19.9382 41.3441 19.7289C40.9022 19.4265 40.5475 19.4788 39.8904 19.9498C38.1285 21.2175 36.4829 21.7641 34.4535 21.7641C33.023 21.7641 31.9705 21.5373 30.761 20.9558C29.7201 20.4557 29.034 19.9673 28.1966 19.1358C25.923 16.8621 24.9868 13.8558 25.5334 10.6053C25.8765 8.54099 27.1092 6.38948 28.72 5.04042C30.8598 3.24361 33.1684 2.58653 35.9944 2.97031C37.3202 3.15639 38.5064 3.65066 39.588 4.47056C39.8206 4.65082 40.1114 4.85434 40.2277 4.92412C40.6056 5.15672 41.1871 5.06368 41.3499 4.74967C41.3906 4.6799 41.4662 4.58686 41.5302 4.54615C41.693 4.42985 41.8093 4.15655 41.8093 3.88325C41.8093 3.65647 41.7802 3.60995 41.472 3.31339C40.3498 2.24926 38.3436 1.28399 36.5759 0.958355C35.8141 0.818796 33.5056 0.783907 32.7671 0.900206Z" fill="white"/>
<path d="M63.6728 0.935238C62.9982 1.03409 62.3179 1.38299 61.9865 1.80166C61.6259 2.25522 61.3875 2.97627 61.3294 3.81943L61.3003 4.18577H65.1905H69.0806V13.9083V23.625L69.6796 23.5901C71.2903 23.4913 72.337 22.84 72.7615 21.6712C72.8138 21.5316 72.8371 19.2231 72.8603 12.85L72.8894 4.21484L75.6806 4.18577C78.6636 4.15088 78.6345 4.15088 79.2625 3.83688C80.1115 3.40657 80.6523 2.40641 80.6523 1.25506V0.871273L72.3254 0.877089C67.7432 0.882904 63.8472 0.906164 63.6728 0.935238Z" fill="white"/>
<path d="M44.5654 1.74408C43.6815 2.01738 43.2396 3.02335 43.635 3.86652C44.1176 4.90157 45.4958 5.08183 46.2284 4.20378C46.589 3.76185 46.6704 3.02335 46.4087 2.51746C46.2808 2.2616 45.9842 1.97667 45.6877 1.82548C45.4725 1.70919 44.8271 1.66267 44.5654 1.74408Z" fill="white"/>
<path d="M58.7832 1.77676C58.4169 1.88725 58.0098 2.2594 57.8761 2.60248C57.4749 3.65498 58.225 4.76562 59.3356 4.76562C59.888 4.76562 60.5219 4.33532 60.737 3.81198C60.8824 3.4689 60.8649 2.85252 60.7079 2.52689C60.3823 1.85236 59.5682 1.53254 58.7832 1.77676Z" fill="white"/>
<path d="M50.5608 2.87583C50.27 2.9805 49.9793 3.28869 49.8979 3.58525C49.8572 3.72481 49.8339 4.66101 49.8339 6.11473V8.42907H48.7523C47.5486 8.42907 47.38 8.46977 47.1416 8.80122C47.0427 8.94659 47.0137 9.06289 47.0137 9.37108C47.0137 9.71998 47.0311 9.77812 47.1881 9.94676C47.4847 10.2608 47.6301 10.2898 48.7814 10.2898H49.8281L49.8513 14.6045C49.8746 19.3495 49.8688 19.2506 50.2468 20.2333C50.869 21.8615 52.3285 23.1233 53.9625 23.449C54.6079 23.5827 55.5616 23.6292 55.9686 23.5536C56.5617 23.4432 56.9281 23.0361 56.9281 22.4895C56.9281 22.1406 56.8467 21.9371 56.6199 21.6987C56.3815 21.4486 56.1605 21.3963 55.3755 21.3963C55.015 21.3963 54.5847 21.3672 54.416 21.3323C53.4101 21.123 52.5669 20.3205 52.1773 19.2041C52.0901 18.954 52.0726 18.4656 52.061 14.6103L52.0378 10.2957L53.8694 10.2782C55.6197 10.2608 55.707 10.2549 55.864 10.1386C56.4396 9.71416 56.4338 8.9117 55.8523 8.57444L55.6081 8.42907H53.8287H52.0436V6.11473C52.0436 4.60867 52.0203 3.72481 51.9796 3.57362C51.8633 3.15495 51.3516 2.78279 50.9097 2.78861C50.8457 2.79442 50.6887 2.82931 50.5608 2.87583Z" fill="white"/>
<path d="M81.3913 7.09309C80.6528 7.16287 80.0306 7.30243 79.234 7.56991C77.9838 7.98858 77.2743 8.43052 76.7568 9.11668C76.0881 10.0122 76.0532 10.8263 76.6696 11.5008C77.0069 11.8788 77.7453 12.2916 77.7453 12.1055C77.7453 12.0706 77.8965 11.8497 78.0884 11.6171C79.1002 10.3378 80.9087 9.67491 82.8508 9.87261C83.9499 9.9831 84.6651 10.2913 85.2117 10.8728C85.735 11.431 85.9444 12.1055 85.9444 13.2278V13.8093L86.4154 14.2105L86.8864 14.6118L86.7701 14.7281L86.648 14.8444L86.2467 14.4722C85.0256 13.3499 83.2346 12.7684 81.2924 12.8731C78.8909 13.0068 77.158 13.8965 76.0707 15.5538C75.5008 16.426 75.2624 17.3971 75.3205 18.6008C75.4485 21.2001 77.2569 23.0492 80.1236 23.526C80.8389 23.6423 82.467 23.6132 83.0951 23.4679C84.2871 23.2004 85.2582 22.6538 86.206 21.7408C86.6189 21.3396 86.6829 21.2989 86.7759 21.3687C86.8689 21.4385 86.8631 21.4617 86.648 21.7292C86.5259 21.892 86.3514 22.0723 86.27 22.1421C86.1246 22.2525 86.1188 22.2758 86.1188 22.9329V23.6074H86.491C87.0085 23.6074 87.8342 23.4504 88.1947 23.2876C88.8227 23.0027 89.2356 22.4503 89.3693 21.7234C89.4566 21.264 89.4566 12.6638 89.3752 11.9776C89.0553 9.36672 87.3516 7.69202 84.5197 7.20939C83.7231 7.07564 82.1821 7.01749 81.3913 7.09309ZM83.0078 15.5305C84.4267 15.705 85.4675 16.3679 85.8339 17.3215C86.1828 18.2461 85.9327 19.38 85.2466 20.0254C84.2813 20.9326 82.1182 21.264 80.5539 20.7523C79.4607 20.3976 78.8734 19.6184 78.8095 18.4612C78.7455 17.339 79.0944 16.6353 80.019 16.0306C80.7342 15.5596 81.7983 15.3851 83.0078 15.5305Z" fill="white"/>
<path d="M94.9751 7.09286C92.2305 7.38361 90.2651 8.73848 89.8696 10.6167C89.6836 11.5064 89.7999 12.6287 90.1662 13.3671C90.4337 13.9079 91.0908 14.5883 91.6723 14.9314C92.5271 15.4373 93.9866 15.9315 96.0625 16.4258C97.6907 16.8154 98.97 17.3097 99.4642 17.74C99.912 18.1354 100.104 18.7983 99.9353 19.3739C99.8131 19.7984 99.4933 20.1299 98.9525 20.3857C98.2664 20.7056 97.7721 20.787 96.4405 20.787C95.4054 20.787 95.2252 20.7753 94.8239 20.6532C93.4749 20.2636 92.5794 19.3798 92.1956 18.0598L92.0968 17.7225L91.8002 17.7632C90.393 17.9319 89.7999 18.4145 89.7359 19.4205C89.6487 20.88 90.614 22.1477 92.4049 22.921C93.5737 23.4211 94.5158 23.5781 96.4114 23.5781C98.3594 23.5781 99.4294 23.392 100.575 22.8571C101.982 22.1942 102.866 21.258 103.192 20.0601C103.331 19.5426 103.337 18.3331 103.197 17.7632C102.68 15.6815 100.831 14.4894 96.7022 13.5765C95.609 13.3323 94.5623 13.0299 94.0738 12.8089C93.4691 12.5414 93.1551 12.0704 93.1551 11.454C93.1609 10.2794 94.853 9.52931 96.9813 9.76772C98.4583 9.93054 99.3538 10.4655 99.8422 11.4773C99.9643 11.739 100.086 12.0472 100.11 12.1693C100.127 12.2914 100.185 12.4077 100.232 12.4251C100.371 12.4775 101.278 12.3321 101.627 12.1984C102.441 11.896 102.814 11.1866 102.633 10.2794C102.535 9.75028 102.319 9.34324 101.924 8.91875C101.104 8.0407 99.7608 7.43595 98.0687 7.18009C97.3592 7.07542 95.6264 7.02309 94.9751 7.09286Z" fill="white"/>
<path d="M122.857 7.09211C121.026 7.30145 119.142 8.27835 118.089 9.56926C117.49 10.3078 117.095 11.0695 116.868 11.9476C116.758 12.3779 116.746 12.6163 116.723 15.0527C116.705 16.7623 116.717 17.8904 116.758 18.2393C116.996 20.2454 118.188 21.8562 120.165 22.8389C121.159 23.3331 122.078 23.5425 123.421 23.589C125.119 23.6471 126.399 23.4145 127.614 22.8272C128.486 22.4086 129.01 22.0539 129.475 21.5538C130.004 21.0014 130.219 20.5362 130.242 19.9082C130.26 19.5244 130.242 19.3848 130.138 19.1406C129.986 18.7917 129.55 18.3556 129.184 18.1928C128.882 18.059 128.283 17.966 127.713 17.966H127.288V18.1811C127.283 18.6754 127.056 19.2685 126.695 19.7279C126.439 20.0477 125.904 20.3792 125.346 20.5652C124.916 20.7048 124.794 20.7222 123.916 20.7222C123.166 20.7281 122.875 20.7048 122.584 20.6234C121.985 20.4606 121.479 20.1815 121.09 19.7977C120.485 19.1987 120.27 18.5765 120.212 17.2856L120.177 16.4541H124.765C127.881 16.4541 129.428 16.4308 129.579 16.3901C129.853 16.3145 130.411 15.8145 130.521 15.5412C130.585 15.3958 130.603 14.9888 130.603 13.8548C130.603 12.1802 130.539 11.7091 130.202 10.8427C129.643 9.389 128.213 8.09809 126.486 7.47589C125.526 7.13281 123.956 6.96418 122.857 7.09211ZM124.945 9.9763C125.829 10.2031 126.637 10.7846 126.986 11.4417C127.242 11.9243 127.347 12.4186 127.347 13.1803V13.8374H123.759H120.177L120.212 13.1222C120.235 12.7326 120.276 12.2964 120.31 12.1569C120.537 11.2091 121.369 10.3833 122.445 10.0344C123.107 9.8193 124.23 9.79022 124.945 9.9763Z" fill="white"/>
<path d="M133.807 7.09904C133.231 7.17463 132.69 7.36071 132.301 7.61656C131.928 7.86661 131.742 8.07594 131.539 8.48299C131.242 9.05866 131.242 8.9947 131.242 16.5657V23.625L131.87 23.5901C132.987 23.5378 133.888 23.2412 134.266 22.8109C134.371 22.6946 134.528 22.4504 134.609 22.2701L134.76 21.9503L134.789 17.5019L134.818 13.0535L134.975 12.6174C135.627 10.8438 137.482 9.86112 139.72 10.1112C140.249 10.1693 140.936 10.3554 141.372 10.5473C141.447 10.5822 141.494 10.524 141.599 10.2507C141.709 9.97742 141.732 9.80297 141.738 9.30289C141.738 8.7621 141.721 8.65743 141.581 8.36087C141.366 7.90149 141.168 7.65145 140.848 7.44793C139.912 6.86063 138.139 6.92459 136.795 7.60493C135.912 8.04687 135.092 8.75629 134.411 9.66923C134.091 10.0995 134.068 10.117 133.969 10.0239C133.847 9.91345 133.836 9.93671 134.347 9.27963L134.615 8.93655V7.9829V7.03507L134.4 7.04089C134.278 7.0467 134.01 7.06996 133.807 7.09904Z" fill="white"/>
<path d="M10.3386 8.97103L8.55341 10.7853L7.72188 9.95375C7.2625 9.50018 6.86127 9.12803 6.82057 9.12803C6.7159 9.12803 6.22745 9.81419 6.16348 10.0642C6.02974 10.5643 6.06463 10.6225 7.36717 11.9134L8.55923 13.0996L10.9724 10.6922L13.3798 8.28487L12.7867 7.71501C12.461 7.40682 12.1761 7.15096 12.1587 7.15678C12.1412 7.15678 11.3213 7.97668 10.3386 8.97103Z" fill="white"/>
<path d="M44.4552 7.98241C44.3273 8.058 44.1703 8.21501 44.0947 8.34293L43.9609 8.57553V15.6813C43.9609 20.5601 43.9784 22.8395 44.0249 22.95C44.1703 23.3396 44.5482 23.5605 45.0658 23.5605C45.4321 23.5605 45.7403 23.4035 45.9264 23.1244L46.0834 22.886L46.1008 15.9081C46.1125 12.0645 46.1008 8.81394 46.0834 8.67439C46.0427 8.40108 45.7984 8.07545 45.5251 7.93008C45.2693 7.80215 44.7285 7.82541 44.4552 7.98241Z" fill="white"/>
<path d="M58.8176 7.93008C58.5792 8.03475 58.3408 8.32549 58.2652 8.59298C58.1837 8.88954 58.1837 22.508 58.2652 22.8046C58.3989 23.2814 58.7885 23.5605 59.3118 23.5605C59.6666 23.5605 59.905 23.4675 60.1027 23.2465C60.3992 22.9209 60.3876 23.3047 60.405 15.9605C60.4167 12.1866 60.405 8.96513 60.3876 8.7965C60.3469 8.47087 60.1899 8.19175 59.934 7.99986C59.7305 7.84867 59.0792 7.80797 58.8176 7.93008Z" fill="white"/>
</g>
<defs>
<clipPath id="clip0_2489_7834">
<rect width="142" height="23.8993" fill="white"/>
</clipPath>
</defs>
</svg>
