<svg width="86" height="18" viewBox="0 0 86 18" fill="none" xmlns="http://www.w3.org/2000/svg">
<path d="M60.2764 0.672789C59.4473 0.7691 58.8318 1.12085 58.5721 1.64847C58.3335 2.13422 58.3418 1.80759 58.3418 9.83498V17.2217L58.815 17.1966C59.8661 17.1379 60.4649 16.8448 60.7412 16.2544C60.8292 16.0659 60.8334 15.9864 60.8543 14.5249L60.8752 12.9881L61.5662 12.3726C61.9472 12.0334 62.3157 11.6984 62.3911 11.6314L62.5251 11.5016L64.2462 14.0936C65.4186 15.8608 66.0342 16.7485 66.1766 16.8825C66.4571 17.1505 66.7209 17.2259 67.236 17.2007C67.5459 17.184 67.6631 17.1589 67.8599 17.0584C68.1112 16.9369 68.4964 16.5684 68.4629 16.4805C68.4504 16.4554 67.4538 15.0274 66.2394 13.3064C65.0292 11.5853 64.0326 10.1616 64.0284 10.1407C64.02 10.1197 64.6272 9.54604 65.3768 8.8593C67.1523 7.23874 67.2611 7.10893 67.2611 6.64831C67.2611 6.33425 67.1313 6.10813 66.7168 5.67682C66.3776 5.32926 66.3483 5.30832 66.2687 5.36276C66.2226 5.39626 65.0125 6.49337 63.5803 7.80824C62.1482 9.12311 60.9548 10.1993 60.9339 10.2077C60.9129 10.216 60.8962 8.3233 60.8962 5.42557V0.626726L60.7412 0.630913C60.6533 0.635101 60.4439 0.65185 60.2764 0.672789Z" fill="#13B5EA"/>
<path d="M7.19201 0.85689C5.43327 1.14164 3.82529 2.00007 2.57742 3.31912C0.99875 4.99411 0.215695 7.20091 0.349693 9.61708C0.554879 13.3523 3.26417 16.5306 6.8612 17.255C7.49769 17.3807 8.86281 17.4142 9.59561 17.3178C10.877 17.1503 11.8317 16.8112 12.7237 16.2124C13.5151 15.6764 13.7245 15.4084 13.6951 14.9812C13.6742 14.709 13.5905 14.5667 13.3685 14.4159C13.0503 14.1982 12.7948 14.2359 12.3217 14.575C11.0529 15.4879 9.8678 15.8815 8.40637 15.8815C7.37626 15.8815 6.61833 15.7182 5.74733 15.2995C4.99778 14.9394 4.50366 14.5876 3.90066 13.9888C2.26336 12.3515 1.58918 10.1866 1.9828 7.84578C2.22986 6.35923 3.11761 4.80986 4.27753 3.83837C5.81852 2.54444 7.48095 2.07126 9.51605 2.34763C10.4708 2.48163 11.325 2.83756 12.1039 3.428C12.2714 3.55781 12.4808 3.70437 12.5645 3.75462C12.8367 3.92212 13.2555 3.85512 13.3727 3.629C13.402 3.57875 13.4565 3.51175 13.5025 3.48244C13.6198 3.39869 13.7035 3.20187 13.7035 3.00506C13.7035 2.84175 13.6826 2.80825 13.4606 2.59469C12.6525 1.82838 11.2078 1.13326 9.9348 0.898766C9.38624 0.798265 7.72382 0.773142 7.19201 0.85689Z" fill="#13B5EA"/>
<path d="M29.4485 0.882168C28.9627 0.953354 28.4728 1.2046 28.2341 1.5061C27.9745 1.83272 27.8028 2.35197 27.7609 2.95915L27.74 3.22296H30.5414H33.3428V10.2244V17.2217L33.7741 17.1966C34.9341 17.1254 35.6878 16.6564 35.9935 15.8147C36.0312 15.7142 36.0479 14.0518 36.0647 9.4623L36.0856 3.2439L38.0956 3.22296C40.2438 3.19784 40.2228 3.19784 40.6751 2.97171C41.2864 2.66184 41.6759 1.9416 41.6759 1.11248V0.836105L35.6794 0.840292C32.3797 0.844481 29.5741 0.861229 29.4485 0.882168Z" fill="#13B5EA"/>
<path d="M15.6885 1.46424C15.052 1.66105 14.7338 2.38548 15.0185 2.99266C15.3661 3.73803 16.3585 3.86785 16.8861 3.23554C17.1458 2.91729 17.2044 2.38548 17.0159 2.02117C16.9238 1.83692 16.7103 1.63174 16.4967 1.52286C16.3418 1.43911 15.877 1.40561 15.6885 1.46424Z" fill="#13B5EA"/>
<path d="M25.9269 1.48875C25.6631 1.56831 25.37 1.83631 25.2737 2.08337C24.9847 2.84131 25.5249 3.64111 26.3247 3.64111C26.7225 3.64111 27.179 3.33124 27.3339 2.95437C27.4386 2.70731 27.426 2.26344 27.313 2.02894C27.0785 1.54319 26.4922 1.31288 25.9269 1.48875Z" fill="#13B5EA"/>
<path d="M20.0055 2.28054C19.7962 2.35591 19.5868 2.57785 19.5282 2.79141C19.4988 2.89191 19.4821 3.56609 19.4821 4.61296V6.27958H18.7032C17.8364 6.27958 17.715 6.30889 17.5433 6.54757C17.4721 6.65226 17.4512 6.73601 17.4512 6.95795C17.4512 7.2092 17.4637 7.25107 17.5768 7.37251C17.7904 7.59863 17.895 7.61957 18.7242 7.61957H19.4779L19.4947 10.7267C19.5114 14.1436 19.5072 14.0725 19.7794 14.7801C20.2275 15.9526 21.2785 16.8613 22.4552 17.0958C22.92 17.1921 23.6067 17.2256 23.8999 17.1712C24.327 17.0916 24.5908 16.7985 24.5908 16.4049C24.5908 16.1536 24.5322 16.0071 24.3689 15.8354C24.1972 15.6553 24.0381 15.6176 23.4727 15.6176C23.2131 15.6176 22.9032 15.5967 22.7818 15.5716C22.0574 15.4208 21.4502 14.843 21.1696 14.039C21.1068 13.8589 21.0943 13.5072 21.0859 10.7309L21.0691 7.62375L22.3882 7.61119C23.6486 7.59863 23.7114 7.59444 23.8245 7.51069C24.239 7.20501 24.2349 6.62714 23.8161 6.38426L23.6402 6.27958H22.3589H21.0733V4.61296C21.0733 3.52841 21.0566 2.89191 21.0273 2.78304C20.9435 2.48154 20.575 2.21354 20.2568 2.21773C20.2107 2.22192 20.0976 2.24704 20.0055 2.28054Z" fill="#13B5EA"/>
<path d="M42.2074 5.31656C41.6756 5.36681 41.2276 5.46731 40.6539 5.65993C39.7536 5.96143 39.2427 6.27968 38.87 6.7738C38.3885 7.41867 38.3633 8.00492 38.8072 8.49067C39.0501 8.76285 39.5819 9.06016 39.5819 8.92616C39.5819 8.90104 39.6908 8.74191 39.829 8.57442C40.5576 7.65317 41.8599 7.1758 43.2585 7.31817C44.0499 7.39774 44.565 7.61967 44.9586 8.03842C45.3355 8.44042 45.4862 8.92616 45.4862 9.73435V10.1531L45.8254 10.442L46.1646 10.731L46.0808 10.8147L45.9929 10.8985L45.704 10.6305C44.8246 9.82228 43.5349 9.40354 42.1362 9.47891C40.4068 9.57522 39.159 10.2159 38.3759 11.4093C37.9655 12.0375 37.7938 12.7368 37.8357 13.6036C37.9278 15.4754 39.2301 16.807 41.2946 17.1504C41.8096 17.2341 42.9821 17.2132 43.4344 17.1085C44.2928 16.9159 44.9921 16.5222 45.6747 15.8648C45.972 15.5759 46.018 15.5466 46.085 15.5968C46.152 15.6471 46.1478 15.6638 45.9929 15.8564C45.905 15.9737 45.7793 16.1035 45.7207 16.1537C45.616 16.2333 45.6118 16.2501 45.6118 16.7232V17.209H45.8798C46.2525 17.209 46.8471 17.0959 47.1068 16.9787C47.559 16.7735 47.8563 16.3757 47.9526 15.8522C48.0154 15.5214 48.0154 9.32816 47.9568 8.83404C47.7265 6.95386 46.4996 5.74787 44.4603 5.40031C43.8866 5.304 42.7769 5.26213 42.2074 5.31656ZM43.3715 11.3926C44.3933 11.5182 45.1428 11.9956 45.4067 12.6823C45.6579 13.3481 45.4778 14.1647 44.9837 14.6295C44.2886 15.2827 42.7309 15.5214 41.6044 15.1529C40.8172 14.8975 40.3943 14.3364 40.3482 13.5031C40.3021 12.6949 40.5534 12.1882 41.2192 11.7527C41.7343 11.4135 42.5006 11.2879 43.3715 11.3926Z" fill="#13B5EA"/>
<path d="M51.9895 5.3165C50.013 5.52588 48.5976 6.50156 48.3129 7.85411C48.1789 8.4948 48.2626 9.30298 48.5264 9.83479C48.7191 10.2242 49.1922 10.7142 49.611 10.9612C50.2265 11.3255 51.2776 11.6815 52.7725 12.0374C53.945 12.318 54.8663 12.6739 55.2222 12.9838C55.5446 13.2685 55.6828 13.7459 55.5614 14.1604C55.4734 14.4661 55.2431 14.7048 54.8537 14.8891C54.3596 15.1194 54.0036 15.178 53.0447 15.178C52.2993 15.178 52.1695 15.1696 51.8806 15.0817C50.9091 14.8011 50.2642 14.1646 49.9879 13.2141L49.9167 12.9712L49.7031 13.0005C48.6897 13.122 48.2626 13.4695 48.2166 14.1939C48.1538 15.245 48.8489 16.1579 50.1386 16.7148C50.9803 17.0749 51.6587 17.188 53.0238 17.188C54.4266 17.188 55.1971 17.054 56.022 16.6687C57.0354 16.1914 57.6719 15.5172 57.9064 14.6546C58.0069 14.2819 58.011 13.4109 57.9105 13.0005C57.5379 11.5014 56.2062 10.643 53.2331 9.98554C52.4459 9.80966 51.6922 9.59191 51.3404 9.43279C50.9049 9.24017 50.6788 8.90098 50.6788 8.45711C50.683 7.61124 51.9015 7.07106 53.4341 7.24274C54.4978 7.35999 55.1426 7.74524 55.4944 8.47386C55.5823 8.6623 55.6702 8.88423 55.687 8.97217C55.6996 9.0601 55.7414 9.14385 55.7749 9.15642C55.8754 9.1941 56.5287 9.08942 56.7799 8.9931C57.3662 8.77536 57.6342 8.26449 57.5044 7.61124C57.4332 7.23018 57.2782 6.93706 56.9935 6.63137C56.4031 5.99906 55.4358 5.56357 54.2172 5.37932C53.7063 5.30394 52.4585 5.26626 51.9895 5.3165Z" fill="#13B5EA"/>
<path d="M72.0682 5.31654C70.7492 5.46729 69.3924 6.17079 68.6345 7.1004C68.2032 7.63221 67.9184 8.18077 67.7551 8.81308C67.6756 9.12295 67.6672 9.29464 67.6504 11.0492C67.6379 12.2803 67.6462 13.0927 67.6756 13.3439C67.8472 14.7886 68.7057 15.9485 70.1294 16.6562C70.8455 17.0122 71.5071 17.1629 72.4744 17.1964C73.6971 17.2383 74.6184 17.0708 75.4935 16.6478C76.1217 16.3463 76.4985 16.0909 76.8335 15.7308C77.2146 15.333 77.3695 14.998 77.3863 14.5457C77.3988 14.2694 77.3863 14.1689 77.3109 13.993C77.202 13.7417 76.888 13.4277 76.6242 13.3104C76.4064 13.2141 75.9751 13.1471 75.5647 13.1471H75.259V13.3021C75.2549 13.658 75.0916 14.0851 74.8319 14.4159C74.6477 14.6462 74.2624 14.8849 73.8604 15.0189C73.5506 15.1194 73.4626 15.132 72.8303 15.132C72.2901 15.1362 72.0808 15.1194 71.8714 15.0608C71.4401 14.9435 71.0758 14.7425 70.7952 14.4662C70.3597 14.0349 70.2048 13.5868 70.1629 12.6572L70.1378 12.0584H73.4417C75.6862 12.0584 76.8 12.0416 76.9089 12.0123C77.1057 11.9579 77.5077 11.5978 77.5873 11.4009C77.6333 11.2963 77.6459 11.0031 77.6459 10.1866C77.6459 8.98058 77.5998 8.64139 77.357 8.01746C76.955 6.97059 75.9249 6.04097 74.6812 5.59292C73.9902 5.34585 72.8596 5.22442 72.0682 5.31654ZM73.5715 7.39353C74.208 7.55684 74.7901 7.97559 75.0413 8.44877C75.2255 8.79633 75.3009 9.15227 75.3009 9.70083V10.174H72.7173H70.1378L70.1629 9.65895C70.1797 9.37839 70.209 9.06433 70.2341 8.96383C70.3974 8.28127 70.9962 7.68665 71.7709 7.4354C72.2483 7.28047 73.0564 7.25953 73.5715 7.39353Z" fill="#13B5EA"/>
<path d="M79.9531 5.32088C79.5386 5.37532 79.1491 5.50932 78.8686 5.69357C78.6006 5.87363 78.4666 6.02438 78.32 6.3175C78.1064 6.73206 78.1064 6.686 78.1064 12.1381V17.2217L78.5587 17.1966C79.3627 17.1589 80.0117 16.9453 80.2839 16.6354C80.3593 16.5517 80.4724 16.3758 80.531 16.246L80.6399 16.0157L80.6608 12.8123L80.6817 9.60886L80.7948 9.2948C81.2638 8.01762 82.5996 7.30993 84.2118 7.48999C84.5928 7.53187 85.0869 7.66587 85.401 7.80406C85.4554 7.82918 85.4889 7.7873 85.5643 7.59049C85.6439 7.39368 85.6606 7.26806 85.6648 6.90794C85.6648 6.5185 85.6523 6.44313 85.5518 6.22957C85.3968 5.89876 85.2544 5.71869 85.0241 5.57213C84.35 5.1492 83.0728 5.19526 82.1055 5.68519C81.469 6.00344 80.8785 6.51431 80.3886 7.17175C80.1583 7.48162 80.1416 7.49418 80.0704 7.42718C79.9824 7.34762 79.9741 7.36437 80.3426 6.89119L80.5352 6.64412V5.95738V5.27482L80.3802 5.27901C80.2923 5.2832 80.0997 5.29995 79.9531 5.32088Z" fill="#13B5EA"/>
<path d="M15.6086 5.95705C15.5165 6.01149 15.4034 6.12455 15.349 6.21668L15.2527 6.38417V11.5013C15.2527 15.0146 15.2652 16.656 15.2987 16.7356C15.4034 17.0162 15.6756 17.1753 16.0483 17.1753C16.3121 17.1753 16.534 17.0622 16.668 16.8612L16.7811 16.6895L16.7937 11.6646C16.802 8.89666 16.7937 6.55586 16.7811 6.45536C16.7518 6.25855 16.5759 6.02405 16.3791 5.91936C16.1949 5.82724 15.8054 5.84399 15.6086 5.95705Z" fill="#13B5EA"/>
<path d="M25.952 5.91937C25.7803 5.99474 25.6087 6.20411 25.5542 6.39674C25.4956 6.6103 25.4956 16.4174 25.5542 16.6309C25.6505 16.9743 25.9311 17.1753 26.308 17.1753C26.5634 17.1753 26.7351 17.1083 26.8775 16.9492C27.091 16.7147 27.0826 16.991 27.0952 11.7023C27.1036 8.9846 27.0952 6.66474 27.0826 6.5433C27.0533 6.3088 26.9403 6.1078 26.756 5.96962C26.6095 5.86074 26.1405 5.83143 25.952 5.91937Z" fill="#13B5EA"/>
</svg>
