<svg width="207" height="207" viewBox="0 0 207 207" fill="none" xmlns="http://www.w3.org/2000/svg">
<path d="M2.86665 44.7061C6.38786 51.9808 9.72082 59.3794 13.4851 66.5304C13.862 67.2465 15.3357 71.0963 16.3846 71.1098" stroke="#13B5EA" strokeWidth="5" strokeLinecap="round"/>
<path d="M2.82812 45.2266C4.90359 43.498 7.98652 42.9263 10.5256 42.327C14.2194 41.4553 17.936 40.8446 21.6963 40.3645C22.2007 40.3001 27.1898 39.5242 27.0654 39.8693" stroke="#13B5EA" strokeWidth="5" strokeLinecap="round"/>
<path d="M17.0047 71.4756C17.3241 71.2685 17.5398 70.3274 17.6553 69.9739C18.2038 68.2949 18.5165 66.4067 18.8537 64.6786C19.6579 60.5572 20.4082 56.4396 21.2776 52.3264C21.9645 49.0764 23.5845 46.1611 24.5878 43.0314C24.8943 42.0753 25.3405 40.4317 26.1695 39.7756C26.3341 39.6454 26.936 39.0126 26.4021 39.271" stroke="#13B5EA" strokeWidth="5" strokeLinecap="round"/>
<path d="M21.0193 54.4897C33.4939 54.4897 45.9288 53.4501 58.4458 53.4501C74.7077 53.4501 86.5974 56.0244 98.9913 67.1963C112.17 79.0759 114.452 105.108 109.214 121.084C107.097 127.541 100.884 132.654 94.8328 135.35C88.5877 138.132 69.9091 143.65 66.1853 134.888C62.2633 125.659 68.4699 113.161 72.7696 105.316C80.0985 91.9438 89.9938 77.2079 103.034 68.7557C119.462 58.1079 139.635 58.5464 155.94 69.7376C180.539 86.6221 191.518 114.439 191.518 143.205C191.518 144.527 191.186 162.987 189.439 159.492" stroke="#13B5EA" strokeWidth="5" strokeLinecap="round"/>
</svg>
