<svg width="109" height="49" viewBox="0 0 109 49" fill="none" xmlns="http://www.w3.org/2000/svg">
<rect x="0.801003" y="0.924538" width="107.213" height="47.0786" rx="7.12113" fill="white" stroke="#F2AF42" strokeWidth="1.58247"/>
<path d="M11.0616 7.68575H9.97922V10.6719H9.476V7.68575H8.38884V7.26323H11.0616V7.68575ZM11.9099 8.22221C12.0871 8.22221 12.247 8.25148 12.3894 8.31003C12.5334 8.367 12.6552 8.45008 12.7549 8.55927C12.8562 8.66688 12.9338 8.79743 12.9876 8.95093C13.0414 9.10285 13.0683 9.27376 13.0683 9.46366C13.0683 9.65355 13.0414 9.82525 12.9876 9.97875C12.9338 10.1323 12.8562 10.2628 12.7549 10.3704C12.6552 10.478 12.5334 10.5611 12.3894 10.6197C12.247 10.6766 12.0871 10.7051 11.9099 10.7051C11.7311 10.7051 11.5697 10.6766 11.4257 10.6197C11.2832 10.5611 11.1614 10.478 11.0601 10.3704C10.9588 10.2628 10.8805 10.1323 10.8251 9.97875C10.7713 9.82525 10.7444 9.65355 10.7444 9.46366C10.7444 9.27376 10.7713 9.10285 10.8251 8.95093C10.8805 8.79743 10.9588 8.66688 11.0601 8.55927C11.1614 8.45008 11.2832 8.367 11.4257 8.31003C11.5697 8.25148 11.7311 8.22221 11.9099 8.22221ZM11.9099 10.3443C12.1378 10.3443 12.3079 10.2676 12.4203 10.1141C12.5326 9.96055 12.5888 9.74455 12.5888 9.46603C12.5888 9.18751 12.5326 8.97151 12.4203 8.81801C12.3079 8.66292 12.1378 8.58538 11.9099 8.58538C11.6789 8.58538 11.5064 8.66292 11.3924 8.81801C11.2801 8.97151 11.2239 9.18751 11.2239 9.46603C11.2239 9.74455 11.2801 9.96055 11.3924 10.1141C11.5064 10.2676 11.6789 10.3443 11.9099 10.3443ZM14.2934 10.7099C14.0988 10.7099 13.9485 10.6553 13.8424 10.5461C13.738 10.4369 13.6858 10.281 13.6858 10.0784V8.63523H13.4057C13.3788 8.63523 13.3558 8.62732 13.3368 8.61149C13.3194 8.59409 13.3107 8.56877 13.3107 8.53554V8.34801L13.7024 8.29342L13.8068 7.57418C13.8132 7.54728 13.825 7.52671 13.8424 7.51247C13.8614 7.49664 13.8852 7.48873 13.9137 7.48873H14.1486V8.29816H14.8323V8.63523H14.1486V10.0476C14.1486 10.1425 14.1716 10.2137 14.2175 10.2612C14.265 10.3071 14.3251 10.3301 14.3979 10.3301C14.4406 10.3301 14.477 10.3245 14.5071 10.3134C14.5387 10.3024 14.5656 10.2905 14.5878 10.2778C14.6099 10.2636 14.6289 10.2509 14.6448 10.2399C14.6606 10.2288 14.6748 10.2232 14.6875 10.2232C14.7033 10.2232 14.7152 10.2272 14.7231 10.2351C14.7326 10.2414 14.7421 10.2525 14.7516 10.2683L14.8892 10.4915C14.8133 10.5611 14.7231 10.6149 14.6186 10.6529C14.5142 10.6909 14.4058 10.7099 14.2934 10.7099ZM16.5547 9.60133C16.3663 9.60766 16.2065 9.62269 16.0752 9.64643C15.9438 9.66859 15.837 9.69865 15.7547 9.73663C15.6724 9.77461 15.6131 9.81971 15.5767 9.87193C15.5403 9.92257 15.5221 9.97954 15.5221 10.0428C15.5221 10.103 15.5316 10.1552 15.5506 10.1995C15.5712 10.2422 15.5981 10.2778 15.6313 10.3063C15.6661 10.3332 15.7065 10.353 15.7523 10.3657C15.7982 10.3783 15.8481 10.3847 15.9019 10.3847C15.9731 10.3847 16.038 10.3775 16.0965 10.3633C16.1567 10.3491 16.2128 10.3293 16.2651 10.3039C16.3173 10.277 16.3671 10.2446 16.4146 10.2066C16.4621 10.1686 16.5088 10.1251 16.5547 10.0761V9.60133ZM15.1969 8.59725C15.3314 8.46907 15.477 8.37333 15.6337 8.31003C15.7919 8.24673 15.9652 8.21508 16.1535 8.21508C16.2912 8.21508 16.413 8.23803 16.5191 8.28392C16.6251 8.32823 16.7145 8.39074 16.7873 8.47144C16.8601 8.55215 16.9147 8.64868 16.9511 8.76104C16.9891 8.87339 17.008 8.99762 17.008 9.13371V10.6719H16.8015C16.7556 10.6719 16.7208 10.6648 16.6971 10.6505C16.6733 10.6347 16.6544 10.6062 16.6401 10.5651L16.5903 10.3538C16.5286 10.4108 16.4676 10.4614 16.4075 10.5057C16.3474 10.5484 16.2841 10.5856 16.2176 10.6173C16.1527 10.6473 16.0831 10.6703 16.0087 10.6861C15.9343 10.7019 15.852 10.7099 15.7618 10.7099C15.6669 10.7099 15.5775 10.6972 15.4936 10.6719C15.4113 10.645 15.3393 10.6046 15.2776 10.5508C15.2159 10.497 15.1668 10.4298 15.1304 10.3491C15.0956 10.2683 15.0782 10.1742 15.0782 10.0666C15.0782 9.97163 15.1035 9.88064 15.1542 9.7936C15.2064 9.70498 15.2903 9.62586 15.4058 9.55623C15.5229 9.4866 15.6748 9.42963 15.8615 9.38532C16.0499 9.34101 16.2809 9.31569 16.5547 9.30936V9.13371C16.5547 8.95173 16.5159 8.81563 16.4384 8.72543C16.3608 8.63523 16.2469 8.59013 16.0965 8.59013C15.9953 8.59013 15.9098 8.60279 15.8402 8.62811C15.7721 8.65343 15.7128 8.68191 15.6621 8.71356C15.6131 8.74363 15.5696 8.77132 15.5316 8.79664C15.4952 8.82196 15.4572 8.83462 15.4177 8.83462C15.386 8.83462 15.3583 8.82592 15.3346 8.80851C15.3124 8.7911 15.2942 8.77053 15.28 8.7468L15.1969 8.59725ZM18.1024 7.16828V10.6719H17.6372V7.16828H18.1024ZM22.2394 7.68575H21.157V10.6719H20.6538V7.68575H19.5666V7.26323H22.2394V7.68575ZM23.393 9.60133C23.2047 9.60766 23.0448 9.62269 22.9135 9.64643C22.7822 9.66859 22.6753 9.69865 22.593 9.73663C22.5108 9.77461 22.4514 9.81971 22.415 9.87193C22.3786 9.92257 22.3604 9.97954 22.3604 10.0428C22.3604 10.103 22.3699 10.1552 22.3889 10.1995C22.4095 10.2422 22.4364 10.2778 22.4696 10.3063C22.5044 10.3332 22.5448 10.353 22.5907 10.3657C22.6366 10.3783 22.6864 10.3847 22.7402 10.3847C22.8114 10.3847 22.8763 10.3775 22.9349 10.3633C22.995 10.3491 23.0512 10.3293 23.1034 10.3039C23.1556 10.277 23.2055 10.2446 23.2529 10.2066C23.3004 10.1686 23.3471 10.1251 23.393 10.0761V9.60133ZM22.0352 8.59725C22.1697 8.46907 22.3153 8.37333 22.472 8.31003C22.6302 8.24673 22.8035 8.21508 22.9918 8.21508C23.1295 8.21508 23.2514 8.23803 23.3574 8.28392C23.4634 8.32823 23.5528 8.39074 23.6256 8.47144C23.6984 8.55215 23.753 8.64868 23.7894 8.76104C23.8274 8.87339 23.8464 8.99762 23.8464 9.13371V10.6719H23.6399C23.594 10.6719 23.5592 10.6648 23.5354 10.6505C23.5117 10.6347 23.4927 10.6062 23.4784 10.5651L23.4286 10.3538C23.3669 10.4108 23.306 10.4614 23.2458 10.5057C23.1857 10.5484 23.1224 10.5856 23.0559 10.6173C22.991 10.6473 22.9214 10.6703 22.847 10.6861C22.7727 10.7019 22.6904 10.7099 22.6002 10.7099C22.5052 10.7099 22.4158 10.6972 22.3319 10.6719C22.2497 10.645 22.1777 10.6046 22.1159 10.5508C22.0542 10.497 22.0052 10.4298 21.9688 10.3491C21.9339 10.2683 21.9165 10.1742 21.9165 10.0666C21.9165 9.97163 21.9419 9.88064 21.9925 9.7936C22.0447 9.70498 22.1286 9.62586 22.2441 9.55623C22.3612 9.4866 22.5131 9.42963 22.6999 9.38532C22.8882 9.34101 23.1192 9.31569 23.393 9.30936V9.13371C23.393 8.95173 23.3542 8.81563 23.2767 8.72543C23.1991 8.63523 23.0852 8.59013 22.9349 8.59013C22.8336 8.59013 22.7481 8.60279 22.6785 8.62811C22.6105 8.65343 22.5511 8.68191 22.5005 8.71356C22.4514 8.74363 22.4079 8.77132 22.3699 8.79664C22.3335 8.82196 22.2955 8.83462 22.256 8.83462C22.2243 8.83462 22.1966 8.82592 22.1729 8.80851C22.1507 8.7911 22.1325 8.77053 22.1183 8.7468L22.0352 8.59725ZM25.8879 8.67558C25.8752 8.69616 25.8618 8.71119 25.8475 8.72068C25.8333 8.7286 25.8151 8.73255 25.7929 8.73255C25.7676 8.73255 25.7391 8.72385 25.7075 8.70644C25.6774 8.68904 25.6402 8.67005 25.5959 8.64947C25.5532 8.6289 25.5025 8.60991 25.444 8.5925C25.3854 8.5751 25.3158 8.56639 25.2351 8.56639C25.1686 8.56639 25.1077 8.5751 25.0523 8.5925C24.9985 8.60833 24.9526 8.63127 24.9147 8.66134C24.8767 8.68983 24.8474 8.72464 24.8268 8.76579C24.8063 8.80535 24.796 8.84807 24.796 8.89397C24.796 8.9541 24.8134 9.00395 24.8482 9.04351C24.8846 9.08307 24.9313 9.11709 24.9882 9.14558C25.0468 9.17406 25.1125 9.20017 25.1853 9.22391C25.2596 9.24607 25.3348 9.2698 25.4108 9.29512C25.4883 9.32044 25.5635 9.34972 25.6363 9.38295C25.7106 9.4146 25.7763 9.45495 25.8333 9.50401C25.8918 9.55148 25.9385 9.60924 25.9733 9.67729C26.0097 9.74534 26.0279 9.82842 26.0279 9.92653C26.0279 10.0389 26.0073 10.1433 25.9662 10.2399C25.9266 10.3348 25.8673 10.4171 25.7882 10.4867C25.7106 10.5564 25.6141 10.6109 25.4986 10.6505C25.3831 10.6901 25.2509 10.7099 25.1022 10.7099C24.936 10.7099 24.7825 10.6822 24.6417 10.6268C24.5008 10.5714 24.3829 10.501 24.288 10.4155L24.3972 10.2375C24.4098 10.2153 24.4257 10.1987 24.4447 10.1876C24.4636 10.175 24.489 10.1686 24.5206 10.1686C24.5507 10.1686 24.5815 10.1797 24.6132 10.2019C24.6448 10.224 24.6828 10.2486 24.7271 10.2755C24.7714 10.3008 24.8252 10.3245 24.8885 10.3467C24.9518 10.3672 25.031 10.3775 25.1259 10.3775C25.205 10.3775 25.2739 10.368 25.3324 10.3491C25.391 10.3285 25.4392 10.3016 25.4772 10.2683C25.5168 10.2335 25.5461 10.194 25.565 10.1497C25.584 10.1053 25.5935 10.0587 25.5935 10.0096C25.5935 9.94631 25.5753 9.89409 25.5389 9.85294C25.5041 9.81022 25.4574 9.77382 25.3989 9.74375C25.3419 9.71369 25.2762 9.68758 25.2019 9.66542C25.1275 9.64327 25.0515 9.61953 24.974 9.59421C24.8965 9.56889 24.8205 9.53961 24.7461 9.50638C24.6717 9.47315 24.6053 9.43122 24.5467 9.38058C24.4898 9.32994 24.4431 9.26822 24.4067 9.19543C24.3719 9.12263 24.3545 9.03401 24.3545 8.92957C24.3545 8.83621 24.3734 8.7468 24.4114 8.66134C24.451 8.57589 24.5072 8.50072 24.58 8.43584C24.6543 8.37096 24.7453 8.31953 24.8529 8.28155C24.9621 8.24199 25.0863 8.22221 25.2256 8.22221C25.3854 8.22221 25.5294 8.24752 25.6576 8.29816C25.7874 8.3488 25.8982 8.41843 25.9899 8.50705L25.8879 8.67558ZM26.992 7.16828V9.21679H27.1012C27.1344 9.21679 27.1621 9.21204 27.1843 9.20255C27.2064 9.19305 27.2294 9.17406 27.2531 9.14558L27.9747 8.35039C27.9969 8.32032 28.0214 8.29816 28.0483 8.28392C28.0752 8.2681 28.1092 8.26018 28.1504 8.26018H28.5729L27.7207 9.19305C27.6748 9.2516 27.6258 9.29671 27.5735 9.32835C27.6036 9.34893 27.6297 9.37266 27.6519 9.39957C27.6756 9.42647 27.6986 9.45574 27.7207 9.48739L28.6275 10.6719H28.2121C28.1741 10.6719 28.1409 10.6655 28.1124 10.6529C28.0855 10.6402 28.0609 10.6173 28.0388 10.584L27.2934 9.61557C27.2697 9.57918 27.246 9.55623 27.2222 9.54674C27.1985 9.53566 27.1629 9.53012 27.1154 9.53012H26.992V10.6719H26.5291V7.16828H26.992ZM30.3942 8.67558C30.3816 8.69616 30.3681 8.71119 30.3539 8.72068C30.3396 8.7286 30.3214 8.73255 30.2993 8.73255C30.2739 8.73255 30.2455 8.72385 30.2138 8.70644C30.1837 8.68904 30.1466 8.67005 30.1022 8.64947C30.0595 8.6289 30.0089 8.60991 29.9503 8.5925C29.8918 8.5751 29.8222 8.56639 29.7414 8.56639C29.675 8.56639 29.6141 8.5751 29.5587 8.5925C29.5049 8.60833 29.459 8.63127 29.421 8.66134C29.383 8.68983 29.3537 8.72464 29.3332 8.76579C29.3126 8.80535 29.3023 8.84807 29.3023 8.89397C29.3023 8.9541 29.3197 9.00395 29.3545 9.04351C29.3909 9.08307 29.4376 9.11709 29.4946 9.14558C29.5531 9.17406 29.6188 9.20017 29.6916 9.22391C29.766 9.24607 29.8411 9.2698 29.9171 9.29512C29.9946 9.32044 30.0698 9.34972 30.1426 9.38295C30.217 9.4146 30.2827 9.45495 30.3396 9.50401C30.3982 9.55148 30.4449 9.60924 30.4797 9.67729C30.5161 9.74534 30.5343 9.82842 30.5343 9.92653C30.5343 10.0389 30.5137 10.1433 30.4725 10.2399C30.433 10.3348 30.3736 10.4171 30.2945 10.4867C30.217 10.5564 30.1204 10.6109 30.0049 10.6505C29.8894 10.6901 29.7573 10.7099 29.6085 10.7099C29.4424 10.7099 29.2889 10.6822 29.148 10.6268C29.0072 10.5714 28.8893 10.501 28.7943 10.4155L28.9035 10.2375C28.9162 10.2153 28.932 10.1987 28.951 10.1876C28.97 10.175 28.9953 10.1686 29.027 10.1686C29.057 10.1686 29.0879 10.1797 29.1195 10.2019C29.1512 10.224 29.1892 10.2486 29.2335 10.2755C29.2778 10.3008 29.3316 10.3245 29.3949 10.3467C29.4582 10.3672 29.5373 10.3775 29.6323 10.3775C29.7114 10.3775 29.7802 10.368 29.8388 10.3491C29.8973 10.3285 29.9456 10.3016 29.9836 10.2683C30.0231 10.2335 30.0524 10.194 30.0714 10.1497C30.0904 10.1053 30.0999 10.0587 30.0999 10.0096C30.0999 9.94631 30.0817 9.89409 30.0453 9.85294C30.0105 9.81022 29.9638 9.77382 29.9052 9.74375C29.8483 9.71369 29.7826 9.68758 29.7082 9.66542C29.6338 9.64327 29.5579 9.61953 29.4803 9.59421C29.4028 9.56889 29.3268 9.53961 29.2525 9.50638C29.1781 9.47315 29.1116 9.43122 29.0531 9.38058C28.9961 9.32994 28.9494 9.26822 28.913 9.19543C28.8782 9.12263 28.8608 9.03401 28.8608 8.92957C28.8608 8.83621 28.8798 8.7468 28.9178 8.66134C28.9573 8.57589 29.0135 8.50072 29.0863 8.43584C29.1607 8.37096 29.2517 8.31953 29.3593 8.28155C29.4685 8.24199 29.5927 8.22221 29.7319 8.22221C29.8918 8.22221 30.0358 8.24752 30.164 8.29816C30.2937 8.3488 30.4045 8.41843 30.4963 8.50705L30.3942 8.67558Z" fill="#161A32"/>
<path d="M10.7958 23.8161L10.5584 24.1104C10.6913 24.044 10.8338 23.9933 10.9857 23.9585C11.1408 23.9205 11.3069 23.9016 11.4842 23.9016C11.7437 23.9016 11.9953 23.9443 12.239 24.0297C12.4859 24.1152 12.7027 24.245 12.8894 24.419C13.0761 24.5899 13.2265 24.8036 13.3404 25.0599C13.4543 25.3163 13.5113 25.6154 13.5113 25.9572C13.5113 26.2768 13.4528 26.5775 13.3357 26.8592C13.2185 27.1377 13.054 27.3814 12.8419 27.5903C12.6299 27.7992 12.3735 27.9638 12.0728 28.084C11.7753 28.2043 11.4462 28.2644 11.0854 28.2644C10.7182 28.2644 10.3891 28.2059 10.0979 28.0888C9.80674 27.9717 9.55829 27.8087 9.35256 27.5998C9.14684 27.3877 8.9886 27.1345 8.87782 26.8402C8.77021 26.5427 8.71641 26.2135 8.71641 25.8527C8.71641 25.5299 8.78129 25.1992 8.91105 24.8605C9.04398 24.5187 9.24812 24.1642 9.52347 23.7971L11.1613 21.5991C11.2183 21.5231 11.3006 21.4582 11.4082 21.4044C11.519 21.3506 11.6456 21.3237 11.788 21.3237H12.8324L10.7958 23.8161ZM11.0616 27.3055C11.2484 27.3055 11.4193 27.2738 11.5744 27.2105C11.7326 27.1472 11.8671 27.0586 11.9779 26.9447C12.0918 26.8307 12.1804 26.6978 12.2437 26.5459C12.307 26.3908 12.3387 26.223 12.3387 26.0426C12.3387 25.8464 12.3086 25.6708 12.2485 25.5157C12.1884 25.3574 12.1029 25.2245 11.9921 25.1169C11.8814 25.0061 11.7484 24.9223 11.5933 24.8653C11.4383 24.8083 11.2674 24.7798 11.0806 24.7798C10.8939 24.7798 10.7246 24.8115 10.5727 24.8748C10.4207 24.9381 10.291 25.0267 10.1834 25.1406C10.0758 25.2514 9.99188 25.3843 9.93175 25.5394C9.87162 25.6913 9.84155 25.8559 9.84155 26.0331C9.84155 26.223 9.86687 26.3971 9.91751 26.5554C9.97131 26.7104 10.0489 26.8434 10.1501 26.9541C10.2546 27.0649 10.3828 27.152 10.5347 27.2153C10.6866 27.2754 10.8622 27.3055 11.0616 27.3055ZM19.0096 21.3237V21.8317C19.0096 21.9836 18.9937 22.107 18.9621 22.202C18.9304 22.2938 18.8988 22.3713 18.8671 22.4346L16.2656 27.7897C16.2117 27.9005 16.1358 27.9954 16.0377 28.0745C15.9396 28.1505 15.8082 28.1885 15.6436 28.1885H14.7939L17.4477 22.9426C17.5078 22.835 17.5663 22.7369 17.6233 22.6482C17.6834 22.5565 17.7499 22.4694 17.8227 22.3871H14.5375C14.4647 22.3871 14.4014 22.3602 14.3476 22.3064C14.2938 22.2526 14.2669 22.1893 14.2669 22.1165V21.3237H19.0096ZM22.7133 25.6011V23.3556C22.7133 23.1435 22.7275 22.9093 22.756 22.653L20.6244 25.6011H22.7133ZM24.598 25.6011V26.28C24.598 26.3433 24.5774 26.3987 24.5363 26.4462C24.4952 26.4905 24.4366 26.5126 24.3606 26.5126H23.734V28.1885H22.7133V26.5126H19.8174C19.7382 26.5126 19.6686 26.4889 19.6085 26.4414C19.5483 26.3908 19.5104 26.3291 19.4945 26.2563L19.3711 25.6628L22.6231 21.319H23.734V25.6011H24.598Z" fill="#161A32"/>
<rect x="72.2103" y="5.86968" width="28.6226" height="8.76933" rx="1.50595" stroke="#CAD7DC" strokeWidth="0.395618"/>
<path d="M77.1468 9.11107H76.3699V11.2544H76.0087V9.11107H75.2284V8.8078H77.1468V9.11107ZM77.7328 9.74316C77.8055 9.66933 77.8856 9.6097 77.9731 9.56427C78.0617 9.51883 78.1633 9.49612 78.278 9.49612C78.3734 9.49612 78.4569 9.51202 78.5285 9.54382C78.6012 9.57562 78.6619 9.62049 78.7108 9.67842C78.7596 9.73521 78.7965 9.80393 78.8215 9.88457C78.8465 9.96522 78.859 10.0544 78.859 10.1521V11.2544H78.5251V10.1521C78.5251 10.0283 78.4967 9.93228 78.4399 9.86413C78.3831 9.79484 78.2962 9.7602 78.1792 9.7602C78.094 9.7602 78.014 9.78064 77.939 9.82153C77.8652 9.86129 77.7964 9.91581 77.7328 9.98509V11.2544H77.4006V8.73965H77.7328V9.74316ZM79.6549 9.52338V11.2544H79.3227V9.52338H79.6549ZM79.7179 8.9884C79.7179 9.01906 79.7117 9.0486 79.6992 9.07699C79.6867 9.10425 79.6697 9.12867 79.6481 9.15025C79.6276 9.1707 79.6032 9.18717 79.5748 9.19966C79.5464 9.21102 79.5169 9.2167 79.4862 9.2167C79.4556 9.2167 79.4266 9.21102 79.3993 9.19966C79.3721 9.18717 79.3477 9.1707 79.3261 9.15025C79.3056 9.12867 79.2892 9.10425 79.2767 9.07699C79.2653 9.0486 79.2596 9.01906 79.2596 8.9884C79.2596 8.95659 79.2653 8.92706 79.2767 8.8998C79.2892 8.8714 79.3056 8.84698 79.3261 8.82654C79.3477 8.80496 79.3721 8.78849 79.3993 8.77713C79.4266 8.76464 79.4556 8.75839 79.4862 8.75839C79.5169 8.75839 79.5464 8.76464 79.5748 8.77713C79.6032 8.78849 79.6276 8.80496 79.6481 8.82654C79.6697 8.84698 79.6867 8.8714 79.6992 8.8998C79.7117 8.92706 79.7179 8.95659 79.7179 8.9884ZM81.1565 9.82153C81.1474 9.8363 81.1377 9.84709 81.1275 9.85391C81.1173 9.85958 81.1042 9.86242 81.0883 9.86242C81.0702 9.86242 81.0497 9.85618 81.027 9.84368C81.0054 9.83119 80.9787 9.81756 80.9469 9.80279C80.9162 9.78803 80.8799 9.7744 80.8379 9.7619C80.7958 9.74941 80.7459 9.74316 80.6879 9.74316C80.6402 9.74316 80.5965 9.74941 80.5568 9.7619C80.5181 9.77326 80.4852 9.78973 80.4579 9.81131C80.4307 9.83176 80.4097 9.85674 80.3949 9.88628C80.3801 9.91467 80.3727 9.94534 80.3727 9.97828C80.3727 10.0214 80.3852 10.0572 80.4102 10.0856C80.4364 10.114 80.4699 10.1384 80.5108 10.1589C80.5528 10.1793 80.5999 10.1981 80.6522 10.2151C80.7056 10.231 80.7595 10.248 80.814 10.2662C80.8697 10.2844 80.9236 10.3054 80.9759 10.3293C81.0293 10.352 81.0764 10.3809 81.1173 10.4161C81.1593 10.4502 81.1928 10.4917 81.2178 10.5405C81.2439 10.5894 81.257 10.649 81.257 10.7194C81.257 10.8001 81.2422 10.875 81.2127 10.9443C81.1843 11.0125 81.1417 11.0715 81.0849 11.1215C81.0293 11.1715 80.96 11.2107 80.8771 11.2391C80.7941 11.2675 80.6993 11.2817 80.5925 11.2817C80.4733 11.2817 80.3631 11.2618 80.262 11.222C80.1609 11.1823 80.0763 11.1317 80.0081 11.0704L80.0865 10.9426C80.0956 10.9267 80.107 10.9148 80.1206 10.9068C80.1342 10.8977 80.1524 10.8932 80.1751 10.8932C80.1967 10.8932 80.2188 10.9011 80.2416 10.9171C80.2643 10.933 80.2915 10.9506 80.3233 10.9699C80.3551 10.988 80.3938 11.0051 80.4392 11.021C80.4846 11.0357 80.5414 11.0431 80.6096 11.0431C80.6664 11.0431 80.7158 11.0363 80.7578 11.0227C80.7998 11.0079 80.8345 10.9886 80.8617 10.9648C80.8901 10.9398 80.9111 10.9114 80.9248 10.8796C80.9384 10.8478 80.9452 10.8143 80.9452 10.779C80.9452 10.7336 80.9322 10.6961 80.906 10.6666C80.881 10.6359 80.8475 10.6098 80.8055 10.5882C80.7646 10.5666 80.7175 10.5479 80.6641 10.532C80.6107 10.5161 80.5562 10.4991 80.5005 10.4809C80.4449 10.4627 80.3904 10.4417 80.337 10.4178C80.2836 10.394 80.2359 10.3639 80.1939 10.3276C80.153 10.2912 80.1195 10.2469 80.0933 10.1947C80.0683 10.1424 80.0559 10.0788 80.0559 10.0038C80.0559 9.93682 80.0695 9.87265 80.0967 9.81131C80.1251 9.74998 80.1655 9.69602 80.2177 9.64945C80.2711 9.60288 80.3364 9.56597 80.4136 9.53871C80.492 9.51031 80.5812 9.49612 80.6811 9.49612C80.7958 9.49612 80.8992 9.51429 80.9912 9.55064C81.0844 9.58698 81.1639 9.63696 81.2297 9.70057L81.1565 9.82153ZM85.7014 8.8078L84.9381 11.2544H84.611L84.0146 9.43989C84.001 9.40355 83.9891 9.35982 83.9789 9.3087C83.9664 9.36095 83.9544 9.40468 83.9431 9.43989L83.34 11.2544H83.0145L82.2512 8.8078H82.5545C82.5863 8.8078 82.613 8.81575 82.6346 8.83165C82.6562 8.84642 82.6704 8.86686 82.6772 8.89299L83.1594 10.5303C83.1684 10.5621 83.1764 10.5967 83.1832 10.6342C83.1912 10.6717 83.1991 10.7109 83.2071 10.7518C83.215 10.7109 83.223 10.6717 83.2309 10.6342C83.24 10.5967 83.2502 10.5621 83.2616 10.5303L83.8136 8.89299C83.8204 8.87027 83.8346 8.85039 83.8562 8.83335C83.8789 8.81632 83.9056 8.8078 83.9363 8.8078H84.0402C84.072 8.8078 84.0981 8.81575 84.1186 8.83165C84.139 8.84755 84.1538 8.868 84.1629 8.89299L84.7132 10.5303C84.7336 10.5928 84.7518 10.6638 84.7677 10.7433C84.7813 10.6649 84.7961 10.5939 84.812 10.5303L85.2959 8.89299C85.3015 8.87027 85.3157 8.85039 85.3385 8.83335C85.3612 8.81632 85.3879 8.8078 85.4185 8.8078H85.7014ZM86.9296 10.1964C86.9296 10.1305 86.9199 10.0697 86.9006 10.0141C86.8824 9.9584 86.8552 9.91013 86.8188 9.86924C86.7825 9.82835 86.7382 9.79655 86.6859 9.77383C86.6337 9.75111 86.5735 9.73975 86.5053 9.73975C86.3656 9.73975 86.2555 9.78008 86.1748 9.86072C86.0953 9.94136 86.0448 10.0532 86.0232 10.1964H86.9296ZM87.2039 11.0073C87.163 11.0551 87.1159 11.0965 87.0625 11.1317C87.0091 11.1658 86.9523 11.1936 86.8921 11.2152C86.8319 11.2368 86.7694 11.2527 86.7047 11.2629C86.6411 11.2731 86.578 11.2782 86.5156 11.2782C86.3963 11.2782 86.2856 11.2584 86.1833 11.2186C86.0822 11.1777 85.9942 11.1187 85.9193 11.0414C85.8454 10.9631 85.7875 10.8665 85.7455 10.7518C85.7046 10.6359 85.6841 10.503 85.6841 10.3531C85.6841 10.2327 85.7029 10.1208 85.7404 10.0175C85.7778 9.91297 85.8312 9.8221 85.9005 9.74486C85.9709 9.66763 86.0567 9.60686 86.1578 9.56256C86.2589 9.51826 86.3725 9.49612 86.4985 9.49612C86.6042 9.49612 86.7013 9.51372 86.7899 9.54893C86.8796 9.58301 86.9568 9.63298 87.0216 9.69886C87.0863 9.76474 87.1369 9.84595 87.1732 9.9425C87.2107 10.039 87.2294 10.1492 87.2294 10.273C87.2294 10.3241 87.2238 10.3588 87.2124 10.377C87.201 10.394 87.18 10.4025 87.1494 10.4025H86.0147C86.0181 10.5059 86.0328 10.5962 86.059 10.6734C86.0851 10.7495 86.1209 10.8131 86.1663 10.8642C86.2129 10.9153 86.268 10.9534 86.3316 10.9784C86.3952 11.0034 86.4662 11.0159 86.5445 11.0159C86.6184 11.0159 86.682 11.0073 86.7354 10.9903C86.7899 10.9733 86.8364 10.9551 86.8751 10.9358C86.9148 10.9153 86.9478 10.8966 86.9739 10.8796C87.0011 10.8625 87.025 10.854 87.0454 10.854C87.0727 10.854 87.0937 10.8642 87.1085 10.8847L87.2039 11.0073ZM88.7332 10.1964C88.7332 10.1305 88.7235 10.0697 88.7042 10.0141C88.686 9.9584 88.6588 9.91013 88.6224 9.86924C88.5861 9.82835 88.5418 9.79655 88.4895 9.77383C88.4373 9.75111 88.3771 9.73975 88.3089 9.73975C88.1692 9.73975 88.0591 9.78008 87.9784 9.86072C87.8989 9.94136 87.8484 10.0532 87.8268 10.1964H88.7332ZM89.0075 11.0073C88.9666 11.0551 88.9194 11.0965 88.8661 11.1317C88.8127 11.1658 88.7559 11.1936 88.6957 11.2152C88.6355 11.2368 88.573 11.2527 88.5083 11.2629C88.4447 11.2731 88.3816 11.2782 88.3192 11.2782C88.1999 11.2782 88.0892 11.2584 87.9869 11.2186C87.8858 11.1777 87.7978 11.1187 87.7228 11.0414C87.649 10.9631 87.5911 10.8665 87.5491 10.7518C87.5082 10.6359 87.4877 10.503 87.4877 10.3531C87.4877 10.2327 87.5065 10.1208 87.5439 10.0175C87.5814 9.91297 87.6348 9.8221 87.7041 9.74486C87.7745 9.66763 87.8603 9.60686 87.9614 9.56256C88.0625 9.51826 88.176 9.49612 88.3021 9.49612C88.4078 9.49612 88.5049 9.51372 88.5935 9.54893C88.6832 9.58301 88.7604 9.63298 88.8252 9.69886C88.8899 9.76474 88.9405 9.84595 88.9768 9.9425C89.0143 10.039 89.033 10.1492 89.033 10.273C89.033 10.3241 89.0274 10.3588 89.016 10.377C89.0046 10.394 88.9836 10.4025 88.953 10.4025H87.8183C87.8217 10.5059 87.8364 10.5962 87.8626 10.6734C87.8887 10.7495 87.9245 10.8131 87.9699 10.8642C88.0165 10.9153 88.0715 10.9534 88.1352 10.9784C88.1988 11.0034 88.2697 11.0159 88.3481 11.0159C88.422 11.0159 88.4856 11.0073 88.5389 10.9903C88.5935 10.9733 88.64 10.9551 88.6787 10.9358C88.7184 10.9153 88.7513 10.8966 88.7775 10.8796C88.8047 10.8625 88.8286 10.854 88.849 10.854C88.8763 10.854 88.8973 10.8642 88.9121 10.8847L89.0075 11.0073ZM89.7224 8.73965V10.21H89.8007C89.8246 10.21 89.8445 10.2066 89.8604 10.1998C89.8763 10.193 89.8927 10.1793 89.9098 10.1589L90.4277 9.58812C90.4436 9.56654 90.4612 9.55064 90.4805 9.54041C90.4998 9.52906 90.5243 9.52338 90.5538 9.52338H90.8571L90.2454 10.193C90.2125 10.235 90.1773 10.2674 90.1398 10.2901C90.1614 10.3048 90.1801 10.3219 90.196 10.3412C90.213 10.3605 90.2295 10.3815 90.2454 10.4042L90.8963 11.2544H90.5981C90.5708 11.2544 90.547 11.2499 90.5265 11.2408C90.5072 11.2317 90.4896 11.2152 90.4737 11.1914L89.9387 10.4962C89.9217 10.4701 89.9047 10.4536 89.8876 10.4468C89.8706 10.4389 89.845 10.4349 89.811 10.4349H89.7224V11.2544H89.3901V8.73965H89.7224Z" fill="#CAD7DC"/>
<path d="M96.104 11.1283C95.9617 11.1283 95.8194 11.0734 95.7117 10.9657L94.3865 9.64051C94.3275 9.58157 94.3275 9.48401 94.3865 9.42507C94.4454 9.36612 94.543 9.36612 94.6019 9.42507L95.9271 10.7503C96.0247 10.8478 96.1832 10.8478 96.2808 10.7503L97.606 9.42507C97.6649 9.36612 97.7625 9.36612 97.8215 9.42507C97.8804 9.48401 97.8804 9.58157 97.8215 9.64051L96.4962 10.9657C96.3885 11.0734 96.2462 11.1283 96.104 11.1283Z" fill="#CAD7DC"/>
<path d="M78.338 42.5958H73.8543C73.3083 42.5958 72.8652 42.1527 72.8652 41.6068V37.1231C72.8652 37.015 72.9549 36.9253 73.063 36.9253C73.1712 36.9253 73.2609 37.015 73.2609 37.1231V41.6068C73.2609 41.9338 73.5272 42.2002 73.8543 42.2002H78.338C78.4461 42.2002 78.5358 42.2899 78.5358 42.398C78.5358 42.5062 78.4461 42.5958 78.338 42.5958Z" fill="#29C483"/>
<path d="M73.8543 41.2767C73.8094 41.2767 73.7619 41.2609 73.725 41.2292C73.6433 41.158 73.6327 41.034 73.7039 40.9496L74.9145 39.536C75.0464 39.383 75.2363 39.2907 75.4367 39.2828C75.6372 39.2775 75.835 39.3513 75.9774 39.4938L76.228 39.7443C76.2939 39.8103 76.3809 39.8419 76.4733 39.8419C76.5656 39.8393 76.65 39.7971 76.7106 39.7259L77.9212 38.3122C77.9924 38.2304 78.1164 38.2199 78.2008 38.2911C78.2825 38.3623 78.2931 38.4862 78.2219 38.5706L77.0113 39.9843C76.8794 40.1373 76.6895 40.2296 76.4891 40.2375C76.2886 40.2428 76.0908 40.169 75.9484 40.0265L75.7005 39.776C75.6345 39.71 75.5475 39.6757 75.4552 39.6784C75.3629 39.681 75.2785 39.7232 75.2178 39.7944L74.0072 41.2081C73.965 41.2529 73.9096 41.2767 73.8543 41.2767Z" fill="#29C483"/>
<path d="M83.2135 39.7931C83.2135 39.9187 83.231 40.0313 83.2661 40.131C83.303 40.2288 83.3547 40.3119 83.4212 40.3802C83.4895 40.4485 83.5716 40.5002 83.6676 40.5353C83.7655 40.5704 83.8744 40.5879 83.9944 40.5879C84.1273 40.5879 84.2446 40.5667 84.3461 40.5242C84.4495 40.4799 84.5363 40.4218 84.6064 40.3498C84.6766 40.2778 84.7301 40.1947 84.7671 40.1005C84.804 40.0064 84.8224 39.9085 84.8224 39.807C84.8224 39.6833 84.8021 39.5716 84.7615 39.4719C84.7227 39.3704 84.6683 39.2845 84.5981 39.2144C84.528 39.1442 84.444 39.0907 84.3461 39.0537C84.2501 39.015 84.144 38.9956 84.0276 38.9956C83.9058 38.9956 83.795 39.0159 83.6953 39.0565C83.5956 39.0953 83.5098 39.1497 83.4378 39.2199C83.3658 39.29 83.3104 39.374 83.2716 39.4719C83.2328 39.5697 83.2135 39.6768 83.2135 39.7931ZM84.3655 41.0144C84.4061 40.9609 84.444 40.9101 84.479 40.8621C84.5141 40.8141 84.5474 40.7661 84.5787 40.7181C84.4772 40.7993 84.3627 40.8612 84.2353 40.9036C84.108 40.9461 83.9732 40.9673 83.831 40.9673C83.6815 40.9673 83.5393 40.9424 83.4045 40.8926C83.2716 40.8427 83.1544 40.7698 83.0528 40.6738C82.9513 40.5759 82.8701 40.4569 82.8091 40.3165C82.7501 40.1744 82.7205 40.0119 82.7205 39.8291C82.7205 39.6556 82.7528 39.4931 82.8174 39.3417C82.8821 39.1904 82.9725 39.0583 83.0888 38.9457C83.2052 38.8331 83.3436 38.7445 83.5042 38.6799C83.6649 38.6153 83.8412 38.5829 84.0332 38.5829C84.2233 38.5829 84.396 38.6143 84.551 38.6771C84.7061 38.7399 84.8391 38.8276 84.9498 38.9402C85.0606 39.0528 85.1455 39.1876 85.2046 39.3445C85.2655 39.5014 85.296 39.675 85.296 39.8651C85.296 39.9796 85.2849 40.0885 85.2628 40.1919C85.2425 40.2935 85.212 40.3941 85.1714 40.4938C85.1326 40.5916 85.0846 40.6895 85.0274 40.7873C84.9701 40.8833 84.9055 40.9821 84.8335 41.0836L83.867 42.4794C83.843 42.5145 83.8089 42.5431 83.7646 42.5652C83.7202 42.5855 83.6695 42.5957 83.6122 42.5957H83.1581L84.3655 41.0144ZM88.6889 40.6129C88.6889 40.96 88.651 41.2609 88.5753 41.5157C88.5015 41.7686 88.3999 41.9781 88.2707 42.1443C88.1415 42.3105 87.9882 42.4342 87.811 42.5154C87.6356 42.5966 87.4473 42.6372 87.246 42.6372C87.043 42.6372 86.8537 42.5966 86.6783 42.5154C86.5048 42.4342 86.3534 42.3105 86.2242 42.1443C86.0949 41.9781 85.9934 41.7686 85.9195 41.5157C85.8457 41.2609 85.8088 40.96 85.8088 40.6129C85.8088 40.2658 85.8457 39.9648 85.9195 39.7101C85.9934 39.4553 86.0949 39.2448 86.2242 39.0787C86.3534 38.9106 86.5048 38.786 86.6783 38.7048C86.8537 38.6236 87.043 38.5829 87.246 38.5829C87.4473 38.5829 87.6356 38.6236 87.811 38.7048C87.9882 38.786 88.1415 38.9106 88.2707 39.0787C88.3999 39.2448 88.5015 39.4553 88.5753 39.7101C88.651 39.9648 88.6889 40.2658 88.6889 40.6129ZM88.1765 40.6129C88.1765 40.3101 88.1507 40.0562 88.099 39.8513C88.0491 39.6445 87.9808 39.4784 87.8941 39.3528C87.8091 39.2273 87.7104 39.1377 87.5977 39.0842C87.4851 39.0288 87.3679 39.0011 87.246 39.0011C87.1242 39.0011 87.0069 39.0288 86.8943 39.0842C86.7817 39.1377 86.6829 39.2273 86.598 39.3528C86.5131 39.4784 86.4448 39.6445 86.3931 39.8513C86.3432 40.0562 86.3183 40.3101 86.3183 40.6129C86.3183 40.9156 86.3432 41.1695 86.3931 41.3744C86.4448 41.5794 86.5131 41.7446 86.598 41.8701C86.6829 41.9957 86.7817 42.0861 86.8943 42.1415C87.0069 42.1951 87.1242 42.2218 87.246 42.2218C87.3679 42.2218 87.4851 42.1951 87.5977 42.1415C87.7104 42.0861 87.8091 41.9957 87.8941 41.8701C87.9808 41.7446 88.0491 41.5794 88.099 41.3744C88.1507 41.1695 88.1765 40.9156 88.1765 40.6129ZM89.1628 42.2911C89.1628 42.2431 89.1712 42.1978 89.1878 42.1554C89.2062 42.1129 89.2302 42.076 89.2598 42.0446C89.2912 42.0132 89.3281 41.9883 89.3705 41.9698C89.413 41.9514 89.4582 41.9421 89.5062 41.9421C89.5542 41.9421 89.5995 41.9514 89.6419 41.9698C89.6844 41.9883 89.7213 42.0132 89.7527 42.0446C89.7841 42.076 89.809 42.1129 89.8275 42.1554C89.8459 42.1978 89.8552 42.2431 89.8552 42.2911C89.8552 42.3409 89.8459 42.3871 89.8275 42.4295C89.809 42.4702 89.7841 42.5062 89.7527 42.5375C89.7213 42.5689 89.6844 42.5929 89.6419 42.6095C89.5995 42.628 89.5542 42.6372 89.5062 42.6372C89.4582 42.6372 89.413 42.628 89.3705 42.6095C89.3281 42.5929 89.2912 42.5689 89.2598 42.5375C89.2302 42.5062 89.2062 42.4702 89.1878 42.4295C89.1712 42.3871 89.1628 42.3409 89.1628 42.2911ZM93.158 38.6273V38.8488C93.158 38.9116 93.1506 38.9633 93.1359 39.0039C93.123 39.0445 93.11 39.0787 93.0971 39.1063L91.4521 42.4212C91.4281 42.4692 91.3949 42.5108 91.3524 42.5459C91.31 42.5791 91.2537 42.5957 91.1835 42.5957H90.829L92.4962 39.3224C92.5202 39.2762 92.5451 39.2337 92.5709 39.195C92.5968 39.1562 92.6245 39.1193 92.654 39.0842H90.5826C90.5512 39.0842 90.5235 39.0722 90.4995 39.0482C90.4755 39.0223 90.4635 38.9937 90.4635 38.9623V38.6273H93.158ZM94.9835 42.2468C95.1127 42.2468 95.2281 42.2292 95.3296 42.1942C95.433 42.1572 95.5198 42.1065 95.5899 42.0418C95.6619 41.9754 95.7164 41.8969 95.7533 41.8064C95.7921 41.7141 95.8115 41.6126 95.8115 41.5018C95.8115 41.3652 95.7884 41.2489 95.7423 41.1529C95.6979 41.055 95.637 40.9756 95.5595 40.9147C95.4838 40.8538 95.3961 40.8095 95.2964 40.7818C95.1967 40.7523 95.0924 40.7375 94.9835 40.7375C94.8745 40.7375 94.7702 40.7523 94.6705 40.7818C94.5708 40.8095 94.4822 40.8538 94.4047 40.9147C94.329 40.9756 94.268 41.055 94.2219 41.1529C94.1776 41.2489 94.1554 41.3652 94.1554 41.5018C94.1554 41.6126 94.1739 41.7141 94.2108 41.8064C94.2496 41.8969 94.304 41.9754 94.3742 42.0418C94.4462 42.1065 94.533 42.1572 94.6345 42.1942C94.7379 42.2292 94.8542 42.2468 94.9835 42.2468ZM94.9835 38.9651C94.8653 38.9651 94.761 38.9827 94.6705 39.0177C94.5819 39.0528 94.5071 39.1008 94.4462 39.1617C94.3871 39.2227 94.3419 39.2937 94.3105 39.375C94.281 39.4562 94.2662 39.543 94.2662 39.6353C94.2662 39.7258 94.2791 39.8135 94.305 39.8984C94.3308 39.9833 94.3724 40.059 94.4296 40.1255C94.4868 40.1901 94.5607 40.2427 94.6511 40.2833C94.7434 40.3221 94.8542 40.3415 94.9835 40.3415C95.1127 40.3415 95.2225 40.3221 95.313 40.2833C95.4053 40.2427 95.4801 40.1901 95.5373 40.1255C95.5946 40.059 95.6361 39.9833 95.6619 39.8984C95.6878 39.8135 95.7007 39.7258 95.7007 39.6353C95.7007 39.543 95.685 39.4562 95.6536 39.375C95.6241 39.2937 95.5789 39.2227 95.5179 39.1617C95.4589 39.1008 95.3841 39.0528 95.2936 39.0177C95.205 38.9827 95.1016 38.9651 94.9835 38.9651ZM95.5512 40.527C95.7986 40.5972 95.9887 40.7144 96.1216 40.8787C96.2546 41.043 96.321 41.2535 96.321 41.5101C96.321 41.6837 96.2878 41.8406 96.2213 41.9809C96.1567 42.1194 96.0653 42.2375 95.9472 42.3354C95.8309 42.4332 95.6906 42.5089 95.5262 42.5625C95.3619 42.6142 95.181 42.64 94.9835 42.64C94.7859 42.64 94.605 42.6142 94.4407 42.5625C94.2764 42.5089 94.1351 42.4332 94.017 42.3354C93.8988 42.2375 93.8074 42.1194 93.7428 41.9809C93.6782 41.8406 93.6459 41.6837 93.6459 41.5101C93.6459 41.2535 93.7123 41.043 93.8453 40.8787C93.9782 40.7144 94.1683 40.5972 94.4157 40.527C94.2071 40.4495 94.0493 40.3341 93.9422 40.1808C93.837 40.0258 93.7843 39.8411 93.7843 39.627C93.7843 39.4811 93.813 39.3445 93.8702 39.2171C93.9274 39.0897 94.0087 38.979 94.1139 38.8848C94.2191 38.7906 94.3447 38.7168 94.4905 38.6633C94.6382 38.6097 94.8025 38.5829 94.9835 38.5829C95.1625 38.5829 95.3259 38.6097 95.4736 38.6633C95.6213 38.7168 95.7478 38.7906 95.853 38.8848C95.9583 38.979 96.0395 39.0897 96.0967 39.2171C96.154 39.3445 96.1826 39.4811 96.1826 39.627C96.1826 39.8411 96.129 40.0258 96.022 40.1808C95.9167 40.3341 95.7598 40.4495 95.5512 40.527ZM98.5896 39.5854C98.5896 39.7405 98.5656 39.8799 98.5176 40.0036C98.4695 40.1255 98.4049 40.2288 98.3237 40.3138C98.2443 40.3969 98.1511 40.4606 98.044 40.5049C97.9388 40.5492 97.8271 40.5713 97.7089 40.5713C97.5852 40.5713 97.4698 40.5492 97.3627 40.5049C97.2557 40.4606 97.1624 40.3969 97.083 40.3138C97.0055 40.2288 96.9446 40.1255 96.9003 40.0036C96.856 39.8799 96.8338 39.7405 96.8338 39.5854C96.8338 39.4267 96.856 39.2854 96.9003 39.1617C96.9446 39.038 97.0055 38.9337 97.083 38.8488C97.1624 38.7639 97.2557 38.6993 97.3627 38.6549C97.4698 38.6106 97.5852 38.5885 97.7089 38.5885C97.8345 38.5885 97.9508 38.6106 98.0578 38.6549C98.1649 38.6993 98.2582 38.7639 98.3375 38.8488C98.4169 38.9337 98.4788 39.038 98.5231 39.1617C98.5674 39.2854 98.5896 39.4267 98.5896 39.5854ZM98.2074 39.5854C98.2074 39.4636 98.1945 39.3602 98.1686 39.2753C98.1428 39.1904 98.1068 39.1211 98.0606 39.0676C98.0163 39.0122 97.9637 38.9725 97.9028 38.9485C97.8418 38.9245 97.7772 38.9125 97.7089 38.9125C97.6406 38.9125 97.5769 38.9245 97.5178 38.9485C97.4587 38.9725 97.4071 39.0122 97.3627 39.0676C97.3184 39.1211 97.2834 39.1904 97.2575 39.2753C97.2317 39.3602 97.2187 39.4636 97.2187 39.5854C97.2187 39.7054 97.2317 39.8079 97.2575 39.8928C97.2834 39.9759 97.3184 40.0442 97.3627 40.0978C97.4071 40.1495 97.4587 40.1873 97.5178 40.2113C97.5769 40.2335 97.6406 40.2445 97.7089 40.2445C97.7772 40.2445 97.8418 40.2335 97.9028 40.2113C97.9637 40.1873 98.0163 40.1495 98.0606 40.0978C98.1068 40.0442 98.1428 39.9759 98.1686 39.8928C98.1945 39.8079 98.2074 39.7054 98.2074 39.5854ZM99.9936 38.7103C100.012 38.6882 100.033 38.6688 100.057 38.6522C100.083 38.6356 100.117 38.6273 100.16 38.6273H100.517L97.6148 42.5154C97.5981 42.5394 97.5769 42.5588 97.5511 42.5735C97.5252 42.5883 97.4938 42.5957 97.4569 42.5957H97.0941L99.9936 38.7103ZM100.786 41.6597C100.786 41.8148 100.762 41.9532 100.714 42.0751C100.666 42.1969 100.601 42.3003 100.52 42.3852C100.44 42.4683 100.347 42.532 100.24 42.5763C100.135 42.6206 100.023 42.6428 99.905 42.6428C99.7794 42.6428 99.6631 42.6206 99.5561 42.5763C99.4508 42.532 99.3585 42.4683 99.2791 42.3852C99.2016 42.3003 99.1407 42.1969 99.0963 42.0751C99.052 41.9532 99.0299 41.8148 99.0299 41.6597C99.0299 41.5009 99.052 41.3597 99.0963 41.236C99.1407 41.1104 99.2016 41.0052 99.2791 40.9203C99.3585 40.8353 99.4508 40.7707 99.5561 40.7264C99.6631 40.6821 99.7794 40.6599 99.905 40.6599C100.029 40.6599 100.144 40.6821 100.251 40.7264C100.36 40.7707 100.453 40.8353 100.531 40.9203C100.61 41.0052 100.672 41.1104 100.716 41.236C100.763 41.3597 100.786 41.5009 100.786 41.6597ZM100.403 41.6597C100.403 41.5378 100.391 41.4344 100.365 41.3495C100.339 41.2627 100.303 41.1926 100.257 41.139C100.212 41.0855 100.16 41.0467 100.099 41.0227C100.038 40.9987 99.9733 40.9867 99.905 40.9867C99.8367 40.9867 99.7721 40.9987 99.7111 41.0227C99.6521 41.0467 99.6004 41.0855 99.5561 41.139C99.5117 41.1926 99.4767 41.2627 99.4508 41.3495C99.4268 41.4344 99.4148 41.5378 99.4148 41.6597C99.4148 41.7797 99.4268 41.8812 99.4508 41.9643C99.4767 42.0474 99.5117 42.1157 99.5561 42.1692C99.6004 42.2209 99.6521 42.2588 99.7111 42.2828C99.7721 42.3049 99.8367 42.316 99.905 42.316C99.9733 42.316 100.038 42.3049 100.099 42.2828C100.16 42.2588 100.212 42.2209 100.257 42.1692C100.303 42.1157 100.339 42.0474 100.365 41.9643C100.391 41.8812 100.403 41.7797 100.403 41.6597Z" fill="#29C483"/>
</svg>
