<svg width="29" height="28" viewBox="0 0 29 28" fill="none" xmlns="http://www.w3.org/2000/svg">
<path d="M14.4768 2.27734C8.2026 2.27734 3.08984 7.3901 3.08984 13.6643C3.08984 19.9386 8.2026 25.0513 14.4768 25.0513C20.7511 25.0513 25.8638 19.9386 25.8638 13.6643C25.8638 7.3901 20.7511 2.27734 14.4768 2.27734ZM19.0316 14.5184H15.3309V18.2191C15.3309 18.686 14.9437 19.0731 14.4768 19.0731C14.01 19.0731 13.6228 18.686 13.6228 18.2191V14.5184H9.92204C9.45517 14.5184 9.06801 14.1312 9.06801 13.6643C9.06801 13.1975 9.45517 12.8103 9.92204 12.8103H13.6228V9.10954C13.6228 8.64267 14.01 8.25551 14.4768 8.25551C14.9437 8.25551 15.3309 8.64267 15.3309 9.10954V12.8103H19.0316C19.4985 12.8103 19.8856 13.1975 19.8856 13.6643C19.8856 14.1312 19.4985 14.5184 19.0316 14.5184Z" fill="#45485B"/>
</svg>
