<svg width="50" height="50" viewBox="0 0 50 50" fill="none" xmlns="http://www.w3.org/2000/svg">
<g clip-path="url(#clip0_6984_10724)">
<path d="M39.2672 24.0215C40.6402 21.7991 41.4478 19.274 41.6192 16.6673C41.6192 16.1148 41.3997 15.5849 41.009 15.1942C40.6183 14.8035 40.0884 14.584 39.5359 14.584C38.9834 14.584 38.4535 14.8035 38.0628 15.1942C37.6721 15.5849 37.4526 16.1148 37.4526 16.6673C37.2835 18.492 36.6953 20.2531 35.7338 21.8131C35.5888 22.0457 35.491 22.3045 35.4461 22.5749C35.4011 22.8452 35.4098 23.1217 35.4717 23.3887C35.5336 23.6557 35.6475 23.9078 35.8069 24.1308C35.9662 24.3537 36.1679 24.5431 36.4005 24.6881C36.633 24.8331 36.8919 24.9309 37.1622 24.9759C37.4325 25.0209 37.7091 25.0121 37.9761 24.9502C38.5152 24.8252 38.9826 24.4911 39.2755 24.0215H39.2672Z" fill="#021637"/>
<path d="M18.7018 14.584C18.1493 14.584 17.6194 14.8035 17.2287 15.1942C16.838 15.5849 16.6185 16.1148 16.6185 16.6673C16.4494 18.4921 15.8612 20.2531 14.8997 21.8132C14.6069 22.2828 14.5126 22.8496 14.6376 23.3887C14.7627 23.9279 15.0967 24.3953 15.5664 24.6882C16.036 24.981 16.6028 25.0753 17.142 24.9502C17.6811 24.8252 18.1485 24.4911 18.4414 24.0215C19.8115 21.7983 20.6162 19.2733 20.7851 16.6673C20.7851 16.1148 20.5656 15.5849 20.1749 15.1942C19.7842 14.8035 19.2543 14.584 18.7018 14.584Z" fill="#021637"/>
<path d="M40.6249 38.7264C39.204 37.9722 37.7374 37.191 37.5332 36.3056C37.4374 35.9035 37.4811 34.9972 38.6061 33.2368C45.2082 32.291 49.9999 22.9681 49.9999 14.5826C50.0581 12.9254 49.7746 11.274 49.167 9.73109C48.5594 8.18819 47.6407 6.78686 46.4682 5.61432C45.2957 4.44178 43.8943 3.52313 42.3514 2.91554C40.8085 2.30795 39.1571 2.02444 37.4999 2.08264C35.4853 2.02746 33.4884 2.4717 31.6872 3.37575C29.886 4.2798 28.3365 5.61555 27.177 7.26389C25.569 4.48979 23.0909 2.32354 20.1268 1.10089C17.1626 -0.12176 13.8779 -0.332528 10.7818 0.501252C7.68568 1.33503 4.95104 3.1668 3.00172 5.71264C1.05241 8.25848 -0.00271387 11.3762 -0.000117289 14.5826C-0.000117289 22.8556 4.70197 32.2597 11.229 34.7597C10.7774 35.5117 10.4998 36.3552 10.4165 37.2285C10.4165 40.5014 13.5186 41.9514 15.7832 43.0118C17.0332 43.5951 18.7499 44.3972 18.7499 45.0181C18.5802 45.665 18.2764 46.269 17.8582 46.791C17.7105 47.0213 17.6096 47.2785 17.5612 47.5479C17.5129 47.8173 17.5181 48.0935 17.5765 48.3609C17.6349 48.6282 17.7454 48.8814 17.9017 49.1061C18.058 49.3307 18.257 49.5224 18.4874 49.6701C18.9526 49.9685 19.5173 50.0698 20.0573 49.9519C20.3246 49.8934 20.5779 49.7829 20.8025 49.6266C21.0271 49.4703 21.2188 49.2713 21.3665 49.041C22.2508 47.8722 22.788 46.478 22.9165 45.0181C22.9165 41.7451 19.8145 40.2951 17.5499 39.2368C16.2999 38.6514 14.5832 37.8493 14.5645 37.4347C14.8812 36.6884 15.278 35.9787 15.7478 35.3181C20.6478 34.6805 24.7707 30.1097 27.1061 24.4847C28.4179 27.9583 30.944 30.8389 34.2165 32.5931C33.4403 34.0156 33.1784 35.6623 33.4749 37.2556C34.1124 39.9847 36.6395 41.3285 38.6707 42.4097C39.954 43.0931 41.4061 43.868 41.627 44.6347C41.6817 45.4375 41.4491 46.2336 40.9707 46.8806C40.8318 47.1176 40.7411 47.3797 40.7038 47.652C40.6666 47.9242 40.6836 48.2011 40.7538 48.4667C40.8241 48.7323 40.9461 48.9814 41.113 49.1997C41.2799 49.4179 41.4883 49.601 41.7263 49.7384C41.9642 49.8758 42.227 49.9647 42.4994 50.0001C42.7719 50.0356 43.0487 50.0167 43.3138 49.9447C43.579 49.8728 43.8273 49.749 44.0444 49.5807C44.2616 49.4124 44.4433 49.2027 44.579 48.9639C45.1237 48.1742 45.4986 47.28 45.6801 46.338C45.8615 45.3959 45.8456 44.4265 45.6332 43.491C45.1693 42.3961 44.4854 41.4082 43.6239 40.5885C42.7623 39.7689 41.7416 39.1351 40.6249 38.7264ZM14.5832 31.2493C9.07072 31.2493 4.16655 21.9285 4.16655 14.5826C4.16655 11.82 5.26402 9.17045 7.21752 7.21694C9.17102 5.26344 11.8205 4.16597 14.5832 4.16597C17.3459 4.16597 19.9954 5.26344 21.9489 7.21694C23.9024 9.17045 24.9999 11.82 24.9999 14.5826C24.9999 21.9285 20.0957 31.2493 14.5832 31.2493ZM29.1665 14.5826C29.1037 13.4718 29.2763 12.3603 29.6729 11.3208C30.0694 10.2813 30.6811 9.33728 31.4678 8.55056C32.2545 7.76385 33.1985 7.15218 34.238 6.75561C35.2775 6.35904 36.3891 6.1865 37.4999 6.2493C38.6107 6.1865 39.7222 6.35904 40.7617 6.75561C41.8012 7.15218 42.7452 7.76385 43.532 8.55056C44.3187 9.33728 44.9303 10.2813 45.3269 11.3208C45.7235 12.3603 45.896 13.4718 45.8332 14.5826C45.8332 21.666 41.5499 29.166 37.4999 29.166C33.4499 29.166 29.1665 21.666 29.1665 14.5826Z" fill="#021637"/>
</g>
<defs>
<clipPath id="clip0_6984_10724">
<rect width="50" height="50" fill="white"/>
</clipPath>
</defs>
</svg>
