<svg width="50" height="50" viewBox="0 0 50 50" fill="none" xmlns="http://www.w3.org/2000/svg">
<path d="M41.2148 25.1639C40.8731 23.9431 40.4877 22.6514 40.0585 21.2618C38.7876 17.7581 37.9291 14.1183 37.5002 10.416C37.5002 9.86348 37.7197 9.33358 38.1104 8.94288C38.5011 8.55218 39.031 8.33268 39.5835 8.33268C40.1361 8.33268 40.666 8.55218 41.0567 8.94288C41.4474 9.33358 41.6669 9.86348 41.6669 10.416C41.6669 10.9685 41.8863 11.4985 42.277 11.8892C42.6677 12.2799 43.1977 12.4993 43.7502 12.4993C44.3027 12.4993 44.8326 12.2799 45.2233 11.8892C45.614 11.4985 45.8335 10.9685 45.8335 10.416C45.8335 8.75841 45.175 7.1687 44.0029 5.9966C42.8308 4.8245 41.2411 4.16602 39.5835 4.16602C37.9259 4.16602 36.3362 4.8245 35.1641 5.9966C33.992 7.1687 33.3335 8.75841 33.3335 10.416C33.3852 12.0068 33.608 13.5875 33.9981 15.1306L23.9981 22.916L12.4398 14.5827H18.7502C19.3027 14.5827 19.8326 14.3632 20.2233 13.9725C20.614 13.5818 20.8335 13.0519 20.8335 12.4993C20.8335 11.9468 20.614 11.4169 20.2233 11.0262C19.8326 10.6355 19.3027 10.416 18.7502 10.416H12.4398C11.5743 10.4158 10.7309 10.6892 10.0303 11.1974C9.32962 11.7055 8.80765 12.4222 8.53903 13.2449C8.2704 14.0677 8.26889 14.9543 8.53471 15.778C8.80052 16.6016 9.32004 17.3201 10.0189 17.8306L20.5835 25.5639L17.5877 27.8952C15.7268 26.1432 13.2821 25.1439 10.7268 25.0909C8.17148 25.038 5.68742 25.935 3.75553 27.6084C1.82364 29.2817 0.581372 31.6124 0.269238 34.1491C-0.0428969 36.6858 0.59731 39.2481 2.06591 41.3399C3.5345 43.4317 5.72701 44.9042 8.21893 45.4722C10.7108 46.0403 13.3249 45.6635 15.555 44.4149C17.7851 43.1662 19.4725 41.1346 20.2906 38.7132C21.1087 36.2918 20.9993 33.653 19.9835 31.3077L35.1689 19.4973C35.4627 20.4889 36.6835 24.4639 36.9523 25.3785C34.4621 26.0287 32.3013 27.5787 30.8873 29.7292C29.4734 31.8796 28.9066 34.4778 29.2966 37.0217C29.6866 39.5657 31.0056 41.8748 32.9988 43.5029C34.992 45.131 37.518 45.9626 40.0885 45.837C42.6591 45.7113 45.0919 44.6374 46.9168 42.8227C48.7418 41.0079 49.8293 38.5812 49.9694 36.0113C50.1094 33.4415 49.292 30.911 47.6751 28.9087C46.0582 26.9064 43.7565 25.5744 41.2148 25.1702V25.1639ZM10.4169 41.666C9.18072 41.666 7.97235 41.2995 6.94454 40.6127C5.91673 39.9259 5.11565 38.9498 4.64261 37.8078C4.16956 36.6657 4.04579 35.4091 4.28695 34.1967C4.5281 32.9843 5.12336 31.8707 5.99744 30.9966C6.87151 30.1225 7.98516 29.5273 9.19754 29.2861C10.4099 29.0449 11.6666 29.1687 12.8086 29.6418C13.9507 30.1148 14.9268 30.9159 15.6135 31.9437C16.3003 32.9715 16.6669 34.1799 16.6669 35.416C16.6669 37.0736 16.0084 38.6633 14.8363 39.8354C13.6642 41.0075 12.0745 41.666 10.4169 41.666ZM39.5835 41.666C38.3474 41.666 37.139 41.2995 36.1112 40.6127C35.0834 39.9259 34.2823 38.9498 33.8093 37.8078C33.3362 36.6657 33.2125 35.4091 33.4536 34.1967C33.6948 32.9843 34.29 31.8707 35.1641 30.9966C36.0382 30.1225 37.1518 29.5273 38.3642 29.2861C39.5766 29.0449 40.8333 29.1687 41.9753 29.6418C43.1173 30.1148 44.0934 30.9159 44.7802 31.9437C45.467 32.9715 45.8335 34.1799 45.8335 35.416C45.8335 37.0736 45.175 38.6633 44.0029 39.8354C42.8308 41.0075 41.2411 41.666 39.5835 41.666Z" fill="#021637"/>
</svg>
