<svg width="50" height="50" viewBox="0 0 50 50" fill="none" xmlns="http://www.w3.org/2000/svg">
<g clip-path="url(#clip0_6982_10712)">
<path d="M49.4062 4.75996C49.0107 4.36583 48.475 4.14453 47.9166 4.14453C47.3583 4.14453 46.8226 4.36583 46.4271 4.75996L36.5021 14.6849L35.8354 14.0329C34.0777 12.3161 31.7706 11.2747 29.3204 11.0922C26.8703 10.9096 24.4343 11.5976 22.4417 13.0349C19.5657 15.2037 16.3689 16.9103 12.9667 18.0933L8.64582 19.3599C7.24175 19.7721 5.93943 20.4734 4.82252 21.4188C3.70561 22.3642 2.79882 23.5328 2.1604 24.8495C1.5325 26.1484 1.18277 27.564 1.13362 29.0058C1.08448 30.4476 1.33699 31.8838 1.87498 33.2224C3.91411 38.2282 7.4098 42.506 11.909 45.5015C16.4082 48.497 21.7034 50.072 27.1083 50.0224H29.0333C29.464 50.0221 29.8843 49.8898 30.2375 49.6432C33.9046 47.2496 37.0386 44.1254 39.4439 40.4659C41.8491 36.8064 43.4739 32.6902 44.2167 28.3745C44.475 26.7243 44.3351 25.0362 43.8085 23.4511C43.2819 21.8659 42.384 20.4296 41.1896 19.262L39.5229 17.6287L49.4125 7.73912C49.8058 7.34273 50.026 6.80664 50.0248 6.24825C50.0236 5.68985 49.8012 5.15469 49.4062 4.75996ZM28.35 45.8016H27.1C24.0217 45.8058 20.9725 45.2063 18.125 44.037L18.1479 44.0245C21.7914 42.1963 24.9106 39.4722 27.2125 36.1078L28.2917 34.5224C28.606 34.061 28.7243 33.4937 28.6204 32.9451C28.5164 32.3966 28.1989 31.9118 27.7375 31.5974C27.2761 31.283 26.7088 31.1648 26.1602 31.2687C25.6117 31.3726 25.1269 31.6902 24.8125 32.1516L23.7333 33.737C21.8317 36.5111 19.2568 38.757 16.25 40.2641L13.6437 41.5766C11.5586 40.1109 9.73871 38.3002 8.26248 36.2224C11.677 35.0737 14.7923 33.1776 17.3812 30.6724C17.7807 30.2818 18.0087 29.7484 18.0149 29.1897C18.0212 28.631 17.8052 28.0927 17.4146 27.6933C17.0239 27.2938 16.4906 27.0658 15.9319 27.0596C15.3732 27.0533 14.8349 27.2693 14.4354 27.6599C12.1039 29.919 9.25839 31.5777 6.14373 32.4933C6.01665 32.212 5.87915 31.937 5.76457 31.6474C5.44191 30.855 5.29086 30.0033 5.32139 29.1482C5.35191 28.2932 5.56331 27.4544 5.94165 26.687C6.32468 25.8991 6.86788 25.1997 7.53655 24.6336C8.20522 24.0676 8.98464 23.6472 9.82498 23.3995L14.1437 22.1328C16.6499 21.3278 19.0472 20.2166 21.2812 18.8245L37.7708 34.8912C35.5799 39.2525 32.3433 43.0037 28.35 45.8099V45.8016ZM40.0583 27.712C39.8991 28.6867 39.6841 29.6515 39.4146 30.6016L24.8917 16.4579C25.9571 15.6921 27.2358 15.2797 28.5479 15.2787C30.171 15.2766 31.73 15.9118 32.8896 17.0474L38.2417 22.2745C38.9562 22.972 39.4938 23.8301 39.8098 24.7773C40.1258 25.7246 40.211 26.7335 40.0583 27.7203V27.712Z" fill="white"/>
</g>
<defs>
<clipPath id="clip0_6982_10712">
<rect width="50" height="50" fill="white"/>
</clipPath>
</defs>
</svg>
