<svg width="14" height="15" viewBox="0 0 14 15" fill="none" xmlns="http://www.w3.org/2000/svg">
<path d="M11.9 1.9H10.5V1.2C10.5 1.01435 10.4263 0.836301 10.295 0.705025C10.1637 0.57375 9.98565 0.5 9.8 0.5C9.61435 0.5 9.4363 0.57375 9.30503 0.705025C9.17375 0.836301 9.1 1.01435 9.1 1.2V1.9H4.9V1.2C4.9 1.01435 4.82625 0.836301 4.69497 0.705025C4.5637 0.57375 4.38565 0.5 4.2 0.5C4.01435 0.5 3.8363 0.57375 3.70503 0.705025C3.57375 0.836301 3.5 1.01435 3.5 1.2V1.9H2.1C1.54305 1.9 1.0089 2.12125 0.615076 2.51508C0.221249 2.9089 0 3.44305 0 4V12.4C0 12.957 0.221249 13.4911 0.615076 13.8849C1.0089 14.2788 1.54305 14.5 2.1 14.5H11.9C12.457 14.5 12.9911 14.2788 13.3849 13.8849C13.7788 13.4911 14 12.957 14 12.4V4C14 3.44305 13.7788 2.9089 13.3849 2.51508C12.9911 2.12125 12.457 1.9 11.9 1.9ZM12.6 12.4C12.6 12.5857 12.5263 12.7637 12.395 12.895C12.2637 13.0263 12.0857 13.1 11.9 13.1H2.1C1.91435 13.1 1.7363 13.0263 1.60503 12.895C1.47375 12.7637 1.4 12.5857 1.4 12.4V7.5H12.6V12.4ZM12.6 6.1H1.4V4C1.4 3.81435 1.47375 3.6363 1.60503 3.50503C1.7363 3.37375 1.91435 3.3 2.1 3.3H3.5V4C3.5 4.18565 3.57375 4.3637 3.70503 4.49497C3.8363 4.62625 4.01435 4.7 4.2 4.7C4.38565 4.7 4.5637 4.62625 4.69497 4.49497C4.82625 4.3637 4.9 4.18565 4.9 4V3.3H9.1V4C9.1 4.18565 9.17375 4.3637 9.30503 4.49497C9.4363 4.62625 9.61435 4.7 9.8 4.7C9.98565 4.7 10.1637 4.62625 10.295 4.49497C10.4263 4.3637 10.5 4.18565 10.5 4V3.3H11.9C12.0857 3.3 12.2637 3.37375 12.395 3.50503C12.5263 3.6363 12.6 3.81435 12.6 4V6.1Z" fill="#7C8698"/>
</svg>
