<svg width="16" height="16" viewBox="0 0 16 16" fill="none" xmlns="http://www.w3.org/2000/svg">
<rect width="16" height="16" fill="#3E3E3E"/>
<g id="Web App (Posters End)">
<path d="M-27397 -2532C-27397 -2533.1 -27396.1 -2534 -27395 -2534H15838C15839.1 -2534 15840 -2533.1 15840 -2532V5921C15840 5922.1 15839.1 5923 15838 5923H-27395C-27396.1 5923 -27397 5922.1 -27397 5921V-2532Z" fill="#236F8E"/>
<path d="M-27395 -2534V-2533H15838V-2534V-2535H-27395V-2534ZM15840 -2532H15839V5921H15840H15841V-2532H15840ZM15838 5923V5922H-27395V5923V5924H15838V5923ZM-27397 5921H-27396V-2532H-27397H-27398V5921H-27397ZM-27395 5923V5922C-27395.6 5922 -27396 5921.55 -27396 5921H-27397H-27398C-27398 5922.66 -27396.7 5924 -27395 5924V5923ZM15840 5921H15839C15839 5921.55 15838.6 5922 15838 5922V5923V5924C15839.7 5924 15841 5922.66 15841 5921H15840ZM15838 -2534V-2533C15838.6 -2533 15839 -2532.55 15839 -2532H15840H15841C15841 -2533.66 15839.7 -2535 15838 -2535V-2534ZM-27395 -2534V-2535C-27396.7 -2535 -27398 -2533.66 -27398 -2532H-27397H-27396C-27396 -2532.55 -27395.6 -2533 -27395 -2533V-2534Z" fill="black" fill-opacity="0.1"/>
<g id="Posters Dashboard" clip-path="url(#clip0_1422_2854)">
<rect width="1512" height="1781" transform="translate(-116 -407)" fill="#F3F5F6"/>
<g id="Side Navbar">
<rect x="-50" y="-296" width="300" height="690" rx="30" fill="white"/>
<g id="Frame 1000012026">
<g id="Frame 1000011979">
<rect width="300" height="62" transform="translate(-50 -23)" fill="white"/>
<g id="chat">
<path id="chat_2" d="M2.97979 13.3562L1.29389 15.0419C1.05432 15.2816 0.778737 15.3359 0.467158 15.2048C0.155719 15.0736 0 14.8374 0 14.4962V2.24693C0 1.82152 0.147368 1.46145 0.442105 1.16671C0.736842 0.871978 1.09691 0.724609 1.52232 0.724609H14.4777C14.9031 0.724609 15.2632 0.871978 15.5579 1.16671C15.8526 1.46145 16 1.82152 16 2.24693V11.8339C16 12.2593 15.8526 12.6193 15.5579 12.9141C15.2632 13.2088 14.9031 13.3562 14.4777 13.3562H2.97979ZM2.44211 12.093H14.4777C14.5425 12.093 14.6019 12.066 14.6558 12.012C14.7098 11.9581 14.7368 11.8987 14.7368 11.8339V2.24693C14.7368 2.18208 14.7098 2.12271 14.6558 2.06882C14.6019 2.01478 14.5425 1.98777 14.4777 1.98777H1.52232C1.45747 1.98777 1.39811 2.01478 1.34421 2.06882C1.29018 2.12271 1.26316 2.18208 1.26316 2.24693V13.2591L2.44211 12.093ZM3.78947 10.1983H8.8421C9.02133 10.1983 9.17137 10.1378 9.29221 10.0168C9.41319 9.89598 9.47368 9.74594 9.47368 9.56671C9.47368 9.38749 9.41319 9.23745 9.29221 9.11661C9.17137 8.99563 9.02133 8.93514 8.8421 8.93514H3.78947C3.61025 8.93514 3.46021 8.99563 3.33937 9.11661C3.21839 9.23745 3.15789 9.38749 3.15789 9.56671C3.15789 9.74594 3.21839 9.89598 3.33937 10.0168C3.46021 10.1378 3.61025 10.1983 3.78947 10.1983ZM3.78947 7.67198H12.2105C12.3898 7.67198 12.5398 7.61149 12.6606 7.4905C12.7816 7.36966 12.8421 7.21963 12.8421 7.0404C12.8421 6.86117 12.7816 6.71114 12.6606 6.59029C12.5398 6.46931 12.3898 6.40882 12.2105 6.40882H3.78947C3.61025 6.40882 3.46021 6.46931 3.33937 6.59029C3.21839 6.71114 3.15789 6.86117 3.15789 7.0404C3.15789 7.21963 3.21839 7.36966 3.33937 7.4905C3.46021 7.61149 3.61025 7.67198 3.78947 7.67198ZM3.78947 5.14566H12.2105C12.3898 5.14566 12.5398 5.08517 12.6606 4.96419C12.7816 4.84335 12.8421 4.69331 12.8421 4.51408C12.8421 4.33486 12.7816 4.18482 12.6606 4.06398C12.5398 3.943 12.3898 3.8825 12.2105 3.8825H3.78947C3.61025 3.8825 3.46021 3.943 3.33937 4.06398C3.21839 4.18482 3.15789 4.33486 3.15789 4.51408C3.15789 4.69331 3.21839 4.84335 3.33937 4.96419C3.46021 5.08517 3.61025 5.14566 3.78947 5.14566Z" fill="#021637"/>
</g>
</g>
</g>
</g>
</g>
</g>
<defs>
<clipPath id="clip0_1422_2854">
<rect width="1512" height="1781" fill="white" transform="translate(-116 -407)"/>
</clipPath>
</defs>
</svg>
