<svg width="188" height="188" viewBox="0 0 188 188" fill="none" xmlns="http://www.w3.org/2000/svg">
<path opacity="0.4" d="M93.9993 169.833C135.881 169.833 169.833 135.881 169.833 93.9993C169.833 52.1178 135.881 18.166 93.9993 18.166C52.1178 18.166 18.166 52.1178 18.166 93.9993C18.166 135.881 52.1178 169.833 93.9993 169.833Z" fill="#C42929" fill-opacity="0.25"/>
<path d="M102.304 94.0003L120.32 75.9836C122.592 73.712 122.592 69.952 120.32 67.6803C118.049 65.4086 114.289 65.4086 112.017 67.6803L94.0003 85.697L75.9836 67.6803C73.712 65.4086 69.952 65.4086 67.6803 67.6803C65.4086 69.952 65.4086 73.712 67.6803 75.9836L85.697 94.0003L67.6803 112.017C65.4086 114.289 65.4086 118.049 67.6803 120.32C68.8553 121.495 70.3436 122.044 71.832 122.044C73.3203 122.044 74.8086 121.495 75.9836 120.32L94.0003 102.304L112.017 120.32C113.192 121.495 114.68 122.044 116.169 122.044C117.657 122.044 119.145 121.495 120.32 120.32C122.592 118.049 122.592 114.289 120.32 112.017L102.304 94.0003Z" fill="#EC514B"/>
</svg>
