<svg width="91" height="86" viewBox="0 0 91 86" fill="none" xmlns="http://www.w3.org/2000/svg">
<path d="M40 80.055L41.0711 81.7441L40 80.055ZM40 18.555L41.2463 20.1193L40 18.555ZM89.867 20.3573C90.8624 19.8785 91.2811 18.6834 90.8023 17.688L82.9989 1.46743C82.52 0.472057 81.3249 0.0533361 80.3296 0.532191C79.3342 1.01105 78.9155 2.20615 79.3943 3.20152L86.3307 17.6198L71.9124 24.5562C70.917 25.035 70.4983 26.2301 70.9771 27.2255C71.456 28.2209 72.6511 28.6396 73.6465 28.1607L89.867 20.3573ZM1 80.055C0.404216 81.9642 0.404711 81.9644 0.405307 81.9646C0.405638 81.9647 0.406334 81.9649 0.406997 81.9651C0.408323 81.9655 0.410048 81.9661 0.412168 81.9667C0.416409 81.968 0.422234 81.9698 0.429623 81.9721C0.444402 81.9767 0.465442 81.9831 0.492592 81.9914C0.546891 82.0079 0.62564 82.0317 0.727633 82.062C0.931603 82.1225 1.22864 82.2091 1.60909 82.3156C2.3698 82.5285 3.46512 82.8216 4.81763 83.1467C7.51928 83.796 11.264 84.5768 15.4282 85.0983C19.5849 85.6188 24.2103 85.8874 28.6588 85.4881C33.0904 85.0903 37.4858 84.0176 41.0711 81.7441L40 80.055L38.9289 78.366C36.083 80.1707 32.3879 81.1372 28.3012 81.5041C24.2313 81.8694 19.9106 81.6283 15.9252 81.1292C11.9471 80.6311 8.35348 79.8826 5.75237 79.2574C4.45349 78.9453 3.40631 78.6649 2.68736 78.4636C2.32799 78.363 2.05091 78.2823 1.86573 78.2273C1.77314 78.1998 1.70355 78.1788 1.65815 78.165C1.63546 78.1581 1.61881 78.153 1.60836 78.1497C1.60314 78.1481 1.59947 78.147 1.59737 78.1463C1.59631 78.146 1.59566 78.1458 1.59539 78.1457C1.59526 78.1457 1.59536 78.1457 1.59529 78.1457C1.59549 78.1458 1.59578 78.1458 1 80.055ZM40 80.055L41.0711 81.7441C43.9148 79.9407 45.8149 77.7023 46.8988 75.1033C47.9723 72.5295 48.1858 69.7464 47.9055 66.9262C47.3539 61.3761 44.8205 55.2015 42.4122 49.3345C39.9388 43.309 37.5747 37.5606 36.9113 32.4138C36.2667 27.4125 37.2589 23.2962 41.2463 20.1193L40 18.555L38.7537 16.9908C33.349 21.297 32.1806 27.0019 32.9441 32.9252C33.6889 38.7031 36.3019 44.9826 38.7118 50.8535C41.1869 56.883 43.4432 62.4734 43.9251 67.3218C44.1615 69.701 43.9528 71.7756 43.207 73.5636C42.4719 75.3264 41.1559 76.9538 38.9289 78.366L40 80.055ZM40 18.555L41.2463 20.1193C44.5786 17.4642 49.0916 16.0506 54.18 15.5134C59.2529 14.978 64.7322 15.3313 69.828 16.0631C74.9138 16.7935 79.5523 17.891 82.9234 18.8081C84.6068 19.266 85.969 19.6775 86.9067 19.9733C87.3755 20.1212 87.7379 20.24 87.9809 20.3211C88.1024 20.3617 88.1941 20.3928 88.2542 20.4134C88.2843 20.4237 88.3065 20.4314 88.3207 20.4363C88.3278 20.4387 88.3328 20.4405 88.3358 20.4415C88.3373 20.4421 88.3383 20.4424 88.3388 20.4426C88.339 20.4427 88.339 20.4427 88.3391 20.4427C88.339 20.4426 88.3387 20.4425 89 18.555C89.6613 16.6675 89.6608 16.6674 89.6601 16.6671C89.6597 16.667 89.6589 16.6667 89.6581 16.6664C89.6565 16.6659 89.6544 16.6651 89.6518 16.6642C89.6465 16.6624 89.6392 16.6598 89.6299 16.6566C89.6112 16.6501 89.5844 16.6409 89.5496 16.629C89.4801 16.6052 89.3788 16.5708 89.2474 16.5269C88.9846 16.4392 88.6011 16.3135 88.11 16.1586C87.1281 15.8489 85.7144 15.422 83.9734 14.9483C80.4954 14.0022 75.69 12.8639 70.3966 12.1038C65.1132 11.345 59.2778 10.9531 53.7602 11.5355C48.258 12.1163 42.9045 13.6837 38.7537 16.9908L40 18.555Z" fill="#B8E9F9"/>
</svg>
