<svg width="50" height="50" viewBox="0 0 50 50" fill="none" xmlns="http://www.w3.org/2000/svg">
<path d="M24.9998 2.08333V14.5833C24.9968 16.9838 24.1663 19.3098 22.6483 21.1693C21.1304 23.0288 19.0177 24.3081 16.6665 24.7917V47.9167C16.6665 48.4692 16.447 48.9991 16.0563 49.3898C15.6656 49.7805 15.1357 50 14.5832 50C14.0306 50 13.5007 49.7805 13.11 49.3898C12.7193 48.9991 12.4998 48.4692 12.4998 47.9167V24.7917C10.1486 24.3081 8.03597 23.0288 6.518 21.1693C5.00003 19.3098 4.16953 16.9838 4.1665 14.5833V2.08333C4.1665 1.5308 4.386 1.0009 4.7767 0.610194C5.1674 0.219493 5.6973 0 6.24984 0C6.80237 0 7.33228 0.219493 7.72298 0.610194C8.11368 1.0009 8.33317 1.5308 8.33317 2.08333V14.5833C8.33851 15.8714 8.74168 17.1263 9.48752 18.1765C10.2334 19.2266 11.2854 20.0207 12.4998 20.45V2.08333C12.4998 1.5308 12.7193 1.0009 13.11 0.610194C13.5007 0.219493 14.0306 0 14.5832 0C15.1357 0 15.6656 0.219493 16.0563 0.610194C16.447 1.0009 16.6665 1.5308 16.6665 2.08333V20.45C17.8809 20.0207 18.933 19.2266 19.6788 18.1765C20.4247 17.1263 20.8278 15.8714 20.8332 14.5833V2.08333C20.8332 1.5308 21.0527 1.0009 21.4434 0.610194C21.8341 0.219493 22.364 0 22.9165 0C23.469 0 23.9989 0.219493 24.3896 0.610194C24.7803 1.0009 24.9998 1.5308 24.9998 2.08333ZM45.8332 20.8333C45.74 24.7926 44.755 28.6798 42.9515 32.2057C41.1479 35.7316 38.5724 38.8053 35.4165 41.1979V47.9167C35.4165 48.4692 35.197 48.9991 34.8063 49.3898C34.4156 49.7805 33.8857 50 33.3332 50C32.7806 50 32.2507 49.7805 31.86 49.3898C31.4693 48.9991 31.2498 48.4692 31.2498 47.9167V4.16667C31.2312 3.38388 31.445 2.61314 31.8645 1.95194C32.2839 1.29073 32.89 0.768773 33.6061 0.452083C34.4287 0.117428 35.3309 0.0296462 36.2026 0.199467C37.0743 0.369288 37.8776 0.789355 38.5144 1.40833C43.3464 6.71032 45.9652 13.661 45.8332 20.8333ZM41.6665 20.8333C41.7256 14.7337 39.4955 8.8335 35.4165 4.29792V35.5625C39.3208 31.6421 41.56 26.3652 41.6665 20.8333Z" fill="#021637"/>
</svg>
