<svg width="14" height="15" viewBox="0 0 14 15" fill="none" xmlns="http://www.w3.org/2000/svg">
<path d="M7 14.5C5.00143 14.5 3.33509 14.2178 2.00097 13.6534C0.66699 13.0892 0 12.3841 0 11.5384V3.38235C0 2.58737 0.683118 1.90823 2.04935 1.34494C3.41559 0.781647 5.0658 0.5 7 0.5C8.9342 0.5 10.5844 0.781647 11.9506 1.34494C13.3169 1.90823 14 2.58737 14 3.38235V11.5384C14 12.3841 13.333 13.0892 11.999 13.6534C10.6649 14.2178 8.99857 14.5 7 14.5ZM7 4.99462C8.20043 4.99462 9.4091 4.8249 10.626 4.48547C11.8428 4.14604 12.5478 3.77991 12.741 3.38709C12.553 2.98383 11.8553 2.60769 10.648 2.25865C9.44074 1.90974 8.22473 1.73529 7 1.73529C5.77733 1.73529 4.56551 1.90501 3.36453 2.24444C2.16355 2.58387 1.45641 2.95419 1.24312 3.35538C1.4512 3.76715 2.15305 4.14329 3.34868 4.48382C4.54444 4.82435 5.76155 4.99462 7 4.99462ZM7 9.11535C7.57126 9.11535 8.12714 9.0879 8.66765 9.033C9.20816 8.9781 9.72472 8.89787 10.2173 8.79232C10.7098 8.68677 11.1709 8.55583 11.6006 8.3995C12.0304 8.2433 12.4184 8.06645 12.7647 7.86894V4.94706C12.4184 5.14443 12.0304 5.32128 11.6006 5.47762C11.1709 5.63381 10.7098 5.76469 10.2173 5.87024C9.72472 5.97592 9.20816 6.05622 8.66765 6.11112C8.12714 6.16602 7.57126 6.19347 7 6.19347C6.41831 6.19347 5.85159 6.16465 5.29982 6.107C4.7482 6.04949 4.22745 5.96796 3.73759 5.86241C3.24773 5.75686 2.79135 5.62729 2.36847 5.47371C1.94559 5.31998 1.56786 5.14443 1.23529 4.94706V7.86894C1.56786 8.06645 1.94559 8.242 2.36847 8.39559C2.79135 8.54918 3.24773 8.67875 3.73759 8.7843C4.22745 8.88998 4.7482 8.97158 5.29982 9.02909C5.85159 9.0866 6.41831 9.11535 7 9.11535ZM7 13.2647C7.66829 13.2647 8.32451 13.2206 8.96865 13.1325C9.61265 13.0443 10.1986 12.9239 10.7265 12.7714C11.2544 12.6188 11.6996 12.4417 12.0622 12.24C12.425 12.0384 12.6592 11.8267 12.7647 11.6049V9.10424C12.4184 9.30175 12.0304 9.4786 11.6006 9.63479C11.1709 9.79113 10.7098 9.92207 10.2173 10.0276C9.72472 10.1332 9.20816 10.2134 8.66765 10.2683C8.12714 10.3232 7.57126 10.3506 7 10.3506C6.41831 10.3506 5.85159 10.3219 5.29982 10.2644C4.7482 10.2069 4.22745 10.1253 3.73759 10.0196C3.24773 9.91404 2.79135 9.78447 2.36847 9.63088C1.94559 9.47729 1.56786 9.30175 1.23529 9.10424V11.6176C1.34084 11.8447 1.57287 12.0556 1.93138 12.2503C2.28975 12.4451 2.73288 12.6188 3.26076 12.7714C3.78878 12.9239 4.37692 13.0443 5.02518 13.1325C5.67343 13.2206 6.33171 13.2647 7 13.2647Z" fill="#7C8698"/>
</svg>
