<svg width="10" height="17" viewBox="0 0 10 17" fill="none" xmlns="http://www.w3.org/2000/svg">
<path d="M4.64 16.3685C3.27651 16.3685 2.16231 16.1626 1.29738 15.7507C0.432461 15.3391 0 14.8053 0 14.1493C0 13.7562 0.165291 13.4068 0.495874 13.1011C0.826323 12.7954 1.28279 12.5442 1.86528 12.3476L2.21288 13.5007C1.95842 13.5938 1.74477 13.6985 1.57195 13.8149C1.39926 13.9313 1.28703 14.0428 1.23525 14.1493C1.36867 14.437 1.76569 14.677 2.42632 14.8693C3.08681 15.0618 3.8247 15.158 4.64 15.158C5.45005 15.158 6.18875 15.0618 6.8561 14.8693C7.52332 14.677 7.92371 14.437 8.05726 14.1493C8.00548 14.0428 7.89318 13.9327 7.72035 13.8189C7.54767 13.705 7.33402 13.5989 7.07943 13.5007L7.43489 12.3476C8.01738 12.5442 8.47049 12.7954 8.79421 13.1011C9.11807 13.4068 9.28 13.7562 9.28 14.1493C9.28 14.8053 8.84754 15.3391 7.98261 15.7507C7.11769 16.1626 6.00349 16.3685 4.64 16.3685ZM4.64 11.6028C4.88209 11.1435 5.15316 10.6978 5.45321 10.2659C5.75326 9.834 6.05433 9.42144 6.3564 9.02819C6.86438 8.36716 7.27014 7.76866 7.57369 7.23271C7.87737 6.69689 8.02922 6.03014 8.02922 5.23247C8.02922 4.29303 7.69917 3.49334 7.03908 2.83338C6.37913 2.17329 5.57943 1.84325 4.64 1.84325C3.70057 1.84325 2.90087 2.17329 2.24092 2.83338C1.58083 3.49334 1.25078 4.29303 1.25078 5.23247C1.25078 6.03014 1.4039 6.69689 1.71014 7.23271C2.01638 7.76866 2.42087 8.36716 2.9236 9.02819C3.22567 9.42144 3.52674 9.834 3.82679 10.2659C4.12684 10.6978 4.39791 11.1435 4.64 11.6028ZM4.64 13.6993C4.50752 13.6993 4.38594 13.6555 4.27526 13.5681C4.16457 13.4807 4.08233 13.3682 4.02853 13.2306C3.69848 12.3275 3.3059 11.57 2.85078 10.958C2.39552 10.3461 1.95633 9.75969 1.53322 9.19886C1.12355 8.63816 0.772324 8.05728 0.479534 7.45624C0.186743 6.85519 0.0403478 6.11393 0.0403478 5.23247C0.0403478 3.94443 0.484981 2.85584 1.37425 1.96671C2.26338 1.07745 3.35196 0.632812 4.64 0.632812C5.92804 0.632812 7.01662 1.07745 7.90575 1.96671C8.79502 2.85584 9.23965 3.94443 9.23965 5.23247C9.23965 6.11393 9.09662 6.85519 8.81055 7.45624C8.52449 8.05728 8.1699 8.63816 7.74678 9.19886C7.33712 9.75969 6.90129 10.3461 6.43931 10.958C5.97746 11.57 5.58152 12.3275 5.25147 13.2306C5.19767 13.3682 5.11543 13.4807 5.00474 13.5681C4.89406 13.6555 4.77248 13.6993 4.64 13.6993ZM4.64 6.70678C5.04859 6.70678 5.39645 6.5632 5.6836 6.27606C5.97074 5.98892 6.11431 5.64105 6.11431 5.23247C6.11431 4.82388 5.97074 4.47601 5.6836 4.18887C5.39645 3.90173 5.04859 3.75816 4.64 3.75816C4.23141 3.75816 3.88355 3.90173 3.5964 4.18887C3.30926 4.47601 3.16569 4.82388 3.16569 5.23247C3.16569 5.64105 3.30926 5.98892 3.5964 6.27606C3.88355 6.5632 4.23141 6.70678 4.64 6.70678Z" fill="#7C8698"/>
</svg>
