<svg width="18" height="18" viewBox="0 0 18 18" fill="none" xmlns="http://www.w3.org/2000/svg">
<path opacity="0.4" d="M15.75 16.5H2.25C1.9425 16.5 1.6875 16.245 1.6875 15.9375C1.6875 15.63 1.9425 15.375 2.25 15.375H15.75C16.0575 15.375 16.3125 15.63 16.3125 15.9375C16.3125 16.245 16.0575 16.5 15.75 16.5Z" fill="#292D32"/>
<path opacity="0.4" d="M14.2649 2.60926C12.8099 1.15426 11.3849 1.11676 9.89243 2.60926L8.98493 3.51676C8.90993 3.59176 8.87993 3.71176 8.90993 3.81676C9.47993 5.80426 11.0699 7.39426 13.0574 7.96426C13.0874 7.97176 13.1174 7.97926 13.1474 7.97926C13.2299 7.97926 13.3049 7.94926 13.3649 7.88926L14.2649 6.98176C15.0074 6.24676 15.3674 5.53426 15.3674 4.81426C15.3749 4.07176 15.0149 3.35176 14.2649 2.60926Z" fill="#292D32"/>
<path d="M11.7073 8.64711C11.4898 8.54211 11.2798 8.43711 11.0773 8.31711C10.9123 8.21961 10.7548 8.11461 10.5973 8.00211C10.4698 7.91961 10.3198 7.79961 10.1773 7.67961C10.1623 7.67211 10.1098 7.62711 10.0498 7.56711C9.80225 7.35711 9.52475 7.08711 9.27725 6.78711C9.25475 6.77211 9.21725 6.71961 9.16475 6.65211C9.08975 6.56211 8.96225 6.41211 8.84975 6.23961C8.75975 6.12711 8.65475 5.96211 8.55725 5.79711C8.43725 5.59461 8.33225 5.39211 8.22725 5.18211C8.12225 4.95711 8.03975 4.73961 7.96475 4.53711L3.25475 9.24711C3.15725 9.34461 3.06725 9.53211 3.04475 9.65961L2.63975 12.5321C2.56475 13.0421 2.70725 13.5221 3.02225 13.8446C3.29225 14.1071 3.66725 14.2496 4.07225 14.2496C4.16225 14.2496 4.25225 14.2421 4.34225 14.2271L7.22225 13.8221C7.35725 13.7996 7.54475 13.7096 7.63475 13.6121L12.3448 8.90211C12.1348 8.82711 11.9323 8.74461 11.7073 8.64711Z" fill="#292D32"/>
</svg>
