<svg width="15" height="16" viewBox="0 0 15 16" fill="none" xmlns="http://www.w3.org/2000/svg">
<g clip-path="url(#clip0_2228_12488)">
<path d="M14.3429 6.49926C14.2257 6.38209 14.0667 6.31627 13.901 6.31627C13.7353 6.31627 13.5763 6.38209 13.4591 6.49926L6.65163 13.3361C6.36145 13.6264 6.01695 13.8566 5.63779 14.0137C5.25864 14.1707 4.85226 14.2516 4.44185 14.2516C3.613 14.2517 2.81807 13.9225 2.23194 13.3364C1.64581 12.7504 1.3165 11.9555 1.31644 11.1267C1.31638 10.2978 1.64558 9.50289 2.23163 8.91676L8.82475 2.29676C9.17731 1.94982 9.65268 1.75624 10.1473 1.7582C10.6419 1.76015 11.1158 1.95748 11.4656 2.3072C11.8154 2.65692 12.0128 3.1307 12.0149 3.62533C12.017 4.11996 11.8235 4.59537 11.4766 4.94801L4.8835 11.568C4.7646 11.6819 4.60629 11.7455 4.44163 11.7455C4.27696 11.7455 4.11866 11.6819 3.99975 11.568C3.88258 11.4508 3.81676 11.2919 3.81676 11.1261C3.81676 10.9604 3.88258 10.8015 3.99975 10.6843L9.86975 4.78739C9.9836 4.66951 10.0466 4.51163 10.0452 4.34776C10.0438 4.18389 9.97802 4.02713 9.86214 3.91125C9.74626 3.79537 9.5895 3.72964 9.42563 3.72822C9.26176 3.72679 9.10388 3.78979 8.986 3.90364L3.116 9.80051C2.94186 9.97463 2.80372 10.1813 2.70947 10.4088C2.61523 10.6363 2.56672 10.8802 2.56672 11.1264C2.56672 11.3727 2.61523 11.6165 2.70947 11.8441C2.80372 12.0716 2.94186 12.2783 3.116 12.4524C3.47327 12.7933 3.94812 12.9835 4.44194 12.9835C4.93577 12.9835 5.41062 12.7933 5.76788 12.4524L12.3604 5.83176C12.9341 5.2432 13.2529 4.45229 13.2476 3.63037C13.2424 2.80844 12.9135 2.02169 12.3322 1.44053C11.751 0.859366 10.9642 0.530602 10.1423 0.525452C9.32034 0.520302 8.52948 0.839181 7.941 1.41301L1.34788 8.03301C0.527366 8.85352 0.0664062 9.96638 0.0664063 11.1268C0.0664063 12.2871 0.527366 13.4 1.34788 14.2205C2.16839 15.041 3.28125 15.502 4.44163 15.502C5.60201 15.502 6.71487 15.041 7.53538 14.2205L14.3429 7.38551C14.4013 7.32743 14.4476 7.25838 14.4792 7.18234C14.5108 7.10629 14.5271 7.02474 14.5271 6.94239C14.5271 6.86003 14.5108 6.77848 14.4792 6.70244C14.4476 6.62639 14.4013 6.55734 14.3429 6.49926Z" fill="#021637"/>
</g>
<defs>
<clipPath id="clip0_2228_12488">
<rect width="15" height="15" fill="white" transform="translate(0 0.5)"/>
</clipPath>
</defs>
</svg>
