<svg width="19" height="20" viewBox="0 0 19 20" fill="none" xmlns="http://www.w3.org/2000/svg">
<path d="M9.5 0C4.2655 0 0 4.30292 0 9.58333C0 14.8637 4.2655 19.1667 9.5 19.1667C14.7345 19.1667 19 14.8637 19 9.58333C19 4.30292 14.7345 0 9.5 0ZM8.7875 5.75C8.7875 5.35708 9.1105 5.03125 9.5 5.03125C9.8895 5.03125 10.2125 5.35708 10.2125 5.75V10.5417C10.2125 10.9346 9.8895 11.2604 9.5 11.2604C9.1105 11.2604 8.7875 10.9346 8.7875 10.5417V5.75ZM10.374 13.7808C10.3265 13.9054 10.26 14.0012 10.1745 14.0971C10.0795 14.1833 9.975 14.2504 9.861 14.2983C9.747 14.3462 9.6235 14.375 9.5 14.375C9.3765 14.375 9.253 14.3462 9.139 14.2983C9.025 14.2504 8.9205 14.1833 8.8255 14.0971C8.74 14.0012 8.6735 13.9054 8.626 13.7808C8.5785 13.6658 8.55 13.5412 8.55 13.4167C8.55 13.2921 8.5785 13.1675 8.626 13.0525C8.6735 12.9375 8.74 12.8321 8.8255 12.7362C8.9205 12.65 9.025 12.5829 9.139 12.535C9.367 12.4392 9.633 12.4392 9.861 12.535C9.975 12.5829 10.0795 12.65 10.1745 12.7362C10.26 12.8321 10.3265 12.9375 10.374 13.0525C10.4215 13.1675 10.45 13.2921 10.45 13.4167C10.45 13.5412 10.4215 13.6658 10.374 13.7808Z" fill="#236F8E"/>
</svg>
