<svg width="11" height="11" viewBox="0 0 11 11" fill="none" xmlns="http://www.w3.org/2000/svg">
<path d="M5.57422 0.333984C2.81922 0.333984 0.574219 2.57898 0.574219 5.33398C0.574219 8.08898 2.81922 10.334 5.57422 10.334C8.32922 10.334 10.5742 8.08898 10.5742 5.33398C10.5742 2.57898 8.32922 0.333984 5.57422 0.333984ZM5.19922 3.33398C5.19922 3.12898 5.36922 2.95898 5.57422 2.95898C5.77922 2.95898 5.94922 3.12898 5.94922 3.33398V5.83398C5.94922 6.03898 5.77922 6.20898 5.57422 6.20898C5.36922 6.20898 5.19922 6.03898 5.19922 5.83398V3.33398ZM6.03422 7.52398C6.00922 7.58898 5.97422 7.63898 5.92922 7.68898C5.87922 7.73398 5.82422 7.76898 5.76422 7.79398C5.70422 7.81898 5.63922 7.83398 5.57422 7.83398C5.50922 7.83398 5.44422 7.81898 5.38422 7.79398C5.32422 7.76898 5.26922 7.73398 5.21922 7.68898C5.17422 7.63898 5.13922 7.58898 5.11422 7.52398C5.08922 7.46398 5.07422 7.39898 5.07422 7.33398C5.07422 7.26898 5.08922 7.20398 5.11422 7.14398C5.13922 7.08398 5.17422 7.02898 5.21922 6.97898C5.26922 6.93398 5.32422 6.89898 5.38422 6.87398C5.50422 6.82398 5.64422 6.82398 5.76422 6.87398C5.82422 6.89898 5.87922 6.93398 5.92922 6.97898C5.97422 7.02898 6.00922 7.08398 6.03422 7.14398C6.05922 7.20398 6.07422 7.26898 6.07422 7.33398C6.07422 7.39898 6.05922 7.46398 6.03422 7.52398Z" fill="white"/>
</svg>
