<svg width="18" height="18" viewBox="0 0 18 18" fill="none" xmlns="http://www.w3.org/2000/svg">
<path d="M8.99902 1.5C4.86652 1.5 1.49902 4.8675 1.49902 9C1.49902 13.1325 4.86652 16.5 8.99902 16.5C13.1315 16.5 16.499 13.1325 16.499 9C16.499 4.8675 13.1315 1.5 8.99902 1.5ZM8.43652 6C8.43652 5.6925 8.69152 5.4375 8.99902 5.4375C9.30652 5.4375 9.56152 5.6925 9.56152 6V9.75C9.56152 10.0575 9.30652 10.3125 8.99902 10.3125C8.69152 10.3125 8.43652 10.0575 8.43652 9.75V6ZM9.68902 12.285C9.65152 12.3825 9.59902 12.4575 9.53152 12.5325C9.45652 12.6 9.37402 12.6525 9.28402 12.69C9.19402 12.7275 9.09652 12.75 8.99902 12.75C8.90152 12.75 8.80402 12.7275 8.71402 12.69C8.62402 12.6525 8.54152 12.6 8.46652 12.5325C8.39902 12.4575 8.34652 12.3825 8.30902 12.285C8.27152 12.195 8.24902 12.0975 8.24902 12C8.24902 11.9025 8.27152 11.805 8.30902 11.715C8.34652 11.625 8.39902 11.5425 8.46652 11.4675C8.54152 11.4 8.62402 11.3475 8.71402 11.31C8.89402 11.235 9.10402 11.235 9.28402 11.31C9.37402 11.3475 9.45652 11.4 9.53152 11.4675C9.59902 11.5425 9.65152 11.625 9.68902 11.715C9.72652 11.805 9.74902 11.9025 9.74902 12C9.74902 12.0975 9.72652 12.195 9.68902 12.285Z" fill="#7C8698"/>
</svg>
