<svg width="50" height="50" viewBox="0 0 50 50" fill="none" xmlns="http://www.w3.org/2000/svg">
<g clip-path="url(#clip0_6984_10731)">
<path d="M48.3937 1.60719C47.4093 0.627623 46.0903 0.0572636 44.7023 0.0108801C43.3143 -0.0355033 41.9602 0.445532 40.9125 1.35719L11.4 27.3614C6.53542 28.278 0 30.9884 0 36.6676C0.00386011 40.2026 1.40986 43.5918 3.90951 46.0914C6.40915 48.5911 9.7983 49.9971 13.3333 50.0009C19.0104 50.0009 21.7229 43.4676 22.6396 38.603L48.65 9.08011C49.5598 8.0328 50.0392 6.67975 49.9917 5.29325C49.9441 3.90675 49.3732 2.58972 48.3937 1.60719ZM21.1271 34.0155L15.9854 28.8739L20.1625 25.1926L24.8083 29.8384L21.1271 34.0155ZM13.3333 45.8343C10.903 45.8315 8.57305 44.8649 6.85457 43.1464C5.13608 41.4279 4.16942 39.0979 4.16667 36.6676C4.16667 33.5259 9.66458 31.903 12.6021 31.3822L18.6187 37.3968C18.0958 40.3364 16.475 45.8343 13.3333 45.8343ZM45.5187 6.33428L27.5687 26.7051L23.2937 22.4322L43.6583 4.48844C43.9091 4.27325 44.2317 4.16038 44.5619 4.17231C44.8921 4.18425 45.2058 4.3201 45.4403 4.55284C45.6749 4.78557 45.8132 5.09811 45.8278 5.42823C45.8423 5.75835 45.732 6.08183 45.5187 6.33428Z" fill="#021637"/>
</g>
<defs>
<clipPath id="clip0_6984_10731">
<rect width="50" height="50" fill="white"/>
</clipPath>
</defs>
</svg>
