<svg width="15" height="20" viewBox="0 0 15 20" fill="none" xmlns="http://www.w3.org/2000/svg">
<path d="M0.75 16.7888C0.5375 16.7888 0.359417 16.717 0.21575 16.5733C0.0719168 16.4295 0 16.2512 0 16.0385C0 15.826 0.0719168 15.648 0.21575 15.5043C0.359417 15.3608 0.5375 15.289 0.75 15.289H1.80775V7.8273C1.80775 6.48246 2.22283 5.29338 3.053 4.26005C3.883 3.22671 4.94867 2.5658 6.25 2.2773V1.6543C6.25 1.30713 6.37142 1.01196 6.61425 0.768797C6.85708 0.525797 7.15192 0.404297 7.49875 0.404297C7.84575 0.404297 8.141 0.525797 8.3845 0.768797C8.62817 1.01196 8.75 1.30713 8.75 1.6543V2.2773C10.0513 2.5658 11.117 3.22671 11.947 4.26005C12.7772 5.29338 13.1923 6.48246 13.1923 7.8273V15.289H14.25C14.4625 15.289 14.6406 15.3609 14.7843 15.5045C14.9281 15.6484 15 15.8266 15 16.0393C15 16.2518 14.9281 16.4299 14.7843 16.5735C14.6406 16.717 14.4625 16.7888 14.25 16.7888H0.75ZM7.49825 19.5965C7.00075 19.5965 6.57542 19.4195 6.22225 19.0655C5.86892 18.7115 5.69225 18.286 5.69225 17.7888H9.30775C9.30775 18.2876 9.13058 18.7136 8.77625 19.0668C8.42192 19.42 7.99592 19.5965 7.49825 19.5965ZM3.30775 15.289H11.6923V7.8273C11.6923 6.66963 11.283 5.68155 10.4645 4.86305C9.64583 4.04438 8.65767 3.63505 7.5 3.63505C6.34233 3.63505 5.35417 4.04438 4.5355 4.86305C3.717 5.68155 3.30775 6.66963 3.30775 7.8273V15.289Z" fill="#021637"/>
</svg>
