<svg width="36" height="36" viewBox="0 0 36 36" fill="none" xmlns="http://www.w3.org/2000/svg">
<path opacity="0.4" d="M26.2946 11.655C26.1896 11.64 26.0846 11.64 25.9796 11.655C23.6546 11.58 21.8096 9.675 21.8096 7.335C21.8096 4.95 23.7446 3 26.1446 3C28.5296 3 30.4796 4.935 30.4796 7.335C30.4646 9.675 28.6196 11.58 26.2946 11.655Z" fill="#13B5EA"/>
<path opacity="0.4" d="M31.1854 22.0501C29.5054 23.1751 27.1504 23.5951 24.9754 23.3101C25.5454 22.0801 25.8454 20.7151 25.8604 19.2751C25.8604 17.7751 25.5304 16.3501 24.9004 15.1051C27.1204 14.8051 29.4754 15.2251 31.1704 16.3501C33.5404 17.9101 33.5404 20.4751 31.1854 22.0501Z" fill="#13B5EA"/>
<path opacity="0.4" d="M9.65961 11.655C9.76461 11.64 9.86961 11.64 9.97461 11.655C12.2996 11.58 14.1446 9.675 14.1446 7.335C14.1446 4.95 12.2096 3 9.80961 3C7.42461 3 5.47461 4.935 5.47461 7.335C5.48961 9.675 7.33461 11.58 9.65961 11.655Z" fill="#13B5EA"/>
<path opacity="0.4" d="M9.82469 19.2749C9.82469 20.7299 10.1397 22.1099 10.7097 23.3549C8.59469 23.5799 6.38969 23.1299 4.76969 22.0649C2.39969 20.4899 2.39969 17.9249 4.76969 16.3499C6.37469 15.2699 8.63969 14.8349 10.7697 15.0749C10.1547 16.3349 9.82469 17.7599 9.82469 19.2749Z" fill="#13B5EA"/>
<path d="M18.1802 23.805C18.0602 23.79 17.9252 23.79 17.7902 23.805C15.0302 23.715 12.8252 21.45 12.8252 18.66C12.8252 15.81 15.1202 13.5 17.9852 13.5C20.8352 13.5 23.1452 15.81 23.1452 18.66C23.1452 21.45 20.9552 23.715 18.1802 23.805Z" fill="#13B5EA"/>
<path d="M13.3052 26.91C11.0402 28.425 11.0402 30.915 13.3052 32.415C15.8852 34.14 20.1152 34.14 22.6952 32.415C24.9602 30.9 24.9602 28.41 22.6952 26.91C20.1302 25.185 15.9002 25.185 13.3052 26.91Z" fill="#13B5EA"/>
</svg>
