<svg width="23" height="24" viewBox="0 0 23 24" fill="none" xmlns="http://www.w3.org/2000/svg">
<path d="M11.0202 21.3451C5.6056 21.3451 1.19727 16.9367 1.19727 11.5221C1.19727 6.10755 5.6056 1.69922 11.0202 1.69922C16.4348 1.69922 20.8431 6.10755 20.8431 11.5221C20.8431 16.9367 16.4348 21.3451 11.0202 21.3451ZM11.0202 3.13672C6.39143 3.13672 2.63477 6.90297 2.63477 11.5221C2.63477 16.1413 6.39143 19.9076 11.0202 19.9076C15.6489 19.9076 19.4056 16.1413 19.4056 11.5221C19.4056 6.90297 15.6489 3.13672 11.0202 3.13672Z" fill="#7C8698"/>
<path d="M21.0837 22.3029C20.9016 22.3029 20.7195 22.2359 20.5758 22.0921L18.6591 20.1754C18.3812 19.8975 18.3812 19.4375 18.6591 19.1596C18.937 18.8817 19.397 18.8817 19.675 19.1596L21.5916 21.0763C21.8695 21.3542 21.8695 21.8142 21.5916 22.0921C21.4479 22.2359 21.2658 22.3029 21.0837 22.3029Z" fill="#7C8698"/>
</svg>
