<svg width="30" height="30" viewBox="0 0 30 30" fill="none" xmlns="http://www.w3.org/2000/svg">
<path d="M20.1734 3.70079L8.88594 7.45079C1.29844 9.98829 1.29844 14.1258 8.88594 16.6508L12.2359 17.7633L13.3484 21.1133C15.8734 28.7008 20.0234 28.7008 22.5484 21.1133L26.3109 9.83829C27.9859 4.77579 25.2359 2.01329 20.1734 3.70079ZM20.5734 10.4258L15.8234 15.2008C15.6359 15.3883 15.3984 15.4758 15.1609 15.4758C14.9234 15.4758 14.6859 15.3883 14.4984 15.2008C14.1359 14.8383 14.1359 14.2383 14.4984 13.8758L19.2484 9.10079C19.6109 8.73829 20.2109 8.73829 20.5734 9.10079C20.9359 9.46329 20.9359 10.0633 20.5734 10.4258Z" fill="#236F8E"/>
</svg>
