<svg width="18" height="20" viewBox="0 0 18 20" fill="none" xmlns="http://www.w3.org/2000/svg">
<path d="M7.89078 19.5C7.54978 19.5 7.25528 19.3868 7.00728 19.1605C6.75911 18.9343 6.60811 18.6558 6.55428 18.325L6.31003 16.4538C6.0422 16.3641 5.76753 16.2385 5.48603 16.077C5.2047 15.9153 4.95311 15.7422 4.73128 15.5577L2.99853 16.2943C2.68436 16.4328 2.3687 16.4462 2.05153 16.3345C1.7342 16.223 1.4877 16.0205 1.31203 15.727L0.185029 13.773C0.00936264 13.4795 -0.0412207 13.1689 0.0332793 12.8413C0.107613 12.5138 0.278113 12.2436 0.544779 12.0308L2.04278 10.9058C2.01978 10.7571 2.00345 10.6077 1.99378 10.4578C1.98411 10.3078 1.97928 10.1583 1.97928 10.0095C1.97928 9.86733 1.98411 9.72283 1.99378 9.576C2.00345 9.42917 2.01978 9.26858 2.04278 9.09425L0.544779 7.96925C0.278113 7.75642 0.109196 7.48458 0.0380294 7.15375C-0.0331373 6.82308 0.0191126 6.51092 0.194779 6.21725L1.31203 4.29225C1.4877 4.00508 1.7342 3.80417 2.05153 3.6895C2.3687 3.57467 2.68436 3.5865 2.99853 3.725L4.72153 4.452C4.9627 4.261 5.22011 4.08633 5.49378 3.928C5.76745 3.76967 6.03636 3.64242 6.30053 3.54625L6.55428 1.675C6.60811 1.34417 6.75911 1.06567 7.00728 0.8395C7.25528 0.613167 7.54978 0.5 7.89078 0.5H10.1063C10.4473 0.5 10.7418 0.613167 10.9898 0.8395C11.2379 1.06567 11.3889 1.34417 11.4428 1.675L11.687 3.55575C11.987 3.66475 12.2584 3.792 12.5013 3.9375C12.7443 4.083 12.9895 4.2545 13.237 4.452L15.0083 3.725C15.3223 3.5865 15.6379 3.57467 15.9553 3.6895C16.2726 3.80417 16.519 4.00508 16.6945 4.29225L17.812 6.227C17.9877 6.5205 18.0383 6.83108 17.9638 7.15875C17.8894 7.48625 17.7189 7.75642 17.4523 7.96925L15.9158 9.123C15.9516 9.2845 15.9712 9.4355 15.9745 9.576C15.9777 9.71633 15.9793 9.85767 15.9793 10C15.9793 10.1358 15.976 10.274 15.9695 10.4145C15.9632 10.5548 15.9402 10.7154 15.9005 10.8963L17.408 12.0308C17.6747 12.2436 17.8469 12.5138 17.9245 12.8413C18.002 13.1689 17.9529 13.4795 17.7773 13.773L16.6445 15.7172C16.469 16.0109 16.221 16.2135 15.9005 16.325C15.58 16.4365 15.2627 16.423 14.9485 16.2845L13.237 15.548C12.9895 15.7455 12.7369 15.9202 12.4793 16.072C12.2216 16.224 11.9575 16.3481 11.687 16.4443L11.4428 18.325C11.3889 18.6558 11.2379 18.9343 10.9898 19.1605C10.7418 19.3868 10.4473 19.5 10.1063 19.5H7.89078ZM7.99853 18H9.96403L10.3235 15.3212C10.8339 15.1879 11.3002 14.9985 11.7225 14.753C12.145 14.5073 12.5524 14.1916 12.9448 13.8057L15.4293 14.85L16.414 13.15L14.2448 11.5155C14.3281 11.2565 14.3848 11.0026 14.4148 10.7537C14.4449 10.5051 14.46 10.2538 14.46 10C14.46 9.73967 14.4449 9.48842 14.4148 9.24625C14.3848 9.00392 14.3281 8.75642 14.2448 8.50375L16.433 6.85L15.4485 5.15L12.935 6.2095C12.6004 5.85183 12.1994 5.53583 11.7323 5.2615C11.2649 4.98717 10.7922 4.79292 10.314 4.67875L9.99853 2H8.01403L7.68303 4.66925C7.17286 4.78975 6.70178 4.97433 6.26978 5.223C5.83761 5.47183 5.42536 5.79233 5.03303 6.1845L2.54853 5.15L1.56403 6.85L3.72353 8.4595C3.6402 8.69683 3.58186 8.94367 3.54853 9.2C3.5152 9.45633 3.49853 9.72617 3.49853 10.0095C3.49853 10.2698 3.5152 10.525 3.54853 10.775C3.58186 11.025 3.63703 11.2718 3.71403 11.5155L1.56403 13.15L2.54853 14.85L5.02353 13.8C5.40303 14.1897 5.80878 14.5089 6.24078 14.7578C6.67295 15.0064 7.15053 15.1974 7.67353 15.3307L7.99853 18ZM9.01003 13C9.84203 13 10.55 12.708 11.134 12.124C11.718 11.54 12.01 10.832 12.01 10C12.01 9.168 11.718 8.46 11.134 7.876C10.55 7.292 9.84203 7 9.01003 7C8.1677 7 7.45711 7.292 6.87828 7.876C6.29945 8.46 6.01003 9.168 6.01003 10C6.01003 10.832 6.29945 11.54 6.87828 12.124C7.45711 12.708 8.1677 13 9.01003 13Z" fill="#021637"/>
</svg>
