<svg width="21" height="20" viewBox="0 0 21 20" fill="none" xmlns="http://www.w3.org/2000/svg">
<path d="M15.7749 3.43385L11.1915 1.71719C10.7165 1.54219 9.94154 1.54219 9.46654 1.71719L4.8832 3.43385C3.99987 3.76719 3.2832 4.80052 3.2832 5.74219V12.4922C3.2832 13.1672 3.72487 14.0589 4.26654 14.4589L8.84987 17.8839C9.6582 18.4922 10.9832 18.4922 11.7915 17.8839L16.3749 14.4589C16.9165 14.0505 17.3582 13.1672 17.3582 12.4922V5.74219C17.3665 4.80052 16.6499 3.76719 15.7749 3.43385ZM13.2249 8.10052L9.64154 11.6839C9.51654 11.8089 9.3582 11.8672 9.19987 11.8672C9.04154 11.8672 8.8832 11.8089 8.7582 11.6839L7.42487 10.3339C7.1832 10.0922 7.1832 9.69219 7.42487 9.45052C7.66654 9.20885 8.06654 9.20885 8.3082 9.45052L9.2082 10.3505L12.3499 7.20885C12.5915 6.96719 12.9915 6.96719 13.2332 7.20885C13.4749 7.45052 13.4749 7.85885 13.2249 8.10052Z" fill="#13B5EA"/>
</svg>
