<svg width="32" height="32" viewBox="0 0 32 32" fill="none" xmlns="http://www.w3.org/2000/svg">
<path d="M24.4531 18.8401L21.5465 16.5067C21.1331 16.1867 20.6131 16.0001 20.0798 16.0001H16.9998V12.0001H22.9598C24.2531 12.0001 25.2931 10.9601 25.2931 9.66675V5.00008C25.2931 3.70675 24.2531 2.66675 22.9598 2.66675H11.9465C11.4265 2.66675 10.9065 2.85341 10.4931 3.17341L7.57313 5.50675C6.41313 6.44008 6.41313 8.22675 7.57313 9.16008L10.4931 11.4934C10.9065 11.8134 11.4265 12.0001 11.9465 12.0001H14.9998V16.0001H9.06646C7.77313 16.0001 6.73313 17.0401 6.73313 18.3334V23.0001C6.73313 24.2934 7.77313 25.3334 9.06646 25.3334H14.9998V28.3334H11.9998C11.4531 28.3334 10.9998 28.7867 10.9998 29.3334C10.9998 29.8801 11.4531 30.3334 11.9998 30.3334H19.9998C20.5465 30.3334 20.9998 29.8801 20.9998 29.3334C20.9998 28.7867 20.5465 28.3334 19.9998 28.3334H16.9998V25.3334H20.0798C20.6131 25.3334 21.1331 25.1467 21.5465 24.8267L24.4531 22.4934C25.6265 21.5601 25.6265 19.7734 24.4531 18.8401Z" fill="#13B5EA"/>
</svg>
