<svg width="182" height="182" viewBox="0 0 182 182" fill="none" xmlns="http://www.w3.org/2000/svg">
<path opacity="0.4" d="M90.9993 166.833C132.881 166.833 166.833 132.881 166.833 90.9993C166.833 49.1178 132.881 15.166 90.9993 15.166C49.1178 15.166 15.166 49.1178 15.166 90.9993C15.166 132.881 49.1178 166.833 90.9993 166.833Z" fill="#29C483" fill-opacity="0.25"/>
<path d="M80.2309 118.148C78.7143 118.148 77.2734 117.542 76.2118 116.48L54.7509 95.0193C52.5518 92.8201 52.5518 89.1801 54.7509 86.981C56.9501 84.7818 60.5901 84.7818 62.7893 86.981L80.2309 104.423L119.209 65.4443C121.408 63.2451 125.048 63.2451 127.248 65.4443C129.447 67.6435 129.447 71.2835 127.248 73.4826L84.2501 116.48C83.1884 117.542 81.7476 118.148 80.2309 118.148Z" fill="#29C483"/>
</svg>
