<svg width="28" height="28" viewBox="0 0 28 28" fill="none" xmlns="http://www.w3.org/2000/svg">
<path d="M13.9997 25.6673C20.443 25.6673 25.6663 20.444 25.6663 14.0007C25.6663 7.55733 20.443 2.33398 13.9997 2.33398C7.55635 2.33398 2.33301 7.55733 2.33301 14.0007C2.33301 20.444 7.55635 25.6673 13.9997 25.6673Z" fill="#646464"/>
<path d="M15.2366 13.9999L17.9199 11.3166C18.2583 10.9783 18.2583 10.4183 17.9199 10.0799C17.5816 9.74159 17.0216 9.74159 16.6833 10.0799L13.9999 12.7633L11.3166 10.0799C10.9783 9.74159 10.4183 9.74159 10.0799 10.0799C9.74159 10.4183 9.74159 10.9783 10.0799 11.3166L12.7633 13.9999L10.0799 16.6833C9.74159 17.0216 9.74159 17.5816 10.0799 17.9199C10.2549 18.0949 10.4766 18.1766 10.6983 18.1766C10.9199 18.1766 11.1416 18.0949 11.3166 17.9199L13.9999 15.2366L16.6833 17.9199C16.8583 18.0949 17.0799 18.1766 17.3016 18.1766C17.5233 18.1766 17.7449 18.0949 17.9199 17.9199C18.2583 17.5816 18.2583 17.0216 17.9199 16.6833L15.2366 13.9999Z" fill="white"/>
</svg>
