<svg width="21" height="20" viewBox="0 0 21 20" fill="none" xmlns="http://www.w3.org/2000/svg">
<path d="M2.10904 19.8333C1.52726 19.8333 1.03026 19.6273 0.618042 19.2153C0.206014 18.8031 0 18.3061 0 17.7243V2.10904C0 1.52726 0.206014 1.03026 0.618042 0.618042C1.03026 0.206014 1.52726 0 2.10904 0H17.7243C18.3061 0 18.8031 0.206014 19.2153 0.618042C19.6273 1.03026 19.8333 1.52726 19.8333 2.10904V5.28383H18.0833V2.10904C18.0833 2.00424 18.0497 1.9182 17.9824 1.85092C17.9151 1.78364 17.8291 1.75 17.7243 1.75H2.10904C2.00424 1.75 1.91819 1.78364 1.85092 1.85092C1.78364 1.9182 1.75 2.00424 1.75 2.10904V17.7243C1.75 17.8291 1.78364 17.9151 1.85092 17.9824C1.91819 18.0497 2.00424 18.0833 2.10904 18.0833H17.7243C17.8291 18.0833 17.9151 18.0497 17.9824 17.9824C18.0497 17.9151 18.0833 17.8291 18.0833 17.7243V14.5495H19.8333V17.7243C19.8333 18.3061 19.6273 18.8031 19.2153 19.2153C18.8031 19.6273 18.3061 19.8333 17.7243 19.8333H2.10904ZM11.4424 15.1667C10.8606 15.1667 10.3636 14.9607 9.95137 14.5486C9.53935 14.1364 9.33333 13.6394 9.33333 13.0576V6.77571C9.33333 6.19393 9.53935 5.69693 9.95137 5.28471C10.3636 4.87268 10.8606 4.66667 11.4424 4.66667H18.891C19.4727 4.66667 19.9697 4.87268 20.382 5.28471C20.794 5.69693 21 6.19393 21 6.77571V13.0576C21 13.6394 20.794 14.1364 20.382 14.5486C19.9697 14.9607 19.4727 15.1667 18.891 15.1667H11.4424ZM18.891 13.4167C18.9958 13.4167 19.0818 13.383 19.1491 13.3158C19.2164 13.2485 19.25 13.1624 19.25 13.0576V6.77571C19.25 6.6709 19.2164 6.58486 19.1491 6.51758C19.0818 6.45031 18.9958 6.41667 18.891 6.41667H11.4424C11.3376 6.41667 11.2515 6.45031 11.1843 6.51758C11.117 6.58486 11.0833 6.6709 11.0833 6.77571V13.0576C11.0833 13.1624 11.117 13.2485 11.1843 13.3158C11.2515 13.383 11.3376 13.4167 11.4424 13.4167H18.891ZM14.5833 11.6667C15.0694 11.6667 15.4826 11.4965 15.8229 11.1563C16.1632 10.816 16.3333 10.4028 16.3333 9.91667C16.3333 9.43056 16.1632 9.01736 15.8229 8.67708C15.4826 8.33681 15.0694 8.16667 14.5833 8.16667C14.0972 8.16667 13.684 8.33681 13.3438 8.67708C13.0035 9.01736 12.8333 9.43056 12.8333 9.91667C12.8333 10.4028 13.0035 10.816 13.3438 11.1563C13.684 11.4965 14.0972 11.6667 14.5833 11.6667Z" fill="white"/>
</svg>
