<svg width="16" height="12" viewBox="0 0 16 12" fill="none" xmlns="http://www.w3.org/2000/svg">
<path d="M2.52688 6.74775L5.8192 10.0401C5.96792 10.1888 6.04132 10.3629 6.0394 10.5622C6.03747 10.7616 5.96407 10.9388 5.8192 11.0939C5.66408 11.249 5.48588 11.3292 5.2846 11.3343C5.08333 11.3394 4.90513 11.2644 4.75 11.1093L0.27115 6.63045C0.0903835 6.44969 0 6.23879 0 5.99778C0 5.75676 0.0903835 5.54587 0.27115 5.3651L4.75 0.886252C4.89872 0.737535 5.07532 0.664136 5.2798 0.666052C5.48428 0.667986 5.66408 0.74651 5.8192 0.901627C5.96407 1.05676 6.03907 1.2324 6.0442 1.42855C6.04933 1.6247 5.97433 1.80034 5.8192 1.95545L2.52688 5.2478H14.2923C14.5051 5.2478 14.6833 5.31959 14.8269 5.46318C14.9705 5.60676 15.0423 5.78496 15.0423 5.99778C15.0423 6.21059 14.9705 6.38879 14.8269 6.53238C14.6833 6.67596 14.5051 6.74775 14.2923 6.74775H2.52688Z" fill="#236F8E"/>
</svg>
