<svg width="17" height="18" viewBox="0 0 17 18" fill="none" xmlns="http://www.w3.org/2000/svg">
<path d="M8.5 17.5C7.33383 17.5 6.23458 17.2769 5.20225 16.8307C4.16992 16.3846 3.26792 15.7756 2.49625 15.0038C1.72442 14.2321 1.11542 13.3301 0.66925 12.2978C0.223083 11.2654 0 10.1662 0 9C0 7.78333 0.229167 6.65158 0.6875 5.60475C1.14583 4.55808 1.77783 3.65258 2.5835 2.88825C2.7625 2.71658 2.97667 2.63333 3.226 2.6385C3.47533 2.64367 3.68525 2.7315 3.85575 2.902L9.18075 8.227C9.31925 8.3655 9.39008 8.5395 9.39325 8.749C9.39642 8.95867 9.32558 9.13592 9.18075 9.28075C9.03592 9.42558 8.86025 9.498 8.65375 9.498C8.44742 9.498 8.27183 9.42558 8.127 9.28075L3.25375 4.40775C2.74108 5.00125 2.32058 5.6785 1.99225 6.4395C1.66408 7.20033 1.5 8.05383 1.5 9C1.5 10.9333 2.18333 12.5833 3.55 13.95C4.91667 15.3167 6.56667 16 8.5 16C10.4333 16 12.0833 15.3167 13.45 13.95C14.8167 12.5833 15.5 10.9333 15.5 9C15.5 7.23583 14.9212 5.69192 13.7635 4.36825C12.6058 3.04458 11.1013 2.27567 9.25 2.0615V3.25C9.25 3.4625 9.17808 3.64067 9.03425 3.7845C8.89042 3.92817 8.71225 4 8.49975 4C8.28708 4 8.109 3.92817 7.9655 3.7845C7.82183 3.64067 7.75 3.4625 7.75 3.25V1.25C7.75 1.0375 7.82192 0.859417 7.96575 0.71575C8.10942 0.571917 8.2875 0.5 8.5 0.5C9.66617 0.5 10.7654 0.723084 11.7977 1.16925C12.8301 1.61542 13.7321 2.22442 14.5038 2.99625C15.2756 3.76792 15.8846 4.66992 16.3307 5.70225C16.7769 6.73458 17 7.83383 17 9C17 10.1662 16.7769 11.2654 16.3307 12.2978C15.8846 13.3301 15.2756 14.2321 14.5038 15.0038C13.7321 15.7756 12.8301 16.3846 11.7977 16.8307C10.7654 17.2769 9.66617 17.5 8.5 17.5ZM3.49925 9.8845C3.24842 9.8845 3.03842 9.79967 2.86925 9.63C2.70008 9.46033 2.6155 9.25008 2.6155 8.99925C2.6155 8.74842 2.70033 8.53842 2.87 8.36925C3.03967 8.20008 3.24992 8.1155 3.50075 8.1155C3.75158 8.1155 3.96158 8.20033 4.13075 8.37C4.29992 8.53967 4.3845 8.74992 4.3845 9.00075C4.3845 9.25158 4.29967 9.46158 4.13 9.63075C3.96033 9.79992 3.75008 9.8845 3.49925 9.8845ZM8.49925 14.8845C8.24842 14.8845 8.03842 14.7997 7.86925 14.63C7.70008 14.4603 7.6155 14.2501 7.6155 13.9992C7.6155 13.7484 7.70033 13.5384 7.87 13.3693C8.03967 13.2001 8.24992 13.1155 8.50075 13.1155C8.75158 13.1155 8.96158 13.2003 9.13075 13.37C9.29992 13.5397 9.3845 13.7499 9.3845 14.0008C9.3845 14.2516 9.29967 14.4616 9.13 14.6307C8.96033 14.7999 8.75008 14.8845 8.49925 14.8845ZM13.4992 9.8845C13.2484 9.8845 13.0384 9.79967 12.8693 9.63C12.7001 9.46033 12.6155 9.25008 12.6155 8.99925C12.6155 8.74842 12.7003 8.53842 12.87 8.36925C13.0397 8.20008 13.2499 8.1155 13.5008 8.1155C13.7516 8.1155 13.9616 8.20033 14.1307 8.37C14.2999 8.53967 14.3845 8.74992 14.3845 9.00075C14.3845 9.25158 14.2997 9.46158 14.13 9.63075C13.9603 9.79992 13.7501 9.8845 13.4992 9.8845Z" fill="#7C8698"/>
</svg>
