<svg width="17" height="18" viewBox="0 0 17 18" fill="none" xmlns="http://www.w3.org/2000/svg">
<path d="M1.5 8C1.091 8 0.73875 7.85225 0.44325 7.55675C0.14775 7.26125 0 6.909 0 6.5V2C0 1.591 0.14775 1.23875 0.44325 0.94325C0.73875 0.64775 1.091 0.5 1.5 0.5H6C6.409 0.5 6.76125 0.64775 7.05675 0.94325C7.35225 1.23875 7.5 1.591 7.5 2V6.5C7.5 6.909 7.35225 7.26125 7.05675 7.55675C6.76125 7.85225 6.409 8 6 8H1.5ZM1.5 17.5C1.091 17.5 0.73875 17.3523 0.44325 17.0568C0.14775 16.7613 0 16.409 0 16V11.5C0 11.091 0.14775 10.7388 0.44325 10.4433C0.73875 10.1478 1.091 10 1.5 10H6C6.409 10 6.76125 10.1478 7.05675 10.4433C7.35225 10.7388 7.5 11.091 7.5 11.5V16C7.5 16.409 7.35225 16.7613 7.05675 17.0568C6.76125 17.3523 6.409 17.5 6 17.5H1.5ZM11 8C10.591 8 10.2387 7.85225 9.94325 7.55675C9.64775 7.26125 9.5 6.909 9.5 6.5V2C9.5 1.591 9.64775 1.23875 9.94325 0.94325C10.2387 0.64775 10.591 0.5 11 0.5H15.5C15.909 0.5 16.2613 0.64775 16.5568 0.94325C16.8523 1.23875 17 1.591 17 2V6.5C17 6.909 16.8523 7.26125 16.5568 7.55675C16.2613 7.85225 15.909 8 15.5 8H11ZM11 17.5C10.591 17.5 10.2387 17.3523 9.94325 17.0568C9.64775 16.7613 9.5 16.409 9.5 16V11.5C9.5 11.091 9.64775 10.7388 9.94325 10.4433C10.2387 10.1478 10.591 10 11 10H15.5C15.909 10 16.2613 10.1478 16.5568 10.4433C16.8523 10.7388 17 11.091 17 11.5V16C17 16.409 16.8523 16.7613 16.5568 17.0568C16.2613 17.3523 15.909 17.5 15.5 17.5H11ZM1.5 6.5H6V2H1.5V6.5ZM11 6.5H15.5V2H11V6.5ZM11 16H15.5V11.5H11V16ZM1.5 16H6V11.5H1.5V16Z" fill="#021637"/>
</svg>
