<svg xmlns="http://www.w3.org/2000/svg" width="12" height="15" viewBox="0 0 12 15" fill="none">
  <path d="M6 12.6183L2.6414 14.0599C2.1316 14.2779 1.64724 14.2362 1.18835 13.9347C0.729449 13.6332 0.5 13.209 0.5 12.6623V2.33432C0.5 1.90687 0.648077 1.54507 0.944231 1.24892C1.24038 0.952764 1.60219 0.804688 2.02963 0.804688H9.97037C10.3978 0.804688 10.7596 0.952764 11.0558 1.24892C11.3519 1.54507 11.5 1.90687 11.5 2.33432V12.6623C11.5 13.209 11.2706 13.6332 10.8117 13.9347C10.3528 14.2362 9.8684 14.2779 9.3586 14.0599L6 12.6183ZM6 11.2124L9.8646 12.877C9.95147 12.9149 10.0342 12.9068 10.1127 12.8526C10.1914 12.7984 10.2308 12.7251 10.2308 12.6329V2.33432C10.2308 2.26917 10.2036 2.20951 10.1493 2.15536C10.0952 2.10107 10.0355 2.07392 9.97037 2.07392H2.02963C1.96448 2.07392 1.90483 2.10107 1.85067 2.15536C1.79638 2.20951 1.76923 2.26917 1.76923 2.33432V12.6329C1.76923 12.7251 1.80858 12.7984 1.88727 12.8526C1.96582 12.9068 2.04853 12.9149 2.1354 12.877L6 11.2124Z" fill="#7C8698"/>
</svg>