<svg xmlns="http://www.w3.org/2000/svg" width="11" height="13" viewBox="0 0 11 13" fill="none">
  <path d="M1.22222 12.7085C0.886111 12.7085 0.59838 12.5889 0.359028 12.3495C0.119676 12.1102 0 11.8224 0 11.4863V2.93077C0 2.59466 0.119676 2.30693 0.359028 2.06758C0.59838 1.82823 0.886111 1.70855 1.22222 1.70855H1.83333V0.486328H3.05556V1.70855H7.94444V0.486328H9.16667V1.70855H9.77778C10.1139 1.70855 10.4016 1.82823 10.641 2.06758C10.8803 2.30693 11 2.59466 11 2.93077V11.4863C11 11.8224 10.8803 12.1102 10.641 12.3495C10.4016 12.5889 10.1139 12.7085 9.77778 12.7085H1.22222ZM1.22222 11.4863H9.77778V5.37522H1.22222V11.4863ZM1.22222 4.15299H9.77778V2.93077H1.22222V4.15299ZM5.5 7.81966C5.32685 7.81966 5.18171 7.7611 5.06458 7.64397C4.94745 7.52684 4.88889 7.3817 4.88889 7.20855C4.88889 7.0354 4.94745 6.89026 5.06458 6.77313C5.18171 6.656 5.32685 6.59744 5.5 6.59744C5.67315 6.59744 5.81829 6.656 5.93542 6.77313C6.05255 6.89026 6.11111 7.0354 6.11111 7.20855C6.11111 7.3817 6.05255 7.52684 5.93542 7.64397C5.81829 7.7611 5.67315 7.81966 5.5 7.81966ZM3.05556 7.81966C2.88241 7.81966 2.73727 7.7611 2.62014 7.64397C2.50301 7.52684 2.44444 7.3817 2.44444 7.20855C2.44444 7.0354 2.50301 6.89026 2.62014 6.77313C2.73727 6.656 2.88241 6.59744 3.05556 6.59744C3.2287 6.59744 3.37384 6.656 3.49097 6.77313C3.6081 6.89026 3.66667 7.0354 3.66667 7.20855C3.66667 7.3817 3.6081 7.52684 3.49097 7.64397C3.37384 7.7611 3.2287 7.81966 3.05556 7.81966ZM7.94444 7.81966C7.7713 7.81966 7.62616 7.7611 7.50903 7.64397C7.3919 7.52684 7.33333 7.3817 7.33333 7.20855C7.33333 7.0354 7.3919 6.89026 7.50903 6.77313C7.62616 6.656 7.7713 6.59744 7.94444 6.59744C8.11759 6.59744 8.26273 6.656 8.37986 6.77313C8.49699 6.89026 8.55556 7.0354 8.55556 7.20855C8.55556 7.3817 8.49699 7.52684 8.37986 7.64397C8.26273 7.7611 8.11759 7.81966 7.94444 7.81966ZM5.5 10.2641C5.32685 10.2641 5.18171 10.2055 5.06458 10.0884C4.94745 9.97128 4.88889 9.82614 4.88889 9.65299C4.88889 9.47985 4.94745 9.33471 5.06458 9.21758C5.18171 9.10045 5.32685 9.04188 5.5 9.04188C5.67315 9.04188 5.81829 9.10045 5.93542 9.21758C6.05255 9.33471 6.11111 9.47985 6.11111 9.65299C6.11111 9.82614 6.05255 9.97128 5.93542 10.0884C5.81829 10.2055 5.67315 10.2641 5.5 10.2641ZM3.05556 10.2641C2.88241 10.2641 2.73727 10.2055 2.62014 10.0884C2.50301 9.97128 2.44444 9.82614 2.44444 9.65299C2.44444 9.47985 2.50301 9.33471 2.62014 9.21758C2.73727 9.10045 2.88241 9.04188 3.05556 9.04188C3.2287 9.04188 3.37384 9.10045 3.49097 9.21758C3.6081 9.33471 3.66667 9.47985 3.66667 9.65299C3.66667 9.82614 3.6081 9.97128 3.49097 10.0884C3.37384 10.2055 3.2287 10.2641 3.05556 10.2641ZM7.94444 10.2641C7.7713 10.2641 7.62616 10.2055 7.50903 10.0884C7.3919 9.97128 7.33333 9.82614 7.33333 9.65299C7.33333 9.47985 7.3919 9.33471 7.50903 9.21758C7.62616 9.10045 7.7713 9.04188 7.94444 9.04188C8.11759 9.04188 8.26273 9.10045 8.37986 9.21758C8.49699 9.33471 8.55556 9.47985 8.55556 9.65299C8.55556 9.82614 8.49699 9.97128 8.37986 10.0884C8.26273 10.2055 8.11759 10.2641 7.94444 10.2641Z" fill="#7C8698"/>
</svg>