<svg width="19" height="19" viewBox="0 0 19 19" fill="none" xmlns="http://www.w3.org/2000/svg">
<path d="M9.49998 10.5538L12.5731 13.6269C12.7115 13.7653 12.8856 13.8362 13.0952 13.8394C13.3048 13.8426 13.482 13.7718 13.6269 13.6269C13.7718 13.482 13.8442 13.3064 13.8442 13.1C13.8442 12.8936 13.7718 12.7179 13.6269 12.5731L10.5538 9.49998L13.6269 6.42688C13.7653 6.28843 13.8362 6.11439 13.8394 5.90478C13.8426 5.69518 13.7718 5.51794 13.6269 5.37308C13.482 5.22819 13.3064 5.15575 13.1 5.15575C12.8936 5.15575 12.7179 5.22819 12.5731 5.37308L9.49998 8.44615L6.42688 5.37308C6.28842 5.23461 6.11439 5.16378 5.90478 5.16058C5.69518 5.15736 5.51794 5.22819 5.37308 5.37308C5.22819 5.51794 5.15575 5.69358 5.15575 5.89998C5.15575 6.10638 5.22819 6.28201 5.37308 6.42688L8.44615 9.49998L5.37308 12.5731C5.23461 12.7115 5.16378 12.8856 5.16058 13.0952C5.15736 13.3048 5.22819 13.482 5.37308 13.6269C5.51794 13.7718 5.69358 13.8442 5.89998 13.8442C6.10638 13.8442 6.28201 13.7718 6.42688 13.6269L9.49998 10.5538ZM9.50165 19C8.18772 19 6.95268 18.7506 5.79655 18.252C4.6404 17.7533 3.63472 17.0765 2.7795 16.2217C1.92427 15.3669 1.24721 14.3616 0.748325 13.206C0.249442 12.0504 0 10.8156 0 9.50165C0 8.18772 0.249334 6.95268 0.748 5.79655C1.24667 4.6404 1.92342 3.63472 2.77825 2.7795C3.6331 1.92427 4.63834 1.24721 5.79398 0.748326C6.94959 0.249443 8.18437 0 9.4983 0C10.8122 0 12.0473 0.249334 13.2034 0.748001C14.3596 1.24667 15.3652 1.92342 16.2205 2.77825C17.0757 3.6331 17.7527 4.63834 18.2516 5.79398C18.7505 6.94959 19 8.18437 19 9.4983C19 10.8122 18.7506 12.0473 18.252 13.2034C17.7533 14.3596 17.0765 15.3652 16.2217 16.2205C15.3669 17.0757 14.3616 17.7527 13.206 18.2516C12.0504 18.7505 10.8156 19 9.50165 19ZM9.49998 17.5C11.7333 17.5 13.625 16.725 15.175 15.175C16.725 13.625 17.5 11.7333 17.5 9.49998C17.5 7.26664 16.725 5.37498 15.175 3.82498C13.625 2.27498 11.7333 1.49998 9.49998 1.49998C7.26664 1.49998 5.37498 2.27498 3.82498 3.82498C2.27498 5.37498 1.49998 7.26664 1.49998 9.49998C1.49998 11.7333 2.27498 13.625 3.82498 15.175C5.37498 16.725 7.26664 17.5 9.49998 17.5Z" fill="#021637"/>
</svg>
