<svg width="13" height="13" viewBox="0 0 13 13" fill="none" xmlns="http://www.w3.org/2000/svg">
<path d="M11.1787 11.6919H2.67871C1.64371 11.6919 0.803711 10.8519 0.803711 9.81689V1.31689C0.803711 1.11189 0.973711 0.941895 1.17871 0.941895C1.38371 0.941895 1.55371 1.11189 1.55371 1.31689V9.81689C1.55371 10.4369 2.05871 10.9419 2.67871 10.9419H11.1787C11.3837 10.9419 11.5537 11.1119 11.5537 11.3169C11.5537 11.5219 11.3837 11.6919 11.1787 11.6919Z" fill="#29C483"/>
<path d="M2.6796 9.19083C2.5946 9.19083 2.5046 9.16083 2.4346 9.10083C2.2796 8.96583 2.2596 8.73083 2.3946 8.57083L4.6896 5.89083C4.9396 5.60083 5.2996 5.42583 5.6796 5.41083C6.0596 5.40083 6.4346 5.54082 6.7046 5.81082L7.1796 6.28583C7.3046 6.41083 7.4696 6.47083 7.6446 6.47083C7.8196 6.46583 7.9796 6.38583 8.0946 6.25083L10.3896 3.57083C10.5246 3.41583 10.7596 3.39583 10.9196 3.53083C11.0746 3.66583 11.0946 3.90082 10.9596 4.06082L8.6646 6.74083C8.4146 7.03083 8.0546 7.20583 7.6746 7.22083C7.2946 7.23083 6.9196 7.09083 6.6496 6.82083L6.1796 6.34583C6.0546 6.22083 5.8896 6.15583 5.7146 6.16083C5.5396 6.16583 5.3796 6.24583 5.2646 6.38083L2.9696 9.06083C2.8896 9.14583 2.7846 9.19083 2.6796 9.19083Z" fill="#29C483"/>
</svg>
