<svg width="16" height="15" viewBox="0 0 16 15" fill="none" xmlns="http://www.w3.org/2000/svg">
<path d="M2.97979 12.8562L1.29389 14.5419C1.05432 14.7816 0.778737 14.8359 0.467158 14.7048C0.155719 14.5736 0 14.3374 0 13.9962V1.74693C0 1.32152 0.147368 0.961452 0.442105 0.666715C0.736842 0.371978 1.09691 0.224609 1.52232 0.224609H14.4777C14.9031 0.224609 15.2632 0.371978 15.5579 0.666715C15.8526 0.961452 16 1.32152 16 1.74693V11.3339C16 11.7593 15.8526 12.1193 15.5579 12.4141C15.2632 12.7088 14.9031 12.8562 14.4777 12.8562H2.97979ZM2.44211 11.593H14.4777C14.5425 11.593 14.6019 11.566 14.6558 11.512C14.7098 11.4581 14.7368 11.3987 14.7368 11.3339V1.74693C14.7368 1.68208 14.7098 1.62271 14.6558 1.56882C14.6019 1.51478 14.5425 1.48777 14.4777 1.48777H1.52232C1.45747 1.48777 1.39811 1.51478 1.34421 1.56882C1.29018 1.62271 1.26316 1.68208 1.26316 1.74693V12.7591L2.44211 11.593ZM3.78947 9.69829H8.8421C9.02133 9.69829 9.17137 9.6378 9.29221 9.51682C9.41319 9.39598 9.47368 9.24594 9.47368 9.06671C9.47368 8.88749 9.41319 8.73745 9.29221 8.61661C9.17137 8.49563 9.02133 8.43514 8.8421 8.43514H3.78947C3.61025 8.43514 3.46021 8.49563 3.33937 8.61661C3.21839 8.73745 3.15789 8.88749 3.15789 9.06671C3.15789 9.24594 3.21839 9.39598 3.33937 9.51682C3.46021 9.6378 3.61025 9.69829 3.78947 9.69829ZM3.78947 7.17198H12.2105C12.3898 7.17198 12.5398 7.11149 12.6606 6.9905C12.7816 6.86966 12.8421 6.71963 12.8421 6.5404C12.8421 6.36117 12.7816 6.21114 12.6606 6.09029C12.5398 5.96931 12.3898 5.90882 12.2105 5.90882H3.78947C3.61025 5.90882 3.46021 5.96931 3.33937 6.09029C3.21839 6.21114 3.15789 6.36117 3.15789 6.5404C3.15789 6.71963 3.21839 6.86966 3.33937 6.9905C3.46021 7.11149 3.61025 7.17198 3.78947 7.17198ZM3.78947 4.64566H12.2105C12.3898 4.64566 12.5398 4.58517 12.6606 4.46419C12.7816 4.34335 12.8421 4.19331 12.8421 4.01408C12.8421 3.83486 12.7816 3.68482 12.6606 3.56398C12.5398 3.443 12.3898 3.3825 12.2105 3.3825H3.78947C3.61025 3.3825 3.46021 3.443 3.33937 3.56398C3.21839 3.68482 3.15789 3.83486 3.15789 4.01408C3.15789 4.19331 3.21839 4.34335 3.33937 4.46419C3.46021 4.58517 3.61025 4.64566 3.78947 4.64566Z" fill="#021637"/>
</svg>
