<svg xmlns="http://www.w3.org/2000/svg" width="80" height="80" viewBox="0 0 80 80" fill="none">
<path d="M34.0242 49.0368L24.2432 39.2547C23.66 38.6723 22.927 38.374 22.0442 38.36C21.1621 38.3467 20.4158 38.6449 19.8053 39.2547C19.1954 39.8653 18.8905 40.6049 18.8905 41.4737C18.8905 42.3425 19.1954 43.0821 19.8053 43.6926L31.36 55.2474C32.1214 56.0081 33.0095 56.3884 34.0242 56.3884C35.039 56.3884 35.927 56.0081 36.6884 55.2474L60.1137 31.8221C60.6961 31.2389 60.9944 30.506 61.0084 29.6232C61.0218 28.7411 60.7235 27.9947 60.1137 27.3842C59.5032 26.7744 58.7635 26.4695 57.8947 26.4695C57.026 26.4695 56.2863 26.7744 55.6758 27.3842L34.0242 49.0368ZM40.0074 80C34.4747 80 29.2744 78.9502 24.4063 76.8505C19.5382 74.7509 15.3039 71.9014 11.7032 68.3021C8.10246 64.7028 5.25158 60.4702 3.15053 55.6042C1.05017 50.7382 0 45.5393 0 40.0074C0 34.4747 1.04982 29.2744 3.14947 24.4063C5.24912 19.5382 8.0986 15.3039 11.6979 11.7032C15.2972 8.10246 19.5298 5.25158 24.3958 3.15053C29.2618 1.05017 34.4607 0 39.9926 0C45.5253 0 50.7256 1.04982 55.5937 3.14947C60.4618 5.24912 64.6961 8.0986 68.2969 11.6979C71.8976 15.2972 74.7484 19.5298 76.8495 24.3958C78.9498 29.2618 80 34.4607 80 39.9926C80 45.5253 78.9502 50.7256 76.8505 55.5937C74.7509 60.4618 71.9014 64.6961 68.3021 68.2969C64.7028 71.8976 60.4702 74.7484 55.6042 76.8495C50.7382 78.9498 45.5393 80 40.0074 80Z" fill="#29C483"/>
</svg>