<svg width="18" height="18" viewBox="0 0 18 18" fill="none" xmlns="http://www.w3.org/2000/svg">
<path d="M8.99935 0.667969C4.40768 0.667969 0.666016 4.40963 0.666016 9.0013C0.666016 13.593 4.40768 17.3346 8.99935 17.3346C13.591 17.3346 17.3327 13.593 17.3327 9.0013C17.3327 4.40963 13.591 0.667969 8.99935 0.667969ZM8.37435 5.66797C8.37435 5.3263 8.65768 5.04297 8.99935 5.04297C9.34101 5.04297 9.62435 5.3263 9.62435 5.66797V9.83463C9.62435 10.1763 9.34101 10.4596 8.99935 10.4596C8.65768 10.4596 8.37435 10.1763 8.37435 9.83463V5.66797ZM9.76601 12.6513C9.72435 12.7596 9.66601 12.843 9.59101 12.9263C9.50768 13.0013 9.41601 13.0596 9.31601 13.1013C9.21601 13.143 9.10768 13.168 8.99935 13.168C8.89101 13.168 8.78268 13.143 8.68268 13.1013C8.58268 13.0596 8.49101 13.0013 8.40768 12.9263C8.33268 12.843 8.27435 12.7596 8.23268 12.6513C8.19101 12.5513 8.16601 12.443 8.16601 12.3346C8.16601 12.2263 8.19101 12.118 8.23268 12.018C8.27435 11.918 8.33268 11.8263 8.40768 11.743C8.49101 11.668 8.58268 11.6096 8.68268 11.568C8.88268 11.4846 9.11601 11.4846 9.31601 11.568C9.41601 11.6096 9.50768 11.668 9.59101 11.743C9.66601 11.8263 9.72435 11.918 9.76601 12.018C9.80768 12.118 9.83268 12.2263 9.83268 12.3346C9.83268 12.443 9.80768 12.5513 9.76601 12.6513Z" fill="#7C8698"/>
</svg>
