<svg width="49" height="46" viewBox="0 0 49 46" fill="none" xmlns="http://www.w3.org/2000/svg">
<path d="M48.4062 0.759956C48.0107 0.365829 47.475 0.144531 46.9166 0.144531C46.3583 0.144531 45.8226 0.365829 45.4271 0.759956L35.5021 10.6849L34.8354 10.0329C33.0777 8.3161 30.7706 7.27471 28.3204 7.09216C25.8703 6.90961 23.4343 7.59761 21.4417 9.03494C18.5657 11.2037 15.3689 12.9103 11.9667 14.0933L7.64582 15.3599C6.24175 15.7721 4.93943 16.4734 3.82252 17.4188C2.70561 18.3642 1.79882 19.5328 1.1604 20.8495C0.532497 22.1484 0.182773 23.564 0.133624 25.0058C0.084475 26.4476 0.336986 27.8838 0.874984 29.2224C2.91411 34.2282 6.4098 38.506 10.909 41.5015C15.4082 44.497 20.7034 46.072 26.1083 46.0224H28.0333C28.464 46.0221 28.8843 45.8898 29.2375 45.6432C32.9046 43.2496 36.0386 40.1254 38.4439 36.4659C40.8491 32.8064 42.4739 28.6902 43.2167 24.3745C43.475 22.7243 43.3351 21.0362 42.8085 19.4511C42.2819 17.8659 41.384 16.4296 40.1896 15.262L38.5229 13.6287L48.4125 3.73912C48.8058 3.34273 49.026 2.80664 49.0248 2.24825C49.0236 1.68985 48.8012 1.15469 48.4062 0.759956ZM27.35 41.8016H26.1C23.0217 41.8058 19.9725 41.2063 17.125 40.037L17.1479 40.0245C20.7914 38.1963 23.9106 35.4722 26.2125 32.1078L27.2917 30.5224C27.606 30.061 27.7243 29.4937 27.6204 28.9451C27.5164 28.3966 27.1989 27.9118 26.7375 27.5974C26.2761 27.283 25.7088 27.1648 25.1602 27.2687C24.6117 27.3726 24.1269 27.6902 23.8125 28.1516L22.7333 29.737C20.8317 32.5111 18.2568 34.757 15.25 36.2641L12.6437 37.5766C10.5586 36.1109 8.73871 34.3002 7.26248 32.2224C10.677 31.0737 13.7923 29.1776 16.3812 26.6724C16.7807 26.2818 17.0087 25.7484 17.0149 25.1897C17.0212 24.631 16.8052 24.0927 16.4146 23.6933C16.0239 23.2938 15.4906 23.0658 14.9319 23.0596C14.3732 23.0533 13.8349 23.2693 13.4354 23.6599C11.1039 25.919 8.25839 27.5777 5.14373 28.4933C5.01665 28.212 4.87915 27.937 4.76457 27.6474C4.44191 26.855 4.29086 26.0033 4.32139 25.1482C4.35191 24.2932 4.56331 23.4544 4.94165 22.687C5.32468 21.8991 5.86788 21.1997 6.53655 20.6336C7.20522 20.0676 7.98464 19.6472 8.82498 19.3995L13.1437 18.1328C15.6499 17.3278 18.0472 16.2166 20.2812 14.8245L36.7708 30.8912C34.5799 35.2525 31.3433 39.0037 27.35 41.8099V41.8016ZM39.0583 23.712C38.8991 24.6867 38.6841 25.6515 38.4146 26.6016L23.8917 12.4579C24.9571 11.6921 26.2358 11.2797 27.5479 11.2787C29.171 11.2766 30.73 11.9118 31.8896 13.0474L37.2417 18.2745C37.9562 18.972 38.4938 19.8301 38.8098 20.7773C39.1258 21.7246 39.211 22.7335 39.0583 23.7203V23.712Z" fill="white"/>
</svg>
