<svg xmlns="http://www.w3.org/2000/svg" width="24" height="25" viewBox="0 0 24 25" fill="none">
  <mask id="mask0_2228_12047" style="mask-type:alpha" maskUnits="userSpaceOnUse" x="0" y="0" width="24" height="25">
    <rect y="0.244141" width="24" height="24" fill="#D9D9D9"/>
  </mask>
  <g mask="url(#mask0_2228_12047)">
    <path d="M11.9995 5.45592C11.7869 5.45592 11.6088 5.38409 11.4653 5.24042C11.3216 5.09659 11.2498 4.91842 11.2498 4.70592V2.51367C11.2498 2.30117 11.3217 2.12309 11.4655 1.97942C11.6094 1.83559 11.7875 1.76367 12 1.76367C12.2127 1.76367 12.3908 1.83559 12.5343 1.97942C12.678 2.12309 12.7498 2.30117 12.7498 2.51367V4.70592C12.7498 4.91842 12.6779 5.09659 12.534 5.24042C12.3902 5.38409 12.212 5.45592 11.9995 5.45592ZM16.796 7.44817C16.6575 7.30984 16.5899 7.13842 16.593 6.93392C16.5962 6.72942 16.667 6.54959 16.8055 6.39442L18.3305 4.83492C18.481 4.67975 18.6597 4.60217 18.8665 4.60217C19.0734 4.60217 19.255 4.68042 19.4115 4.83692C19.555 4.98042 19.6268 5.15534 19.6268 5.36167C19.6268 5.56817 19.5543 5.74384 19.4093 5.88867L17.8498 7.44817C17.705 7.59317 17.5293 7.66567 17.3228 7.66567C17.1165 7.66567 16.9409 7.59317 16.796 7.44817ZM19.5383 12.9944C19.3258 12.9944 19.1476 12.9225 19.0038 12.7787C18.8601 12.6348 18.7883 12.4567 18.7883 12.2442C18.7883 12.0315 18.8601 11.8534 19.0038 11.7099C19.1476 11.5663 19.3258 11.4944 19.5383 11.4944H21.7305C21.943 11.4944 22.1211 11.5663 22.2648 11.7102C22.4086 11.854 22.4805 12.0322 22.4805 12.2447C22.4805 12.4573 22.4086 12.6354 22.2648 12.7789C22.1211 12.9226 21.943 12.9944 21.7305 12.9944H19.5383ZM11.9995 22.7252C11.7869 22.7252 11.6088 22.6533 11.4653 22.5094C11.3216 22.3658 11.2498 22.1877 11.2498 21.9752V19.7924C11.2498 19.5799 11.3217 19.4018 11.4655 19.2582C11.6094 19.1143 11.7875 19.0424 12 19.0424C12.2127 19.0424 12.3908 19.1143 12.5343 19.2582C12.678 19.4018 12.7498 19.5799 12.7498 19.7924V21.9752C12.7498 22.1877 12.6779 22.3658 12.534 22.5094C12.3902 22.6533 12.212 22.7252 11.9995 22.7252ZM6.15954 7.44817L4.59029 5.91367C4.43513 5.76384 4.35754 5.58275 4.35754 5.37042C4.35754 5.15825 4.43513 4.97975 4.59029 4.83492C4.73513 4.69642 4.91288 4.62717 5.12354 4.62717C5.33421 4.62717 5.50771 4.69642 5.64404 4.83492L7.21329 6.40417C7.35179 6.54051 7.42104 6.71401 7.42104 6.92467C7.42104 7.13534 7.35246 7.30984 7.21529 7.44817C7.06563 7.58667 6.89104 7.65592 6.69154 7.65592C6.49188 7.65592 6.31454 7.58667 6.15954 7.44817ZM18.3403 19.6539L16.8055 18.0944C16.667 17.9393 16.5962 17.7594 16.593 17.5549C16.5899 17.3504 16.6569 17.179 16.794 17.0407C16.9312 16.9022 17.1027 16.8329 17.3085 16.8329C17.5142 16.8329 17.6946 16.9053 17.8498 17.0502L19.4093 18.5849C19.5581 18.7233 19.63 18.8973 19.6248 19.1069C19.6196 19.3166 19.5469 19.4989 19.4065 19.6539C19.2534 19.8091 19.0715 19.8867 18.8608 19.8867C18.65 19.8867 18.4765 19.8091 18.3403 19.6539ZM2.26904 12.9944C2.05654 12.9944 1.87846 12.9225 1.73479 12.7787C1.59096 12.6348 1.51904 12.4567 1.51904 12.2442C1.51904 12.0315 1.59096 11.8534 1.73479 11.7099C1.87846 11.5663 2.05654 11.4944 2.26904 11.4944H4.46129C4.67379 11.4944 4.85196 11.5663 4.99579 11.7102C5.13946 11.854 5.21129 12.0322 5.21129 12.2447C5.21129 12.4573 5.13946 12.6354 4.99579 12.7789C4.85196 12.9226 4.67379 12.9944 4.46129 12.9944H2.26904ZM4.59979 19.6539C4.46129 19.5091 4.39046 19.3318 4.38729 19.1222C4.38413 18.9127 4.45179 18.7387 4.59029 18.6002L6.14029 17.0502C6.28513 16.9053 6.45821 16.8329 6.65954 16.8329C6.86071 16.8329 7.03888 16.9047 7.19404 17.0482C7.34921 17.2047 7.42679 17.3852 7.42679 17.5897C7.42679 17.7942 7.34921 17.9739 7.19404 18.1289L5.66904 19.6539C5.51388 19.8091 5.33096 19.8867 5.12029 19.8867C4.90963 19.8867 4.73613 19.8091 4.59979 19.6539ZM12.002 17.7444C10.4749 17.7444 9.17604 17.2099 8.10554 16.1409C7.03504 15.0719 6.49979 13.7738 6.49979 12.2467C6.49979 10.7195 7.03429 9.42067 8.10329 8.35017C9.17229 7.27967 10.4704 6.74442 11.9975 6.74442C13.5247 6.74442 14.8235 7.27892 15.894 8.34792C16.9645 9.41692 17.4998 10.715 17.4998 12.2422C17.4998 13.7693 16.9653 15.0682 15.8963 16.1387C14.8273 17.2092 13.5292 17.7444 12.002 17.7444ZM11.9998 16.2444C13.0998 16.2444 14.0415 15.8528 14.8248 15.0694C15.6081 14.2861 15.9998 13.3444 15.9998 12.2444C15.9998 11.1444 15.6081 10.2028 14.8248 9.41942C14.0415 8.63609 13.0998 8.24442 11.9998 8.24442C10.8998 8.24442 9.95813 8.63609 9.17479 9.41942C8.39146 10.2028 7.99979 11.1444 7.99979 12.2444C7.99979 13.3444 8.39146 14.2861 9.17479 15.0694C9.95813 15.8528 10.8998 16.2444 11.9998 16.2444Z" fill="#021637"/>
  </g>
</svg>