<svg xmlns="http://www.w3.org/2000/svg" width="21" height="24" viewBox="0 0 21 24" fill="currentColor">
  <path d="M7.32206 18.8749C6.69065 18.8749 6.1562 18.6562 5.71872 18.2187C5.28122 17.7812 5.06247 17.2467 5.06247 16.6153V2.38463C5.06247 1.75321 5.28122 1.21875 5.71872 0.78125C6.1562 0.34375 6.69065 0.125 7.32206 0.125H17.8028C18.4342 0.125 18.9686 0.34375 19.4061 0.78125C19.8436 1.21875 20.0624 1.75321 20.0624 2.38463V16.6153C20.0624 17.2467 19.8436 17.7812 19.4061 18.2187C18.9686 18.6562 18.4342 18.8749 17.8028 18.8749H7.32206ZM2.94709 23.2499C2.3157 23.2499 1.78125 23.0311 1.34375 22.5936C0.90625 22.1561 0.6875 21.6217 0.6875 20.9903V5.82209C0.6875 5.55607 0.77724 5.33332 0.956719 5.15384C1.13622 4.97436 1.35897 4.88462 1.62497 4.88462C1.89099 4.88462 2.11375 4.97436 2.29325 5.15384C2.47273 5.33332 2.56247 5.55607 2.56247 5.82209V20.9903C2.56247 21.0864 2.60253 21.1746 2.68266 21.2547C2.7628 21.3349 2.85095 21.3749 2.94709 21.3749H14.3653C14.6313 21.3749 14.8541 21.4647 15.0336 21.6442C15.213 21.8236 15.3028 22.0464 15.3028 22.3124C15.3028 22.5784 15.213 22.8012 15.0336 22.9807C14.8541 23.1601 14.6313 23.2499 14.3653 23.2499H2.94709Z" fill="white"/>
</svg>