<svg width="30" height="30" viewBox="0 0 30 30" fill="none" xmlns="http://www.w3.org/2000/svg">
<mask id="mask0_1519_1788" style="mask-type:alpha" maskUnits="userSpaceOnUse" x="0" y="0" width="30" height="30">
<rect x="-6.10352e-05" width="30" height="30" fill="#D9D9D9"/>
</mask>
<g mask="url(#mask0_1519_1788)">
<path d="M11.322 21.8749C10.6906 21.8749 10.1561 21.6562 9.71866 21.2187C9.28116 20.7812 9.06241 20.2467 9.06241 19.6153V5.38463C9.06241 4.75321 9.28116 4.21875 9.71866 3.78125C10.1561 3.34375 10.6906 3.125 11.322 3.125H21.8027C22.4341 3.125 22.9686 3.34375 23.4061 3.78125C23.8436 4.21875 24.0623 4.75321 24.0623 5.38463V19.6153C24.0623 20.2467 23.8436 20.7812 23.4061 21.2187C22.9686 21.6562 22.4341 21.8749 21.8027 21.8749H11.322ZM6.94703 26.2499C6.31564 26.2499 5.78119 26.0311 5.34369 25.5936C4.90619 25.1561 4.68744 24.6217 4.68744 23.9903V8.82209C4.68744 8.55607 4.77718 8.33332 4.95666 8.15384C5.13616 7.97436 5.35891 7.88462 5.62491 7.88462C5.89093 7.88462 6.11369 7.97436 6.29319 8.15384C6.47267 8.33332 6.56241 8.55607 6.56241 8.82209V23.9903C6.56241 24.0864 6.60247 24.1746 6.68259 24.2547C6.76274 24.3349 6.85089 24.3749 6.94703 24.3749H18.3652C18.6312 24.3749 18.854 24.4647 19.0335 24.6442C19.213 24.8236 19.3027 25.0464 19.3027 25.3124C19.3027 25.5784 19.213 25.8012 19.0335 25.9807C18.854 26.1601 18.6312 26.2499 18.3652 26.2499H6.94703Z" fill="#13B5EA"/>
</g>
</svg>
