<svg width="30" height="30" viewBox="0 0 30 30" fill="none" xmlns="http://www.w3.org/2000/svg">
<mask id="mask0_1422_6195" style="mask-type:alpha" maskUnits="userSpaceOnUse" x="0" y="0" width="30" height="30">
<rect width="30" height="30" fill="#D9D9D9"/>
</mask>
<g mask="url(#mask0_1422_6195)">
<path d="M11.3221 21.8749C10.6906 21.8749 10.1562 21.6562 9.71872 21.2187C9.28122 20.7812 9.06247 20.2467 9.06247 19.6153V5.38463C9.06247 4.75321 9.28122 4.21875 9.71872 3.78125C10.1562 3.34375 10.6906 3.125 11.3221 3.125H21.8028C22.4342 3.125 22.9686 3.34375 23.4061 3.78125C23.8436 4.21875 24.0624 4.75321 24.0624 5.38463V19.6153C24.0624 20.2467 23.8436 20.7812 23.4061 21.2187C22.9686 21.6562 22.4342 21.8749 21.8028 21.8749H11.3221ZM6.94709 26.2499C6.3157 26.2499 5.78125 26.0311 5.34375 25.5936C4.90625 25.1561 4.6875 24.6217 4.6875 23.9903V8.82209C4.6875 8.55607 4.77724 8.33332 4.95672 8.15384C5.13622 7.97436 5.35897 7.88462 5.62497 7.88462C5.89099 7.88462 6.11375 7.97436 6.29325 8.15384C6.47273 8.33332 6.56247 8.55607 6.56247 8.82209V23.9903C6.56247 24.0864 6.60253 24.1746 6.68266 24.2547C6.7628 24.3349 6.85095 24.3749 6.94709 24.3749H18.3653C18.6313 24.3749 18.8541 24.4647 19.0336 24.6442C19.213 24.8236 19.3028 25.0464 19.3028 25.3124C19.3028 25.5784 19.213 25.8012 19.0336 25.9807C18.8541 26.1601 18.6313 26.2499 18.3653 26.2499H6.94709Z" fill="white"/>
</g>
</svg>
