<svg xmlns="http://www.w3.org/2000/svg" width="110" height="57" viewBox="0 0 110 57" fill="none">
<path d="M2 18.6744C2 12.502 5.66136 7.53594 11.0328 4.66771C19.2496 0.280098 26.9472 1.33692 33.9548 7.60043C41.2818 14.1493 48.0341 27.725 42.8468 37.3733C41.7152 39.4782 39.6637 42.8778 36.911 43.098C34.6399 43.2797 34.5133 36.7137 34.5414 35.5433C34.6759 29.937 36.9013 24.0521 41.5564 20.6921C48.0407 16.0119 57.1595 12.7488 65.1589 12.5743C70.4049 12.4599 74.0979 14.7557 76.2798 19.4955C79.6128 26.7361 81.1779 35.5619 81.2771 43.4968C81.3066 45.8524 81.9688 53.0994 79.2359 54.6177C76.1772 56.317 73.4617 54.0609 73.6521 50.9107C74.1891 42.025 84.0623 36.1575 90.6853 31.9537C96.2006 28.4529 102.11 25.6876 108 22.8975" stroke="#FB9596" strokeWidth="3.60207" strokeLinecap="round"/>
</svg>