<svg width="91" height="87" viewBox="0 0 91 87" fill="none" xmlns="http://www.w3.org/2000/svg">
<path d="M40 80.5555L41.0711 82.2446L40 80.5555ZM40 19.0555L41.2463 20.6198L40 19.0555ZM89.867 20.8578C90.8624 20.379 91.2811 19.1839 90.8023 18.1885L82.9989 1.96792C82.52 0.972546 81.3249 0.553824 80.3296 1.03268C79.3342 1.51154 78.9155 2.70664 79.3943 3.70201L86.3307 18.1203L71.9124 25.0567C70.917 25.5355 70.4983 26.7306 70.9771 27.726C71.456 28.7214 72.6511 29.1401 73.6465 28.6612L89.867 20.8578ZM1 80.5555C0.404216 82.4647 0.404711 82.4649 0.405307 82.4651C0.405638 82.4652 0.406334 82.4654 0.406997 82.4656C0.408323 82.466 0.410048 82.4665 0.412168 82.4672C0.416409 82.4685 0.422234 82.4703 0.429623 82.4726C0.444402 82.4772 0.465442 82.4836 0.492592 82.4919C0.546891 82.5084 0.62564 82.5322 0.727633 82.5625C0.931603 82.623 1.22864 82.7095 1.60909 82.816C2.3698 83.029 3.46512 83.3221 4.81763 83.6472C7.51928 84.2965 11.264 85.0773 15.4282 85.5987C19.5849 86.1192 24.2103 86.3879 28.6588 85.9886C33.0904 85.5908 37.4858 84.5181 41.0711 82.2446L38.9289 78.8665C36.083 80.6712 32.3879 81.6377 28.3012 82.0046C24.2313 82.3699 19.9106 82.1288 15.9252 81.6297C11.9471 81.1316 8.35348 80.3831 5.75237 79.7579C4.45349 79.4458 3.40631 79.1654 2.68736 78.9641C2.32799 78.8635 2.05091 78.7828 1.86573 78.7278C1.77314 78.7003 1.70355 78.6793 1.65815 78.6655C1.63546 78.6586 1.61881 78.6535 1.60836 78.6502C1.60314 78.6486 1.59947 78.6475 1.59737 78.6468C1.59631 78.6465 1.59566 78.6463 1.59539 78.6462C1.59526 78.6462 1.59536 78.6462 1.59529 78.6462C1.59549 78.6462 1.59578 78.6463 1 80.5555ZM41.0711 82.2446C43.9148 80.4412 45.8149 78.2028 46.8988 75.6038C47.9723 73.03 48.1858 70.2469 47.9055 67.4267C47.3539 61.8766 44.8205 55.702 42.4122 49.835C39.9388 43.8095 37.5747 38.0611 36.9113 32.9143C36.2667 27.913 37.2589 23.7967 41.2463 20.6198L38.7537 17.4913C33.349 21.7975 32.1806 27.5024 32.9441 33.4257C33.6889 39.2036 36.3019 45.4831 38.7118 51.354C41.1869 57.3835 43.4432 62.9739 43.9251 67.8223C44.1615 70.2015 43.9528 72.2761 43.207 74.0641C42.4719 75.8268 41.1559 77.4543 38.9289 78.8665L41.0711 82.2446ZM41.2463 20.6198C44.5786 17.9647 49.0916 16.5511 54.18 16.0139C59.2529 15.4785 64.7322 15.8318 69.828 16.5636C74.9138 17.294 79.5523 18.3915 82.9234 19.3086C84.6068 19.7665 85.969 20.178 86.9067 20.4738C87.3755 20.6217 87.7379 20.7405 87.9809 20.8216C88.1024 20.8622 88.1941 20.8933 88.2542 20.9139C88.2843 20.9242 88.3065 20.9319 88.3207 20.9368C88.3278 20.9392 88.3328 20.941 88.3358 20.942C88.3373 20.9426 88.3383 20.9429 88.3388 20.9431C88.339 20.9432 88.339 20.9431 88.3391 20.9432C88.339 20.9431 88.3387 20.943 89 19.0555C89.6613 17.168 89.6608 17.1678 89.6601 17.1676C89.6597 17.1675 89.6589 17.1672 89.6581 17.1669C89.6565 17.1664 89.6544 17.1656 89.6518 17.1647C89.6465 17.1629 89.6392 17.1603 89.6299 17.1571C89.6112 17.1506 89.5844 17.1414 89.5496 17.1295C89.4801 17.1057 89.3788 17.0713 89.2474 17.0274C88.9846 16.9397 88.6011 16.814 88.11 16.6591C87.1281 16.3494 85.7144 15.9225 83.9734 15.4488C80.4954 14.5027 75.69 13.3644 70.3966 12.6042C65.1132 11.8455 59.2778 11.4536 53.7602 12.036C48.258 12.6168 42.9045 14.1842 38.7537 17.4913L41.2463 20.6198Z" fill="#13B5EA"/>
</svg>
