<svg xmlns="http://www.w3.org/2000/svg" width="16" height="17" viewBox="0 0 16 17" fill="none">
<path d="M8 16.4961C5.71592 16.4961 3.81153 16.1736 2.28682 15.5286C0.762275 14.8837 0 14.078 0 13.1114V3.79021C0 2.88166 0.780706 2.1055 2.34212 1.46174C3.90353 0.817976 5.78949 0.496094 8 0.496094C10.2105 0.496094 12.0965 0.817976 13.6579 1.46174C15.2193 2.1055 16 2.88166 16 3.79021V13.1114C16 14.078 15.2377 14.8837 13.7132 15.5286C12.1885 16.1736 10.2841 16.4961 8 16.4961ZM8 5.6328C9.37192 5.6328 10.7533 5.43884 12.144 5.05092C13.5346 4.663 14.3403 4.24456 14.5612 3.79562C14.3463 3.33476 13.5489 2.90488 12.1692 2.50598C10.7894 2.10723 9.39969 1.90786 8 1.90786C6.60267 1.90786 5.21773 2.10182 3.84518 2.48974C2.47263 2.87766 1.66447 3.30088 1.42071 3.75939C1.65851 4.22998 2.46063 4.65986 3.82706 5.04904C5.19365 5.43821 6.58463 5.6328 8 5.6328ZM8 10.3422C8.65286 10.3422 9.28816 10.3108 9.90588 10.2481C10.5236 10.1853 11.114 10.0937 11.6769 9.97303C12.2398 9.85241 12.7667 9.70276 13.2579 9.52409C13.749 9.34558 14.1925 9.14347 14.5882 8.91774V5.57845C14.1925 5.80402 13.749 6.00613 13.2579 6.1848C12.7667 6.36331 12.2398 6.51288 11.6769 6.63351C11.114 6.75429 10.5236 6.84605 9.90588 6.9088C9.28816 6.97154 8.65286 7.00292 8 7.00292C7.33522 7.00292 6.68753 6.96998 6.05694 6.90409C5.42651 6.83837 4.83137 6.74519 4.27153 6.62457C3.71169 6.50394 3.19012 6.35586 2.70682 6.18033C2.22353 6.00464 1.79184 5.80402 1.41176 5.57845V8.91774C1.79184 9.14347 2.22353 9.34409 2.70682 9.51962C3.19012 9.69515 3.71169 9.84323 4.27153 9.96386C4.83137 10.0846 5.42651 10.1779 6.05694 10.2436C6.68753 10.3093 7.33522 10.3422 8 10.3422ZM8 15.0843C8.76376 15.0843 9.51373 15.034 10.2499 14.9333C10.9859 14.8324 11.6555 14.6948 12.2588 14.5206C12.8621 14.3461 13.371 14.1437 13.7854 13.9133C14.2 13.6828 14.4676 13.4409 14.5882 13.1874V10.3295C14.1925 10.5552 13.749 10.7573 13.2579 10.9359C12.7667 11.1145 12.2398 11.2642 11.6769 11.3848C11.114 11.5054 10.5236 11.5971 9.90588 11.6599C9.28816 11.7226 8.65286 11.754 8 11.754C7.33522 11.754 6.68753 11.7211 6.05694 11.6554C5.42651 11.5897 4.83137 11.4964 4.27153 11.3756C3.71169 11.255 3.19012 11.1069 2.70682 10.9314C2.22353 10.7559 1.79184 10.5552 1.41176 10.3295V13.202C1.53239 13.4614 1.79757 13.7024 2.20729 13.925C2.61686 14.1476 3.12329 14.3461 3.72659 14.5206C4.33004 14.6948 5.0022 14.8324 5.74306 14.9333C6.48392 15.034 7.23624 15.0843 8 15.0843Z" fill="#7C8698"/>
</svg>