<svg xmlns="http://www.w3.org/2000/svg" width="10" height="17" viewBox="0 0 10 17" fill="none">
  <path d="M4.75 16.6517C3.35419 16.6517 2.21357 16.4409 1.32814 16.0193C0.442714 15.5979 0 15.0514 0 14.3799C0 13.9775 0.16921 13.6198 0.50763 13.3068C0.845913 12.9939 1.3132 12.7368 1.9095 12.5355L2.26534 13.716C2.00484 13.8112 1.78614 13.9184 1.60922 14.0375C1.43244 14.1567 1.31754 14.2709 1.26453 14.3799C1.40111 14.6744 1.80755 14.9201 2.48384 15.117C3.15999 15.314 3.91538 15.4125 4.75 15.4125C5.57925 15.4125 6.33547 15.314 7.01864 15.117C7.70168 14.9201 8.11156 14.6744 8.24827 14.3799C8.19526 14.2709 8.0803 14.1581 7.90338 14.0416C7.7266 13.925 7.50789 13.8165 7.24726 13.716L7.61115 12.5355C8.20745 12.7368 8.6713 12.9939 9.0027 13.3068C9.33423 13.6198 9.5 13.9775 9.5 14.3799C9.5 15.0514 9.05729 15.5979 8.17186 16.0193C7.28643 16.4409 6.14581 16.6517 4.75 16.6517ZM4.75 11.773C4.99783 11.3028 5.27532 10.8466 5.58249 10.4044C5.88966 9.96229 6.19785 9.53995 6.50709 9.13737C7.02711 8.46067 7.44249 7.84799 7.75324 7.29933C8.06412 6.75081 8.21956 6.06825 8.21956 5.25166C8.21956 4.28996 7.8817 3.47131 7.20596 2.79571C6.53035 2.11997 5.7117 1.7821 4.75 1.7821C3.7883 1.7821 2.96964 2.11997 2.29404 2.79571C1.6183 3.47131 1.28043 4.28996 1.28043 5.25166C1.28043 6.06825 1.43718 6.75081 1.75068 7.29933C2.06418 7.84799 2.47826 8.46067 2.99291 9.13737C3.30215 9.53995 3.61034 9.96229 3.91751 10.4044C4.22468 10.8466 4.50217 11.3028 4.75 11.773ZM4.75 13.9192C4.61438 13.9192 4.48992 13.8744 4.37661 13.7849C4.2633 13.6954 4.1791 13.5803 4.12403 13.4394C3.78616 12.5149 3.38427 11.7394 2.91836 11.113C2.45231 10.4865 2.00271 9.88622 1.56957 9.31209C1.15019 8.7381 0.790634 8.14345 0.490902 7.52815C0.19117 6.91286 0.0413043 6.15403 0.0413043 5.25166C0.0413043 3.93309 0.496478 2.8187 1.40683 1.90849C2.31704 0.998142 3.43143 0.542969 4.75 0.542969C6.06857 0.542969 7.18296 0.998142 8.09317 1.90849C9.00352 2.8187 9.4587 3.93309 9.4587 5.25166C9.4587 6.15403 9.31227 6.91286 9.01942 7.52815C8.72658 8.14345 8.36358 8.7381 7.93043 9.31209C7.51106 9.88622 7.0649 10.4865 6.59197 11.113C6.11917 11.7394 5.71384 12.5149 5.37597 13.4394C5.32089 13.5803 5.2367 13.6954 5.12339 13.7849C5.01008 13.8744 4.88562 13.9192 4.75 13.9192ZM4.75 6.76093C5.16828 6.76093 5.52439 6.61395 5.81834 6.32C6.11229 6.02605 6.25926 5.66994 6.25926 5.25166C6.25926 4.83339 6.11229 4.47728 5.81834 4.18333C5.52439 3.88938 5.16828 3.7424 4.75 3.7424C4.33172 3.7424 3.97561 3.88938 3.68166 4.18333C3.38771 4.47728 3.24074 4.83339 3.24074 5.25166C3.24074 5.66994 3.38771 6.02605 3.68166 6.32C3.97561 6.61395 4.33172 6.76093 4.75 6.76093Z" fill="#7C8698"/>
</svg>