<svg width="3" height="17" viewBox="0 0 3 17" fill="none" xmlns="http://www.w3.org/2000/svg">
<path d="M2.67188 8.5C2.67188 8.73178 2.60315 8.95835 2.47438 9.15106C2.34561 9.34377 2.16259 9.49397 1.94846 9.58267C1.73432 9.67137 1.4987 9.69458 1.27138 9.64936C1.04406 9.60414 0.835249 9.49253 0.67136 9.32864C0.50747 9.16475 0.39586 8.95594 0.350643 8.72862C0.305426 8.5013 0.328633 8.26568 0.417329 8.05154C0.506026 7.83741 0.656228 7.65439 0.848942 7.52562C1.04166 7.39685 1.26823 7.32813 1.5 7.32813C1.8108 7.32813 2.10887 7.45159 2.32864 7.67136C2.54841 7.89113 2.67188 8.1892 2.67188 8.5ZM1.5 3.03125C1.73178 3.03125 1.95835 2.96252 2.15106 2.83375C2.34377 2.70499 2.49397 2.52196 2.58267 2.30783C2.67137 2.0937 2.69458 1.85808 2.64936 1.63075C2.60414 1.40343 2.49253 1.19462 2.32864 1.03073C2.16475 0.866845 1.95594 0.755235 1.72862 0.710018C1.5013 0.664801 1.26568 0.688008 1.05154 0.776704C0.837411 0.865401 0.654389 1.0156 0.525622 1.20832C0.396855 1.40103 0.328126 1.6276 0.328126 1.85938C0.328126 2.17018 0.451591 2.46825 0.67136 2.68802C0.891129 2.90779 1.1892 3.03125 1.5 3.03125ZM1.5 13.9688C1.26823 13.9688 1.04166 14.0375 0.848942 14.1662C0.656228 14.295 0.506026 14.478 0.417329 14.6922C0.328633 14.9063 0.305426 15.1419 0.350643 15.3692C0.39586 15.5966 0.50747 15.8054 0.67136 15.9693C0.835249 16.1332 1.04406 16.2448 1.27138 16.29C1.4987 16.3352 1.73432 16.312 1.94846 16.2233C2.16259 16.1346 2.34561 15.9844 2.47438 15.7917C2.60315 15.599 2.67188 15.3724 2.67188 15.1406C2.67188 14.8298 2.54841 14.5318 2.32864 14.312C2.10887 14.0922 1.8108 13.9688 1.5 13.9688Z" fill="#343330"/>
</svg>
