<svg width="20" height="20" viewBox="0 0 20 20" fill="none" xmlns="http://www.w3.org/2000/svg">
<path d="M14.1676 15.3588H10.8343L7.12592 17.8254C6.57592 18.1921 5.83427 17.8004 5.83427 17.1338V15.3588C3.33427 15.3588 1.6676 13.6921 1.6676 11.1921V6.19206C1.6676 3.69206 3.33427 2.02539 5.83427 2.02539H14.1676C16.6676 2.02539 18.3343 3.69206 18.3343 6.19206V11.1921C18.3343 13.6921 16.6676 15.3588 14.1676 15.3588Z" stroke="#161A32" strokeWidth="1.5" strokeMiterlimit="10" strokeLinecap="round" strokeLinejoin="round"/>
<path d="M10.0003 9.4668V9.29183C10.0003 8.72516 10.3503 8.42515 10.7003 8.18348C11.0419 7.95015 11.3836 7.65016 11.3836 7.10016C11.3836 6.33349 10.7669 5.7168 10.0003 5.7168C9.23359 5.7168 8.61694 6.33349 8.61694 7.10016" stroke="#161A32" strokeWidth="1.5" strokeLinecap="round" strokeLinejoin="round"/>
<path d="M9.99531 11.4577H10.0028" stroke="#161A32" strokeWidth="1.5" strokeLinecap="round" strokeLinejoin="round"/>
</svg>
