<svg width="12" height="13" viewBox="0 0 12 13" fill="none" xmlns="http://www.w3.org/2000/svg">
<path d="M1.67857 7.18666V12.2938C1.67857 12.4608 1.62207 12.6007 1.50905 12.7136C1.39604 12.8266 1.25605 12.8831 1.08909 12.8831C0.921994 12.8831 0.782071 12.8266 0.669321 12.7136C0.55644 12.6007 0.5 12.4608 0.5 12.2938V0.82552C0.5 0.624246 0.568095 0.45558 0.704286 0.319521C0.840345 0.18333 1.00901 0.115234 1.21029 0.115234H6.27343C6.44118 0.115234 6.59092 0.167877 6.72266 0.273163C6.85427 0.378448 6.93723 0.515163 6.97154 0.683306L7.17543 1.68666H10.7897C10.991 1.68666 11.1597 1.75443 11.2957 1.88997C11.4319 2.0255 11.5 2.19345 11.5 2.39381V8.05115C11.5 8.2515 11.4319 8.41938 11.2957 8.55479C11.1597 8.69032 10.991 8.75809 10.7897 8.75809H7.298C7.13025 8.75809 6.98051 8.70545 6.84877 8.60016C6.71716 8.49488 6.6342 8.35816 6.59989 8.19002L6.396 7.18666H1.67857ZM7.68929 7.57952H10.3214V2.86523H6.78414C6.61652 2.86523 6.46685 2.81259 6.33511 2.70731C6.20337 2.60202 6.12035 2.46531 6.08604 2.29716L5.88214 1.29381H1.67857V6.00809H6.78729C6.95491 6.00809 7.10458 6.06073 7.23632 6.16602C7.36806 6.27131 7.45108 6.40802 7.48539 6.57616L7.68929 7.57952Z" fill="#7C8698"/>
</svg>
