<svg width="18" height="18" viewBox="0 0 18 18" fill="none" xmlns="http://www.w3.org/2000/svg">
<mask id="mask0_1652_144" style="mask-type:luminance" maskUnits="userSpaceOnUse" x="2" y="2" width="14" height="14">
<path d="M15.5933 7.77296H9.15675V10.3807H12.8617C12.5168 12.0375 11.0722 12.9885 9.15675 12.9885C8.62659 12.9956 8.10024 12.898 7.6079 12.7012C7.11555 12.5044 6.66691 12.2124 6.2877 11.8418C5.90849 11.4713 5.60618 11.0295 5.39812 10.5418C5.19006 10.0541 5.08034 9.53014 5.07525 8.99996C5.09247 8.23978 5.3217 7.49952 5.7371 6.86264C6.15249 6.22576 6.73754 5.71758 7.42628 5.39539C8.11503 5.0732 8.88008 4.94982 9.63519 5.03915C10.3903 5.12847 11.1054 5.42696 11.7 5.90096L13.7093 3.93746C12.4432 2.84733 10.8275 2.24844 9.15675 2.24996C8.25937 2.23717 7.36831 2.4019 6.5348 2.73465C5.70129 3.06741 4.94178 3.56164 4.29993 4.18892C3.65808 4.81621 3.14655 5.56417 2.79475 6.38982C2.44295 7.21547 2.25782 8.10252 2.25 8.99996C2.25782 9.8974 2.44295 10.7844 2.79475 11.6101C3.14655 12.4357 3.65808 13.1837 4.29993 13.811C4.94178 14.4383 5.70129 14.9325 6.5348 15.2653C7.36831 15.598 8.25937 15.7627 9.15675 15.75C10.042 15.7721 10.9224 15.6115 11.7427 15.2781C12.5631 14.9446 13.3059 14.4456 13.9247 13.8121C14.5435 13.1786 15.0249 12.4243 15.339 11.5963C15.6531 10.7683 15.793 9.88446 15.75 8.99996C15.7442 8.58635 15.6916 8.17473 15.5933 7.77296Z" fill="white"/>
</mask>
<g mask="url(#mask0_1652_144)">
<path d="M1.62207 12.9885V5.01147L6.95907 8.99997L1.62207 12.9885Z" fill="#FBBC05"/>
</g>
<mask id="mask1_1652_144" style="mask-type:luminance" maskUnits="userSpaceOnUse" x="2" y="2" width="14" height="14">
<path d="M15.5933 7.77296H9.15675V10.3807H12.8617C12.5168 12.0375 11.0722 12.9885 9.15675 12.9885C8.62659 12.9956 8.10024 12.898 7.6079 12.7012C7.11555 12.5044 6.66691 12.2124 6.2877 11.8418C5.90849 11.4713 5.60618 11.0295 5.39812 10.5418C5.19006 10.0541 5.08034 9.53014 5.07525 8.99996C5.09247 8.23978 5.3217 7.49952 5.7371 6.86264C6.15249 6.22576 6.73754 5.71758 7.42628 5.39539C8.11503 5.0732 8.88008 4.94982 9.63519 5.03915C10.3903 5.12847 11.1054 5.42696 11.7 5.90096L13.7093 3.93746C12.4432 2.84733 10.8275 2.24844 9.15675 2.24996C8.25937 2.23717 7.36831 2.4019 6.5348 2.73465C5.70129 3.06741 4.94178 3.56164 4.29993 4.18892C3.65808 4.81621 3.14655 5.56417 2.79475 6.38982C2.44295 7.21547 2.25782 8.10252 2.25 8.99996C2.25782 9.8974 2.44295 10.7844 2.79475 11.6101C3.14655 12.4357 3.65808 13.1837 4.29993 13.811C4.94178 14.4383 5.70129 14.9325 6.5348 15.2653C7.36831 15.598 8.25937 15.7627 9.15675 15.75C10.042 15.7721 10.9224 15.6115 11.7427 15.2781C12.5631 14.9446 13.3059 14.4456 13.9247 13.8121C14.5435 13.1786 15.0249 12.4243 15.339 11.5963C15.6531 10.7683 15.793 9.88446 15.75 8.99996C15.7442 8.58635 15.6916 8.17473 15.5933 7.77296Z" fill="white"/>
</mask>
<g mask="url(#mask1_1652_144)">
<path d="M1.62207 5.01147L6.95907 8.99997L9.15657 7.12497L16.6918 5.92497V1.63647H1.62207V5.01147Z" fill="#EA4335"/>
</g>
<mask id="mask2_1652_144" style="mask-type:luminance" maskUnits="userSpaceOnUse" x="2" y="2" width="14" height="14">
<path d="M15.5933 7.77296H9.15675V10.3807H12.8617C12.5168 12.0375 11.0722 12.9885 9.15675 12.9885C8.62659 12.9956 8.10024 12.898 7.6079 12.7012C7.11555 12.5044 6.66691 12.2124 6.2877 11.8418C5.90849 11.4713 5.60618 11.0295 5.39812 10.5418C5.19006 10.0541 5.08034 9.53014 5.07525 8.99996C5.09247 8.23978 5.3217 7.49952 5.7371 6.86264C6.15249 6.22576 6.73754 5.71758 7.42628 5.39539C8.11503 5.0732 8.88008 4.94982 9.63519 5.03915C10.3903 5.12847 11.1054 5.42696 11.7 5.90096L13.7093 3.93746C12.4432 2.84733 10.8275 2.24844 9.15675 2.24996C8.25937 2.23717 7.36831 2.4019 6.5348 2.73465C5.70129 3.06741 4.94178 3.56164 4.29993 4.18892C3.65808 4.81621 3.14655 5.56417 2.79475 6.38982C2.44295 7.21547 2.25782 8.10252 2.25 8.99996C2.25782 9.8974 2.44295 10.7844 2.79475 11.6101C3.14655 12.4357 3.65808 13.1837 4.29993 13.811C4.94178 14.4383 5.70129 14.9325 6.5348 15.2653C7.36831 15.598 8.25937 15.7627 9.15675 15.75C10.042 15.7721 10.9224 15.6115 11.7427 15.2781C12.5631 14.9446 13.3059 14.4456 13.9247 13.8121C14.5435 13.1786 15.0249 12.4243 15.339 11.5963C15.6531 10.7683 15.793 9.88446 15.75 8.99996C15.7442 8.58635 15.6916 8.17473 15.5933 7.77296Z" fill="white"/>
</mask>
<g mask="url(#mask2_1652_144)">
<path d="M1.62207 12.9885L11.0406 5.93172L13.5208 6.23847L16.6918 1.63647V16.3635H1.62207V12.9885Z" fill="#34A853"/>
</g>
<mask id="mask3_1652_144" style="mask-type:luminance" maskUnits="userSpaceOnUse" x="2" y="2" width="14" height="14">
<path d="M15.5933 7.77296H9.15675V10.3807H12.8617C12.5168 12.0375 11.0722 12.9885 9.15675 12.9885C8.62659 12.9956 8.10024 12.898 7.6079 12.7012C7.11555 12.5044 6.66691 12.2124 6.2877 11.8418C5.90849 11.4713 5.60618 11.0295 5.39812 10.5418C5.19006 10.0541 5.08034 9.53014 5.07525 8.99996C5.09247 8.23978 5.3217 7.49952 5.7371 6.86264C6.15249 6.22576 6.73754 5.71758 7.42628 5.39539C8.11503 5.0732 8.88008 4.94982 9.63519 5.03915C10.3903 5.12847 11.1054 5.42696 11.7 5.90096L13.7093 3.93746C12.4432 2.84733 10.8275 2.24844 9.15675 2.24996C8.25937 2.23717 7.36831 2.4019 6.5348 2.73465C5.70129 3.06741 4.94178 3.56164 4.29993 4.18892C3.65808 4.81621 3.14655 5.56417 2.79475 6.38982C2.44295 7.21547 2.25782 8.10252 2.25 8.99996C2.25782 9.8974 2.44295 10.7844 2.79475 11.6101C3.14655 12.4357 3.65808 13.1837 4.29993 13.811C4.94178 14.4383 5.70129 14.9325 6.5348 15.2653C7.36831 15.598 8.25937 15.7627 9.15675 15.75C10.042 15.7721 10.9224 15.6115 11.7427 15.2781C12.5631 14.9446 13.3059 14.4456 13.9247 13.8121C14.5435 13.1786 15.0249 12.4243 15.339 11.5963C15.6531 10.7683 15.793 9.88446 15.75 8.99996C15.7442 8.58635 15.6916 8.17473 15.5933 7.77296Z" fill="white"/>
</mask>
<g mask="url(#mask3_1652_144)">
<path d="M16.6919 16.3635L6.95911 8.99997L5.70361 8.07972L16.6919 5.01147V16.3635Z" fill="#4285F4"/>
</g>
</svg>
