<svg xmlns="http://www.w3.org/2000/svg" width="15" height="11" viewBox="0 0 15 11" fill="none">
  <path d="M0 9.18543C0 8.82173 0.0938662 8.49713 0.281599 8.21165C0.469331 7.92617 0.720053 7.70409 1.03376 7.54541C1.70447 7.21735 2.37889 6.9644 3.057 6.78655C3.73524 6.60881 4.48058 6.51994 5.29303 6.51994C6.1056 6.51994 6.85094 6.60881 7.52906 6.78655C8.2073 6.9644 8.88177 7.21735 9.55248 7.54541C9.86619 7.70409 10.1169 7.92617 10.3046 8.21165C10.4924 8.49713 10.5862 8.82173 10.5862 9.18543V9.68229C10.5862 9.96635 10.482 10.2161 10.2734 10.4315C10.0649 10.6468 9.81173 10.7545 9.51402 10.7545H1.07205C0.774455 10.7545 0.521381 10.6502 0.312829 10.4417C0.104276 10.233 0 9.97988 0 9.68229V9.18543ZM13.3279 10.7545H11.725C11.8137 10.5925 11.8813 10.4202 11.9279 10.2374C11.9745 10.0546 11.9978 9.86955 11.9978 9.68229V9.09862C11.9978 8.63541 11.8844 8.19389 11.6576 7.77408C11.4307 7.35439 11.1089 6.99427 10.6921 6.69374C11.1653 6.76431 11.6146 6.87353 12.0399 7.02139C12.4652 7.16936 12.871 7.34421 13.2574 7.54594C13.622 7.7405 13.9036 7.96981 14.1022 8.23389C14.3007 8.49784 14.4 8.78609 14.4 9.09862V9.68229C14.4 9.97988 14.2957 10.233 14.0872 10.4417C13.8786 10.6502 13.6255 10.7545 13.3279 10.7545ZM5.29303 5.37979C4.61374 5.37979 4.03225 5.13794 3.54857 4.65426C3.06489 4.17046 2.82305 3.58891 2.82305 2.90962C2.82305 2.23032 3.06489 1.64883 3.54857 1.16515C4.03225 0.681353 4.61374 0.439453 5.29303 0.439453C5.97233 0.439453 6.55388 0.681353 7.03767 1.16515C7.52136 1.64883 7.7632 2.23032 7.7632 2.90962C7.7632 3.58891 7.52136 4.17046 7.03767 4.65426C6.55388 5.13794 5.97233 5.37979 5.29303 5.37979ZM11.3869 2.90962C11.3869 3.58891 11.1451 4.17046 10.6614 4.65426C10.1777 5.13794 9.59624 5.37979 8.91694 5.37979C8.83731 5.37979 8.73597 5.37073 8.61293 5.35261C8.48978 5.3345 8.38844 5.31462 8.30893 5.29298C8.58723 4.95833 8.80114 4.5871 8.95064 4.17929C9.10003 3.77147 9.17472 3.34802 9.17472 2.90891C9.17472 2.46969 9.0985 2.04782 8.94605 1.64331C8.79361 1.2389 8.58123 0.866615 8.30893 0.526438C8.4102 0.490209 8.51154 0.466684 8.61293 0.455862C8.71421 0.444923 8.81555 0.439453 8.91694 0.439453C9.59624 0.439453 10.1777 0.681353 10.6614 1.16515C11.1451 1.64883 11.3869 2.23032 11.3869 2.90962ZM1.05847 9.69587H9.5276V9.18543C9.5276 9.03804 9.49073 8.90689 9.41697 8.79197C9.34334 8.67705 9.22642 8.57659 9.06621 8.49061C8.48537 8.19113 7.88729 7.96423 7.27199 7.8099C6.65668 7.65569 5.99703 7.57859 5.29303 7.57859C4.58915 7.57859 3.92956 7.65569 3.31425 7.8099C2.69895 7.96423 2.10087 8.19113 1.52003 8.49061C1.35983 8.57659 1.24285 8.67705 1.16909 8.79197C1.09534 8.90689 1.05847 9.03804 1.05847 9.18543V9.69587ZM5.29303 4.32114C5.6812 4.32114 6.0135 4.18293 6.28992 3.90651C6.56634 3.63008 6.70456 3.29779 6.70456 2.90962C6.70456 2.52145 6.56634 2.18915 6.28992 1.91273C6.0135 1.63631 5.6812 1.4981 5.29303 1.4981C4.90486 1.4981 4.57257 1.63631 4.29615 1.91273C4.01972 2.18915 3.88151 2.52145 3.88151 2.90962C3.88151 3.29779 4.01972 3.63008 4.29615 3.90651C4.57257 4.18293 4.90486 4.32114 5.29303 4.32114Z" fill="#7C8698"/>
</svg>