<svg xmlns="http://www.w3.org/2000/svg" width="20" height="21" viewBox="0 0 20 21" fill="none">
  <path d="M9.99984 2.51172C5.40817 2.51172 1.6665 6.25338 1.6665 10.8451C1.6665 15.4367 5.40817 19.1784 9.99984 19.1784C14.5915 19.1784 18.3332 15.4367 18.3332 10.8451C18.3332 6.25338 14.5915 2.51172 9.99984 2.51172ZM9.37484 7.51172C9.37484 7.17005 9.65817 6.88672 9.99984 6.88672C10.3415 6.88672 10.6248 7.17005 10.6248 7.51172V11.6784C10.6248 12.0201 10.3415 12.3034 9.99984 12.3034C9.65817 12.3034 9.37484 12.0201 9.37484 11.6784V7.51172ZM10.7665 14.495C10.7248 14.6034 10.6665 14.6867 10.5915 14.77C10.5082 14.845 10.4165 14.9034 10.3165 14.9451C10.2165 14.9867 10.1082 15.0117 9.99984 15.0117C9.8915 15.0117 9.78317 14.9867 9.68317 14.9451C9.58317 14.9034 9.4915 14.845 9.40817 14.77C9.33317 14.6867 9.27484 14.6034 9.23317 14.495C9.1915 14.395 9.1665 14.2867 9.1665 14.1784C9.1665 14.0701 9.1915 13.9617 9.23317 13.8617C9.27484 13.7617 9.33317 13.6701 9.40817 13.5867C9.4915 13.5117 9.58317 13.4534 9.68317 13.4117C9.88317 13.3284 10.1165 13.3284 10.3165 13.4117C10.4165 13.4534 10.5082 13.5117 10.5915 13.5867C10.6665 13.6701 10.7248 13.7617 10.7665 13.8617C10.8082 13.9617 10.8332 14.0701 10.8332 14.1784C10.8332 14.2867 10.8082 14.395 10.7665 14.495Z" fill="#7C8698"/>
</svg>