<svg width="30" height="30" viewBox="0 0 30 30" fill="none" xmlns="http://www.w3.org/2000/svg">
<path d="M23.1409 0.388672H7.74498C3.99367 0.388672 0.952637 3.42971 0.952637 7.18101V22.577C0.952637 26.3283 3.99367 29.3693 7.74498 29.3693H23.1409C26.8922 29.3693 29.9333 26.3283 29.9333 22.577V7.18101C29.9333 3.42971 26.8922 0.388672 23.1409 0.388672Z" fill="url(#paint0_radial_2228_32556)"/>
<path d="M23.1409 0.388672H7.74498C3.99367 0.388672 0.952637 3.42971 0.952637 7.18101V22.577C0.952637 26.3283 3.99367 29.3693 7.74498 29.3693H23.1409C26.8922 29.3693 29.9333 26.3283 29.9333 22.577V7.18101C29.9333 3.42971 26.8922 0.388672 23.1409 0.388672Z" fill="url(#paint1_radial_2228_32556)"/>
<path d="M15.4437 3.55469C12.3692 3.55469 11.9833 3.56816 10.7758 3.62306C9.57066 3.67831 8.74799 3.86906 8.02823 4.14902C7.28356 4.43814 6.65199 4.82497 6.02279 5.45439C5.39303 6.0837 5.00621 6.71528 4.71617 7.4596C4.43542 8.17959 4.24445 9.00259 4.19022 10.2072C4.13622 11.4148 4.12207 11.8008 4.12207 14.8754C4.12207 17.9499 4.13565 18.3346 4.19045 19.542C4.24592 20.7472 4.43667 21.5699 4.7164 22.2896C5.00575 23.0343 5.39258 23.6659 6.022 24.2951C6.65108 24.9249 7.28266 25.3126 8.02676 25.6017C8.74709 25.8817 9.56986 26.0724 10.7748 26.1277C11.9824 26.1826 12.368 26.196 15.4423 26.196C18.5171 26.196 18.9017 26.1826 20.1092 26.1277C21.3144 26.0724 22.138 25.8817 22.8583 25.6017C23.6026 25.3126 24.2333 24.9249 24.8622 24.2951C25.492 23.6659 25.8787 23.0343 26.1689 22.29C26.4471 21.5699 26.6382 20.747 26.6948 19.5423C26.749 18.3348 26.7632 17.9499 26.7632 14.8754C26.7632 11.8008 26.749 11.415 26.6948 10.2074C26.6382 9.00225 26.4471 8.1797 26.1689 7.45994C25.8787 6.71528 25.492 6.0837 24.8622 5.45439C24.2326 4.82474 23.6028 4.43792 22.8576 4.14913C22.1359 3.86906 21.3128 3.67819 20.1076 3.62306C18.9 3.56816 18.5156 3.55469 15.4401 3.55469H15.4437ZM14.4281 5.59477C14.7296 5.59431 15.0659 5.59477 15.4437 5.59477C18.4664 5.59477 18.8245 5.60563 20.0182 5.65986C21.1219 5.71035 21.721 5.89476 22.1201 6.04974C22.6484 6.25487 23.025 6.50018 23.421 6.89652C23.8172 7.29274 24.0625 7.67005 24.2681 8.19838C24.4231 8.59687 24.6078 9.19595 24.658 10.2997C24.7123 11.4931 24.724 11.8515 24.724 14.8728C24.724 17.894 24.7123 18.2525 24.658 19.4458C24.6075 20.5496 24.4231 21.1487 24.2681 21.5472C24.063 22.0756 23.8172 22.4518 23.421 22.8478C23.0248 23.244 22.6486 23.4892 22.1201 23.6944C21.7215 23.8501 21.1219 24.034 20.0182 24.0845C18.8248 24.1388 18.4664 24.1505 15.4437 24.1505C12.4208 24.1505 12.0625 24.1388 10.8692 24.0845C9.76548 24.0336 9.1664 23.8492 8.76701 23.6942C8.23879 23.489 7.86137 23.2437 7.46515 22.8475C7.06893 22.4513 6.82372 22.0749 6.61803 21.5463C6.46305 21.1477 6.27841 20.5487 6.22815 19.4449C6.17392 18.2515 6.16305 17.8931 6.16305 14.8699C6.16305 11.8469 6.17392 11.4903 6.22815 10.2969C6.27864 9.19312 6.46305 8.59404 6.61803 8.19499C6.82327 7.66666 7.06893 7.28934 7.46526 6.89312C7.86148 6.4969 8.23879 6.25159 8.76712 6.046C9.16617 5.89035 9.76548 5.70639 10.8692 5.65567C11.9136 5.60846 12.3183 5.59431 14.4281 5.59194V5.59477ZM21.4866 7.47443C20.7366 7.47443 20.1281 8.08235 20.1281 8.83245C20.1281 9.58243 20.7366 10.1909 21.4866 10.1909C22.2366 10.1909 22.845 9.58243 22.845 8.83245C22.845 8.08246 22.2366 7.47398 21.4866 7.47398V7.47443ZM15.4437 9.06169C12.2331 9.06169 9.63009 11.6647 9.63009 14.8754C9.63009 18.086 12.2331 20.6878 15.4437 20.6878C18.6543 20.6878 21.2564 18.086 21.2564 14.8754C21.2564 11.6649 18.6541 9.06169 15.4434 9.06169H15.4437ZM15.4437 11.1018C17.5277 11.1018 19.2172 12.7911 19.2172 14.8754C19.2172 16.9594 17.5277 18.649 15.4437 18.649C13.3595 18.649 11.6702 16.9594 11.6702 14.8754C11.6702 12.7911 13.3595 11.1018 15.4437 11.1018Z" fill="white"/>
<defs>
<radialGradient id="paint0_radial_2228_32556" cx="0" cy="0" r="1" gradientUnits="userSpaceOnUse" gradientTransform="translate(8.65062 31.6014) rotate(-90) scale(28.722 26.7137)">
<stop stop-color="#FFDD55"/>
<stop offset="0.1" stop-color="#FFDD55"/>
<stop offset="0.5" stop-color="#FF543E"/>
<stop offset="1" stop-color="#C837AB"/>
</radialGradient>
<radialGradient id="paint1_radial_2228_32556" cx="0" cy="0" r="1" gradientUnits="userSpaceOnUse" gradientTransform="translate(-3.90173 2.4763) rotate(78.681) scale(12.8389 52.9223)">
<stop stop-color="#3771C8"/>
<stop offset="0.128" stop-color="#3771C8"/>
<stop offset="1" stop-color="#6600FF" stop-opacity="0"/>
</radialGradient>
</defs>
</svg>
