<svg width="41" height="38" viewBox="0 0 41 38" fill="none" xmlns="http://www.w3.org/2000/svg">
<path d="M11.8067 9.0678L17.4943 1.60419C17.8719 1.09895 18.3203 0.727898 18.8394 0.491037C19.3586 0.254175 19.9067 0.135742 20.4838 0.135742C21.0609 0.135742 21.6091 0.254175 22.1282 0.491037C22.6474 0.727898 23.0958 1.09895 23.4733 1.60419L29.161 9.0678L37.8584 12.0047C38.6891 12.2717 39.337 12.7427 39.8022 13.4177C40.2674 14.0928 40.5 14.8384 40.5 15.6548C40.5 16.0315 40.4449 16.4071 40.3348 16.7816C40.2247 17.1561 40.0438 17.515 39.792 17.8582L34.1286 25.7183L34.339 34.0597C34.374 35.1674 34.009 36.101 33.2437 36.8605C32.4785 37.6201 31.5869 37.9998 30.5688 37.9998C30.5391 37.9998 30.1872 37.954 29.513 37.8623L20.4838 35.2732L11.4547 37.8623C11.2794 37.9324 11.0985 37.9728 10.9119 37.9836C10.7254 37.9944 10.5543 37.9998 10.3989 37.9998C9.37137 37.9998 8.47737 37.6201 7.71686 36.8605C6.95635 36.101 6.59363 35.1674 6.62869 34.0597L6.83904 25.6657L1.20796 17.8582C0.956228 17.5136 0.775304 17.1533 0.665182 16.7774C0.555061 16.4014 0.5 16.0255 0.5 15.6495C0.5 14.8562 0.731077 14.1184 1.19323 13.4362C1.65538 12.754 2.30079 12.2701 3.12946 11.9845L11.8067 9.0678ZM13.7565 11.7862L4.14075 14.9901C3.93849 15.0575 3.80027 15.1957 3.72608 15.4047C3.65193 15.6138 3.68228 15.8059 3.81711 15.9813L10.0145 24.7272L9.78393 34.1244C9.77047 34.3537 9.85139 34.5357 10.0267 34.6706C10.202 34.8055 10.3975 34.8392 10.6133 34.7717L20.4838 32.0007L30.3543 34.8243C30.5701 34.8917 30.7657 34.858 30.941 34.7232C31.1163 34.5883 31.1972 34.4063 31.1837 34.177L30.9531 24.7272L37.1505 16.0865C37.2854 15.9111 37.3157 15.7189 37.2416 15.5099C37.1674 15.3009 37.0292 15.1627 36.8269 15.0953L27.2112 11.7862L20.9895 3.57423C20.8681 3.39894 20.6996 3.31129 20.4838 3.31129C20.2681 3.31129 20.0995 3.39894 19.9781 3.57423L13.7565 11.7862Z" fill="white"/>
</svg>
