<svg xmlns="http://www.w3.org/2000/svg" width="23" height="22" viewBox="0 0 23 22" fill="none">
  <path d="M11.5 14.2441C12.3333 14.2441 13.0417 13.9525 13.625 13.3691C14.2083 12.7858 14.5 12.0775 14.5 11.2441C14.5 10.4108 14.2083 9.70247 13.625 9.11914C13.0417 8.53581 12.3333 8.24414 11.5 8.24414C10.6667 8.24414 9.95833 8.53581 9.375 9.11914C8.79167 9.70247 8.5 10.4108 8.5 11.2441C8.5 12.0775 8.79167 12.7858 9.375 13.3691C9.95833 13.9525 10.6667 14.2441 11.5 14.2441ZM11.5 15.7441C10.2513 15.7441 9.18917 15.3063 8.3135 14.4306C7.43783 13.555 7 12.4928 7 11.2441C7 9.99547 7.43783 8.93331 8.3135 8.05764C9.18917 7.18197 10.2513 6.74414 11.5 6.74414C12.7487 6.74414 13.8108 7.18197 14.6865 8.05764C15.5622 8.93331 16 9.99547 16 11.2441C16 12.4928 15.5622 13.555 14.6865 14.4306C13.8108 15.3063 12.7487 15.7441 11.5 15.7441ZM1.5 11.9941C1.2875 11.9941 1.10942 11.9222 0.96575 11.7784C0.821917 11.6346 0.75 11.4564 0.75 11.2439C0.75 11.0312 0.821917 10.8531 0.96575 10.7096C1.10942 10.566 1.2875 10.4941 1.5 10.4941H3.75C3.9625 10.4941 4.14067 10.5661 4.2845 10.7099C4.42817 10.8537 4.5 11.0319 4.5 11.2444C4.5 11.4571 4.42817 11.6351 4.2845 11.7786C4.14067 11.9223 3.9625 11.9941 3.75 11.9941H1.5ZM19.25 11.9941C19.0375 11.9941 18.8593 11.9222 18.7155 11.7784C18.5718 11.6346 18.5 11.4564 18.5 11.2439C18.5 11.0312 18.5718 10.8531 18.7155 10.7096C18.8593 10.566 19.0375 10.4941 19.25 10.4941H21.5C21.7125 10.4941 21.8906 10.5661 22.0343 10.7099C22.1781 10.8537 22.25 11.0319 22.25 11.2444C22.25 11.4571 22.1781 11.6351 22.0343 11.7786C21.8906 11.9223 21.7125 11.9941 21.5 11.9941H19.25ZM11.4998 4.24414C11.2871 4.24414 11.109 4.17231 10.9655 4.02864C10.8218 3.88481 10.75 3.70664 10.75 3.49414V1.24414C10.75 1.03164 10.8219 0.853557 10.9658 0.709891C11.1096 0.566057 11.2878 0.494141 11.5003 0.494141C11.7129 0.494141 11.891 0.566057 12.0345 0.709891C12.1782 0.853557 12.25 1.03164 12.25 1.24414V3.49414C12.25 3.70664 12.1781 3.88481 12.0343 4.02864C11.8904 4.17231 11.7122 4.24414 11.4998 4.24414ZM11.4998 21.9941C11.2871 21.9941 11.109 21.9222 10.9655 21.7784C10.8218 21.6347 10.75 21.4566 10.75 21.2441V18.9941C10.75 18.7816 10.8219 18.6035 10.9658 18.4596C11.1096 18.316 11.2878 18.2441 11.5003 18.2441C11.7129 18.2441 11.891 18.316 12.0345 18.4596C12.1782 18.6035 12.25 18.7816 12.25 18.9941V21.2441C12.25 21.4566 12.1781 21.6347 12.0343 21.7784C11.8904 21.9222 11.7122 21.9941 11.4998 21.9941ZM5.50575 6.28464L4.248 5.06139C4.09933 4.92289 4.02758 4.74889 4.03275 4.53939C4.03792 4.32972 4.11067 4.14731 4.251 3.99214C4.40417 3.83714 4.584 3.75964 4.7905 3.75964C4.99683 3.75964 5.17242 3.83714 5.31725 3.99214L6.55 5.24039C6.69483 5.39539 6.76725 5.57097 6.76725 5.76714C6.76725 5.96331 6.69642 6.13897 6.55475 6.29414C6.41308 6.44931 6.24167 6.52272 6.0405 6.51439C5.83917 6.50606 5.66092 6.42947 5.50575 6.28464ZM17.6828 18.4961L16.45 17.2479C16.3052 17.0929 16.2327 16.9147 16.2327 16.7134C16.2327 16.5121 16.3052 16.339 16.45 16.1941C16.5853 16.039 16.7544 15.9656 16.9573 15.9739C17.1601 15.9822 17.3391 16.0588 17.4943 16.2036L18.752 17.4269C18.9007 17.5654 18.9724 17.7394 18.9673 17.9489C18.9621 18.1586 18.8893 18.341 18.749 18.4961C18.5958 18.6511 18.416 18.7286 18.2095 18.7286C18.0032 18.7286 17.8276 18.6511 17.6828 18.4961ZM16.45 6.29889C16.2948 6.15722 16.2214 5.98581 16.2298 5.78464C16.2381 5.58331 16.3147 5.40506 16.4595 5.24989L17.6828 3.99214C17.8213 3.84347 17.9953 3.77172 18.2048 3.77689C18.4144 3.78206 18.5968 3.85481 18.752 3.99514C18.907 4.14831 18.9845 4.32814 18.9845 4.53464C18.9845 4.74097 18.907 4.91656 18.752 5.06139L17.5038 6.29414C17.3488 6.43897 17.1732 6.51139 16.977 6.51139C16.7808 6.51139 16.6052 6.44056 16.45 6.29889ZM4.248 18.4981C4.093 18.3416 4.0155 18.1601 4.0155 17.9536C4.0155 17.7473 4.093 17.5717 4.248 17.4269L5.49625 16.1941C5.65125 16.0493 5.82942 15.9769 6.03075 15.9769C6.23208 15.9769 6.40517 16.0493 6.55 16.1941C6.69867 16.3295 6.76883 16.4986 6.7605 16.7014C6.75217 16.9042 6.67883 17.0832 6.5405 17.2384L5.31725 18.4961C5.17242 18.6511 4.99683 18.7261 4.7905 18.7211C4.584 18.716 4.40317 18.6416 4.248 18.4981Z" fill="#021637"/>
</svg>