<svg xmlns="http://www.w3.org/2000/svg" width="13" height="22" viewBox="0 0 13 22" fill="none">
<path d="M6.25 21.1917C4.41341 21.1917 2.91259 20.9144 1.74755 20.3597C0.582518 19.8052 0 19.0861 0 18.2026C0 17.6731 0.222645 17.2024 0.667934 16.7907C1.11304 16.3789 1.7279 16.0406 2.5125 15.7757L2.98071 17.329C2.63795 17.4543 2.35018 17.5954 2.11739 17.7521C1.88478 17.909 1.73361 18.0591 1.66386 18.2026C1.84357 18.5901 2.37835 18.9134 3.26821 19.1725C4.15788 19.4317 5.15181 19.5613 6.25 19.5613C7.34112 19.5613 8.33614 19.4317 9.23505 19.1725C10.1338 18.9134 10.6731 18.5901 10.853 18.2026C10.7832 18.0591 10.632 17.9108 10.3992 17.7575C10.1666 17.6041 9.8788 17.4612 9.53587 17.329L10.0147 15.7757C10.7993 16.0406 11.4096 16.3789 11.8457 16.7907C12.2819 17.2024 12.5 17.6731 12.5 18.2026C12.5 19.0861 11.9175 19.8052 10.7524 20.3597C9.58741 20.9144 8.08659 21.1917 6.25 21.1917ZM6.25 14.7725C6.57609 14.1538 6.94121 13.5535 7.34538 12.9716C7.74955 12.3899 8.15507 11.8342 8.56196 11.3045C9.2462 10.4141 9.79275 9.60796 10.2016 8.88604C10.6107 8.1643 10.8152 7.2662 10.8152 6.19175C10.8152 4.92635 10.3707 3.84917 9.48152 2.96022C8.59257 2.07109 7.5154 1.62653 6.25 1.62653C4.9846 1.62653 3.90743 2.07109 3.01848 2.96022C2.12935 3.84917 1.68478 4.92635 1.68478 6.19175C1.68478 7.2662 1.89103 8.1643 2.30353 8.88604C2.71603 9.60796 3.26087 10.4141 3.93804 11.3045C4.34493 11.8342 4.75045 12.3899 5.15462 12.9716C5.55879 13.5535 5.92391 14.1538 6.25 14.7725ZM6.25 17.5964C6.07156 17.5964 5.90779 17.5375 5.7587 17.4197C5.6096 17.302 5.49882 17.1504 5.42636 16.9651C4.98179 15.7486 4.45299 14.7282 3.83995 13.904C3.22672 13.0797 2.63514 12.2898 2.06522 11.5344C1.51341 10.7792 1.04031 9.99673 0.645924 9.18713C0.25154 8.37752 0.0543478 7.37907 0.0543478 6.19175C0.0543478 4.45678 0.653261 2.99048 1.85109 1.79283C3.04873 0.595007 4.51504 -0.00390625 6.25 -0.00390625C7.98496 -0.00390625 9.45127 0.595007 10.6489 1.79283C11.8467 2.99048 12.4457 4.45678 12.4457 6.19175C12.4457 7.37907 12.253 8.37752 11.8677 9.18713C11.4823 9.99673 11.0047 10.7792 10.4348 11.5344C9.88297 12.2898 9.29592 13.0797 8.67364 13.904C8.05154 14.7282 7.51821 15.7486 7.07364 16.9651C7.00118 17.1504 6.8904 17.302 6.7413 17.4197C6.59221 17.5375 6.42844 17.5964 6.25 17.5964ZM6.25 8.17762C6.80036 8.17762 7.26893 7.98423 7.65571 7.59745C8.04248 7.21068 8.23587 6.74211 8.23587 6.19175C8.23587 5.64138 8.04248 5.17282 7.65571 4.78604C7.26893 4.39926 6.80036 4.20588 6.25 4.20588C5.69964 4.20588 5.23107 4.39926 4.84429 4.78604C4.45752 5.17282 4.26413 5.64138 4.26413 6.19175C4.26413 6.74211 4.45752 7.21068 4.84429 7.59745C5.23107 7.98423 5.69964 8.17762 6.25 8.17762Z" fill="#7C8698"/>
</svg>