<svg width="142" height="24" viewBox="0 0 142 24" fill="none" xmlns="http://www.w3.org/2000/svg">
<g clipPath="url(#clip0_2489_8497)">
<path d="M8.94309 0.121885C5.51811 0.470779 2.65717 2.44785 1.12785 5.51812C-0.19213 8.17553 -0.25028 11.2284 0.970851 13.8392C1.42441 14.8103 1.98264 15.5779 3.15726 16.8107C6.54735 20.3868 9.78043 23.7537 9.82695 23.7537C9.8851 23.7537 16.4676 16.8688 17.1363 16.1071C17.6654 15.5081 18.2295 14.6708 18.5319 14.0428C18.7296 13.6299 18.7528 13.5252 18.7528 13.1415C18.7528 12.7984 18.7238 12.6472 18.6191 12.4437C18.3516 11.932 17.8864 11.5772 17.27 11.4202C16.2931 11.1702 15.4034 11.6354 14.758 12.7286C14.38 13.3682 14.1765 13.6241 13.7346 14.0311C13.0193 14.6882 12.1587 15.1476 11.2109 15.386C10.6294 15.5256 9.32106 15.5605 8.70468 15.4442C7.57658 15.229 6.62875 14.758 5.86119 14.0253C5.07617 13.2752 4.57028 12.3972 4.25627 11.2284C4.12834 10.7341 4.10508 10.5596 4.10508 9.71066C4.10508 8.8268 4.12253 8.7105 4.2679 8.22786C4.58191 7.187 5.0878 6.36709 5.84956 5.64023C6.60549 4.91918 7.44866 4.44236 8.43137 4.18069C8.84423 4.06439 9.07101 4.04695 9.82695 4.04695C10.7573 4.04695 11.0539 4.09347 11.7924 4.36677C13.0368 4.82033 14.3509 5.90772 14.8976 6.93695C15.1185 7.344 15.4325 7.64056 15.8686 7.84408C16.1419 7.97201 16.2757 7.99527 16.6885 7.99527C17.334 7.99527 17.7817 7.80338 18.2004 7.344C18.7819 6.71017 18.8168 5.86701 18.2993 4.94244C17.2003 2.97119 15.5081 1.4942 13.4903 0.738266C12.182 0.249813 10.2398 -0.011858 8.94309 0.121885Z" fill="#236F8E"/>
<path d="M106.482 0.645468C105.331 0.779209 104.476 1.26766 104.116 2.00034C103.784 2.67487 103.796 2.22131 103.796 13.3685V23.626L104.453 23.5911C105.913 23.5097 106.744 23.1026 107.128 22.2827C107.25 22.0211 107.256 21.9106 107.285 19.8812L107.314 17.7471L108.273 16.8923C108.803 16.4213 109.314 15.9561 109.419 15.8631L109.605 15.6828L111.995 19.2822C113.623 21.7361 114.478 22.9689 114.676 23.155C115.065 23.5271 115.432 23.6318 116.147 23.5969C116.577 23.5736 116.74 23.5388 117.013 23.3992C117.362 23.2306 117.897 22.7189 117.851 22.5967C117.833 22.5618 116.449 20.579 114.763 18.189C113.082 15.7991 111.698 13.822 111.693 13.793C111.681 13.7639 112.524 12.9673 113.565 12.0136C116.031 9.76324 116.182 9.58298 116.182 8.94334C116.182 8.50722 116.001 8.19322 115.426 7.59428C114.955 7.11164 114.914 7.08257 114.804 7.15816C114.74 7.20468 113.059 8.72819 111.07 10.5541C109.082 12.3799 107.424 13.8744 107.395 13.886C107.366 13.8976 107.343 11.2693 107.343 7.24539V0.581503L107.128 0.587318C107.006 0.593134 106.715 0.616392 106.482 0.645468Z" fill="#236F8E"/>
<path d="M32.7671 0.901426C30.3249 1.29684 28.0919 2.4889 26.3591 4.32059C24.1669 6.64655 23.0795 9.71101 23.2656 13.0662C23.5505 18.2531 27.3127 22.6666 32.3078 23.6726C33.1916 23.847 35.0873 23.8936 36.1049 23.7598C37.8842 23.5272 39.21 23.0562 40.4486 22.2247C41.5476 21.4804 41.8384 21.1082 41.7977 20.5151C41.7686 20.1371 41.6523 19.9394 41.3441 19.7301C40.9022 19.4277 40.5475 19.4801 39.8904 19.9511C38.1285 21.2187 36.4829 21.7653 34.4535 21.7653C33.023 21.7653 31.9705 21.5385 30.761 20.957C29.7201 20.457 29.034 19.9685 28.1966 19.137C25.923 16.8633 24.9868 13.857 25.5334 10.6065C25.8765 8.54221 27.1092 6.3907 28.72 5.04164C30.8598 3.24483 33.1684 2.58775 35.9944 2.97153C37.3202 3.15761 38.5064 3.65188 39.588 4.47178C39.8206 4.65204 40.1114 4.85556 40.2277 4.92534C40.6056 5.15794 41.1871 5.0649 41.3499 4.75089C41.3906 4.68112 41.4662 4.58808 41.5302 4.54737C41.693 4.43107 41.8093 4.15777 41.8093 3.88447C41.8093 3.65769 41.7802 3.61117 41.472 3.31461C40.3498 2.25048 38.3436 1.28521 36.5759 0.959576C35.8141 0.820017 33.5056 0.785128 32.7671 0.901426Z" fill="#236F8E"/>
<path d="M63.6728 0.936214C62.9982 1.03507 62.3179 1.38396 61.9865 1.80264C61.6259 2.2562 61.3875 2.97725 61.3294 3.82041L61.3003 4.18675H65.1905H69.0806V13.9093V23.626L69.6796 23.5911C71.2903 23.4922 72.337 22.841 72.7615 21.6722C72.8138 21.5326 72.8371 19.2241 72.8603 12.851L72.8894 4.21582L75.6806 4.18675C78.6636 4.15186 78.6345 4.15186 79.2625 3.83785C80.1115 3.40755 80.6523 2.40738 80.6523 1.25603V0.87225L72.3254 0.878065C67.7432 0.883881 63.8472 0.907141 63.6728 0.936214Z" fill="#236F8E"/>
<path d="M44.5654 1.74432C43.6815 2.01762 43.2396 3.0236 43.635 3.86676C44.1176 4.90181 45.4958 5.08208 46.2284 4.20402C46.589 3.76209 46.6704 3.0236 46.4087 2.5177C46.2808 2.26185 45.9842 1.97692 45.6877 1.82573C45.4725 1.70943 44.8271 1.66291 44.5654 1.74432Z" fill="#236F8E"/>
<path d="M58.7832 1.7792C58.4169 1.88969 58.0098 2.26184 57.8761 2.60492C57.4749 3.65742 58.225 4.76807 59.3356 4.76807C59.888 4.76807 60.5219 4.33776 60.737 3.81442C60.8824 3.47134 60.8649 2.85496 60.7079 2.52933C60.3823 1.8548 59.5682 1.53498 58.7832 1.7792Z" fill="#236F8E"/>
<path d="M50.5603 2.87852C50.2695 2.98318 49.9788 3.29137 49.8974 3.58793C49.8567 3.72749 49.8334 4.66369 49.8334 6.11742V8.43175H48.7518C47.5482 8.43175 47.3795 8.47246 47.1411 8.80391C47.0423 8.94928 47.0132 9.06558 47.0132 9.37377C47.0132 9.72266 47.0306 9.78081 47.1876 9.94944C47.4842 10.2634 47.6296 10.2925 48.7809 10.2925H49.8276L49.8509 14.6072C49.8741 19.3521 49.8683 19.2533 50.2463 20.236C50.8685 21.8642 52.328 23.126 53.962 23.4517C54.6075 23.5854 55.5611 23.6319 55.9681 23.5563C56.5613 23.4458 56.9276 23.0388 56.9276 22.4922C56.9276 22.1433 56.8462 21.9398 56.6194 21.7014C56.381 21.4513 56.16 21.399 55.375 21.399C55.0145 21.399 54.5842 21.3699 54.4156 21.335C53.4096 21.1257 52.5664 20.3232 52.1768 19.2068C52.0896 18.9567 52.0722 18.4683 52.0605 14.613L52.0373 10.2983L53.869 10.2809C55.6192 10.2634 55.7065 10.2576 55.8635 10.1413C56.4391 9.71685 56.4333 8.91439 55.8518 8.57712L55.6076 8.43175H53.8283H52.0431V6.11742C52.0431 4.61136 52.0198 3.72749 51.9791 3.57631C51.8628 3.15763 51.3511 2.78548 50.9092 2.79129C50.8452 2.79711 50.6882 2.832 50.5603 2.87852Z" fill="#236F8E"/>
<path d="M81.3913 7.09431C80.6528 7.16409 80.0306 7.30365 79.234 7.57113C77.9838 7.9898 77.2743 8.43174 76.7568 9.1179C76.0881 10.0134 76.0532 10.8275 76.6696 11.502C77.0069 11.88 77.7453 12.2928 77.7453 12.1068C77.7453 12.0719 77.8965 11.8509 78.0884 11.6183C79.1002 10.339 80.9087 9.67613 82.8508 9.87383C83.9499 9.98432 84.6651 10.2925 85.2117 10.874C85.735 11.4322 85.9444 12.1068 85.9444 13.229V13.8105L86.4154 14.2118L86.8864 14.613L86.7701 14.7293L86.648 14.8456L86.2467 14.4734C85.0256 13.3511 83.2346 12.7697 81.2924 12.8743C78.8909 13.0081 77.158 13.8977 76.0707 15.555C75.5008 16.4272 75.2624 17.3983 75.3205 18.602C75.4485 21.2013 77.2569 23.0504 80.1236 23.5272C80.8389 23.6435 82.467 23.6145 83.0951 23.4691C84.2871 23.2016 85.2582 22.655 86.206 21.7421C86.6189 21.3408 86.6829 21.3001 86.7759 21.3699C86.8689 21.4397 86.8631 21.4629 86.648 21.7304C86.5259 21.8932 86.3514 22.0735 86.27 22.1433C86.1246 22.2538 86.1188 22.277 86.1188 22.9341V23.6086H86.491C87.0085 23.6086 87.8342 23.4516 88.1947 23.2888C88.8227 23.0039 89.2356 22.4515 89.3693 21.7246C89.4566 21.2652 89.4566 12.665 89.3752 11.9788C89.0553 9.36794 87.3516 7.69324 84.5197 7.21061C83.7231 7.07686 82.1821 7.01871 81.3913 7.09431ZM83.0078 15.5317C84.4267 15.7062 85.4675 16.3691 85.8339 17.3227C86.1828 18.2473 85.9327 19.3812 85.2466 20.0267C84.2813 20.9338 82.1182 21.2652 80.5539 20.7535C79.4607 20.3988 78.8734 19.6196 78.8095 18.4625C78.7455 17.3402 79.0944 16.6366 80.019 16.0318C80.7342 15.5608 81.7983 15.3864 83.0078 15.5317Z" fill="#236F8E"/>
<path d="M94.9751 7.09433C92.2305 7.38508 90.2651 8.73995 89.8696 10.6182C89.6836 11.5078 89.7999 12.6301 90.1662 13.3686C90.4337 13.9094 91.0908 14.5897 91.6723 14.9328C92.5271 15.4387 93.9866 15.933 96.0625 16.4273C97.6907 16.8169 98.97 17.3111 99.4642 17.7414C99.912 18.1368 100.104 18.7997 99.9353 19.3754C99.8131 19.7999 99.4933 20.1314 98.9525 20.3872C98.2664 20.707 97.7721 20.7884 96.4405 20.7884C95.4054 20.7884 95.2252 20.7768 94.8239 20.6547C93.4749 20.2651 92.5794 19.3812 92.1956 18.0612L92.0968 17.724L91.8002 17.7647C90.393 17.9333 89.7999 18.416 89.7359 19.4219C89.6487 20.8815 90.614 22.1491 92.4049 22.9225C93.5737 23.4226 94.5158 23.5796 96.4114 23.5796C98.3594 23.5796 99.4294 23.3935 100.575 22.8585C101.982 22.1956 102.866 21.2594 103.192 20.0616C103.331 19.544 103.337 18.3345 103.197 17.7647C102.68 15.6829 100.831 14.4909 96.7022 13.578C95.609 13.3337 94.5623 13.0314 94.0738 12.8104C93.4691 12.5429 93.1551 12.0719 93.1551 11.4555C93.1609 10.2809 94.853 9.53078 96.9813 9.76919C98.4583 9.932 99.3538 10.467 99.8422 11.4788C99.9643 11.7404 100.086 12.0486 100.11 12.1707C100.127 12.2929 100.185 12.4092 100.232 12.4266C100.371 12.4789 101.278 12.3336 101.627 12.1998C102.441 11.8974 102.814 11.188 102.633 10.2809C102.535 9.75174 102.319 9.3447 101.924 8.92021C101.104 8.04216 99.7608 7.43741 98.0687 7.18155C97.3592 7.07689 95.6264 7.02455 94.9751 7.09433Z" fill="#236F8E"/>
<path d="M122.857 7.09431C121.026 7.30364 119.142 8.28055 118.089 9.57146C117.49 10.3099 117.095 11.0717 116.868 11.9498C116.758 12.3801 116.746 12.6185 116.723 15.0549C116.705 16.7645 116.717 17.8926 116.758 18.2415C116.996 20.2476 118.188 21.8584 120.165 22.8411C121.159 23.3353 122.078 23.5447 123.421 23.5912C125.119 23.6493 126.399 23.4167 127.614 22.8294C128.486 22.4108 129.01 22.0561 129.475 21.556C130.004 21.0036 130.219 20.5384 130.242 19.9104C130.26 19.5266 130.242 19.387 130.138 19.1428C129.986 18.7939 129.55 18.3578 129.184 18.195C128.882 18.0612 128.283 17.9682 127.713 17.9682H127.288V18.1833C127.283 18.6776 127.056 19.2707 126.695 19.7301C126.439 20.0499 125.904 20.3814 125.346 20.5674C124.916 20.707 124.794 20.7244 123.916 20.7244C123.166 20.7303 122.875 20.707 122.584 20.6256C121.985 20.4628 121.479 20.1837 121.09 19.7999C120.485 19.2009 120.27 18.5787 120.212 17.2878L120.177 16.4563H124.765C127.881 16.4563 129.428 16.433 129.579 16.3923C129.853 16.3167 130.411 15.8167 130.521 15.5434C130.585 15.398 130.603 14.9909 130.603 13.857C130.603 12.1823 130.539 11.7113 130.202 10.8449C129.643 9.39119 128.213 8.10028 126.486 7.47809C125.526 7.13501 123.956 6.96638 122.857 7.09431ZM124.945 9.9785C125.829 10.2053 126.637 10.7868 126.986 11.4439C127.242 11.9265 127.347 12.4208 127.347 13.1825V13.8396H123.759H120.177L120.212 13.1244C120.235 12.7348 120.276 12.2986 120.31 12.1591C120.537 11.2113 121.369 10.3855 122.445 10.0366C123.107 9.8215 124.23 9.79242 124.945 9.9785Z" fill="#236F8E"/>
<path d="M133.807 7.10001C133.231 7.17561 132.69 7.36168 132.301 7.61754C131.928 7.86758 131.742 8.07692 131.539 8.48396C131.242 9.05964 131.242 8.99567 131.242 16.5667V23.626L131.87 23.5911C132.987 23.5388 133.888 23.2422 134.266 22.8119C134.371 22.6956 134.528 22.4514 134.609 22.2711L134.76 21.9513L134.789 17.5029L134.818 13.0545L134.975 12.6184C135.627 10.8448 137.482 9.86209 139.72 10.1121C140.249 10.1703 140.936 10.3564 141.372 10.5483C141.447 10.5831 141.494 10.525 141.599 10.2517C141.709 9.97839 141.732 9.80395 141.738 9.30386C141.738 8.76308 141.721 8.65841 141.581 8.36185C141.366 7.90247 141.168 7.65243 140.848 7.44891C139.912 6.8616 138.139 6.92557 136.795 7.60591C135.912 8.04784 135.092 8.75726 134.411 9.6702C134.091 10.1005 134.068 10.118 133.969 10.0249C133.847 9.91443 133.836 9.93769 134.347 9.2806L134.615 8.93752V7.98388V7.03605L134.4 7.04187C134.278 7.04768 134.01 7.07094 133.807 7.10001Z" fill="#236F8E"/>
<path d="M10.3386 8.97249L8.55341 10.7867L7.72188 9.95521C7.2625 9.50165 6.86127 9.12949 6.82057 9.12949C6.7159 9.12949 6.22745 9.81565 6.16348 10.0657C6.02974 10.5658 6.06463 10.6239 7.36717 11.9148L8.55923 13.1011L10.9724 10.6937L13.3798 8.28633L12.7867 7.71647C12.461 7.40828 12.1761 7.15243 12.1587 7.15824C12.1412 7.15824 11.3213 7.97814 10.3386 8.97249Z" fill="#236F8E"/>
<path d="M44.4547 7.98412C44.3268 8.05971 44.1698 8.21672 44.0942 8.34464L43.9604 8.57724V15.6831C43.9604 20.5618 43.9779 22.8412 44.0244 22.9517C44.1698 23.3413 44.5478 23.5623 45.0653 23.5623C45.4316 23.5623 45.7398 23.4053 45.9259 23.1261L46.0829 22.8877L46.1003 15.9098C46.112 12.0662 46.1003 8.81565 46.0829 8.67609C46.0422 8.40279 45.798 8.07716 45.5247 7.93179C45.2688 7.80386 44.728 7.82712 44.4547 7.98412Z" fill="#236F8E"/>
<path d="M58.8176 7.93179C58.5792 8.03646 58.3408 8.3272 58.2652 8.59469C58.1837 8.89125 58.1837 22.5098 58.2652 22.8063C58.3989 23.2831 58.7885 23.5623 59.3118 23.5623C59.6666 23.5623 59.905 23.4692 60.1027 23.2483C60.3992 22.9226 60.3876 23.3064 60.405 15.9622C60.4167 12.1883 60.405 8.96684 60.3876 8.79821C60.3469 8.47257 60.1899 8.19346 59.934 8.00157C59.7305 7.85038 59.0792 7.80968 58.8176 7.93179Z" fill="#236F8E"/>
</g>
<defs>
<clipPath id="clip0_2489_8497">
<rect width="142" height="23.8993" fill="white"/>
</clipPath>
</defs>
</svg>
