<svg xmlns="http://www.w3.org/2000/svg" width="22" height="22" viewBox="0 0 22 22" fill="none">
  <mask id="mask0_2228_12064" style="mask-type:alpha" maskUnits="userSpaceOnUse" x="0" y="0" width="22" height="22">
    <rect x="0.25" y="0.494141" width="21.5" height="21.5" fill="#D9D9D9"/>
  </mask>
  <g mask="url(#mask0_2228_12064)">
    <path d="M11.9854 20.6509H9.65625L9.97539 20.4412C10.188 20.3016 10.4193 20.1452 10.6692 19.972C10.9192 19.7989 11.1504 19.6425 11.363 19.5029L11.6822 19.2932H12.3023C13.552 19.2381 14.7069 18.8867 15.767 18.2391C16.827 17.5912 17.6643 16.7155 18.2786 15.6118C16.9946 15.4921 15.7778 15.1664 14.6281 14.6349C13.4785 14.1034 12.4483 13.381 11.5375 12.4679C10.6324 11.5571 9.9097 10.5269 9.36936 9.37725C8.82902 8.2276 8.5066 7.01359 8.40208 5.73524C7.25243 6.37725 6.35286 7.26189 5.70339 8.38915C5.05391 9.5164 4.72917 10.737 4.72917 12.0509C4.72917 12.1554 4.7335 12.2734 4.74216 12.4049C4.75067 12.5365 4.76358 12.6516 4.7809 12.7503L4.58113 12.8347C4.4478 12.891 4.29872 12.951 4.13389 13.0148C3.9692 13.0785 3.82019 13.14 3.68686 13.1991L3.48709 13.2878C3.45156 13.0891 3.42573 12.8844 3.4096 12.6737C3.39348 12.4629 3.38542 12.2553 3.38542 12.0509C3.38542 10.3649 3.87238 8.7757 4.8463 7.28324C5.82022 5.79078 7.11343 4.75856 8.72593 4.18657C8.87299 4.13595 9.00797 4.11983 9.13084 4.13819C9.25372 4.15671 9.36914 4.20501 9.47708 4.28309C9.58503 4.36118 9.66655 4.45644 9.72165 4.56886C9.77674 4.68144 9.80257 4.81126 9.79914 4.95833C9.79003 6.20443 10.016 7.39201 10.4771 8.52106C10.9383 9.64996 11.611 10.6567 12.4954 11.5411C13.3946 12.4403 14.3967 13.1106 15.5016 13.5523C16.6064 13.9939 17.7819 14.2148 19.028 14.2148C19.1751 14.2113 19.3109 14.2432 19.4354 14.3104C19.5601 14.3776 19.654 14.4651 19.7171 14.5731C19.7803 14.681 19.8225 14.7979 19.8437 14.9236C19.865 15.0493 19.8429 15.1857 19.7774 15.3328C19.1067 16.9693 18.0911 18.2648 16.7306 19.2193C15.3703 20.1737 13.7886 20.6509 11.9854 20.6509ZM5.625 19.3071H9.65625C10.0295 19.3071 10.3468 19.1765 10.6081 18.9152C10.8694 18.6539 11 18.3366 11 17.9634C11 17.5901 10.8731 17.2728 10.6193 17.0115C10.3655 16.7503 10.0594 16.6196 9.70104 16.6196H8.53646L8.08854 15.5446C7.87951 15.0519 7.55104 14.66 7.10313 14.3688C6.65521 14.0777 6.1625 13.9321 5.625 13.9321C4.87847 13.9321 4.24392 14.1897 3.72135 14.7048C3.19878 15.2199 2.9375 15.8582 2.9375 16.6196C2.9375 17.3661 3.19878 18.0007 3.72135 18.5233C4.24392 19.0458 4.87847 19.3071 5.625 19.3071ZM5.625 20.6509C4.5064 20.6394 3.55488 20.2428 2.77043 19.4612C1.98598 18.6797 1.59375 17.7317 1.59375 16.6172C1.59375 15.5024 1.98598 14.5523 2.77043 13.7668C3.55488 12.9812 4.5067 12.5884 5.6259 12.5884C6.43498 12.5884 7.1721 12.8077 7.83726 13.2464C8.50227 13.6849 8.99602 14.2752 9.31852 15.0174L9.4305 15.2759H9.70619C10.4366 15.2942 11.0588 15.5637 11.5729 16.0841C12.0868 16.6046 12.3438 17.231 12.3438 17.9634C12.3438 18.7087 12.0822 19.3429 11.559 19.8661C11.0358 20.3893 10.4016 20.6509 9.65625 20.6509H5.625Z" fill="#021637"/>
  </g>
</svg>