<svg width="7" height="6" viewBox="0 0 7 6" fill="none" xmlns="http://www.w3.org/2000/svg">
<path d="M0.953973 2.87261L2.21628 4.15558C2.27275 4.21304 2.30061 4.28025 2.29985 4.35721C2.29915 4.43417 2.26933 4.50261 2.2104 4.56251C2.15146 4.61843 2.08473 4.64739 2.01022 4.64938C1.93577 4.65131 1.86908 4.62236 1.81014 4.56251L0.103032 2.82734C0.034344 2.75752 0 2.67609 0 2.58304C0 2.48999 0.034344 2.40856 0.103032 2.33874L1.81014 0.603567C1.86274 0.550158 1.92786 0.522811 2.00547 0.521524C2.08315 0.520301 2.15146 0.547649 2.2104 0.603567C2.26933 0.663475 2.2988 0.732296 2.2988 0.810028C2.2988 0.887696 2.26933 0.956484 2.2104 1.01639L0.953973 2.29347H4.51575C5.01442 2.29347 5.43978 2.47243 5.79183 2.83033C6.14394 3.18817 6.32 3.62052 6.32 4.12739V5.18913C6.32 5.27131 6.29271 5.3401 6.23814 5.3955C6.18364 5.45097 6.11596 5.4787 6.03512 5.4787C5.95428 5.4787 5.8866 5.45097 5.83209 5.3955C5.77752 5.3401 5.75024 5.27131 5.75024 5.18913V4.12739C5.75024 3.78088 5.6297 3.48514 5.38863 3.24016C5.14762 2.99513 4.85666 2.87261 4.51575 2.87261H0.953973Z" fill="#236F8E"/>
</svg>
