<svg width="20" height="20" viewBox="0 0 20 20" fill="none" xmlns="http://www.w3.org/2000/svg">
<path d="M10 12.5C11.3807 12.5 12.5 11.3807 12.5 10C12.5 8.61929 11.3807 7.5 10 7.5C8.61929 7.5 7.5 8.61929 7.5 10C7.5 11.3807 8.61929 12.5 10 12.5Z" stroke="#161A32" strokeWidth="1.5" strokeMiterlimit="10" strokeLinecap="round" strokeLinejoin="round"/>
<path d="M1.66663 10.7338V9.26718C1.66663 8.40052 2.37496 7.68385 3.24996 7.68385C4.75829 7.68385 5.37496 6.61718 4.61663 5.30885C4.18329 4.55885 4.44163 3.58385 5.19996 3.15052L6.64163 2.32552C7.29996 1.93385 8.14996 2.16718 8.54163 2.82552L8.63329 2.98385C9.38329 4.29218 10.6166 4.29218 11.375 2.98385L11.4666 2.82552C11.8583 2.16718 12.7083 1.93385 13.3666 2.32552L14.8083 3.15052C15.5666 3.58385 15.825 4.55885 15.3916 5.30885C14.6333 6.61718 15.25 7.68385 16.7583 7.68385C17.625 7.68385 18.3416 8.39218 18.3416 9.26718V10.7338C18.3416 11.6005 17.6333 12.3172 16.7583 12.3172C15.25 12.3172 14.6333 13.3838 15.3916 14.6922C15.825 15.4505 15.5666 16.4172 14.8083 16.8505L13.3666 17.6755C12.7083 18.0672 11.8583 17.8339 11.4666 17.1755L11.375 17.0172C10.625 15.7089 9.39163 15.7089 8.63329 17.0172L8.54163 17.1755C8.14996 17.8339 7.29996 18.0672 6.64163 17.6755L5.19996 16.8505C4.44163 16.4172 4.18329 15.4422 4.61663 14.6922C5.37496 13.3838 4.75829 12.3172 3.24996 12.3172C2.37496 12.3172 1.66663 11.6005 1.66663 10.7338Z" stroke="#161A32" strokeWidth="1.5" strokeMiterlimit="10" strokeLinecap="round" strokeLinejoin="round"/>
</svg>
