<svg width="13" height="15" viewBox="0 0 13 15" fill="none" xmlns="http://www.w3.org/2000/svg">
<path d="M10.5366 14.4637C9.99113 14.4637 9.52726 14.2728 9.145 13.8909C8.76262 13.5088 8.57143 13.045 8.57143 12.4994C8.57143 12.4103 8.57851 12.318 8.59268 12.2225C8.60696 12.1269 8.62827 12.0388 8.65661 11.9582L3.37357 8.8648C3.185 9.05254 2.9703 9.19926 2.72946 9.30498C2.48863 9.41081 2.23357 9.46373 1.96429 9.46373C1.41869 9.46373 0.954881 9.27283 0.572857 8.89105C0.190952 8.50926 0 8.04569 0 7.50033C0 6.95486 0.190952 6.49099 0.572857 6.10873C0.954881 5.72635 1.41869 5.53516 1.96429 5.53516C2.23357 5.53516 2.48863 5.58807 2.72946 5.69391C2.9703 5.79962 3.185 5.94635 3.37357 6.13408L8.65661 3.04069C8.62827 2.9601 8.60696 2.872 8.59268 2.77641C8.57851 2.68093 8.57143 2.58861 8.57143 2.49944C8.57143 1.95385 8.76232 1.49004 9.14411 1.10801C9.52589 0.726109 9.98946 0.535156 10.5348 0.535156C11.0803 0.535156 11.5442 0.726049 11.9264 1.10783C12.3088 1.48962 12.5 1.95319 12.5 2.49855C12.5 3.04403 12.309 3.50789 11.9271 3.89016C11.5451 4.27254 11.0813 4.46373 10.5357 4.46373C10.2664 4.46373 10.0114 4.41081 9.77054 4.30498C9.5297 4.19926 9.315 4.05254 9.12643 3.8648L3.84339 6.95819C3.87173 7.03879 3.89304 7.1267 3.90732 7.22194C3.92149 7.31718 3.92857 7.4092 3.92857 7.49801C3.92857 7.58682 3.92149 7.67932 3.90732 7.77551C3.89304 7.8717 3.87173 7.9601 3.84339 8.04069L9.12643 11.1341C9.315 10.9463 9.5297 10.7996 9.77054 10.6939C10.0114 10.5881 10.2664 10.5352 10.5357 10.5352C11.0813 10.5352 11.5451 10.726 11.9271 11.1078C12.309 11.4896 12.5 11.9532 12.5 12.4985C12.5 13.044 12.3091 13.5079 11.9273 13.8902C11.5455 14.2725 11.082 14.4637 10.5366 14.4637ZM10.5357 3.3923C10.7839 3.3923 10.9948 3.30551 11.1682 3.13194C11.3418 2.95849 11.4286 2.74766 11.4286 2.49944C11.4286 2.25123 11.3418 2.04039 11.1682 1.86694C10.9948 1.69337 10.7839 1.60658 10.5357 1.60658C10.2875 1.60658 10.0767 1.69337 9.90322 1.86694C9.72964 2.04039 9.64286 2.25123 9.64286 2.49944C9.64286 2.74766 9.72964 2.95849 9.90322 3.13194C10.0767 3.30551 10.2875 3.3923 10.5357 3.3923ZM1.96429 8.3923C2.2125 8.3923 2.42333 8.30551 2.59679 8.13194C2.77036 7.95849 2.85714 7.74766 2.85714 7.49944C2.85714 7.25123 2.77036 7.04039 2.59679 6.86694C2.42333 6.69337 2.2125 6.60658 1.96429 6.60658C1.71607 6.60658 1.50524 6.69337 1.33179 6.86694C1.15821 7.04039 1.07143 7.25123 1.07143 7.49944C1.07143 7.74766 1.15821 7.95849 1.33179 8.13194C1.50524 8.30551 1.71607 8.3923 1.96429 8.3923ZM10.5357 13.3923C10.7839 13.3923 10.9948 13.3055 11.1682 13.1319C11.3418 12.9585 11.4286 12.7477 11.4286 12.4994C11.4286 12.2512 11.3418 12.0404 11.1682 11.8669C10.9948 11.6934 10.7839 11.6066 10.5357 11.6066C10.2875 11.6066 10.0767 11.6934 9.90322 11.8669C9.72964 12.0404 9.64286 12.2512 9.64286 12.4994C9.64286 12.7477 9.72964 12.9585 9.90322 13.1319C10.0767 13.3055 10.2875 13.3923 10.5357 13.3923Z" fill="#7C8698"/>
</svg>
