<svg width="28" height="28" viewBox="0 0 28 28" fill="none" xmlns="http://www.w3.org/2000/svg">
<path id="Star 3" d="M13.0697 1.35871C13.4027 0.514567 14.5973 0.51457 14.9303 1.35872L18.0833 9.35333C18.1849 9.61105 18.3889 9.81506 18.6467 9.9167L26.6413 13.0697C27.4854 13.4027 27.4854 14.5973 26.6413 14.9303L18.6467 18.0833C18.3889 18.1849 18.1849 18.3889 18.0833 18.6467L14.9303 26.6413C14.5973 27.4854 13.4027 27.4854 13.0697 26.6413L9.9167 18.6467C9.81506 18.3889 9.61105 18.1849 9.35333 18.0833L1.35871 14.9303C0.514567 14.5973 0.51457 13.4027 1.35872 13.0697L9.35333 9.9167C9.61105 9.81506 9.81506 9.61105 9.9167 9.35333L13.0697 1.35871Z" fill="#FB9596"/>
</svg>
