<svg width="41" height="40" viewBox="0 0 41 40" fill="none" xmlns="http://www.w3.org/2000/svg">
<path d="M20.5035 40C17.7373 40 15.1373 39.4751 12.7033 38.4253C10.2693 37.3754 8.15206 35.9507 6.35159 34.151C4.5511 32.3513 3.12571 30.235 2.07543 27.8021C1.02514 25.3692 0.5 22.7697 0.5 20.0035C0.5 17.2373 1.025 14.6373 2.075 12.2033C3.12501 9.76929 4.55001 7.65206 6.35002 5.8516C8.15002 4.0511 10.2667 2.62571 12.7 1.57543C15.1333 0.525144 17.7333 0 20.5 0C22.2517 0 23.9494 0.223352 25.5931 0.670055C27.2369 1.11676 28.8091 1.76251 30.3098 2.60732C30.7146 2.83406 30.9791 3.16064 31.1033 3.58706C31.2274 4.01352 31.1546 4.41163 30.8847 4.78138C30.6148 5.15114 30.2578 5.38258 29.8138 5.4757C29.3698 5.56882 28.9414 5.50202 28.5284 5.27528C27.2977 4.58703 26.0028 4.06206 24.6437 3.70038C23.2848 3.33869 21.9035 3.15785 20.5 3.15785C15.8333 3.15785 11.8596 4.79821 8.57892 8.07892C5.2982 11.3596 3.65785 15.3333 3.65785 20C3.65785 24.6667 5.2982 28.6404 8.57892 31.9211C11.8596 35.2018 15.8333 36.8422 20.5 36.8422C25.1667 36.8422 29.1404 35.2018 32.4211 31.9211C35.7018 28.6404 37.3422 24.6667 37.3422 20C37.3422 19.5926 37.3266 19.1978 37.2956 18.8158C37.2646 18.4339 37.2113 18.0418 37.1357 17.6396C37.0655 17.1913 37.1424 16.7628 37.3664 16.354C37.5904 15.9453 37.9277 15.6801 38.3782 15.5587C38.8022 15.4372 39.1957 15.4899 39.5587 15.7166C39.9217 15.9433 40.1383 16.2699 40.2085 16.6963C40.3056 17.228 40.3785 17.7659 40.4271 18.3098C40.4757 18.8538 40.5 19.4172 40.5 20C40.5 22.7667 39.9751 25.3667 38.9253 27.8C37.8754 30.2333 36.4507 32.35 34.651 34.15C32.8513 35.95 30.735 37.375 28.3021 38.425C25.8692 39.475 23.2697 40 20.5035 40ZM17.5121 24.5183L37.1721 4.82591C37.4636 4.53443 37.8246 4.37992 38.2551 4.36238C38.6856 4.34484 39.0656 4.50082 39.3951 4.83033C39.6971 5.13236 39.8482 5.50067 39.8482 5.93523C39.8482 6.36976 39.6957 6.73951 39.3907 7.04449L18.8441 27.6234C18.4635 28.004 18.0196 28.1943 17.5121 28.1943C17.0047 28.1943 16.5607 28.004 16.1801 27.6234L10.4028 21.8461C10.1113 21.5546 9.96222 21.1882 9.95544 20.747C9.94871 20.3057 10.0978 19.9326 10.4028 19.6276C10.7078 19.3226 11.0776 19.1701 11.5121 19.1701C11.9467 19.1701 12.3164 19.3226 12.6214 19.6276L17.5121 24.5183Z" fill="white"/>
</svg>
