<svg width="20" height="20" viewBox="0 0 20 20" fill="none" xmlns="http://www.w3.org/2000/svg">
<path d="M10.1317 9.05768C10.0483 9.04935 9.94834 9.04935 9.85667 9.05768C7.87334 8.99102 6.29834 7.36602 6.29834 5.36602C6.29834 3.32435 7.94834 1.66602 9.99834 1.66602C12.04 1.66602 13.6983 3.32435 13.6983 5.36602C13.69 7.36602 12.115 8.99102 10.1317 9.05768Z" stroke="#161A32" strokeWidth="1.5" strokeLinecap="round" strokeLinejoin="round"/>
<path d="M5.9666 12.134C3.94993 13.484 3.94993 15.684 5.9666 17.0257C8.25827 18.559 12.0166 18.559 14.3083 17.0257C16.3249 15.6757 16.3249 13.4757 14.3083 12.134C12.0249 10.609 8.2666 10.609 5.9666 12.134Z" stroke="#161A32" strokeWidth="1.5" strokeLinecap="round" strokeLinejoin="round"/>
</svg>
