<svg width="21" height="21" viewBox="0 0 21 21" fill="none" xmlns="http://www.w3.org/2000/svg">
<mask id="mask0_1652_1062" style="mask-type:alpha" maskUnits="userSpaceOnUse" x="0" y="0" width="21" height="21">
<rect x="0.104492" y="0.5" width="20" height="20" fill="#D9D9D9"/>
</mask>
<g mask="url(#mask0_1652_1062)">
<path d="M0.938477 14.833C0.938477 14.3608 1.06 13.9268 1.30306 13.5309C1.54612 13.1351 1.86903 12.833 2.27181 12.6247C3.13292 12.1941 4.00792 11.8712 4.89681 11.6559C5.7857 11.4406 6.68848 11.333 7.60514 11.333C8.52181 11.333 9.42459 11.4406 10.3135 11.6559C11.2024 11.8712 12.0774 12.1941 12.9385 12.6247C13.3413 12.833 13.6642 13.1351 13.9072 13.5309C14.1503 13.9268 14.2718 14.3608 14.2718 14.833V15.4997C14.2718 15.958 14.1086 16.3504 13.7822 16.6768C13.4558 17.0031 13.0635 17.1663 12.6051 17.1663H2.60514C2.14681 17.1663 1.75445 17.0031 1.42806 16.6768C1.10167 16.3504 0.938477 15.958 0.938477 15.4997V14.833ZM17.6051 17.1663H15.4801C15.6329 16.9163 15.7475 16.649 15.8239 16.3643C15.9003 16.0795 15.9385 15.7913 15.9385 15.4997V14.6663C15.9385 14.0552 15.7683 13.4684 15.4281 12.9059C15.0878 12.3434 14.6051 11.8608 13.9801 11.458C14.6885 11.5413 15.3551 11.6837 15.9801 11.8851C16.6051 12.0865 17.1885 12.333 17.7301 12.6247C18.2301 12.9025 18.6121 13.2115 18.876 13.5518C19.1399 13.892 19.2718 14.2636 19.2718 14.6663V15.4997C19.2718 15.958 19.1086 16.3504 18.7822 16.6768C18.4558 17.0031 18.0635 17.1663 17.6051 17.1663ZM7.60514 10.4997C6.68848 10.4997 5.90376 10.1733 5.25098 9.52051C4.5982 8.86773 4.27181 8.08301 4.27181 7.16634C4.27181 6.24967 4.5982 5.46495 5.25098 4.81217C5.90376 4.1594 6.68848 3.83301 7.60514 3.83301C8.52181 3.83301 9.30653 4.1594 9.95931 4.81217C10.6121 5.46495 10.9385 6.24967 10.9385 7.16634C10.9385 8.08301 10.6121 8.86773 9.95931 9.52051C9.30653 10.1733 8.52181 10.4997 7.60514 10.4997ZM15.9385 7.16634C15.9385 8.08301 15.6121 8.86773 14.9593 9.52051C14.3065 10.1733 13.5218 10.4997 12.6051 10.4997C12.4524 10.4997 12.2579 10.4823 12.0218 10.4476C11.7857 10.4129 11.5913 10.3747 11.4385 10.333C11.8135 9.88856 12.1017 9.39551 12.3031 8.85384C12.5044 8.31217 12.6051 7.74967 12.6051 7.16634C12.6051 6.58301 12.5044 6.02051 12.3031 5.47884C12.1017 4.93717 11.8135 4.44412 11.4385 3.99967C11.6329 3.93023 11.8274 3.88509 12.0218 3.86426C12.2163 3.84342 12.4107 3.83301 12.6051 3.83301C13.5218 3.83301 14.3065 4.1594 14.9593 4.81217C15.6121 5.46495 15.9385 6.24967 15.9385 7.16634ZM2.60514 15.4997H12.6051V14.833C12.6051 14.6802 12.567 14.5413 12.4906 14.4163C12.4142 14.2913 12.3135 14.1941 12.1885 14.1247C11.4385 13.7497 10.6815 13.4684 9.91764 13.2809C9.15376 13.0934 8.38292 12.9997 7.60514 12.9997C6.82737 12.9997 6.05653 13.0934 5.29264 13.2809C4.52875 13.4684 3.77181 13.7497 3.02181 14.1247C2.89681 14.1941 2.79612 14.2913 2.71973 14.4163C2.64334 14.5413 2.60514 14.6802 2.60514 14.833V15.4997ZM7.60514 8.83301C8.06348 8.83301 8.45584 8.66981 8.78223 8.34342C9.10862 8.01704 9.27181 7.62467 9.27181 7.16634C9.27181 6.70801 9.10862 6.31565 8.78223 5.98926C8.45584 5.66287 8.06348 5.49967 7.60514 5.49967C7.14681 5.49967 6.75445 5.66287 6.42806 5.98926C6.10167 6.31565 5.93848 6.70801 5.93848 7.16634C5.93848 7.62467 6.10167 8.01704 6.42806 8.34342C6.75445 8.66981 7.14681 8.83301 7.60514 8.83301Z" fill="#161A32"/>
</g>
</svg>
