<svg width="51" height="36" viewBox="0 0 51 36" fill="none" xmlns="http://www.w3.org/2000/svg">
<path d="M0.5 30.5522C0.5 29.2892 0.825961 28.1621 1.47788 27.171C2.12977 26.1798 3.00036 25.4086 4.08966 24.8574C6.41852 23.7183 8.76029 22.8401 11.115 22.2228C13.4697 21.6055 16.0577 21.2968 18.8789 21.2968C21.7002 21.2968 24.2881 21.6055 26.6428 22.2228C28.9975 22.8401 31.3393 23.7183 33.6682 24.8574C34.7575 25.4086 35.6281 26.1798 36.2799 27.171C36.9318 28.1621 37.2578 29.2892 37.2578 30.5522V32.277C37.2578 33.2634 36.8957 34.1305 36.1716 34.8782C35.4474 35.6259 34.5686 35.9998 33.535 35.9998H4.22284C3.18925 35.9998 2.31039 35.6377 1.58626 34.9135C0.862127 34.1894 0.500061 33.3105 0.500061 32.277L0.5 30.5522ZM46.7772 35.9998H41.2116C41.5195 35.4374 41.7544 34.8389 41.9162 34.2042C42.0779 33.5695 42.1588 32.9271 42.1588 32.277V30.2506C42.1588 28.642 41.765 27.109 40.9773 25.6516C40.1896 24.1941 39.0723 22.9436 37.6255 21.9C39.2685 22.1451 40.8284 22.5244 42.3049 23.0381C43.7815 23.5518 45.1905 24.1589 46.532 24.8594C47.7981 25.5349 48.776 26.331 49.4656 27.2477C50.1552 28.1645 50.5 29.1655 50.5 30.2506V32.277C50.5 33.3105 50.1379 34.1894 49.4137 34.9135C48.6896 35.6377 47.8107 35.9998 46.7772 35.9998ZM18.8789 17.3381C16.5203 17.3381 14.5012 16.4983 12.8216 14.8187C11.1419 13.1391 10.3021 11.12 10.3021 8.76136C10.3021 6.40273 11.1419 4.38361 12.8216 2.70402C14.5012 1.02439 16.5203 0.18457 18.8789 0.18457C21.2375 0.18457 23.2566 1.02439 24.9363 2.70402C26.6158 4.38361 27.4556 6.40273 27.4556 8.76136C27.4556 11.12 26.6158 13.1391 24.9363 14.8187C23.2566 16.4983 21.2375 17.3381 18.8789 17.3381ZM40.0381 8.76136C40.0381 11.12 39.1983 13.1391 37.5186 14.8187C35.839 16.4983 33.8199 17.3381 31.4613 17.3381C31.1848 17.3381 30.833 17.3067 30.4057 17.2439C29.9785 17.1811 29.6266 17.112 29.3501 17.0366C30.3166 15.8747 31.0593 14.5858 31.5782 13.1698C32.0972 11.7538 32.3567 10.2833 32.3567 8.75843C32.3567 7.23354 32.092 5.76892 31.5627 4.36456C31.0333 2.96025 30.2958 1.66745 29.3501 0.486171C29.702 0.3605 30.0539 0.278816 30.4057 0.241118C30.7576 0.203421 31.1094 0.18457 31.4613 0.18457C33.8199 0.18457 35.839 1.02439 37.5186 2.70402C39.1983 4.38361 40.0381 6.40273 40.0381 8.76136ZM4.17573 32.3241H33.5821V30.5522C33.5821 30.0401 33.4541 29.5845 33.198 29.1855C32.942 28.7865 32.5359 28.4378 31.9798 28.1393C29.9628 27.0994 27.8862 26.3116 25.7498 25.7759C23.6135 25.2403 21.3232 24.9725 18.8789 24.9725C16.4347 24.9725 14.1444 25.2403 12.008 25.7759C9.87166 26.3116 7.795 27.0994 5.77801 28.1393C5.22195 28.4378 4.81587 28.7865 4.55979 29.1855C4.30375 29.5845 4.17573 30.0401 4.17573 30.5522V32.3241ZM18.8789 13.6624C20.2267 13.6624 21.3805 13.1825 22.3403 12.2227C23.3001 11.2629 23.78 10.1092 23.78 8.76136C23.78 7.41357 23.3001 6.25978 22.3403 5.29999C21.3805 4.3402 20.2267 3.86031 18.8789 3.86031C17.5311 3.86031 16.3773 4.3402 15.4175 5.29999C14.4577 6.25978 13.9779 7.41357 13.9779 8.76136C13.9779 10.1092 14.4577 11.2629 15.4175 12.2227C16.3773 13.1825 17.5311 13.6624 18.8789 13.6624Z" fill="white"/>
</svg>
