<svg xmlns="http://www.w3.org/2000/svg" width="24" height="25" viewBox="0 0 24 25" fill="none">
  <mask id="mask0_2228_12038" style="mask-type:alpha" maskUnits="userSpaceOnUse" x="0" y="0" width="24" height="25">
    <rect y="0.244141" width="24" height="24" fill="#D9D9D9"/>
  </mask>
  <g mask="url(#mask0_2228_12038)">
    <path d="M19.5693 7.72572C19.7141 7.87055 19.7865 8.04622 19.7865 8.25272C19.7865 8.45905 19.7141 8.63464 19.5693 8.77947L18.7 9.64872C18.5513 9.79755 18.3748 9.87355 18.1702 9.87672C17.9657 9.87989 17.7859 9.80389 17.6307 9.64872C17.4756 9.49372 17.4006 9.31555 17.4057 9.11422C17.4109 8.91289 17.4911 8.73472 17.6462 8.57972L18.5155 7.71047C18.6642 7.57197 18.8407 7.50364 19.0452 7.50547C19.2498 7.50747 19.4244 7.58089 19.5693 7.72572ZM3 19.995C2.78717 19.995 2.609 19.9231 2.4655 19.7795C2.32183 19.636 2.25 19.4578 2.25 19.245C2.25 19.0321 2.32183 18.854 2.4655 18.7105C2.609 18.5668 2.78717 18.495 3 18.495H21C21.2128 18.495 21.391 18.5668 21.5345 18.7105C21.6782 18.854 21.75 19.0321 21.75 19.245C21.75 19.4578 21.6782 19.636 21.5345 19.7795C21.391 19.9231 21.2128 19.995 21 19.995H3ZM12 4.66797C12.2128 4.66797 12.391 4.7398 12.5345 4.88347C12.6782 5.02697 12.75 5.20514 12.75 5.41797V6.61047C12.75 6.8233 12.6782 7.00147 12.5345 7.14497C12.391 7.28864 12.2128 7.36047 12 7.36047C11.7872 7.36047 11.609 7.28864 11.4655 7.14497C11.3218 7.00147 11.25 6.8233 11.25 6.61047V5.41797C11.25 5.20514 11.3218 5.02697 11.4655 4.88347C11.609 4.7398 11.7872 4.66797 12 4.66797ZM4.4615 7.69497C4.60633 7.55014 4.782 7.47772 4.9885 7.47772C5.19483 7.47772 5.37042 7.55014 5.51525 7.69497L6.3845 8.56422C6.53333 8.71289 6.60933 8.88947 6.6125 9.09397C6.61567 9.29847 6.53967 9.4783 6.3845 9.63347C6.2295 9.7783 6.04875 9.85072 5.84225 9.85072C5.63592 9.85072 5.46033 9.77314 5.3155 9.61797L4.44625 8.74872C4.30775 8.60005 4.23942 8.42347 4.24125 8.21897C4.24325 8.01447 4.31667 7.8398 4.4615 7.69497ZM7.425 14.245H16.575C16.1917 13.345 15.5901 12.62 14.7703 12.07C13.9504 11.52 13.027 11.245 12 11.245C10.973 11.245 10.0496 11.52 9.22975 12.07C8.40992 12.62 7.80833 13.345 7.425 14.245ZM5.55775 15.745C5.67308 14.045 6.34742 12.62 7.58075 11.47C8.81408 10.32 10.2872 9.74497 12 9.74497C13.7128 9.74497 15.1859 10.32 16.4193 11.47C17.6526 12.62 18.3269 14.045 18.4423 15.745H5.55775Z" fill="#021637"/>
  </g>
</svg>