<svg width="30" height="30" viewBox="0 0 30 30" fill="none" xmlns="http://www.w3.org/2000/svg">
<path d="M1.22256 14.4599C1.22188 16.9139 1.86308 19.31 3.0823 21.4219L1.10596 28.6379L8.49059 26.7016C10.5331 27.8135 12.8215 28.3962 15.1471 28.3963H15.1532C22.8302 28.3963 29.0795 22.1493 29.0828 14.4709C29.0843 10.7502 27.6366 7.25142 25.0064 4.61916C22.3766 1.98713 18.8791 0.536854 15.1526 0.535156C7.47468 0.535156 1.22584 6.78184 1.22267 14.4599" fill="url(#paint0_linear_2228_32547)"/>
<path d="M0.724157 14.4555C0.723365 16.9977 1.38754 19.4795 2.65024 21.6671L0.603027 29.1417L8.25245 27.1361C10.3601 28.2852 12.7331 28.8911 15.1478 28.892H15.154C23.1065 28.892 29.5803 22.4203 29.5837 14.467C29.585 10.6126 28.0853 6.98807 25.3611 4.26152C22.6366 1.5353 19.014 0.0328349 15.154 0.03125C7.2002 0.03125 0.727327 6.50208 0.724157 14.4555ZM5.27967 21.2904L4.99405 20.837C3.79339 18.9279 3.15966 16.7217 3.16057 14.4564C3.16306 7.84572 8.54305 2.46743 15.1586 2.46743C18.3623 2.46879 21.3731 3.71768 23.6377 5.9836C25.9021 8.24975 27.1482 11.2622 27.1474 14.4661C27.1444 21.0767 21.7643 26.4557 15.154 26.4557H15.1493C12.9969 26.4546 10.8859 25.8765 9.045 24.7842L8.60689 24.5244L4.06757 25.7145L5.27967 21.2904Z" fill="url(#paint1_linear_2228_32547)"/>
<path d="M11.5474 8.42238C11.2773 7.82205 10.993 7.80993 10.7361 7.7994C10.5258 7.79035 10.2854 7.79103 10.0451 7.79103C9.80469 7.79103 9.41401 7.88148 9.08379 8.24204C8.75323 8.60294 7.82178 9.47507 7.82178 11.2489C7.82178 13.0228 9.11379 14.7371 9.2939 14.9779C9.47424 15.2182 11.7882 18.9748 15.4529 20.42C18.4985 21.621 19.1183 21.3822 19.7794 21.3219C20.4405 21.2619 21.9126 20.45 22.2129 19.6081C22.5135 18.7663 22.5135 18.0447 22.4234 17.894C22.3333 17.7437 22.0928 17.6535 21.7323 17.4733C21.3716 17.2929 19.599 16.4207 19.2686 16.3004C18.938 16.1801 18.6977 16.1201 18.4572 16.4811C18.2168 16.8416 17.5263 17.6535 17.3159 17.894C17.1057 18.135 16.8952 18.165 16.5348 17.9846C16.174 17.8037 15.0128 17.4235 13.6352 16.1953C12.5634 15.2396 11.8398 14.0594 11.6294 13.6984C11.4191 13.338 11.6069 13.1426 11.7877 12.9629C11.9497 12.8014 12.1484 12.5419 12.3288 12.3315C12.5086 12.1209 12.5686 11.9707 12.6888 11.7302C12.8092 11.4896 12.7489 11.279 12.6589 11.0987C12.5686 10.9183 11.868 9.13523 11.5474 8.42238Z" fill="white"/>
<defs>
<linearGradient id="paint0_linear_2228_32547" x1="1399.95" y1="2810.81" x2="1399.95" y2="0.535156" gradientUnits="userSpaceOnUse">
<stop stop-color="#1FAF38"/>
<stop offset="1" stop-color="#60D669"/>
</linearGradient>
<linearGradient id="paint1_linear_2228_32547" x1="1449.64" y1="2911.08" x2="1449.64" y2="0.03125" gradientUnits="userSpaceOnUse">
<stop stop-color="#F9F9F9"/>
<stop offset="1" stop-color="white"/>
</linearGradient>
</defs>
</svg>
