<svg width="245" height="120" viewBox="0 0 245 120" fill="none" xmlns="http://www.w3.org/2000/svg">
<rect x="0.5" y="0.5" width="244" height="119" rx="9.5" fill="#F3F5F6"/>
<rect x="0.5" y="0.5" width="244" height="119" rx="9.5" stroke="#236F8E"/>
<path d="M71.892 41V33.716H69.312V32.6H75.72V33.716H73.14V41H71.892ZM77.4131 41.12C76.2491 41.12 75.3251 40.604 75.3251 39.368C75.3251 38.168 76.2011 37.676 77.3171 37.544L78.8651 37.364C79.4411 37.292 79.6331 37.184 79.6331 36.992V36.824C79.6331 35.828 79.1171 35.564 78.2411 35.564C77.3411 35.564 76.8371 35.828 76.8371 36.62V36.764H75.6731V36.512C75.6731 35.264 76.5491 34.64 78.2651 34.64C80.0291 34.64 80.8451 35.3 80.8451 36.812V41H79.7051V39.992H79.6571C79.5371 40.232 78.9491 41.12 77.4131 41.12ZM77.7131 40.172C79.0331 40.172 79.6331 39.356 79.6331 38.684V38C79.5491 38.132 79.3931 38.216 78.7811 38.288L77.6051 38.444C76.8251 38.54 76.5371 38.816 76.5371 39.308C76.5371 39.896 76.9571 40.172 77.7131 40.172ZM84.4199 41.12C82.9199 41.12 81.8519 40.496 81.8159 39.14H82.9079C83.0039 39.908 83.6639 40.184 84.4319 40.184C85.1999 40.184 85.7999 39.908 85.7999 39.236C85.7999 38.732 85.4519 38.528 84.8639 38.396L83.6999 38.132C82.5239 37.856 81.9959 37.256 81.9959 36.416C81.9959 35.276 82.9679 34.64 84.4199 34.64C85.9079 34.64 86.8079 35.312 86.8679 36.596H85.8479C85.7399 35.828 85.2119 35.576 84.4319 35.576C83.6159 35.576 83.1719 35.852 83.1719 36.392C83.1719 36.824 83.4479 37.088 84.0959 37.232L85.2719 37.496C86.2799 37.736 87.0359 38.144 87.0359 39.212C87.0359 40.592 85.7879 41.12 84.4199 41.12ZM88.0236 41V32.6H89.2356V37.892L92.1636 34.76H93.5316L90.9276 37.448L93.8676 41H92.5116L90.1716 38.228L89.2356 39.188V41H88.0236ZM100.182 41.12C98.6097 41.12 97.1337 40.148 97.1337 37.892C97.1337 35.636 98.6097 34.64 100.182 34.64C101.298 34.64 102.678 35.12 102.906 36.98H101.802C101.634 36.02 100.95 35.672 100.17 35.672C99.0297 35.672 98.2737 36.488 98.2737 37.892C98.2737 39.296 99.0297 40.088 100.17 40.088C100.962 40.088 101.634 39.728 101.802 38.756H102.906C102.702 40.64 101.298 41.12 100.182 41.12ZM106.615 41.12C105.067 41.12 103.579 40.112 103.579 37.88C103.579 35.648 105.067 34.64 106.615 34.64C108.175 34.64 109.663 35.648 109.663 37.88C109.663 40.112 108.175 41.12 106.615 41.12ZM106.615 40.1C107.623 40.1 108.511 39.416 108.511 37.88C108.511 36.344 107.623 35.66 106.615 35.66C105.607 35.66 104.731 36.344 104.731 37.88C104.731 39.416 105.607 40.1 106.615 40.1ZM118.799 37.388C118.799 36.272 118.367 35.66 117.455 35.66C116.579 35.66 115.967 36.272 115.967 37.388V41H114.755V37.388C114.755 36.272 114.311 35.66 113.411 35.66C112.535 35.66 111.923 36.272 111.923 37.388V41H110.711V34.76H111.923V36.008H111.959C112.055 35.54 112.655 34.64 113.891 34.64C114.767 34.64 115.523 35.06 115.823 36.056C115.967 35.552 116.579 34.64 117.887 34.64C119.099 34.64 120.011 35.348 120.011 37.112V41H118.799V37.388ZM121.352 43.28V34.76H122.564V35.744C122.936 35.06 123.728 34.64 124.652 34.64C126.044 34.64 127.436 35.612 127.436 37.88C127.436 40.136 126.044 41.12 124.652 41.12C123.728 41.12 122.936 40.7 122.564 40.016V43.28H121.352ZM124.4 40.1C125.372 40.1 126.284 39.404 126.284 37.88C126.284 36.356 125.372 35.66 124.4 35.66C123.44 35.66 122.504 36.356 122.504 37.88C122.504 39.404 123.44 40.1 124.4 40.1ZM128.477 41V32.6H129.689V41H128.477ZM133.755 41.12C132.075 41.12 130.731 40.136 130.731 37.892C130.731 35.6 132.099 34.64 133.707 34.64C135.315 34.64 136.551 35.612 136.551 37.796C136.551 38.012 136.539 38.132 136.515 38.264H131.895C131.991 39.572 132.651 40.172 133.767 40.172C134.535 40.172 135.123 39.896 135.387 39.164H136.467C136.095 40.556 135.027 41.12 133.755 41.12ZM131.907 37.352H135.399C135.375 36.26 134.763 35.588 133.695 35.588C132.699 35.588 132.015 36.164 131.907 37.352ZM139.782 41.084C138.738 41.084 138.03 40.64 138.03 39.416V35.72H137.01V34.76H138.03V33.188H139.242V34.76H140.478V35.72H139.242V39.212C139.242 39.824 139.446 40.1 140.118 40.1C140.262 40.1 140.37 40.1 140.562 40.076V40.988C140.334 41.048 140.07 41.084 139.782 41.084ZM144.209 41.12C142.529 41.12 141.185 40.136 141.185 37.892C141.185 35.6 142.553 34.64 144.161 34.64C145.769 34.64 147.005 35.612 147.005 37.796C147.005 38.012 146.993 38.132 146.969 38.264H142.349C142.445 39.572 143.105 40.172 144.221 40.172C144.989 40.172 145.577 39.896 145.841 39.164H146.921C146.549 40.556 145.481 41.12 144.209 41.12ZM142.361 37.352H145.853C145.829 36.26 145.217 35.588 144.149 35.588C143.153 35.588 142.469 36.164 142.361 37.352ZM150.59 41.12C149.198 41.12 147.806 40.136 147.806 37.88C147.806 35.612 149.198 34.64 150.59 34.64C151.514 34.64 152.306 35.06 152.678 35.744V32.6H153.89V41H152.678V40.016C152.306 40.7 151.514 41.12 150.59 41.12ZM150.842 40.1C151.802 40.1 152.738 39.404 152.738 37.88C152.738 36.356 151.802 35.66 150.842 35.66C149.87 35.66 148.958 36.356 148.958 37.88C148.958 39.404 149.87 40.1 150.842 40.1Z" fill="#161A32"/>
<rect x="50" y="60" width="127" height="32" rx="16" fill="#236F8E"/>
<path d="M59.812 81.5V71.7H63.382C65.678 71.7 66.84 72.848 66.84 74.724C66.84 76.208 66.084 77.244 64.6 77.58L66.91 81.5H65.748L63.522 77.72H60.96V81.5H59.812ZM63.34 76.698C64.88 76.698 65.664 75.998 65.664 74.724C65.664 73.422 64.88 72.722 63.34 72.722H60.96V76.698H63.34ZM71.2188 81.64C69.2168 81.64 67.7608 80.436 67.7608 77.874C67.7608 75.228 69.3008 74.08 71.1628 74.08C73.0388 74.08 74.4108 75.256 74.4108 77.692C74.4108 77.93 74.3968 78.07 74.3688 78.21H68.8388C68.9228 79.918 69.7628 80.744 71.2328 80.744C72.1288 80.744 72.9408 80.45 73.2908 79.456H74.3128C73.8368 81.066 72.6048 81.64 71.2188 81.64ZM68.8388 77.356H73.3328C73.3188 75.83 72.4928 74.962 71.1488 74.962C69.8748 74.962 68.9508 75.732 68.8388 77.356ZM82.3477 84.16H81.2277V80.282C80.7237 81.164 79.7297 81.64 78.6517 81.64C76.9717 81.64 75.3757 80.478 75.3757 77.86C75.3757 75.228 76.9717 74.08 78.6517 74.08C79.7297 74.08 80.7237 74.542 81.2277 75.424V74.22H82.3477V84.16ZM78.8617 80.688C80.0937 80.688 81.2837 79.792 81.2837 77.86C81.2837 75.914 80.0937 75.018 78.8617 75.018C77.6157 75.018 76.4397 75.914 76.4397 77.86C76.4397 79.792 77.6157 80.688 78.8617 80.688ZM85.0902 78.49C85.0902 79.876 85.6782 80.688 86.9662 80.688C88.2542 80.688 89.1082 79.876 89.1082 78.49V74.22H90.2282V81.5H89.1082V80.072H89.0802C88.9542 80.562 88.2542 81.64 86.5742 81.64C85.1322 81.64 83.9702 80.856 83.9702 78.714V74.22H85.0902V78.49ZM94.9669 81.64C92.9649 81.64 91.5089 80.436 91.5089 77.874C91.5089 75.228 93.0489 74.08 94.9109 74.08C96.7869 74.08 98.1589 75.256 98.1589 77.692C98.1589 77.93 98.1449 78.07 98.1169 78.21H92.5869C92.6709 79.918 93.5109 80.744 94.9809 80.744C95.8769 80.744 96.6889 80.45 97.0389 79.456H98.0609C97.5849 81.066 96.3529 81.64 94.9669 81.64ZM92.5869 77.356H97.0809C97.0669 75.83 96.2409 74.962 94.8969 74.962C93.6229 74.962 92.6989 75.732 92.5869 77.356ZM101.995 81.64C100.329 81.64 99.0694 80.954 98.9994 79.428H100.007C100.147 80.422 101.057 80.758 102.009 80.758C103.003 80.758 103.801 80.394 103.801 79.484C103.801 78.77 103.311 78.532 102.527 78.35L101.155 78.028C99.8674 77.72 99.2234 77.062 99.2234 76.068C99.2234 74.78 100.315 74.08 101.967 74.08C103.605 74.08 104.683 74.78 104.767 76.236H103.815C103.661 75.284 102.975 74.962 101.967 74.962C100.903 74.962 100.315 75.312 100.315 76.068C100.315 76.628 100.651 76.978 101.533 77.174L102.891 77.496C104.095 77.776 104.949 78.238 104.949 79.47C104.949 81.066 103.493 81.64 101.995 81.64ZM108.694 81.598C107.602 81.598 106.832 81.136 106.832 79.792V75.13H105.656V74.22H106.832V72.4H107.952V74.22H109.394V75.13H107.952V79.582C107.952 80.366 108.218 80.674 109.002 80.674C109.184 80.674 109.31 80.674 109.506 80.646V81.5C109.254 81.556 108.988 81.598 108.694 81.598ZM113.925 81.5V71.7H117.495C119.791 71.7 120.953 72.848 120.953 74.724C120.953 76.572 119.791 77.72 117.495 77.72H115.073V81.5H113.925ZM117.453 76.698C118.993 76.698 119.777 75.998 119.777 74.724C119.777 73.422 118.993 72.722 117.453 72.722H115.073V76.698H117.453ZM123.831 81.64C122.445 81.64 121.437 81.01 121.437 79.638C121.437 78.35 122.319 77.72 123.733 77.552L125.595 77.342C126.351 77.258 126.575 77.104 126.575 76.866V76.572C126.575 75.34 125.959 74.948 124.755 74.948C123.551 74.948 122.935 75.34 122.935 76.306V76.474H121.857V76.208C121.857 74.752 122.893 74.08 124.797 74.08C126.771 74.08 127.695 74.822 127.695 76.572V81.5H126.645V80.24H126.589C126.421 80.604 125.623 81.64 123.831 81.64ZM124.097 80.744C125.791 80.744 126.575 79.624 126.575 78.896V77.846C126.519 78 126.281 78.126 125.525 78.224L123.999 78.406C122.921 78.532 122.557 78.938 122.557 79.582C122.557 80.422 123.187 80.744 124.097 80.744ZM129.148 83.222C130.24 83.376 130.786 82.914 131.108 82.088C131.262 81.696 131.276 81.444 131.15 81.15L128.406 74.22H129.554L131.836 80.184L134.104 74.22H135.266L132.13 82.088C131.444 83.782 130.576 84.37 129.148 84.188V83.222ZM145.978 77.23C145.978 75.844 145.432 75.032 144.228 75.032C143.066 75.032 142.296 75.844 142.296 77.23V81.5H141.176V77.23C141.176 75.844 140.644 75.032 139.44 75.032C138.278 75.032 137.508 75.844 137.508 77.23V81.5H136.388V74.22H137.508V75.648H137.536C137.648 75.158 138.32 74.08 139.846 74.08C140.882 74.08 141.764 74.542 142.128 75.718C142.31 75.172 142.996 74.08 144.592 74.08C145.992 74.08 147.098 74.864 147.098 77.006V81.5H145.978V77.23ZM151.815 81.64C149.813 81.64 148.357 80.436 148.357 77.874C148.357 75.228 149.897 74.08 151.759 74.08C153.635 74.08 155.007 75.256 155.007 77.692C155.007 77.93 154.993 78.07 154.965 78.21H149.435C149.519 79.918 150.359 80.744 151.829 80.744C152.725 80.744 153.537 80.45 153.887 79.456H154.909C154.433 81.066 153.201 81.64 151.815 81.64ZM149.435 77.356H153.929C153.915 75.83 153.089 74.962 151.745 74.962C150.471 74.962 149.547 75.732 149.435 77.356ZM161.405 77.23C161.405 75.844 160.817 75.032 159.529 75.032C158.241 75.032 157.387 75.844 157.387 77.23V81.5H156.267V74.22H157.387V75.648H157.415C157.541 75.158 158.241 74.08 159.921 74.08C161.363 74.08 162.525 74.864 162.525 77.006V81.5H161.405V77.23ZM166.567 81.598C165.475 81.598 164.705 81.136 164.705 79.792V75.13H163.529V74.22H164.705V72.4H165.825V74.22H167.267V75.13H165.825V79.582C165.825 80.366 166.091 80.674 166.875 80.674C167.057 80.674 167.183 80.674 167.379 80.646V81.5C167.127 81.556 166.861 81.598 166.567 81.598Z" fill="white"/>
</svg>
