<svg width="245" height="120" viewBox="0 0 245 120" fill="none" xmlns="http://www.w3.org/2000/svg">
<rect x="0.5" y="0.5" width="244" height="119" rx="9.5" fill="#F3F5F6"/>
<rect x="0.5" y="0.5" width="244" height="119" rx="9.5" stroke="#236F8E"/>
<rect x="158" y="34.0962" width="26.848" height="26.8" rx="13.4" fill="white"/>
<path d="M170.816 50.8962V48.0482H168V46.9122H170.816V44.0962H172.016V46.9122H174.848V48.0482H172.016V50.8962H170.816Z" fill="black"/>
<path d="M75.672 27V18.6H81.132V19.692H76.92V22.212H80.772V23.208H76.92V25.908H81.252V27H75.672ZM84.5371 27.12C83.0371 27.12 81.9691 26.496 81.9331 25.14H83.0251C83.1211 25.908 83.7811 26.184 84.5491 26.184C85.3171 26.184 85.9171 25.908 85.9171 25.236C85.9171 24.732 85.5691 24.528 84.9811 24.396L83.8171 24.132C82.6411 23.856 82.1131 23.256 82.1131 22.416C82.1131 21.276 83.0851 20.64 84.5371 20.64C86.0251 20.64 86.9251 21.312 86.9851 22.596H85.9651C85.8571 21.828 85.3291 21.576 84.5491 21.576C83.7331 21.576 83.2891 21.852 83.2891 22.392C83.2891 22.824 83.5651 23.088 84.2131 23.232L85.3891 23.496C86.3971 23.736 87.1531 24.144 87.1531 25.212C87.1531 26.592 85.9051 27.12 84.5371 27.12ZM90.4928 27.084C89.4488 27.084 88.7408 26.64 88.7408 25.416V21.72H87.7208V20.76H88.7408V19.188H89.9528V20.76H91.1888V21.72H89.9528V25.212C89.9528 25.824 90.1568 26.1 90.8288 26.1C90.9728 26.1 91.0808 26.1 91.2728 26.076V26.988C91.0448 27.048 90.7808 27.084 90.4928 27.084ZM92.254 27V20.76H93.466V27H92.254ZM92.854 19.68C92.47 19.68 92.134 19.368 92.134 18.96C92.134 18.564 92.47 18.24 92.854 18.24C93.238 18.24 93.574 18.564 93.574 18.96C93.574 19.368 93.238 19.68 92.854 19.68ZM102.897 23.388C102.897 22.272 102.465 21.66 101.553 21.66C100.677 21.66 100.065 22.272 100.065 23.388V27H98.8527V23.388C98.8527 22.272 98.4087 21.66 97.5087 21.66C96.6327 21.66 96.0207 22.272 96.0207 23.388V27H94.8087V20.76H96.0207V22.008H96.0567C96.1527 21.54 96.7527 20.64 97.9887 20.64C98.8647 20.64 99.6207 21.06 99.9207 22.056C100.065 21.552 100.677 20.64 101.985 20.64C103.197 20.64 104.109 21.348 104.109 23.112V27H102.897V23.388ZM107.237 27.12C106.073 27.12 105.149 26.604 105.149 25.368C105.149 24.168 106.025 23.676 107.141 23.544L108.689 23.364C109.265 23.292 109.457 23.184 109.457 22.992V22.824C109.457 21.828 108.941 21.564 108.065 21.564C107.165 21.564 106.661 21.828 106.661 22.62V22.764H105.497V22.512C105.497 21.264 106.373 20.64 108.089 20.64C109.853 20.64 110.669 21.3 110.669 22.812V27H109.529V25.992H109.481C109.361 26.232 108.773 27.12 107.237 27.12ZM107.537 26.172C108.857 26.172 109.457 25.356 109.457 24.684V24C109.373 24.132 109.217 24.216 108.605 24.288L107.429 24.444C106.649 24.54 106.361 24.816 106.361 25.308C106.361 25.896 106.781 26.172 107.537 26.172ZM114.176 27.084C113.132 27.084 112.424 26.64 112.424 25.416V21.72H111.404V20.76H112.424V19.188H113.636V20.76H114.872V21.72H113.636V25.212C113.636 25.824 113.84 26.1 114.512 26.1C114.656 26.1 114.764 26.1 114.956 26.076V26.988C114.728 27.048 114.464 27.084 114.176 27.084ZM118.603 27.12C116.923 27.12 115.579 26.136 115.579 23.892C115.579 21.6 116.947 20.64 118.555 20.64C120.163 20.64 121.399 21.612 121.399 23.796C121.399 24.012 121.387 24.132 121.363 24.264H116.743C116.839 25.572 117.499 26.172 118.615 26.172C119.383 26.172 119.971 25.896 120.235 25.164H121.315C120.943 26.556 119.875 27.12 118.603 27.12ZM116.755 23.352H120.247C120.223 22.26 119.611 21.588 118.543 21.588C117.547 21.588 116.863 22.164 116.755 23.352ZM124.984 27.12C123.592 27.12 122.2 26.136 122.2 23.88C122.2 21.612 123.592 20.64 124.984 20.64C125.908 20.64 126.7 21.06 127.072 21.744V18.6H128.284V27H127.072V26.016C126.7 26.7 125.908 27.12 124.984 27.12ZM125.236 26.1C126.196 26.1 127.132 25.404 127.132 23.88C127.132 22.356 126.196 21.66 125.236 21.66C124.264 21.66 123.352 22.356 123.352 23.88C123.352 25.404 124.264 26.1 125.236 26.1ZM135.691 27.12C134.767 27.12 133.975 26.7 133.603 26.016V27H132.391V18.6H133.603V21.744C133.975 21.06 134.767 20.64 135.691 20.64C137.083 20.64 138.475 21.612 138.475 23.88C138.475 26.136 137.083 27.12 135.691 27.12ZM135.439 26.1C136.411 26.1 137.323 25.404 137.323 23.88C137.323 22.356 136.411 21.66 135.439 21.66C134.479 21.66 133.543 22.356 133.543 23.88C133.543 25.404 134.479 26.1 135.439 26.1ZM140.728 24.372C140.728 25.488 141.208 26.1 142.192 26.1C143.176 26.1 143.86 25.488 143.86 24.372V20.76H145.072V27H143.86V25.752H143.824C143.716 26.22 143.116 27.12 141.724 27.12C140.5 27.12 139.516 26.412 139.516 24.648V20.76H140.728V24.372ZM148.902 27.12C147.51 27.12 146.118 26.136 146.118 23.88C146.118 21.612 147.51 20.64 148.902 20.64C149.826 20.64 150.618 21.06 150.99 21.744V18.6H152.202V27H150.99V26.016C150.618 26.7 149.826 27.12 148.902 27.12ZM149.154 26.1C150.114 26.1 151.05 25.404 151.05 23.88C151.05 22.356 150.114 21.66 149.154 21.66C148.182 21.66 147.27 22.356 147.27 23.88C147.27 25.404 148.182 26.1 149.154 26.1ZM156.195 29.508C154.959 29.508 153.435 29.076 153.423 27.492H154.491C154.527 28.2 155.295 28.56 156.171 28.56C157.203 28.56 158.043 28.068 158.043 26.856V25.824H158.019C157.635 26.472 156.831 26.856 155.955 26.856C154.587 26.856 153.243 25.956 153.243 23.748C153.243 21.54 154.599 20.64 155.955 20.64C156.831 20.64 157.635 21.024 158.019 21.672H158.043V20.76H159.255V26.856C159.255 29.016 157.503 29.508 156.195 29.508ZM156.243 25.848C157.203 25.848 158.103 25.176 158.103 23.748C158.103 22.32 157.203 21.66 156.243 21.66C155.271 21.66 154.383 22.32 154.383 23.748C154.383 25.176 155.271 25.848 156.243 25.848ZM163.322 27.12C161.642 27.12 160.298 26.136 160.298 23.892C160.298 21.6 161.666 20.64 163.274 20.64C164.882 20.64 166.118 21.612 166.118 23.796C166.118 24.012 166.106 24.132 166.082 24.264H161.462C161.558 25.572 162.218 26.172 163.334 26.172C164.102 26.172 164.69 25.896 164.954 25.164H166.034C165.662 26.556 164.594 27.12 163.322 27.12ZM161.474 23.352H164.966C164.942 22.26 164.33 21.588 163.262 21.588C162.266 21.588 161.582 22.164 161.474 23.352ZM169.348 27.084C168.304 27.084 167.596 26.64 167.596 25.416V21.72H166.576V20.76H167.596V19.188H168.808V20.76H170.044V21.72H168.808V25.212C168.808 25.824 169.012 26.1 169.684 26.1C169.828 26.1 169.936 26.1 170.128 26.076V26.988C169.9 27.048 169.636 27.084 169.348 27.084Z" fill="#161A32"/>
<path d="M97.654 46.711C97.942 46.651 98.218 46.609 98.482 46.585C98.746 46.555 99.001 46.54 99.247 46.54C99.931 46.54 100.534 46.642 101.056 46.846C101.578 47.05 102.016 47.332 102.37 47.692C102.724 48.052 102.991 48.475 103.171 48.961C103.351 49.441 103.441 49.96 103.441 50.518C103.441 51.208 103.318 51.838 103.072 52.408C102.832 52.978 102.496 53.467 102.064 53.875C101.632 54.277 101.119 54.589 100.525 54.811C99.937 55.033 99.295 55.144 98.599 55.144C98.191 55.144 97.804 55.102 97.438 55.018C97.072 54.934 96.727 54.823 96.403 54.685C96.085 54.541 95.788 54.379 95.512 54.199C95.242 54.013 94.999 53.818 94.783 53.614L95.467 52.669C95.611 52.465 95.8 52.363 96.034 52.363C96.184 52.363 96.337 52.411 96.493 52.507C96.649 52.603 96.826 52.708 97.024 52.822C97.228 52.936 97.465 53.041 97.735 53.137C98.011 53.233 98.341 53.281 98.725 53.281C99.133 53.281 99.493 53.215 99.805 53.083C100.117 52.951 100.375 52.768 100.579 52.534C100.789 52.294 100.945 52.012 101.047 51.688C101.155 51.358 101.209 51.001 101.209 50.617C101.209 49.909 101.002 49.357 100.588 48.961C100.18 48.559 99.574 48.358 98.77 48.358C98.152 48.358 97.519 48.472 96.871 48.7L95.485 48.304L96.565 41.986H102.991V42.931C102.991 43.249 102.892 43.507 102.694 43.705C102.496 43.903 102.16 44.002 101.686 44.002H98.113L97.654 46.711ZM114.431 48.493C114.431 49.627 114.308 50.614 114.062 51.454C113.822 52.288 113.486 52.978 113.054 53.524C112.628 54.07 112.121 54.478 111.533 54.748C110.951 55.012 110.321 55.144 109.643 55.144C108.965 55.144 108.335 55.012 107.753 54.748C107.177 54.478 106.676 54.07 106.25 53.524C105.824 52.978 105.491 52.288 105.251 51.454C105.011 50.614 104.891 49.627 104.891 48.493C104.891 47.353 105.011 46.366 105.251 45.532C105.491 44.698 105.824 44.008 106.25 43.462C106.676 42.916 107.177 42.511 107.753 42.247C108.335 41.977 108.965 41.842 109.643 41.842C110.321 41.842 110.951 41.977 111.533 42.247C112.121 42.511 112.628 42.916 113.054 43.462C113.486 44.008 113.822 44.698 114.062 45.532C114.308 46.366 114.431 47.353 114.431 48.493ZM112.136 48.493C112.136 47.551 112.067 46.771 111.929 46.153C111.791 45.535 111.605 45.043 111.371 44.677C111.143 44.311 110.879 44.056 110.579 43.912C110.279 43.762 109.967 43.687 109.643 43.687C109.325 43.687 109.016 43.762 108.716 43.912C108.422 44.056 108.161 44.311 107.933 44.677C107.705 45.043 107.522 45.535 107.384 46.153C107.252 46.771 107.186 47.551 107.186 48.493C107.186 49.435 107.252 50.215 107.384 50.833C107.522 51.451 107.705 51.943 107.933 52.309C108.161 52.675 108.422 52.933 108.716 53.083C109.016 53.227 109.325 53.299 109.643 53.299C109.967 53.299 110.279 53.227 110.579 53.083C110.879 52.933 111.143 52.675 111.371 52.309C111.605 51.943 111.791 51.451 111.929 50.833C112.067 50.215 112.136 49.435 112.136 48.493ZM115.945 57.205C115.837 57.115 115.783 57.004 115.783 56.872C115.783 56.824 115.798 56.77 115.828 56.71C115.864 56.65 115.906 56.596 115.954 56.548C116.02 56.476 116.101 56.386 116.197 56.278C116.293 56.176 116.389 56.056 116.485 55.918C116.581 55.786 116.668 55.639 116.746 55.477C116.83 55.321 116.893 55.153 116.935 54.973C116.743 54.973 116.569 54.94 116.413 54.874C116.257 54.802 116.122 54.706 116.008 54.586C115.9 54.466 115.813 54.325 115.747 54.163C115.687 54.001 115.657 53.824 115.657 53.632C115.657 53.464 115.687 53.308 115.747 53.164C115.813 53.014 115.903 52.885 116.017 52.777C116.131 52.663 116.269 52.576 116.431 52.516C116.593 52.45 116.77 52.417 116.962 52.417C117.19 52.417 117.388 52.459 117.556 52.543C117.73 52.621 117.871 52.732 117.979 52.876C118.093 53.014 118.177 53.176 118.231 53.362C118.291 53.542 118.321 53.734 118.321 53.938C118.321 54.226 118.276 54.529 118.186 54.847C118.102 55.165 117.976 55.483 117.808 55.801C117.64 56.119 117.43 56.428 117.178 56.728C116.932 57.028 116.65 57.304 116.332 57.556L115.945 57.205ZM129.092 48.493C129.092 49.627 128.969 50.614 128.723 51.454C128.483 52.288 128.147 52.978 127.715 53.524C127.289 54.07 126.782 54.478 126.194 54.748C125.612 55.012 124.982 55.144 124.304 55.144C123.626 55.144 122.996 55.012 122.414 54.748C121.838 54.478 121.337 54.07 120.911 53.524C120.485 52.978 120.152 52.288 119.912 51.454C119.672 50.614 119.552 49.627 119.552 48.493C119.552 47.353 119.672 46.366 119.912 45.532C120.152 44.698 120.485 44.008 120.911 43.462C121.337 42.916 121.838 42.511 122.414 42.247C122.996 41.977 123.626 41.842 124.304 41.842C124.982 41.842 125.612 41.977 126.194 42.247C126.782 42.511 127.289 42.916 127.715 43.462C128.147 44.008 128.483 44.698 128.723 45.532C128.969 46.366 129.092 47.353 129.092 48.493ZM126.797 48.493C126.797 47.551 126.728 46.771 126.59 46.153C126.452 45.535 126.266 45.043 126.032 44.677C125.804 44.311 125.54 44.056 125.24 43.912C124.94 43.762 124.628 43.687 124.304 43.687C123.986 43.687 123.677 43.762 123.377 43.912C123.083 44.056 122.822 44.311 122.594 44.677C122.366 45.043 122.183 45.535 122.045 46.153C121.913 46.771 121.847 47.551 121.847 48.493C121.847 49.435 121.913 50.215 122.045 50.833C122.183 51.451 122.366 51.943 122.594 52.309C122.822 52.675 123.083 52.933 123.377 53.083C123.677 53.227 123.986 53.299 124.304 53.299C124.628 53.299 124.94 53.227 125.24 53.083C125.54 52.933 125.804 52.675 126.032 52.309C126.266 51.943 126.452 51.451 126.59 50.833C126.728 50.215 126.797 49.435 126.797 48.493ZM139.533 48.493C139.533 49.627 139.41 50.614 139.164 51.454C138.924 52.288 138.588 52.978 138.156 53.524C137.73 54.07 137.223 54.478 136.635 54.748C136.053 55.012 135.423 55.144 134.745 55.144C134.067 55.144 133.437 55.012 132.855 54.748C132.279 54.478 131.778 54.07 131.352 53.524C130.926 52.978 130.593 52.288 130.353 51.454C130.113 50.614 129.993 49.627 129.993 48.493C129.993 47.353 130.113 46.366 130.353 45.532C130.593 44.698 130.926 44.008 131.352 43.462C131.778 42.916 132.279 42.511 132.855 42.247C133.437 41.977 134.067 41.842 134.745 41.842C135.423 41.842 136.053 41.977 136.635 42.247C137.223 42.511 137.73 42.916 138.156 43.462C138.588 44.008 138.924 44.698 139.164 45.532C139.41 46.366 139.533 47.353 139.533 48.493ZM137.238 48.493C137.238 47.551 137.169 46.771 137.031 46.153C136.893 45.535 136.707 45.043 136.473 44.677C136.245 44.311 135.981 44.056 135.681 43.912C135.381 43.762 135.069 43.687 134.745 43.687C134.427 43.687 134.118 43.762 133.818 43.912C133.524 44.056 133.263 44.311 133.035 44.677C132.807 45.043 132.624 45.535 132.486 46.153C132.354 46.771 132.288 47.551 132.288 48.493C132.288 49.435 132.354 50.215 132.486 50.833C132.624 51.451 132.807 51.943 133.035 52.309C133.263 52.675 133.524 52.933 133.818 53.083C134.118 53.227 134.427 53.299 134.745 53.299C135.069 53.299 135.381 53.227 135.681 53.083C135.981 52.933 136.245 52.675 136.473 52.309C136.707 51.943 136.893 51.451 137.031 50.833C137.169 50.215 137.238 49.435 137.238 48.493ZM149.974 48.493C149.974 49.627 149.851 50.614 149.605 51.454C149.365 52.288 149.029 52.978 148.597 53.524C148.171 54.07 147.664 54.478 147.076 54.748C146.494 55.012 145.864 55.144 145.186 55.144C144.508 55.144 143.878 55.012 143.296 54.748C142.72 54.478 142.219 54.07 141.793 53.524C141.367 52.978 141.034 52.288 140.794 51.454C140.554 50.614 140.434 49.627 140.434 48.493C140.434 47.353 140.554 46.366 140.794 45.532C141.034 44.698 141.367 44.008 141.793 43.462C142.219 42.916 142.72 42.511 143.296 42.247C143.878 41.977 144.508 41.842 145.186 41.842C145.864 41.842 146.494 41.977 147.076 42.247C147.664 42.511 148.171 42.916 148.597 43.462C149.029 44.008 149.365 44.698 149.605 45.532C149.851 46.366 149.974 47.353 149.974 48.493ZM147.679 48.493C147.679 47.551 147.61 46.771 147.472 46.153C147.334 45.535 147.148 45.043 146.914 44.677C146.686 44.311 146.422 44.056 146.122 43.912C145.822 43.762 145.51 43.687 145.186 43.687C144.868 43.687 144.559 43.762 144.259 43.912C143.965 44.056 143.704 44.311 143.476 44.677C143.248 45.043 143.065 45.535 142.927 46.153C142.795 46.771 142.729 47.551 142.729 48.493C142.729 49.435 142.795 50.215 142.927 50.833C143.065 51.451 143.248 51.943 143.476 52.309C143.704 52.675 143.965 52.933 144.259 53.083C144.559 53.227 144.868 53.299 145.186 53.299C145.51 53.299 145.822 53.227 146.122 53.083C146.422 52.933 146.686 52.675 146.914 52.309C147.148 51.943 147.334 51.451 147.472 50.833C147.61 50.215 147.679 49.435 147.679 48.493Z" fill="#161A32"/>
<rect x="60" y="71" width="127" height="32" rx="16" fill="#236F8E"/>
<path d="M94.312 92.5V82.7H97.882C100.178 82.7 101.34 83.848 101.34 85.724C101.34 87.572 100.178 88.72 97.882 88.72H95.46V92.5H94.312ZM97.84 87.698C99.38 87.698 100.164 86.998 100.164 85.724C100.164 84.422 99.38 83.722 97.84 83.722H95.46V87.698H97.84ZM105.474 92.64C103.668 92.64 101.974 91.45 101.974 88.86C101.974 86.27 103.668 85.08 105.474 85.08C107.28 85.08 108.974 86.27 108.974 88.86C108.974 91.45 107.28 92.64 105.474 92.64ZM105.474 91.688C106.734 91.688 107.896 90.82 107.896 88.86C107.896 86.9 106.734 86.018 105.474 86.018C104.2 86.018 103.038 86.9 103.038 88.86C103.038 90.82 104.2 91.688 105.474 91.688ZM112.816 92.64C111.15 92.64 109.89 91.954 109.82 90.428H110.828C110.968 91.422 111.878 91.758 112.83 91.758C113.824 91.758 114.622 91.394 114.622 90.484C114.622 89.77 114.132 89.532 113.348 89.35L111.976 89.028C110.688 88.72 110.044 88.062 110.044 87.068C110.044 85.78 111.136 85.08 112.788 85.08C114.426 85.08 115.504 85.78 115.588 87.236H114.636C114.482 86.284 113.796 85.962 112.788 85.962C111.724 85.962 111.136 86.312 111.136 87.068C111.136 87.628 111.472 87.978 112.354 88.174L113.712 88.496C114.916 88.776 115.77 89.238 115.77 90.47C115.77 92.066 114.314 92.64 112.816 92.64ZM119.514 92.598C118.422 92.598 117.652 92.136 117.652 90.792V86.13H116.476V85.22H117.652V83.4H118.772V85.22H120.214V86.13H118.772V90.582C118.772 91.366 119.038 91.674 119.822 91.674C120.004 91.674 120.13 91.674 120.326 91.646V92.5C120.074 92.556 119.808 92.598 119.514 92.598ZM127.42 92.5V83.736H124.326V82.7H131.662V83.736H128.568V92.5H127.42ZM133.653 92.64C132.267 92.64 131.259 92.01 131.259 90.638C131.259 89.35 132.141 88.72 133.555 88.552L135.417 88.342C136.173 88.258 136.397 88.104 136.397 87.866V87.572C136.397 86.34 135.781 85.948 134.577 85.948C133.373 85.948 132.757 86.34 132.757 87.306V87.474H131.679V87.208C131.679 85.752 132.715 85.08 134.619 85.08C136.593 85.08 137.517 85.822 137.517 87.572V92.5H136.467V91.24H136.411C136.243 91.604 135.445 92.64 133.653 92.64ZM133.919 91.744C135.613 91.744 136.397 90.624 136.397 89.896V88.846C136.341 89 136.103 89.126 135.347 89.224L133.821 89.406C132.743 89.532 132.379 89.938 132.379 90.582C132.379 91.422 133.009 91.744 133.919 91.744ZM141.718 92.64C140.052 92.64 138.792 91.954 138.722 90.428H139.73C139.87 91.422 140.78 91.758 141.732 91.758C142.726 91.758 143.524 91.394 143.524 90.484C143.524 89.77 143.034 89.532 142.25 89.35L140.878 89.028C139.59 88.72 138.946 88.062 138.946 87.068C138.946 85.78 140.038 85.08 141.69 85.08C143.328 85.08 144.406 85.78 144.49 87.236H143.538C143.384 86.284 142.698 85.962 141.69 85.962C140.626 85.962 140.038 86.312 140.038 87.068C140.038 87.628 140.374 87.978 141.256 88.174L142.614 88.496C143.818 88.776 144.672 89.238 144.672 90.47C144.672 92.066 143.216 92.64 141.718 92.64ZM145.869 92.5V82.7H146.989V89.154L150.755 85.22H152.043L148.949 88.384L152.449 92.5H151.161L148.249 89.098L146.989 90.372V92.5H145.869Z" fill="white"/>
<rect x="58" y="34" width="27" height="27.208" rx="13.5" fill="white"/>
<path d="M69.5244 47H73.4764V48.208H69.5244V47Z" fill="black"/>
</svg>
