<svg width="245" height="120" viewBox="0 0 245 120" fill="none" xmlns="http://www.w3.org/2000/svg">
<rect x="0.5" y="0.5" width="244" height="119" rx="9.5" fill="#F3F5F6"/>
<rect x="0.5" y="0.5" width="244" height="119" rx="9.5" stroke="#236F8E"/>
<path d="M165.744 39.896V37.048H162.928V35.912H165.744V33.096H166.944V35.912H169.776V37.048H166.944V39.896H165.744Z" fill="black"/>
<path d="M98.372 16V12.784L95.312 7.6H96.716L99.008 11.572L101.312 7.6H102.716L99.656 12.784V16H98.372ZM105.24 16.12C103.692 16.12 102.204 15.112 102.204 12.88C102.204 10.648 103.692 9.64 105.24 9.64C106.8 9.64 108.288 10.648 108.288 12.88C108.288 15.112 106.8 16.12 105.24 16.12ZM105.24 15.1C106.248 15.1 107.136 14.416 107.136 12.88C107.136 11.344 106.248 10.66 105.24 10.66C104.232 10.66 103.356 11.344 103.356 12.88C103.356 14.416 104.232 15.1 105.24 15.1ZM110.548 13.372C110.548 14.488 111.028 15.1 112.012 15.1C112.996 15.1 113.68 14.488 113.68 13.372V9.76H114.892V16H113.68V14.752H113.644C113.536 15.22 112.936 16.12 111.544 16.12C110.32 16.12 109.336 15.412 109.336 13.648V9.76H110.548V13.372ZM116.238 16V9.76H117.45V11.2H117.486C117.666 10.468 118.254 9.688 119.394 9.688C119.55 9.688 119.718 9.7 119.862 9.748V10.768C119.706 10.744 119.562 10.732 119.406 10.732C118.242 10.732 117.45 11.488 117.45 12.88V16H116.238ZM127.13 16.12C124.862 16.12 123.254 14.512 123.254 11.8C123.254 9.088 124.862 7.492 127.13 7.492C129.386 7.492 130.994 9.088 130.994 11.8C130.994 14.512 129.386 16.12 127.13 16.12ZM127.13 15.04C128.666 15.04 129.722 13.888 129.722 11.8C129.722 9.712 128.666 8.572 127.13 8.572C125.582 8.572 124.526 9.712 124.526 11.8C124.526 13.888 125.582 15.04 127.13 15.04ZM132.596 9.064C132.596 7.84 133.328 7.408 134.36 7.408H135.116V8.356H134.66C134.036 8.356 133.808 8.62 133.808 9.232V9.76H135.08V10.708H133.808V16H132.596V10.708H131.732V9.76H132.596V9.064ZM136.475 9.064C136.475 7.84 137.207 7.408 138.239 7.408H138.995V8.356H138.539C137.915 8.356 137.687 8.62 137.687 9.232V9.76H138.959V10.708H137.687V16H136.475V10.708H135.611V9.76H136.475V9.064ZM142.459 16.12C140.779 16.12 139.435 15.136 139.435 12.892C139.435 10.6 140.803 9.64 142.411 9.64C144.019 9.64 145.255 10.612 145.255 12.796C145.255 13.012 145.243 13.132 145.219 13.264H140.599C140.695 14.572 141.355 15.172 142.471 15.172C143.239 15.172 143.827 14.896 144.091 14.164H145.171C144.799 15.556 143.731 16.12 142.459 16.12ZM140.611 12.352H144.103C144.079 11.26 143.467 10.588 142.399 10.588C141.403 10.588 140.719 11.164 140.611 12.352ZM146.297 16V9.76H147.509V11.2H147.545C147.725 10.468 148.313 9.688 149.453 9.688C149.609 9.688 149.777 9.7 149.921 9.748V10.768C149.765 10.744 149.621 10.732 149.465 10.732C148.301 10.732 147.509 11.488 147.509 12.88V16H146.297Z" fill="#161A32"/>
<path d="M100.698 35.711L100.248 36.269C100.5 36.143 100.77 36.047 101.058 35.981C101.352 35.909 101.667 35.873 102.003 35.873C102.495 35.873 102.972 35.954 103.434 36.116C103.902 36.278 104.313 36.524 104.667 36.854C105.021 37.178 105.306 37.583 105.522 38.069C105.738 38.555 105.846 39.122 105.846 39.77C105.846 40.376 105.735 40.946 105.513 41.48C105.291 42.008 104.979 42.47 104.577 42.866C104.175 43.262 103.689 43.574 103.119 43.802C102.555 44.03 101.931 44.144 101.247 44.144C100.551 44.144 99.927 44.033 99.375 43.811C98.823 43.589 98.352 43.28 97.962 42.884C97.572 42.482 97.272 42.002 97.062 41.444C96.858 40.88 96.756 40.256 96.756 39.572C96.756 38.96 96.879 38.333 97.125 37.691C97.377 37.043 97.764 36.371 98.286 35.675L101.391 31.508C101.499 31.364 101.655 31.241 101.859 31.139C102.069 31.037 102.309 30.986 102.579 30.986H104.559L100.698 35.711ZM101.202 42.326C101.556 42.326 101.88 42.266 102.174 42.146C102.474 42.026 102.729 41.858 102.939 41.642C103.155 41.426 103.323 41.174 103.443 40.886C103.563 40.592 103.623 40.274 103.623 39.932C103.623 39.56 103.566 39.227 103.452 38.933C103.338 38.633 103.176 38.381 102.966 38.177C102.756 37.967 102.504 37.808 102.21 37.7C101.916 37.592 101.592 37.538 101.238 37.538C100.884 37.538 100.563 37.598 100.275 37.718C99.987 37.838 99.741 38.006 99.537 38.222C99.333 38.432 99.174 38.684 99.06 38.978C98.946 39.266 98.889 39.578 98.889 39.914C98.889 40.274 98.937 40.604 99.033 40.904C99.135 41.198 99.282 41.45 99.474 41.66C99.672 41.87 99.915 42.035 100.203 42.155C100.491 42.269 100.824 42.326 101.202 42.326ZM116.431 37.493C116.431 38.627 116.308 39.614 116.062 40.454C115.822 41.288 115.486 41.978 115.054 42.524C114.628 43.07 114.121 43.478 113.533 43.748C112.951 44.012 112.321 44.144 111.643 44.144C110.965 44.144 110.335 44.012 109.753 43.748C109.177 43.478 108.676 43.07 108.25 42.524C107.824 41.978 107.491 41.288 107.251 40.454C107.011 39.614 106.891 38.627 106.891 37.493C106.891 36.353 107.011 35.366 107.251 34.532C107.491 33.698 107.824 33.008 108.25 32.462C108.676 31.916 109.177 31.511 109.753 31.247C110.335 30.977 110.965 30.842 111.643 30.842C112.321 30.842 112.951 30.977 113.533 31.247C114.121 31.511 114.628 31.916 115.054 32.462C115.486 33.008 115.822 33.698 116.062 34.532C116.308 35.366 116.431 36.353 116.431 37.493ZM114.136 37.493C114.136 36.551 114.067 35.771 113.929 35.153C113.791 34.535 113.605 34.043 113.371 33.677C113.143 33.311 112.879 33.056 112.579 32.912C112.279 32.762 111.967 32.687 111.643 32.687C111.325 32.687 111.016 32.762 110.716 32.912C110.422 33.056 110.161 33.311 109.933 33.677C109.705 34.043 109.522 34.535 109.384 35.153C109.252 35.771 109.186 36.551 109.186 37.493C109.186 38.435 109.252 39.215 109.384 39.833C109.522 40.451 109.705 40.943 109.933 41.309C110.161 41.675 110.422 41.933 110.716 42.083C111.016 42.227 111.325 42.299 111.643 42.299C111.967 42.299 112.279 42.227 112.579 42.083C112.879 41.933 113.143 41.675 113.371 41.309C113.605 40.943 113.791 40.451 113.929 39.833C114.067 39.215 114.136 38.435 114.136 37.493ZM117.945 46.205C117.837 46.115 117.783 46.004 117.783 45.872C117.783 45.824 117.798 45.77 117.828 45.71C117.864 45.65 117.906 45.596 117.954 45.548C118.02 45.476 118.101 45.386 118.197 45.278C118.293 45.176 118.389 45.056 118.485 44.918C118.581 44.786 118.668 44.639 118.746 44.477C118.83 44.321 118.893 44.153 118.935 43.973C118.743 43.973 118.569 43.94 118.413 43.874C118.257 43.802 118.122 43.706 118.008 43.586C117.9 43.466 117.813 43.325 117.747 43.163C117.687 43.001 117.657 42.824 117.657 42.632C117.657 42.464 117.687 42.308 117.747 42.164C117.813 42.014 117.903 41.885 118.017 41.777C118.131 41.663 118.269 41.576 118.431 41.516C118.593 41.45 118.77 41.417 118.962 41.417C119.19 41.417 119.388 41.459 119.556 41.543C119.73 41.621 119.871 41.732 119.979 41.876C120.093 42.014 120.177 42.176 120.231 42.362C120.291 42.542 120.321 42.734 120.321 42.938C120.321 43.226 120.276 43.529 120.186 43.847C120.102 44.165 119.976 44.483 119.808 44.801C119.64 45.119 119.43 45.428 119.178 45.728C118.932 46.028 118.65 46.304 118.332 46.556L117.945 46.205ZM131.092 37.493C131.092 38.627 130.969 39.614 130.723 40.454C130.483 41.288 130.147 41.978 129.715 42.524C129.289 43.07 128.782 43.478 128.194 43.748C127.612 44.012 126.982 44.144 126.304 44.144C125.626 44.144 124.996 44.012 124.414 43.748C123.838 43.478 123.337 43.07 122.911 42.524C122.485 41.978 122.152 41.288 121.912 40.454C121.672 39.614 121.552 38.627 121.552 37.493C121.552 36.353 121.672 35.366 121.912 34.532C122.152 33.698 122.485 33.008 122.911 32.462C123.337 31.916 123.838 31.511 124.414 31.247C124.996 30.977 125.626 30.842 126.304 30.842C126.982 30.842 127.612 30.977 128.194 31.247C128.782 31.511 129.289 31.916 129.715 32.462C130.147 33.008 130.483 33.698 130.723 34.532C130.969 35.366 131.092 36.353 131.092 37.493ZM128.797 37.493C128.797 36.551 128.728 35.771 128.59 35.153C128.452 34.535 128.266 34.043 128.032 33.677C127.804 33.311 127.54 33.056 127.24 32.912C126.94 32.762 126.628 32.687 126.304 32.687C125.986 32.687 125.677 32.762 125.377 32.912C125.083 33.056 124.822 33.311 124.594 33.677C124.366 34.043 124.183 34.535 124.045 35.153C123.913 35.771 123.847 36.551 123.847 37.493C123.847 38.435 123.913 39.215 124.045 39.833C124.183 40.451 124.366 40.943 124.594 41.309C124.822 41.675 125.083 41.933 125.377 42.083C125.677 42.227 125.986 42.299 126.304 42.299C126.628 42.299 126.94 42.227 127.24 42.083C127.54 41.933 127.804 41.675 128.032 41.309C128.266 40.943 128.452 40.451 128.59 39.833C128.728 39.215 128.797 38.435 128.797 37.493ZM141.533 37.493C141.533 38.627 141.41 39.614 141.164 40.454C140.924 41.288 140.588 41.978 140.156 42.524C139.73 43.07 139.223 43.478 138.635 43.748C138.053 44.012 137.423 44.144 136.745 44.144C136.067 44.144 135.437 44.012 134.855 43.748C134.279 43.478 133.778 43.07 133.352 42.524C132.926 41.978 132.593 41.288 132.353 40.454C132.113 39.614 131.993 38.627 131.993 37.493C131.993 36.353 132.113 35.366 132.353 34.532C132.593 33.698 132.926 33.008 133.352 32.462C133.778 31.916 134.279 31.511 134.855 31.247C135.437 30.977 136.067 30.842 136.745 30.842C137.423 30.842 138.053 30.977 138.635 31.247C139.223 31.511 139.73 31.916 140.156 32.462C140.588 33.008 140.924 33.698 141.164 34.532C141.41 35.366 141.533 36.353 141.533 37.493ZM139.238 37.493C139.238 36.551 139.169 35.771 139.031 35.153C138.893 34.535 138.707 34.043 138.473 33.677C138.245 33.311 137.981 33.056 137.681 32.912C137.381 32.762 137.069 32.687 136.745 32.687C136.427 32.687 136.118 32.762 135.818 32.912C135.524 33.056 135.263 33.311 135.035 33.677C134.807 34.043 134.624 34.535 134.486 35.153C134.354 35.771 134.288 36.551 134.288 37.493C134.288 38.435 134.354 39.215 134.486 39.833C134.624 40.451 134.807 40.943 135.035 41.309C135.263 41.675 135.524 41.933 135.818 42.083C136.118 42.227 136.427 42.299 136.745 42.299C137.069 42.299 137.381 42.227 137.681 42.083C137.981 41.933 138.245 41.675 138.473 41.309C138.707 40.943 138.893 40.451 139.031 39.833C139.169 39.215 139.238 38.435 139.238 37.493ZM151.974 37.493C151.974 38.627 151.851 39.614 151.605 40.454C151.365 41.288 151.029 41.978 150.597 42.524C150.171 43.07 149.664 43.478 149.076 43.748C148.494 44.012 147.864 44.144 147.186 44.144C146.508 44.144 145.878 44.012 145.296 43.748C144.72 43.478 144.219 43.07 143.793 42.524C143.367 41.978 143.034 41.288 142.794 40.454C142.554 39.614 142.434 38.627 142.434 37.493C142.434 36.353 142.554 35.366 142.794 34.532C143.034 33.698 143.367 33.008 143.793 32.462C144.219 31.916 144.72 31.511 145.296 31.247C145.878 30.977 146.508 30.842 147.186 30.842C147.864 30.842 148.494 30.977 149.076 31.247C149.664 31.511 150.171 31.916 150.597 32.462C151.029 33.008 151.365 33.698 151.605 34.532C151.851 35.366 151.974 36.353 151.974 37.493ZM149.679 37.493C149.679 36.551 149.61 35.771 149.472 35.153C149.334 34.535 149.148 34.043 148.914 33.677C148.686 33.311 148.422 33.056 148.122 32.912C147.822 32.762 147.51 32.687 147.186 32.687C146.868 32.687 146.559 32.762 146.259 32.912C145.965 33.056 145.704 33.311 145.476 33.677C145.248 34.043 145.065 34.535 144.927 35.153C144.795 35.771 144.729 36.551 144.729 37.493C144.729 38.435 144.795 39.215 144.927 39.833C145.065 40.451 145.248 40.943 145.476 41.309C145.704 41.675 145.965 41.933 146.259 42.083C146.559 42.227 146.868 42.299 147.186 42.299C147.51 42.299 147.822 42.227 148.122 42.083C148.422 41.933 148.686 41.675 148.914 41.309C149.148 40.943 149.334 40.451 149.472 39.833C149.61 39.215 149.679 38.435 149.679 37.493Z" fill="#161A32"/>
<rect x="62" y="60" width="127" height="32" rx="16" fill="#236F8E"/>
<path d="M93.312 81.5V71.7H94.698L98.31 80.002L101.908 71.7H103.308V81.5H102.146V73.828H102.104L98.786 81.5H97.834L94.502 73.828H94.46V81.5H93.312ZM106.963 81.64C105.577 81.64 104.569 81.01 104.569 79.638C104.569 78.35 105.451 77.72 106.865 77.552L108.727 77.342C109.483 77.258 109.707 77.104 109.707 76.866V76.572C109.707 75.34 109.091 74.948 107.887 74.948C106.683 74.948 106.067 75.34 106.067 76.306V76.474H104.989V76.208C104.989 74.752 106.025 74.08 107.929 74.08C109.903 74.08 110.827 74.822 110.827 76.572V81.5H109.777V80.24H109.721C109.553 80.604 108.755 81.64 106.963 81.64ZM107.229 80.744C108.923 80.744 109.707 79.624 109.707 78.896V77.846C109.651 78 109.413 78.126 108.657 78.224L107.131 78.406C106.053 78.532 105.689 78.938 105.689 79.582C105.689 80.422 106.319 80.744 107.229 80.744ZM112.453 81.5V71.7H113.573V78.154L117.339 74.22H118.627L115.533 77.384L119.033 81.5H117.745L114.833 78.098L113.573 79.372V81.5H112.453ZM122.629 81.64C120.627 81.64 119.171 80.436 119.171 77.874C119.171 75.228 120.711 74.08 122.573 74.08C124.449 74.08 125.821 75.256 125.821 77.692C125.821 77.93 125.807 78.07 125.779 78.21H120.249C120.333 79.918 121.173 80.744 122.643 80.744C123.539 80.744 124.351 80.45 124.701 79.456H125.723C125.247 81.066 124.015 81.64 122.629 81.64ZM120.249 77.356H124.743C124.729 75.83 123.903 74.962 122.559 74.962C121.285 74.962 120.361 75.732 120.249 77.356ZM133.458 81.64C131.652 81.64 129.958 80.45 129.958 77.86C129.958 75.27 131.652 74.08 133.458 74.08C135.264 74.08 136.958 75.27 136.958 77.86C136.958 80.45 135.264 81.64 133.458 81.64ZM133.458 80.688C134.718 80.688 135.88 79.82 135.88 77.86C135.88 75.9 134.718 75.018 133.458 75.018C132.184 75.018 131.022 75.9 131.022 77.86C131.022 79.82 132.184 80.688 133.458 80.688ZM138.605 73.254C138.605 71.91 139.403 71.476 140.481 71.476H141.265V72.358H140.775C140.005 72.358 139.725 72.652 139.725 73.436V74.22H141.223V75.116H139.725V81.5H138.605V75.116H137.597V74.22H138.605V73.254ZM142.871 73.254C142.871 71.91 143.669 71.476 144.747 71.476H145.531V72.358H145.041C144.271 72.358 143.991 72.652 143.991 73.436V74.22H145.489V75.116H143.991V81.5H142.871V75.116H141.863V74.22H142.871V73.254ZM149.522 81.64C147.52 81.64 146.064 80.436 146.064 77.874C146.064 75.228 147.604 74.08 149.466 74.08C151.342 74.08 152.714 75.256 152.714 77.692C152.714 77.93 152.7 78.07 152.672 78.21H147.142C147.226 79.918 148.066 80.744 149.536 80.744C150.432 80.744 151.244 80.45 151.594 79.456H152.616C152.14 81.066 150.908 81.64 149.522 81.64ZM147.142 77.356H151.636C151.622 75.83 150.796 74.962 149.452 74.962C148.178 74.962 147.254 75.732 147.142 77.356ZM153.974 81.5V74.22H155.094V75.844H155.122C155.318 75.088 156.004 74.136 157.418 74.136C157.6 74.136 157.796 74.15 157.964 74.206V75.158C157.782 75.13 157.614 75.116 157.432 75.116C155.962 75.116 155.094 76.11 155.094 77.664V81.5H153.974Z" fill="white"/>
<path d="M79 35.6H82.952V36.808H79V35.6Z" fill="black"/>
</svg>
