<svg width="245" height="120" viewBox="0 0 245 120" fill="none" xmlns="http://www.w3.org/2000/svg">
<rect x="0.5" y="0.5" width="244" height="119" rx="9.5" fill="#F3F5F6"/>
<rect x="0.5" y="0.5" width="244" height="119" rx="9.5" stroke="#236F8E"/>
<path d="M71.892 41V33.716H69.312V32.6H75.72V33.716H73.14V41H71.892ZM77.4131 41.12C76.2491 41.12 75.3251 40.604 75.3251 39.368C75.3251 38.168 76.2011 37.676 77.3171 37.544L78.8651 37.364C79.4411 37.292 79.6331 37.184 79.6331 36.992V36.824C79.6331 35.828 79.1171 35.564 78.2411 35.564C77.3411 35.564 76.8371 35.828 76.8371 36.62V36.764H75.6731V36.512C75.6731 35.264 76.5491 34.64 78.2651 34.64C80.0291 34.64 80.8451 35.3 80.8451 36.812V41H79.7051V39.992H79.6571C79.5371 40.232 78.9491 41.12 77.4131 41.12ZM77.7131 40.172C79.0331 40.172 79.6331 39.356 79.6331 38.684V38C79.5491 38.132 79.3931 38.216 78.7811 38.288L77.6051 38.444C76.8251 38.54 76.5371 38.816 76.5371 39.308C76.5371 39.896 76.9571 40.172 77.7131 40.172ZM84.4199 41.12C82.9199 41.12 81.8519 40.496 81.8159 39.14H82.9079C83.0039 39.908 83.6639 40.184 84.4319 40.184C85.1999 40.184 85.7999 39.908 85.7999 39.236C85.7999 38.732 85.4519 38.528 84.8639 38.396L83.6999 38.132C82.5239 37.856 81.9959 37.256 81.9959 36.416C81.9959 35.276 82.9679 34.64 84.4199 34.64C85.9079 34.64 86.8079 35.312 86.8679 36.596H85.8479C85.7399 35.828 85.2119 35.576 84.4319 35.576C83.6159 35.576 83.1719 35.852 83.1719 36.392C83.1719 36.824 83.4479 37.088 84.0959 37.232L85.2719 37.496C86.2799 37.736 87.0359 38.144 87.0359 39.212C87.0359 40.592 85.7879 41.12 84.4199 41.12ZM88.0236 41V32.6H89.2356V37.892L92.1636 34.76H93.5316L90.9276 37.448L93.8676 41H92.5116L90.1716 38.228L89.2356 39.188V41H88.0236ZM100.182 41.12C98.6097 41.12 97.1337 40.148 97.1337 37.892C97.1337 35.636 98.6097 34.64 100.182 34.64C101.298 34.64 102.678 35.12 102.906 36.98H101.802C101.634 36.02 100.95 35.672 100.17 35.672C99.0297 35.672 98.2737 36.488 98.2737 37.892C98.2737 39.296 99.0297 40.088 100.17 40.088C100.962 40.088 101.634 39.728 101.802 38.756H102.906C102.702 40.64 101.298 41.12 100.182 41.12ZM106.615 41.12C105.067 41.12 103.579 40.112 103.579 37.88C103.579 35.648 105.067 34.64 106.615 34.64C108.175 34.64 109.663 35.648 109.663 37.88C109.663 40.112 108.175 41.12 106.615 41.12ZM106.615 40.1C107.623 40.1 108.511 39.416 108.511 37.88C108.511 36.344 107.623 35.66 106.615 35.66C105.607 35.66 104.731 36.344 104.731 37.88C104.731 39.416 105.607 40.1 106.615 40.1ZM118.799 37.388C118.799 36.272 118.367 35.66 117.455 35.66C116.579 35.66 115.967 36.272 115.967 37.388V41H114.755V37.388C114.755 36.272 114.311 35.66 113.411 35.66C112.535 35.66 111.923 36.272 111.923 37.388V41H110.711V34.76H111.923V36.008H111.959C112.055 35.54 112.655 34.64 113.891 34.64C114.767 34.64 115.523 35.06 115.823 36.056C115.967 35.552 116.579 34.64 117.887 34.64C119.099 34.64 120.011 35.348 120.011 37.112V41H118.799V37.388ZM121.352 43.28V34.76H122.564V35.744C122.936 35.06 123.728 34.64 124.652 34.64C126.044 34.64 127.436 35.612 127.436 37.88C127.436 40.136 126.044 41.12 124.652 41.12C123.728 41.12 122.936 40.7 122.564 40.016V43.28H121.352ZM124.4 40.1C125.372 40.1 126.284 39.404 126.284 37.88C126.284 36.356 125.372 35.66 124.4 35.66C123.44 35.66 122.504 36.356 122.504 37.88C122.504 39.404 123.44 40.1 124.4 40.1ZM128.477 41V32.6H129.689V41H128.477ZM133.755 41.12C132.075 41.12 130.731 40.136 130.731 37.892C130.731 35.6 132.099 34.64 133.707 34.64C135.315 34.64 136.551 35.612 136.551 37.796C136.551 38.012 136.539 38.132 136.515 38.264H131.895C131.991 39.572 132.651 40.172 133.767 40.172C134.535 40.172 135.123 39.896 135.387 39.164H136.467C136.095 40.556 135.027 41.12 133.755 41.12ZM131.907 37.352H135.399C135.375 36.26 134.763 35.588 133.695 35.588C132.699 35.588 132.015 36.164 131.907 37.352ZM139.782 41.084C138.738 41.084 138.03 40.64 138.03 39.416V35.72H137.01V34.76H138.03V33.188H139.242V34.76H140.478V35.72H139.242V39.212C139.242 39.824 139.446 40.1 140.118 40.1C140.262 40.1 140.37 40.1 140.562 40.076V40.988C140.334 41.048 140.07 41.084 139.782 41.084ZM144.209 41.12C142.529 41.12 141.185 40.136 141.185 37.892C141.185 35.6 142.553 34.64 144.161 34.64C145.769 34.64 147.005 35.612 147.005 37.796C147.005 38.012 146.993 38.132 146.969 38.264H142.349C142.445 39.572 143.105 40.172 144.221 40.172C144.989 40.172 145.577 39.896 145.841 39.164H146.921C146.549 40.556 145.481 41.12 144.209 41.12ZM142.361 37.352H145.853C145.829 36.26 145.217 35.588 144.149 35.588C143.153 35.588 142.469 36.164 142.361 37.352ZM150.59 41.12C149.198 41.12 147.806 40.136 147.806 37.88C147.806 35.612 149.198 34.64 150.59 34.64C151.514 34.64 152.306 35.06 152.678 35.744V32.6H153.89V41H152.678V40.016C152.306 40.7 151.514 41.12 150.59 41.12ZM150.842 40.1C151.802 40.1 152.738 39.404 152.738 37.88C152.738 36.356 151.802 35.66 150.842 35.66C149.87 35.66 148.958 36.356 148.958 37.88C148.958 39.404 149.87 40.1 150.842 40.1Z" fill="#161A32"/>
<rect x="50" y="60" width="127" height="32" rx="16" fill="#29C483"/>
<path d="M60.812 81.5V71.7H64.382C66.678 71.7 67.84 72.848 67.84 74.724C67.84 76.208 67.084 77.244 65.6 77.58L67.91 81.5H66.748L64.522 77.72H61.96V81.5H60.812ZM64.34 76.698C65.88 76.698 66.664 75.998 66.664 74.724C66.664 73.422 65.88 72.722 64.34 72.722H61.96V76.698H64.34ZM72.2188 81.64C70.2168 81.64 68.7608 80.436 68.7608 77.874C68.7608 75.228 70.3008 74.08 72.1628 74.08C74.0388 74.08 75.4108 75.256 75.4108 77.692C75.4108 77.93 75.3968 78.07 75.3688 78.21H69.8388C69.9228 79.918 70.7628 80.744 72.2328 80.744C73.1288 80.744 73.9408 80.45 74.2908 79.456H75.3128C74.8368 81.066 73.6048 81.64 72.2188 81.64ZM69.8388 77.356H74.3328C74.3188 75.83 73.4928 74.962 72.1488 74.962C70.8748 74.962 69.9508 75.732 69.8388 77.356ZM76.6714 81.5V71.7H77.7914V81.5H76.6714ZM82.5138 81.64C80.5118 81.64 79.0557 80.436 79.0557 77.874C79.0557 75.228 80.5958 74.08 82.4578 74.08C84.3338 74.08 85.7058 75.256 85.7058 77.692C85.7058 77.93 85.6918 78.07 85.6637 78.21H80.1338C80.2178 79.918 81.0578 80.744 82.5278 80.744C83.4238 80.744 84.2358 80.45 84.5858 79.456H85.6078C85.1318 81.066 83.8998 81.64 82.5138 81.64ZM80.1338 77.356H84.6278C84.6138 75.83 83.7878 74.962 82.4438 74.962C81.1698 74.962 80.2458 75.732 80.1338 77.356ZM89.0103 81.64C87.6243 81.64 86.6163 81.01 86.6163 79.638C86.6163 78.35 87.4983 77.72 88.9123 77.552L90.7743 77.342C91.5303 77.258 91.7543 77.104 91.7543 76.866V76.572C91.7543 75.34 91.1383 74.948 89.9343 74.948C88.7303 74.948 88.1143 75.34 88.1143 76.306V76.474H87.0363V76.208C87.0363 74.752 88.0723 74.08 89.9763 74.08C91.9503 74.08 92.8743 74.822 92.8743 76.572V81.5H91.8243V80.24H91.7683C91.6003 80.604 90.8023 81.64 89.0103 81.64ZM89.2763 80.744C90.9703 80.744 91.7543 79.624 91.7543 78.896V77.846C91.6983 78 91.4603 78.126 90.7043 78.224L89.1783 78.406C88.1003 78.532 87.7363 78.938 87.7363 79.582C87.7363 80.422 88.3663 80.744 89.2763 80.744ZM97.0755 81.64C95.4095 81.64 94.1495 80.954 94.0795 79.428H95.0875C95.2275 80.422 96.1375 80.758 97.0895 80.758C98.0835 80.758 98.8815 80.394 98.8815 79.484C98.8815 78.77 98.3915 78.532 97.6075 78.35L96.2355 78.028C94.9475 77.72 94.3035 77.062 94.3035 76.068C94.3035 74.78 95.3955 74.08 97.0475 74.08C98.6855 74.08 99.7635 74.78 99.8475 76.236H98.8955C98.7415 75.284 98.0555 74.962 97.0475 74.962C95.9835 74.962 95.3955 75.312 95.3955 76.068C95.3955 76.628 95.7315 76.978 96.6135 77.174L97.9715 77.496C99.1755 77.776 100.03 78.238 100.03 79.47C100.03 81.066 98.5735 81.64 97.0755 81.64ZM104.334 81.64C102.332 81.64 100.876 80.436 100.876 77.874C100.876 75.228 102.416 74.08 104.278 74.08C106.154 74.08 107.526 75.256 107.526 77.692C107.526 77.93 107.512 78.07 107.484 78.21H101.954C102.038 79.918 102.878 80.744 104.348 80.744C105.244 80.744 106.056 80.45 106.406 79.456H107.428C106.952 81.066 105.72 81.64 104.334 81.64ZM101.954 77.356H106.448C106.434 75.83 105.608 74.962 104.264 74.962C102.99 74.962 102.066 75.732 101.954 77.356ZM112.013 84.16V74.22H113.133V75.424C113.637 74.542 114.631 74.08 115.709 74.08C117.389 74.08 118.985 75.228 118.985 77.86C118.985 80.478 117.389 81.64 115.709 81.64C114.631 81.64 113.637 81.164 113.133 80.282V84.16H112.013ZM115.499 80.688C116.745 80.688 117.921 79.792 117.921 77.86C117.921 75.914 116.745 75.018 115.499 75.018C114.267 75.018 113.077 75.914 113.077 77.86C113.077 79.792 114.267 80.688 115.499 80.688ZM122.288 81.64C120.902 81.64 119.894 81.01 119.894 79.638C119.894 78.35 120.776 77.72 122.19 77.552L124.052 77.342C124.808 77.258 125.032 77.104 125.032 76.866V76.572C125.032 75.34 124.416 74.948 123.212 74.948C122.008 74.948 121.392 75.34 121.392 76.306V76.474H120.314V76.208C120.314 74.752 121.35 74.08 123.254 74.08C125.228 74.08 126.152 74.822 126.152 76.572V81.5H125.102V80.24H125.046C124.878 80.604 124.08 81.64 122.288 81.64ZM122.554 80.744C124.248 80.744 125.032 79.624 125.032 78.896V77.846C124.976 78 124.738 78.126 123.982 78.224L122.456 78.406C121.378 78.532 121.014 78.938 121.014 79.582C121.014 80.422 121.644 80.744 122.554 80.744ZM127.605 83.222C128.697 83.376 129.243 82.914 129.565 82.088C129.719 81.696 129.733 81.444 129.607 81.15L126.863 74.22H128.011L130.293 80.184L132.561 74.22H133.723L130.587 82.088C129.901 83.782 129.033 84.37 127.605 84.188V83.222ZM144.435 77.23C144.435 75.844 143.889 75.032 142.685 75.032C141.523 75.032 140.753 75.844 140.753 77.23V81.5H139.633V77.23C139.633 75.844 139.101 75.032 137.897 75.032C136.735 75.032 135.965 75.844 135.965 77.23V81.5H134.845V74.22H135.965V75.648H135.993C136.105 75.158 136.777 74.08 138.303 74.08C139.339 74.08 140.221 74.542 140.585 75.718C140.767 75.172 141.453 74.08 143.049 74.08C144.449 74.08 145.555 74.864 145.555 77.006V81.5H144.435V77.23ZM150.272 81.64C148.27 81.64 146.814 80.436 146.814 77.874C146.814 75.228 148.354 74.08 150.216 74.08C152.092 74.08 153.464 75.256 153.464 77.692C153.464 77.93 153.45 78.07 153.422 78.21H147.892C147.976 79.918 148.816 80.744 150.286 80.744C151.182 80.744 151.994 80.45 152.344 79.456H153.366C152.89 81.066 151.658 81.64 150.272 81.64ZM147.892 77.356H152.386C152.372 75.83 151.546 74.962 150.202 74.962C148.928 74.962 148.004 75.732 147.892 77.356ZM159.862 77.23C159.862 75.844 159.274 75.032 157.986 75.032C156.698 75.032 155.844 75.844 155.844 77.23V81.5H154.724V74.22H155.844V75.648H155.872C155.998 75.158 156.698 74.08 158.378 74.08C159.82 74.08 160.982 74.864 160.982 77.006V81.5H159.862V77.23ZM165.024 81.598C163.932 81.598 163.162 81.136 163.162 79.792V75.13H161.986V74.22H163.162V72.4H164.282V74.22H165.724V75.13H164.282V79.582C164.282 80.366 164.548 80.674 165.332 80.674C165.514 80.674 165.64 80.674 165.836 80.646V81.5C165.584 81.556 165.318 81.598 165.024 81.598Z" fill="white"/>
</svg>
