<svg width="270" height="159" viewBox="0 0 270 159" fill="none" xmlns="http://www.w3.org/2000/svg">
<rect x="0.5" y="0.5" width="269" height="157.333" rx="15.5" stroke="#236F8E"/>
<rect x="1" y="1" width="268" height="156.333" rx="15.9524" fill="#F3F5F6"/>
<mask id="mask0_6679_10711" style="mask-type:alpha" maskUnits="userSpaceOnUse" x="1" y="1" width="268" height="157">
<rect x="1" y="1" width="268" height="156.333" rx="14.2065" fill="#F8CF84"/>
</mask>
<g mask="url(#mask0_6679_10711)">
<path d="M28.109 47.8333C27.5273 47.8333 27.0303 47.6273 26.618 47.2153C26.206 46.8031 26 46.3061 26 45.7243V30.109C26 29.5273 26.206 29.0303 26.618 28.618C27.0303 28.206 27.5273 28 28.109 28H43.7243C44.3061 28 44.8031 28.206 45.2153 28.618C45.6273 29.0303 45.8333 29.5273 45.8333 30.109V33.2838H44.0833V30.109C44.0833 30.0042 44.0497 29.9182 43.9824 29.8509C43.9151 29.7836 43.8291 29.75 43.7243 29.75H28.109C28.0042 29.75 27.9182 29.7836 27.8509 29.8509C27.7836 29.9182 27.75 30.0042 27.75 30.109V45.7243C27.75 45.8291 27.7836 45.9151 27.8509 45.9824C27.9182 46.0497 28.0042 46.0833 28.109 46.0833H43.7243C43.8291 46.0833 43.9151 46.0497 43.9824 45.9824C44.0497 45.9151 44.0833 45.8291 44.0833 45.7243V42.5495H45.8333V45.7243C45.8333 46.3061 45.6273 46.8031 45.2153 47.2153C44.8031 47.6273 44.3061 47.8333 43.7243 47.8333H28.109ZM37.4424 43.1667C36.8606 43.1667 36.3636 42.9607 35.9514 42.5486C35.5393 42.1364 35.3333 41.6394 35.3333 41.0576V34.7757C35.3333 34.1939 35.5393 33.6969 35.9514 33.2847C36.3636 32.8727 36.8606 32.6667 37.4424 32.6667H44.891C45.4727 32.6667 45.9697 32.8727 46.382 33.2847C46.794 33.6969 47 34.1939 47 34.7757V41.0576C47 41.6394 46.794 42.1364 46.382 42.5486C45.9697 42.9607 45.4727 43.1667 44.891 43.1667H37.4424ZM44.891 41.4167C44.9958 41.4167 45.0818 41.383 45.1491 41.3158C45.2164 41.2485 45.25 41.1624 45.25 41.0576V34.7757C45.25 34.6709 45.2164 34.5849 45.1491 34.5176C45.0818 34.4503 44.9958 34.4167 44.891 34.4167H37.4424C37.3376 34.4167 37.2515 34.4503 37.1843 34.5176C37.117 34.5849 37.0833 34.6709 37.0833 34.7757V41.0576C37.0833 41.1624 37.117 41.2485 37.1843 41.3158C37.2515 41.383 37.3376 41.4167 37.4424 41.4167H44.891ZM40.5833 39.6667C41.0694 39.6667 41.4826 39.4965 41.8229 39.1563C42.1632 38.816 42.3333 38.4028 42.3333 37.9167C42.3333 37.4306 42.1632 37.0174 41.8229 36.6771C41.4826 36.3368 41.0694 36.1667 40.5833 36.1667C40.0972 36.1667 39.684 36.3368 39.3438 36.6771C39.0035 37.0174 38.8333 37.4306 38.8333 37.9167C38.8333 38.4028 39.0035 38.816 39.3438 39.1563C39.684 39.4965 40.0972 39.6667 40.5833 39.6667Z" fill="#236F8E"/>
<path d="M28.58 68.8335L26.336 60.4335H27.344L29.144 67.4415H29.192L31.292 60.4335H32.348L34.448 67.4415H34.496L36.296 60.4335H37.316L35.06 68.8335H34.004L31.82 61.6935L29.648 68.8335H28.58ZM39.4871 68.9535C38.2991 68.9535 37.4351 68.4135 37.4351 67.2375C37.4351 66.1335 38.1911 65.5935 39.4031 65.4495L40.9991 65.2695C41.6471 65.1975 41.8391 65.0655 41.8391 64.8615V64.6095C41.8391 63.5535 41.3111 63.2175 40.2791 63.2175C39.2471 63.2175 38.7191 63.5535 38.7191 64.3815V64.5255H37.7951V64.2975C37.7951 63.0495 38.6831 62.4735 40.3151 62.4735C42.0071 62.4735 42.7991 63.1095 42.7991 64.6095V68.8335H41.8991V67.7535H41.8511C41.7071 68.0655 41.0231 68.9535 39.4871 68.9535ZM39.7151 68.1855C41.1671 68.1855 41.8391 67.2255 41.8391 66.6015V65.7015C41.7911 65.8335 41.5871 65.9415 40.9391 66.0255L39.6311 66.1815C38.7071 66.2895 38.3951 66.6375 38.3951 67.1895C38.3951 67.9095 38.9351 68.1855 39.7151 68.1855ZM44.1921 68.8335V60.4335H45.1521V68.8335H44.1921ZM46.5358 68.8335V60.4335H47.4958V68.8335H46.5358ZM51.5436 68.9535C49.8276 68.9535 48.5796 67.9215 48.5796 65.7255C48.5796 63.4575 49.8996 62.4735 51.4956 62.4735C53.1036 62.4735 54.2796 63.4815 54.2796 65.5695C54.2796 65.7735 54.2676 65.8935 54.2436 66.0135H49.5036C49.5756 67.4775 50.2956 68.1855 51.5556 68.1855C52.3236 68.1855 53.0196 67.9335 53.3196 67.0815H54.1956C53.7876 68.4615 52.7316 68.9535 51.5436 68.9535ZM49.5036 65.2815H53.3556C53.3436 63.9735 52.6356 63.2295 51.4836 63.2295C50.3916 63.2295 49.5996 63.8895 49.5036 65.2815ZM57.3917 68.9175C56.4557 68.9175 55.7957 68.5215 55.7957 67.3695V63.3735H54.7877V62.5935H55.7957V61.0335H56.7557V62.5935H57.9917V63.3735H56.7557V67.1895C56.7557 67.8615 56.9837 68.1255 57.6557 68.1255C57.8117 68.1255 57.9197 68.1255 58.0877 68.1015V68.8335C57.8717 68.8815 57.6437 68.9175 57.3917 68.9175ZM61.8757 68.8335V60.4335H65.0197C66.7597 60.4335 67.5157 61.2735 67.5157 62.4495C67.5157 63.3255 67.0957 63.9615 66.2917 64.2255C67.3957 64.5015 68.0557 65.2335 68.0557 66.4095C68.0557 67.8135 67.0957 68.8335 65.0557 68.8335H61.8757ZM64.9957 67.9815C66.3637 67.9815 67.0117 67.3215 67.0117 66.3615C67.0117 65.3895 66.3637 64.7535 64.9957 64.7535H62.8597V67.9815H64.9957ZM64.9357 63.9015C65.9797 63.9015 66.4957 63.3975 66.4957 62.5695C66.4957 61.7415 65.9797 61.2855 64.9357 61.2855H62.8597V63.9015H64.9357ZM70.8933 68.9535C69.7053 68.9535 68.8413 68.4135 68.8413 67.2375C68.8413 66.1335 69.5973 65.5935 70.8093 65.4495L72.4053 65.2695C73.0533 65.1975 73.2453 65.0655 73.2453 64.8615V64.6095C73.2453 63.5535 72.7173 63.2175 71.6853 63.2175C70.6533 63.2175 70.1253 63.5535 70.1253 64.3815V64.5255H69.2013V64.2975C69.2013 63.0495 70.0893 62.4735 71.7213 62.4735C73.4133 62.4735 74.2053 63.1095 74.2053 64.6095V68.8335H73.3053V67.7535H73.2573C73.1133 68.0655 72.4293 68.9535 70.8933 68.9535ZM71.1213 68.1855C72.5733 68.1855 73.2453 67.2255 73.2453 66.6015V65.7015C73.1973 65.8335 72.9933 65.9415 72.3453 66.0255L71.0373 66.1815C70.1133 66.2895 69.8013 66.6375 69.8013 67.1895C69.8013 67.9095 70.3413 68.1855 71.1213 68.1855ZM75.5983 68.8335V60.4335H76.5583V68.8335H75.5983ZM79.6941 68.9535C78.5061 68.9535 77.6421 68.4135 77.6421 67.2375C77.6421 66.1335 78.3981 65.5935 79.6101 65.4495L81.2061 65.2695C81.8541 65.1975 82.0461 65.0655 82.0461 64.8615V64.6095C82.0461 63.5535 81.5181 63.2175 80.4861 63.2175C79.4541 63.2175 78.9261 63.5535 78.9261 64.3815V64.5255H78.0021V64.2975C78.0021 63.0495 78.8901 62.4735 80.5221 62.4735C82.2141 62.4735 83.0061 63.1095 83.0061 64.6095V68.8335H82.1061V67.7535H82.0581C81.9141 68.0655 81.2301 68.9535 79.6941 68.9535ZM79.9221 68.1855C81.3741 68.1855 82.0461 67.2255 82.0461 66.6015V65.7015C81.9981 65.8335 81.7941 65.9415 81.1461 66.0255L79.8381 66.1815C78.9141 66.2895 78.6021 66.6375 78.6021 67.1895C78.6021 67.9095 79.1421 68.1855 79.9221 68.1855ZM88.8617 65.1735C88.8617 63.9855 88.3577 63.2895 87.2537 63.2895C86.1497 63.2895 85.4177 63.9855 85.4177 65.1735V68.8335H84.4577V62.5935H85.4177V63.8175H85.4417C85.5497 63.3975 86.1497 62.4735 87.5897 62.4735C88.8257 62.4735 89.8217 63.1455 89.8217 64.9815V68.8335H88.8617V65.1735ZM93.9314 68.9535C92.3234 68.9535 90.9194 67.9335 90.9194 65.7255C90.9194 63.5055 92.3234 62.4735 93.9314 62.4735C95.0474 62.4735 96.3554 62.9655 96.5834 64.7175H95.7074C95.5274 63.6735 94.7354 63.2895 93.9194 63.2895C92.7074 63.2895 91.8314 64.1415 91.8314 65.7255C91.8314 67.3095 92.7074 68.1255 93.9194 68.1255C94.7474 68.1255 95.5274 67.7535 95.7074 66.6735H96.5834C96.3674 68.4495 95.0474 68.9535 93.9314 68.9535ZM100.247 68.9535C98.5307 68.9535 97.2827 67.9215 97.2827 65.7255C97.2827 63.4575 98.6027 62.4735 100.199 62.4735C101.807 62.4735 102.983 63.4815 102.983 65.5695C102.983 65.7735 102.971 65.8935 102.947 66.0135H98.2067C98.2787 67.4775 98.9987 68.1855 100.259 68.1855C101.027 68.1855 101.723 67.9335 102.023 67.0815H102.899C102.491 68.4615 101.435 68.9535 100.247 68.9535ZM98.2067 65.2815H102.059C102.047 63.9735 101.339 63.2295 100.187 63.2295C99.0947 63.2295 98.3027 63.8895 98.2067 65.2815Z" fill="#236F8E"/>
<path d="M112.573 59.3335C109.818 59.3335 107.573 61.5785 107.573 64.3335C107.573 67.0885 109.818 69.3335 112.573 69.3335C115.328 69.3335 117.573 67.0885 117.573 64.3335C117.573 61.5785 115.328 59.3335 112.573 59.3335ZM112.198 62.3335C112.198 62.1285 112.368 61.9585 112.573 61.9585C112.778 61.9585 112.948 62.1285 112.948 62.3335V64.8335C112.948 65.0385 112.778 65.2085 112.573 65.2085C112.368 65.2085 112.198 65.0385 112.198 64.8335V62.3335ZM113.033 66.5235C113.008 66.5885 112.973 66.6385 112.928 66.6885C112.878 66.7335 112.823 66.7685 112.763 66.7935C112.703 66.8185 112.638 66.8335 112.573 66.8335C112.508 66.8335 112.443 66.8185 112.383 66.7935C112.323 66.7685 112.268 66.7335 112.218 66.6885C112.173 66.6385 112.138 66.5885 112.113 66.5235C112.088 66.4635 112.073 66.3985 112.073 66.3335C112.073 66.2685 112.088 66.2035 112.113 66.1435C112.138 66.0835 112.173 66.0285 112.218 65.9785C112.268 65.9335 112.323 65.8985 112.383 65.8735C112.503 65.8235 112.643 65.8235 112.763 65.8735C112.823 65.8985 112.878 65.9335 112.928 65.9785C112.973 66.0285 113.008 66.0835 113.033 66.1435C113.058 66.2035 113.073 66.2685 113.073 66.3335C113.073 66.3985 113.058 66.4635 113.033 66.5235Z" fill="#236F8E"/>
<path d="M28.176 122.833V114.929H26.32V112.561H28.176V110.257H26.32V107.889H28.176V99.9855H33.2L35.696 107.889H38.608V99.9855H42.16V107.889H43.984V110.257H42.16V112.561H43.984V114.929H42.16V122.833H37.104L34.544 114.929H31.728V122.833H28.176ZM31.728 112.561H33.84L33.136 110.257H31.664L31.728 112.561ZM38.704 117.841H38.864L38.736 114.929H37.872L38.704 117.841ZM31.6 107.889H32.496L31.568 104.817H31.44L31.6 107.889ZM37.2 112.561H38.672L38.608 110.257H36.464L37.2 112.561ZM54.2005 123.153C49.5285 123.153 45.7205 119.985 45.7205 111.665C45.7205 105.233 48.0885 100.145 54.4245 100.145C59.5445 100.145 61.7525 103.505 61.7205 106.417H58.1045C57.8165 104.305 56.1845 103.409 54.3285 103.409C50.2325 103.409 49.5605 107.729 49.5605 110.385C50.6485 109.137 52.3765 107.953 54.9685 107.953C58.4565 107.953 62.2965 110.065 62.2965 115.441C62.2965 121.105 57.8805 123.153 54.2005 123.153ZM54.1685 119.825C56.2805 119.825 58.3925 118.417 58.3925 115.377C58.3925 112.369 56.2805 111.057 54.1685 111.057C52.0885 111.057 49.9765 112.369 49.9765 115.377C49.9765 118.449 52.1205 119.825 54.1685 119.825ZM73.6753 123.153C69.1633 123.153 64.7793 119.953 64.7793 111.633C64.7793 103.377 69.1633 100.145 73.6753 100.145C78.1873 100.145 82.5713 103.377 82.5713 111.633C82.5713 119.953 78.1873 123.153 73.6753 123.153ZM73.6753 119.697C77.1953 119.697 78.6353 116.081 78.6353 111.633C78.6353 107.249 77.1953 103.601 73.6753 103.601C70.1233 103.601 68.6833 107.249 68.6833 111.633C68.6833 116.081 70.1233 119.697 73.6753 119.697ZM85.0763 125.041C86.7723 124.977 87.4123 124.369 87.4123 123.057C85.4923 123.057 84.4043 121.937 84.4043 120.529C84.4043 119.121 85.4283 118.129 86.9003 118.129C88.4683 118.129 89.7803 119.249 89.7803 121.905C89.7803 124.945 88.0203 126.769 85.3963 126.769H85.0763V125.041ZM100.519 123.153C96.007 123.153 91.623 119.953 91.623 111.633C91.623 103.377 96.007 100.145 100.519 100.145C105.031 100.145 109.415 103.377 109.415 111.633C109.415 119.953 105.031 123.153 100.519 123.153ZM100.519 119.697C104.039 119.697 105.479 116.081 105.479 111.633C105.479 107.249 104.039 103.601 100.519 103.601C96.967 103.601 95.527 107.249 95.527 111.633C95.527 116.081 96.967 119.697 100.519 119.697ZM120.769 123.153C116.257 123.153 111.873 119.953 111.873 111.633C111.873 103.377 116.257 100.145 120.769 100.145C125.281 100.145 129.665 103.377 129.665 111.633C129.665 119.953 125.281 123.153 120.769 123.153ZM120.769 119.697C124.289 119.697 125.729 116.081 125.729 111.633C125.729 107.249 124.289 103.601 120.769 103.601C117.217 103.601 115.777 107.249 115.777 111.633C115.777 116.081 117.217 119.697 120.769 119.697ZM141.019 123.153C136.507 123.153 132.123 119.953 132.123 111.633C132.123 103.377 136.507 100.145 141.019 100.145C145.531 100.145 149.915 103.377 149.915 111.633C149.915 119.953 145.531 123.153 141.019 123.153ZM141.019 119.697C144.539 119.697 145.979 116.081 145.979 111.633C145.979 107.249 144.539 103.601 141.019 103.601C137.467 103.601 136.027 107.249 136.027 111.633C136.027 116.081 137.467 119.697 141.019 119.697ZM154.276 123.153C152.868 123.153 151.748 122.033 151.748 120.657C151.748 119.249 152.868 118.129 154.276 118.129C155.684 118.129 156.836 119.249 156.836 120.657C156.836 122.033 155.684 123.153 154.276 123.153ZM167.582 123.153C163.07 123.153 158.686 119.953 158.686 111.633C158.686 103.377 163.07 100.145 167.582 100.145C172.094 100.145 176.478 103.377 176.478 111.633C176.478 119.953 172.094 123.153 167.582 123.153ZM167.582 119.697C171.102 119.697 172.542 116.081 172.542 111.633C172.542 107.249 171.102 103.601 167.582 103.601C164.03 103.601 162.59 107.249 162.59 111.633C162.59 116.081 164.03 119.697 167.582 119.697ZM187.832 123.153C183.32 123.153 178.936 119.953 178.936 111.633C178.936 103.377 183.32 100.145 187.832 100.145C192.344 100.145 196.728 103.377 196.728 111.633C196.728 119.953 192.344 123.153 187.832 123.153ZM187.832 119.697C191.352 119.697 192.792 116.081 192.792 111.633C192.792 107.249 191.352 103.601 187.832 103.601C184.28 103.601 182.84 107.249 182.84 111.633C182.84 116.081 184.28 119.697 187.832 119.697Z" fill="#236F8E"/>
</g>
</svg>
